<?xml version="1.0" encoding="utf-8"?>
<!-- Generator: Adobe Illustrator 19.2.1, SVG Export Plug-In . SVG Version: 6.00 Build 0)  -->
<svg version="1.1" id="Layer_1" xmlns="http://www.w3.org/2000/svg" xmlns:xlink="http://www.w3.org/1999/xlink" x="0px" y="0px"
	 viewBox="0 0 475.7 239.7" style="enable-background:new 0 0 475.7 239.7;" xml:space="preserve">
<style type="text/css">
	.st0{opacity:5.000000e-02;}
	.st1{fill:#5D2E66;}
	.st2{opacity:0.1;}
	.st3{fill:#FFFFFF;}
	.st4{fill:#F2F2F2;}
	.st5{fill:#FEA0A2;}
	.st6{opacity:0.5;}
	.st7{fill:#7E3D8E;}
	.st8{fill:none;}
	.st9{fill:#F2F2F2;stroke:#5D2E66;stroke-width:2.4771;stroke-miterlimit:10;}
	.st10{fill:#709DC9;stroke:#5D2E66;stroke-width:2.4771;stroke-miterlimit:10;}
	.st11{fill:#FFFFFF;stroke:#5D2E66;stroke-width:2.4771;stroke-linejoin:round;stroke-miterlimit:10;}
</style>
<g class="st0">
	<circle class="st1" cx="224.2" cy="148.4" r="91.3"/>
</g>
<g class="st2">
	<circle class="st1" cx="224.7" cy="148.3" r="82.3"/>
</g>
<g>
	<path class="st3" d="M301.5,196.7H142.3c-5.2,0-9.5-4.3-9.5-9.5v-15.3H311v15.3C311,192.4,306.7,196.7,301.5,196.7z"/>
</g>
<g>
	<path class="st3" d="M197.3,222.9c8.9,0,6.9-37.1,6.9-37.1c0-1.5,1.1-2.7,2.5-2.7h31.8c1.4,0,2.5,1.2,2.5,2.7c0,0-1.2,37,6.4,37.1
		C247.3,222.9,188.4,222.9,197.3,222.9z"/>
	<path class="st1" d="M247.3,224.1h-50.9v-2.5h0.9c0.6,0,1.1-0.3,1.6-0.8c4.6-4.9,4.5-26.9,4.1-35c0-2.2,1.7-4,3.7-4h31.8
		c2.1,0,3.7,1.8,3.7,3.9c-0.3,8.4-0.1,31,4.1,35.4c0.5,0.5,0.9,0.5,1,0.5L247.3,224.1z M201.4,221.6h42.2c-2-3.2-3.2-9.8-3.7-19.9
		c-0.4-8.3-0.2-16-0.2-16.1c0-0.8-0.6-1.4-1.3-1.4h-31.8c-0.7,0-1.3,0.7-1.3,1.5C205.6,188.6,206.8,213.8,201.4,221.6z"/>
</g>
<g>
	<line class="st3" x1="184.9" y1="222.9" x2="260.3" y2="222.9"/>
	<path class="st1" d="M260.3,224.1h-75.4c-0.7,0-1.2-0.6-1.2-1.2s0.6-1.2,1.2-1.2h75.4c0.7,0,1.2,0.6,1.2,1.2S261,224.1,260.3,224.1
		z"/>
</g>
<g>
	<path class="st4" d="M301.5,196.7H142.3c-5.2,0-9.5-4.3-9.5-9.5v-15.3H311v15.3C311,192.4,306.7,196.7,301.5,196.7z"/>
</g>
<g>
	<path class="st3" d="M301.1,196.7H142.6c-5.4,0-9.8-4.4-9.8-9.8V89c0-5.4,4.4-9.8,9.8-9.8h158.5c5.4,0,9.8,4.4,9.8,9.8v97.8
		C311,192.3,306.5,196.7,301.1,196.7z"/>
	<path class="st1" d="M301.1,197.9H142.6c-6.1,0-11.1-5-11.1-11.1V89c0-6.1,5-11.1,11.1-11.1h158.5c6.1,0,11.1,5,11.1,11.1v97.8
		C312.2,193,307.2,197.9,301.1,197.9z M142.6,80.4c-4.7,0-8.6,3.9-8.6,8.6v97.8c0,4.7,3.9,8.6,8.6,8.6h158.5c4.7,0,8.6-3.9,8.6-8.6
		V89c0-4.7-3.9-8.6-8.6-8.6H142.6z"/>
</g>
<g class="st2">
	<path class="st1" d="M173.5,161.3h-27.6c-1.5,0-2.7-1.2-2.7-2.7v-41.2c0-1.5,1.2-2.7,2.7-2.7h27.6c1.5,0,2.7,1.2,2.7,2.7v41.2
		C176.2,160.1,175,161.3,173.5,161.3z"/>
</g>
<g class="st2">
	<path class="st1" d="M213.9,161.3h-27.6c-1.5,0-2.7-1.2-2.7-2.7v-41.2c0-1.5,1.2-2.7,2.7-2.7h27.6c1.5,0,2.7,1.2,2.7,2.7v41.2
		C216.6,160.1,215.4,161.3,213.9,161.3z"/>
</g>
<g class="st2">
	<path class="st1" d="M254.5,161.3h-27.6c-1.5,0-2.7-1.2-2.7-2.7v-41.2c0-1.5,1.2-2.7,2.7-2.7h27.6c1.5,0,2.7,1.2,2.7,2.7v41.2
		C257.1,160.1,255.9,161.3,254.5,161.3z"/>
</g>
<g class="st2">
	<path class="st1" d="M294.3,161.3h-27.6c-1.5,0-2.7-1.2-2.7-2.7v-41.2c0-1.5,1.2-2.7,2.7-2.7h27.6c1.5,0,2.7,1.2,2.7,2.7v41.2
		C296.9,160.1,295.7,161.3,294.3,161.3z"/>
</g>
<g>
	<path class="st1" d="M203.4,186.1"/>
</g>
<g>
	<path class="st3" d="M177,157.1h-27.6c-1.5,0-2.7-1.2-2.7-2.7v-41.2c0-1.5,1.2-2.7,2.7-2.7H177c1.5,0,2.7,1.2,2.7,2.7v41.2
		C179.6,155.9,178.4,157.1,177,157.1z"/>
	<path class="st1" d="M177,158.3h-27.6c-2.1,0-3.9-1.7-3.9-3.9v-41.2c0-2.1,1.7-3.9,3.9-3.9H177c2.1,0,3.9,1.7,3.9,3.9v41.2
		C180.9,156.6,179.1,158.3,177,158.3z M149.3,111.9c-0.8,0-1.4,0.6-1.4,1.4v41.2c0,0.8,0.6,1.4,1.4,1.4H177c0.8,0,1.4-0.6,1.4-1.4
		v-41.2c0-0.8-0.6-1.4-1.4-1.4H149.3z"/>
</g>
<g>
	<path class="st5" d="M177,157.1h-27.6c-1.5,0-2.7-1.2-2.7-2.7v-41.2c0-1.5,1.2-2.7,2.7-2.7H177c1.5,0,2.7,1.2,2.7,2.7v41.2
		C179.6,155.9,178.4,157.1,177,157.1z"/>
	<path class="st1" d="M177,158.3h-27.6c-2.1,0-3.9-1.7-3.9-3.9v-41.2c0-2.1,1.7-3.9,3.9-3.9H177c2.1,0,3.9,1.7,3.9,3.9v41.2
		C180.9,156.6,179.1,158.3,177,158.3z M149.3,111.9c-0.8,0-1.4,0.6-1.4,1.4v41.2c0,0.8,0.6,1.4,1.4,1.4H177c0.8,0,1.4-0.6,1.4-1.4
		v-41.2c0-0.8-0.6-1.4-1.4-1.4H149.3z"/>
</g>
<g>
	<path class="st3" d="M217.3,157.1h-27.6c-1.5,0-2.7-1.2-2.7-2.7v-41.2c0-1.5,1.2-2.7,2.7-2.7h27.6c1.5,0,2.7,1.2,2.7,2.7v41.2
		C219.9,155.9,218.7,157.1,217.3,157.1z"/>
	<path class="st1" d="M217.3,158.3h-27.6c-2.1,0-3.9-1.7-3.9-3.9v-41.2c0-2.1,1.7-3.9,3.9-3.9h27.6c2.1,0,3.9,1.7,3.9,3.9v41.2
		C221.2,156.6,219.4,158.3,217.3,158.3z M189.6,111.9c-0.8,0-1.4,0.6-1.4,1.4v41.2c0,0.8,0.6,1.4,1.4,1.4h27.6
		c0.8,0,1.4-0.6,1.4-1.4v-41.2c0-0.8-0.6-1.4-1.4-1.4H189.6z"/>
</g>
<g>
	<path class="st4" d="M301.5,196.7H142.3c-5.2,0-9.5-4.3-9.5-9.5v-12.6H311v12.6C311,192.4,306.7,196.7,301.5,196.7z"/>
	<path class="st1" d="M301.5,197.9H142.3c-5.9,0-10.7-4.8-10.7-10.7v-13.9h180.7v13.9C312.2,193.1,307.4,197.9,301.5,197.9z
		 M134,175.8v11.4c0,4.5,3.7,8.2,8.2,8.2h159.2c4.5,0,8.2-3.7,8.2-8.2v-11.4H134z"/>
</g>
<g>
	<path class="st5" d="M217.3,157.1h-27.6c-1.5,0-2.7-1.2-2.7-2.7v-41.2c0-1.5,1.2-2.7,2.7-2.7h27.6c1.5,0,2.7,1.2,2.7,2.7v41.2
		C219.9,155.9,218.7,157.1,217.3,157.1z"/>
	<path class="st1" d="M217.3,158.3h-27.6c-2.1,0-3.9-1.7-3.9-3.9v-41.2c0-2.1,1.7-3.9,3.9-3.9h27.6c2.1,0,3.9,1.7,3.9,3.9v41.2
		C221.2,156.6,219.4,158.3,217.3,158.3z M189.6,111.9c-0.8,0-1.4,0.6-1.4,1.4v41.2c0,0.8,0.6,1.4,1.4,1.4h27.6
		c0.8,0,1.4-0.6,1.4-1.4v-41.2c0-0.8-0.6-1.4-1.4-1.4H189.6z"/>
</g>
<g>
	<path class="st3" d="M258,157.1h-27.6c-1.5,0-2.7-1.2-2.7-2.7v-41.2c0-1.5,1.2-2.7,2.7-2.7H258c1.5,0,2.7,1.2,2.7,2.7v41.2
		C260.6,155.9,259.4,157.1,258,157.1z"/>
	<path class="st1" d="M258,158.3h-27.6c-2.1,0-3.9-1.7-3.9-3.9v-41.2c0-2.1,1.7-3.9,3.9-3.9H258c2.1,0,3.9,1.7,3.9,3.9v41.2
		C261.9,156.6,260.1,158.3,258,158.3z M230.3,111.9c-0.8,0-1.4,0.6-1.4,1.4v41.2c0,0.8,0.6,1.4,1.4,1.4H258c0.8,0,1.4-0.6,1.4-1.4
		v-41.2c0-0.8-0.6-1.4-1.4-1.4H230.3z"/>
</g>
<g>
	<path class="st5" d="M258,157.1h-27.6c-1.5,0-2.7-1.2-2.7-2.7v-41.2c0-1.5,1.2-2.7,2.7-2.7H258c1.5,0,2.7,1.2,2.7,2.7v41.2
		C260.6,155.9,259.4,157.1,258,157.1z"/>
	<path class="st1" d="M258,158.3h-27.6c-2.1,0-3.9-1.7-3.9-3.9v-41.2c0-2.1,1.7-3.9,3.9-3.9H258c2.1,0,3.9,1.7,3.9,3.9v41.2
		C261.9,156.6,260.1,158.3,258,158.3z M230.3,111.9c-0.8,0-1.4,0.6-1.4,1.4v41.2c0,0.8,0.6,1.4,1.4,1.4H258c0.8,0,1.4-0.6,1.4-1.4
		v-41.2c0-0.8-0.6-1.4-1.4-1.4H230.3z"/>
</g>
<g class="st2">
	<circle class="st1" cx="222.6" cy="185.7" r="5.9"/>
</g>
<g>
	<path class="st1" d="M222.6,192.7c-3.9,0-7.1-3.2-7.1-7.1s3.2-7.1,7.1-7.1s7.1,3.2,7.1,7.1S226.5,192.7,222.6,192.7z M222.6,180.9
		c-2.6,0-4.6,2.1-4.6,4.6s2.1,4.6,4.6,4.6s4.6-2.1,4.6-4.6S225.2,180.9,222.6,180.9z"/>
</g>
<g class="st6">
	<line class="st7" x1="298.3" y1="92.9" x2="280.6" y2="92.9"/>
	<path class="st1" d="M298.3,94.1h-17.8c-0.7,0-1.2-0.6-1.2-1.2s0.6-1.2,1.2-1.2h17.8c0.7,0,1.2,0.6,1.2,1.2S299,94.1,298.3,94.1z"
		/>
</g>
<g>
	<path class="st4" d="M177.9,157.1h-29.6c-0.9,0-1.7-0.8-1.7-1.7v-22.9c0-0.9,0.8-1.7,1.7-1.7h29.6c0.9,0,1.7,0.8,1.7,1.7v22.9
		C179.6,156.3,178.9,157.1,177.9,157.1z"/>
	<path class="st1" d="M177.9,158.3h-29.6c-1.6,0-2.9-1.3-2.9-2.9v-22.9c0-1.6,1.3-2.9,2.9-2.9h29.6c1.6,0,2.9,1.3,2.9,2.9v22.9
		C180.9,157,179.6,158.3,177.9,158.3z M148.4,132c-0.3,0-0.5,0.2-0.5,0.5v22.9c0,0.3,0.2,0.5,0.5,0.5h29.6c0.3,0,0.5-0.2,0.5-0.5
		v-22.9c0-0.3-0.2-0.5-0.5-0.5H148.4z"/>
</g>
<g>
	<path class="st4" d="M218.4,157.1h-29.6c-0.9,0-1.7-0.8-1.7-1.7v-22.9c0-0.9,0.8-1.7,1.7-1.7h29.6c0.9,0,1.7,0.8,1.7,1.7v22.9
		C220.1,156.3,219.4,157.1,218.4,157.1z"/>
	<path class="st1" d="M218.4,158.3h-29.6c-1.6,0-2.9-1.3-2.9-2.9v-22.9c0-1.6,1.3-2.9,2.9-2.9h29.6c1.6,0,2.9,1.3,2.9,2.9v22.9
		C221.4,157,220,158.3,218.4,158.3z M188.9,132c-0.3,0-0.5,0.2-0.5,0.5v22.9c0,0.3,0.2,0.5,0.5,0.5h29.6c0.3,0,0.5-0.2,0.5-0.5
		v-22.9c0-0.3-0.2-0.5-0.5-0.5H188.9z"/>
</g>
<g>
	<path class="st4" d="M258.6,157.1h-28.9c-0.9,0-1.7-0.8-1.7-1.7v-23c0-0.9,0.8-1.7,1.7-1.7h28.9c0.9,0,1.7,0.8,1.7,1.7v23
		C260.3,156.3,259.5,157.1,258.6,157.1z"/>
	<path class="st1" d="M258.6,158.3h-28.9c-1.6,0-2.9-1.3-2.9-2.9v-23c0-1.6,1.3-2.9,2.9-2.9h28.9c1.6,0,2.9,1.3,2.9,2.9v23
		C261.5,157,260.2,158.3,258.6,158.3z M229.7,132c-0.2,0-0.4,0.2-0.4,0.4v23c0,0.2,0.2,0.4,0.4,0.4h28.9c0.2,0,0.4-0.2,0.4-0.4v-23
		c0-0.2-0.2-0.4-0.4-0.4H229.7z"/>
</g>
<g class="st6">
	<line class="st7" x1="271" y1="92.9" x2="253.3" y2="92.9"/>
	<path class="st1" d="M271,94.1h-17.8c-0.7,0-1.2-0.6-1.2-1.2s0.6-1.2,1.2-1.2H271c0.7,0,1.2,0.6,1.2,1.2S271.7,94.1,271,94.1z"/>
</g>
<g class="st6">
	<line class="st7" x1="253" y1="139.5" x2="235.2" y2="139.5"/>
	<path class="st1" d="M253,140.7h-17.8c-0.7,0-1.2-0.6-1.2-1.2s0.6-1.2,1.2-1.2H253c0.7,0,1.2,0.6,1.2,1.2S253.7,140.7,253,140.7z"
		/>
</g>
<g class="st6">
	<line class="st7" x1="253" y1="147.1" x2="235.2" y2="147.1"/>
	<path class="st1" d="M253,148.4h-17.8c-0.7,0-1.2-0.6-1.2-1.2s0.6-1.2,1.2-1.2H253c0.7,0,1.2,0.6,1.2,1.2S253.7,148.4,253,148.4z"
		/>
</g>
<g class="st6">
	<line class="st7" x1="212.3" y1="139.5" x2="194.6" y2="139.5"/>
	<path class="st1" d="M212.3,140.7h-17.8c-0.7,0-1.2-0.6-1.2-1.2s0.6-1.2,1.2-1.2h17.8c0.7,0,1.2,0.6,1.2,1.2S213,140.7,212.3,140.7
		z"/>
</g>
<g class="st6">
	<line class="st7" x1="212.3" y1="147.1" x2="194.6" y2="147.1"/>
	<path class="st1" d="M212.3,148.4h-17.8c-0.7,0-1.2-0.6-1.2-1.2s0.6-1.2,1.2-1.2h17.8c0.7,0,1.2,0.6,1.2,1.2S213,148.4,212.3,148.4
		z"/>
</g>
<g class="st6">
	<line class="st7" x1="172" y1="139.5" x2="154.3" y2="139.5"/>
	<path class="st1" d="M172,140.7h-17.8c-0.7,0-1.2-0.6-1.2-1.2s0.6-1.2,1.2-1.2H172c0.7,0,1.2,0.6,1.2,1.2S172.7,140.7,172,140.7z"
		/>
</g>
<g class="st6">
	<line class="st7" x1="172" y1="147.1" x2="154.3" y2="147.1"/>
	<path class="st1" d="M172,148.4h-17.8c-0.7,0-1.2-0.6-1.2-1.2s0.6-1.2,1.2-1.2H172c0.7,0,1.2,0.6,1.2,1.2S172.7,148.4,172,148.4z"
		/>
</g>
<g>
	<line class="st3" x1="146.7" y1="130.7" x2="179.6" y2="130.7"/>
	<rect x="146.7" y="129.5" class="st1" width="33" height="2.5"/>
</g>
<g>
	<line class="st3" x1="186.4" y1="130.7" x2="219.4" y2="130.7"/>
	<rect x="186.4" y="129.5" class="st1" width="33" height="2.5"/>
</g>
<g>
	<line class="st3" x1="228.4" y1="130.7" x2="261.3" y2="130.7"/>
	<rect x="228.4" y="129.5" class="st1" width="33" height="2.5"/>
</g>
<g>
	<path class="st3" d="M297.4,157.1h-27.6c-1.5,0-2.7-1.2-2.7-2.7v-41.2c0-1.5,1.2-2.7,2.7-2.7h27.6c1.5,0,2.7,1.2,2.7,2.7v41.2
		C300.1,155.9,298.9,157.1,297.4,157.1z"/>
	<path class="st1" d="M297.4,158.3h-27.6c-2.1,0-3.9-1.7-3.9-3.9v-41.2c0-2.1,1.7-3.9,3.9-3.9h27.6c2.1,0,3.9,1.7,3.9,3.9v41.2
		C301.3,156.6,299.6,158.3,297.4,158.3z M269.8,111.9c-0.8,0-1.4,0.6-1.4,1.4v41.2c0,0.8,0.6,1.4,1.4,1.4h27.6
		c0.8,0,1.4-0.6,1.4-1.4v-41.2c0-0.8-0.6-1.4-1.4-1.4H269.8z"/>
</g>
<g>
	<path class="st5" d="M297.4,157.1h-27.6c-1.5,0-2.7-1.2-2.7-2.7v-41.2c0-1.5,1.2-2.7,2.7-2.7h27.6c1.5,0,2.7,1.2,2.7,2.7v41.2
		C300.1,155.9,298.9,157.1,297.4,157.1z"/>
	<path class="st1" d="M297.4,158.3h-27.6c-2.1,0-3.9-1.7-3.9-3.9v-41.2c0-2.1,1.7-3.9,3.9-3.9h27.6c2.1,0,3.9,1.7,3.9,3.9v41.2
		C301.3,156.6,299.6,158.3,297.4,158.3z M269.8,111.9c-0.8,0-1.4,0.6-1.4,1.4v41.2c0,0.8,0.6,1.4,1.4,1.4h27.6
		c0.8,0,1.4-0.6,1.4-1.4v-41.2c0-0.8-0.6-1.4-1.4-1.4H269.8z"/>
</g>
<g>
	<path class="st4" d="M298.1,157.1h-28.9c-0.9,0-1.7-0.8-1.7-1.7v-23c0-0.9,0.8-1.7,1.7-1.7h28.9c0.9,0,1.7,0.8,1.7,1.7v23
		C299.8,156.3,299,157.1,298.1,157.1z"/>
	<path class="st1" d="M298.1,158.3h-28.9c-1.6,0-2.9-1.3-2.9-2.9v-23c0-1.6,1.3-2.9,2.9-2.9h28.9c1.6,0,2.9,1.3,2.9,2.9v23
		C301,157,299.7,158.3,298.1,158.3z M269.2,132c-0.2,0-0.4,0.2-0.4,0.4v23c0,0.2,0.2,0.4,0.4,0.4h28.9c0.2,0,0.4-0.2,0.4-0.4v-23
		c0-0.2-0.2-0.4-0.4-0.4H269.2z"/>
</g>
<g class="st6">
	<line class="st7" x1="292.5" y1="139.5" x2="274.7" y2="139.5"/>
	<path class="st1" d="M292.5,140.7h-17.8c-0.7,0-1.2-0.6-1.2-1.2s0.6-1.2,1.2-1.2h17.8c0.7,0,1.2,0.6,1.2,1.2
		S293.2,140.7,292.5,140.7z"/>
</g>
<g class="st6">
	<line class="st7" x1="292.5" y1="147.1" x2="274.7" y2="147.1"/>
	<path class="st1" d="M292.5,148.4h-17.8c-0.7,0-1.2-0.6-1.2-1.2s0.6-1.2,1.2-1.2h17.8c0.7,0,1.2,0.6,1.2,1.2
		S293.2,148.4,292.5,148.4z"/>
</g>
<g>
	<line class="st3" x1="267.9" y1="130.7" x2="300.8" y2="130.7"/>
	<rect x="267.9" y="129.5" class="st1" width="33" height="2.5"/>
</g>
<g class="st2">
	<path class="st8" d="M158.9,93.7c-0.7-2.4-2.9-4.2-5.5-4.2c-3.1,0-5.7,2.6-5.7,5.8l0,0c-2,0-3.6,1.6-3.6,3.6c0,2,1.6,3.6,3.6,3.6
		H158c2.5,0,4.5-2,4.5-4.5C162.4,95.9,160.9,94.1,158.9,93.7z"/>
</g>
<g class="st2">
	<path class="st1" d="M159.8,93.6c-0.7-2.4-2.9-4.2-5.5-4.2c-3.1,0-5.7,2.6-5.7,5.8c0,0,0,0,0,0c-2,0-3.6,1.6-3.6,3.6
		s1.6,3.6,3.6,3.6h10.3c2.5,0,4.5-2,4.5-4.5C163.3,95.8,161.8,94,159.8,93.6z"/>
</g>
<g>
	<path class="st1" d="M158.8,103.6h-10.3c-2.7,0-4.8-2.2-4.8-4.8c0-2.3,1.6-4.2,3.7-4.7c0.5-3.4,3.4-6,6.9-6c2.8,0,5.4,1.8,6.5,4.5
		c2.2,0.8,3.8,3,3.8,5.4C164.5,101.1,162,103.6,158.8,103.6z M148.5,96.4c-1.3,0-2.3,1.1-2.3,2.4c0,1.3,1.1,2.4,2.4,2.4h10.3
		c1.8,0,3.2-1.4,3.2-3.2c0-1.5-1.1-2.8-2.5-3.1l-0.7-0.2l-0.2-0.7c-0.6-2-2.3-3.3-4.3-3.3c-2.5,0-4.5,2.1-4.5,4.6l0,1.2H148.5z"/>
</g>
<g class="st6">
	<path class="st7" d="M465.2,19.4c-1-1.1-2.6-1.2-3.7-0.2l-7.7,6.8c-1.1,1-1.2,2.6-0.2,3.7c1,1.1,2.6,1.2,3.7,0.2l7.7-6.8
		C466.1,22.2,466.2,20.5,465.2,19.4z"/>
</g>
<g class="st6">
	<path class="st7" d="M432.8,7.3c0.1-1.5-1-2.7-2.5-2.8c-1.5-0.1-2.7,1-2.8,2.5l-0.6,10.2c-0.1,1.5,1,2.7,2.5,2.8
		c1.5,0.1,2.7-1,2.8-2.5L432.8,7.3z"/>
</g>
<g class="st6">
	<path class="st7" d="M473.2,53.2L463,52.5c-1.5-0.1-2.7,1-2.8,2.5c-0.1,1.5,1,2.7,2.5,2.8l10.2,0.6c1.5,0.1,2.7-1,2.8-2.5
		C475.8,54.5,474.6,53.2,473.2,53.2z"/>
</g>
<g>
	<path class="st3" d="M414.8,123.2l25.6-74.8c1.5-4.1,0.6-9.5-3.5-11l-73.7-26.4c-4.1-1.5-8.6,0.7-10,4.7l-26.3,73.6
		c-1.5,4.1,0.7,8.6,4.7,10l22.3,7.9c0,0-2,12.3-12.1,17.7c-10.1,5.4,19.8,12.6,36.1-9l28,10C409.8,127.5,413.3,127.3,414.8,123.2z"
		/>
	<path class="st1" d="M349,131.9c-2.5,0-4.5-0.3-6.1-0.7c-3.5-1-4.4-2.5-4.5-3.6c-0.1-1,0.3-2.4,2.7-3.6
		c7.8-4.2,10.5-12.8,11.3-15.8l-21.3-7.6c-2.3-0.8-4.1-2.5-5.2-4.7c-1-2.2-1.2-4.7-0.3-6.9l26.3-73.6c1.7-4.7,6.9-7.2,11.6-5.5
		l73.7,26.4c4.8,1.7,5.9,7.8,4.2,12.5l-25.6,74.8c0,0,0,0,0,0c-0.8,2.3-2.3,3.8-4.4,4.3c-1.7,0.4-3.7,0.2-6.2-0.7l-27.1-9.7
		c-6.1,7.7-13.4,11.2-18.6,12.8C355.7,131.4,352.1,131.9,349,131.9z M360.5,11.8c-2.7,0-5.3,1.7-6.2,4.4l-26.3,73.6
		c-0.6,1.7-0.5,3.5,0.3,5.1c0.8,1.6,2.1,2.8,3.7,3.4l22.3,7.9c0.6,0.2,0.9,0.8,0.8,1.4c-0.1,0.5-2.3,13-12.8,18.6
		c-1.2,0.6-1.4,1.1-1.4,1.2c0,0.2,0.5,0.9,2.7,1.5c6.2,1.7,22.5,0.6,33.2-13.5c0.3-0.4,0.9-0.6,1.4-0.4l28,10c2,0.7,3.6,0.9,4.8,0.6
		c1.2-0.3,2.1-1.1,2.6-2.7L439.1,48c1.3-3.6,0.5-8.2-2.7-9.4l-73.7-26.4C362,12,361.2,11.8,360.5,11.8z"/>
</g>
<g>
	<polygon class="st3" points="408,121.7 405.7,142 411.6,139.7 414,145.6 419.8,143.3 417.4,137.4 423.7,134.9 	"/>
	<path class="st1" d="M414,146.8c-0.2,0-0.3,0-0.5-0.1c-0.3-0.1-0.5-0.4-0.7-0.7l-1.9-4.7l-4.8,1.9c-0.4,0.2-0.9,0.1-1.2-0.2
		c-0.3-0.3-0.5-0.7-0.5-1.1l2.3-20.4c0.1-0.5,0.3-0.8,0.8-1c0.4-0.2,0.9-0.1,1.3,0.2l15.7,13.2c0.3,0.3,0.5,0.7,0.4,1.1
		s-0.4,0.8-0.8,1l-5.1,2l1.9,4.7c0.1,0.3,0.1,0.6,0,0.9c-0.1,0.3-0.4,0.5-0.7,0.7l-5.8,2.3C414.3,146.8,414.1,146.8,414,146.8z
		 M411.6,138.5c0.2,0,0.3,0,0.5,0.1c0.3,0.1,0.5,0.4,0.7,0.7l1.9,4.7l3.5-1.4l-1.9-4.7c-0.1-0.3-0.1-0.6,0-0.9
		c0.1-0.3,0.4-0.5,0.7-0.7l4.3-1.7L409,124.1l-1.8,16l4-1.6C411.3,138.5,411.5,138.5,411.6,138.5z"/>
</g>
<g class="st2">
	<polygon class="st1" points="203.6,204.5 240.7,204.5 240.7,196.7 204.4,196.7 	"/>
</g>
<g>
	<path class="st9" d="M369.5,88.7c0.4-1.1,0.9-2,1.4-2.6c0.6-0.7,1.2-1.1,2-1.4c0.7-0.3,1.5-0.4,2.3-0.3s1.7,0.2,2.6,0.5
		c0.8,0.3,1.6,0.7,2.2,1.1c0.7,0.5,1.2,1,1.6,1.7c0.4,0.7,0.6,1.4,0.7,2.3c0.1,0.9-0.1,1.9-0.5,3c-0.4,1.1-0.8,1.9-1.4,2.6
		c-0.6,0.6-1.2,1.1-2,1.4c-0.7,0.3-1.5,0.4-2.3,0.4c-0.8,0-1.6-0.2-2.5-0.5c-0.9-0.3-1.7-0.7-2.3-1.2c-0.7-0.5-1.2-1.1-1.6-1.8
		c-0.4-0.7-0.6-1.5-0.7-2.3C369,90.7,369.2,89.7,369.5,88.7z M374.8,77l0.9-2.6c0.4-1.2,0.9-2.3,1.5-3.1c0.6-0.9,1.3-1.7,2.1-2.4
		c0.8-0.7,1.8-1.3,2.8-1.9c1.1-0.6,2.4-1.1,3.8-1.6c1.3-0.4,2.3-0.8,3.2-1.2c0.9-0.4,1.7-0.8,2.3-1.3c0.6-0.5,1.2-1,1.6-1.6
		c0.4-0.6,0.8-1.3,1.1-2.2c0.5-1.3,0.4-2.6-0.2-3.8c-0.6-1.2-1.8-2.1-3.7-2.7c-1.6-0.6-3.5-0.8-5.6-0.8c-2.1,0-4.3,0.2-6.7,0.5
		l-0.9-9.1c1.2-0.2,2.5-0.4,3.9-0.5c1.4-0.1,2.8-0.2,4.2-0.1c1.4,0,2.8,0.1,4.2,0.4c1.4,0.2,2.7,0.5,4,1c2.4,0.8,4.5,1.9,6.2,3.1
		c1.7,1.2,3.1,2.6,4.1,4.2c1,1.6,1.5,3.3,1.7,5.1s-0.1,3.8-0.8,5.8c-0.5,1.5-1.1,2.8-1.9,3.8c-0.7,1.1-1.6,2-2.6,2.8
		c-1,0.8-2.1,1.5-3.4,2.1c-1.3,0.6-2.8,1.2-4.4,1.8c-1.3,0.4-2.3,0.8-3.1,1.2s-1.5,0.7-2,1.1c-0.5,0.4-1,0.9-1.3,1.4
		c-0.3,0.5-0.6,1.1-0.9,1.9l-0.7,2.1L374.8,77z"/>
</g>
<g>
	<path class="st10" d="M382.1,87.8c-0.4-0.7-0.9-1.2-1.6-1.7c-0.7-0.5-1.4-0.8-2.2-1.1c-0.9-0.3-1.7-0.5-2.6-0.5
		c-0.8,0-1.6,0.1-2.3,0.3s-1.4,0.7-2,1.4c-0.6,0.7-1.1,1.5-1.4,2.6c-0.4,1.1-0.5,2-0.5,2.9c0.1,0.9,0.3,1.6,0.7,2.3s0.9,1.3,1.6,1.8
		c0.7,0.5,1.5,0.9,2.3,1.2c0.8,0.3,1.6,0.4,2.5,0.5c0.8,0,1.6-0.1,2.3-0.4c0.7-0.3,1.4-0.8,2-1.4c0.6-0.6,1.1-1.5,1.4-2.6
		c0.4-1.1,0.5-2.1,0.5-3C382.7,89.3,382.5,88.5,382.1,87.8z"/>
	<path class="st10" d="M405.6,56.5c-0.2-1.8-0.8-3.5-1.7-5.1c-1-1.6-2.3-3-4.1-4.2c-1.7-1.2-3.8-2.3-6.2-3.1c-1.3-0.4-2.6-0.8-4-1
		c-1.4-0.2-2.8-0.3-4.2-0.4c-1.4,0-2.8,0-4.2,0.1c-1.4,0.1-2.7,0.3-3.9,0.5l0.9,9.1c2.3-0.3,4.6-0.5,6.7-0.5c2.1,0,4,0.2,5.6,0.8
		c1.9,0.6,3.1,1.5,3.7,2.7c0.6,1.2,0.7,2.4,0.2,3.8c-0.3,0.9-0.7,1.6-1.1,2.2c-0.4,0.6-0.9,1.1-1.6,1.6c-0.6,0.5-1.4,0.9-2.3,1.3
		c-0.9,0.4-2,0.8-3.2,1.2c-1.4,0.5-2.7,1-3.8,1.6c-1.1,0.6-2,1.2-2.8,1.9c-0.8,0.7-1.5,1.5-2.1,2.4c-0.6,0.9-1.1,1.9-1.5,3.1
		l-0.9,2.6l9.3,3.2l0.7-2.1c0.3-0.8,0.5-1.4,0.9-1.9c0.3-0.5,0.7-1,1.3-1.4c0.5-0.4,1.2-0.8,2-1.1c0.8-0.4,1.9-0.8,3.1-1.2
		c1.7-0.6,3.1-1.2,4.4-1.8c1.3-0.6,2.4-1.3,3.4-2.1c1-0.8,1.9-1.7,2.6-2.8c0.7-1.1,1.3-2.3,1.9-3.8
		C405.5,60.2,405.8,58.3,405.6,56.5z"/>
</g>
<g class="st6">
	<path class="st7" d="M7.7,11c0.7-0.8,1.9-0.9,2.7-0.2l5.6,5c0.8,0.7,0.9,1.9,0.2,2.7c-0.7,0.8-1.9,0.9-2.7,0.2l-5.6-5
		C7.1,13.1,7,11.8,7.7,11z"/>
</g>
<g class="st6">
	<path class="st7" d="M31.6,2.1c-0.1-1.1,0.7-2,1.8-2.1c1.1-0.1,2,0.7,2.1,1.8l0.5,7.5c0.1,1.1-0.7,2-1.8,2.1
		c-1.1,0.1-2-0.7-2.1-1.8L31.6,2.1z"/>
</g>
<g class="st6">
	<path class="st7" d="M1.8,35.8l7.5-0.5c1.1-0.1,2,0.7,2.1,1.8c0.1,1.1-0.7,2-1.8,2.1l-7.5,0.5C1,39.8,0.1,39,0,37.9
		C-0.1,36.8,0.8,35.9,1.8,35.8z"/>
</g>
<g>
	<path class="st3" d="M44.8,87.3L26,32.3c-1.1-3-0.4-7,2.5-8.1L82.8,4.9c3-1.1,6.3,0.5,7.4,3.5l19.4,54.1c1.1,3-0.5,6.3-3.5,7.4
		l-16.4,5.8c0,0,1.5,9,8.9,13c7.4,4-14.5,9.3-26.5-6.6l-20.6,7.4C48.4,90.5,45.9,90.3,44.8,87.3z"/>
	<path class="st1" d="M93.1,94c-2.3,0-5-0.3-7.9-1.2c-3.8-1.2-9.2-3.7-13.7-9.3l-19.7,7.1c-1.9,0.7-3.4,0.8-4.7,0.5
		c-1.1-0.3-2.6-1.1-3.5-3.3l0,0l-18.8-55c-1.3-3.6-0.4-8.3,3.3-9.6L82.3,3.7C84.1,3.1,86,3.2,87.7,4c1.7,0.8,3,2.2,3.6,4L110.7,62
		c1.3,3.6-0.6,7.7-4.2,9l-15.4,5.5c0.6,2.4,2.7,8.2,8.1,11.1c1.9,1,2.2,2.2,2.1,3c-0.1,0.9-0.8,2.2-3.5,2.9C96.5,93.8,95,94,93.1,94
		z M72.4,80.5l0.5,0.7c6.3,8.4,15.7,10.7,21.8,10.2c2.4-0.2,3.7-0.8,4-1.2c-0.1-0.1-0.3-0.3-0.8-0.6c-7.9-4.2-9.5-13.5-9.6-13.9
		l-0.2-1l17.4-6.2c2.4-0.8,3.6-3.4,2.7-5.8L89,8.8c-0.4-1.1-1.2-2-2.3-2.6S84.3,5.6,83.2,6L29,25.4c-2.2,0.8-2.7,4-1.8,6.5l18.8,55
		c0.5,1.4,1.5,2.6,5,1.3L72.4,80.5z"/>
</g>
<g>
	<path class="st11" d="M65.6,56.1l-0.7-1.9c-0.3-0.9-0.5-1.7-0.6-2.5c-0.1-0.8-0.1-1.6,0.1-2.3c0.1-0.8,0.4-1.6,0.7-2.4
		s0.8-1.7,1.4-2.7c0.5-0.8,0.9-1.6,1.3-2.2c0.3-0.6,0.6-1.2,0.7-1.8c0.1-0.6,0.2-1.1,0.2-1.6c0-0.5-0.2-1.1-0.4-1.8
		c-0.4-1-1-1.7-1.9-2.1c-0.9-0.4-2-0.3-3.4,0.2c-1.2,0.4-2.4,1.2-3.6,2.2c-1.2,1-2.4,2.1-3.6,3.4l-4.7-4.7c0.6-0.7,1.2-1.4,2-2.1
		c0.7-0.7,1.5-1.4,2.3-2c0.8-0.6,1.7-1.2,2.6-1.8c0.9-0.5,1.8-1,2.7-1.3c1.8-0.6,3.4-1,5-1.1c1.6-0.1,3,0.1,4.3,0.5
		c1.3,0.4,2.4,1.1,3.3,2.1c1,1,1.7,2.2,2.2,3.7c0.4,1.1,0.6,2.1,0.7,3c0.1,0.9,0,1.9-0.2,2.8c-0.2,0.9-0.5,1.8-1,2.8
		c-0.5,0.9-1,2-1.7,3.1c-0.5,0.8-0.9,1.5-1.2,2.1c-0.3,0.6-0.5,1.1-0.6,1.6c-0.1,0.5-0.1,0.9-0.1,1.4c0.1,0.4,0.2,0.9,0.4,1.5
		l0.6,1.5L65.6,56.1z M68,65.3c-0.3-0.8-0.4-1.5-0.4-2.2c0-0.6,0.2-1.2,0.5-1.7c0.3-0.5,0.7-0.9,1.2-1.3c0.5-0.4,1.1-0.7,1.7-0.9
		c0.6-0.2,1.2-0.4,1.8-0.4c0.6,0,1.2,0,1.7,0.2c0.5,0.2,1,0.5,1.5,1c0.4,0.5,0.8,1.1,1.1,1.9c0.3,0.8,0.4,1.5,0.4,2.1
		c0,0.6-0.2,1.2-0.5,1.7c-0.3,0.5-0.7,1-1.1,1.3c-0.5,0.4-1,0.7-1.6,0.9c-0.6,0.2-1.3,0.4-1.9,0.4c-0.6,0-1.2,0-1.7-0.2
		c-0.5-0.2-1-0.5-1.5-1C68.7,66.7,68.3,66,68,65.3z"/>
</g>
<g>
	<path class="st10" d="M77.4,61.9c-0.3-0.8-0.7-1.4-1.1-1.9c-0.4-0.5-0.9-0.8-1.5-1c-0.5-0.2-1.1-0.3-1.7-0.2
		c-0.6,0-1.2,0.2-1.8,0.4c-0.6,0.2-1.2,0.5-1.7,0.9c-0.5,0.4-0.9,0.8-1.2,1.3c-0.3,0.5-0.4,1.1-0.5,1.7s0.1,1.4,0.4,2.2
		c0.3,0.8,0.6,1.4,1.1,1.9c0.4,0.5,0.9,0.8,1.5,1c0.5,0.2,1.1,0.3,1.7,0.2c0.6,0,1.2-0.2,1.9-0.4c0.6-0.2,1.1-0.5,1.6-0.9
		c0.5-0.4,0.9-0.8,1.1-1.3c0.3-0.5,0.4-1.1,0.5-1.7C77.8,63.4,77.7,62.6,77.4,61.9z"/>
	<path class="st10" d="M72.1,52c-0.2-0.5-0.3-1-0.4-1.5c-0.1-0.4,0-0.9,0.1-1.4c0.1-0.5,0.3-1,0.6-1.6c0.3-0.6,0.7-1.3,1.2-2.1
		c0.7-1.1,1.2-2.1,1.7-3.1c0.5-0.9,0.8-1.9,1-2.8c0.2-0.9,0.3-1.8,0.2-2.8c-0.1-0.9-0.3-2-0.7-3c-0.5-1.5-1.3-2.7-2.2-3.7
		c-1-1-2.1-1.7-3.3-2.1c-1.3-0.4-2.7-0.6-4.3-0.5c-1.6,0.1-3.2,0.5-5,1.1c-0.9,0.3-1.8,0.8-2.7,1.3c-0.9,0.5-1.8,1.1-2.6,1.8
		c-0.8,0.6-1.6,1.3-2.3,2c-0.7,0.7-1.4,1.4-2,2.1l4.7,4.7c1.2-1.3,2.4-2.4,3.6-3.4c1.2-1,2.4-1.7,3.6-2.2c1.4-0.5,2.5-0.6,3.4-0.2
		c0.9,0.4,1.5,1.1,1.9,2.1c0.2,0.6,0.4,1.2,0.4,1.8c0,0.5,0,1.1-0.2,1.6c-0.1,0.6-0.4,1.1-0.7,1.8c-0.3,0.6-0.8,1.4-1.3,2.2
		c-0.6,1-1.1,1.9-1.4,2.7c-0.4,0.8-0.6,1.6-0.7,2.4c-0.1,0.8-0.2,1.6-0.1,2.3c0.1,0.8,0.3,1.6,0.6,2.5l0.7,1.9l6.8-2.5L72.1,52z"/>
</g>
</svg>
