<svg id="Layer_1" data-name="Layer 1" xmlns="http://www.w3.org/2000/svg" viewBox="0 0 1280 265"><defs><style>.cls-1,.cls-4{fill:#f2f2f2;}.cls-2{opacity:0.6;}.cls-10,.cls-12,.cls-14,.cls-3,.cls-7,.cls-8,.cls-9{fill:none;}.cls-10,.cls-12,.cls-14,.cls-15,.cls-3,.cls-4,.cls-5,.cls-6,.cls-7,.cls-8,.cls-9{stroke:#d8d8d8;}.cls-10,.cls-14,.cls-15,.cls-3,.cls-5,.cls-7,.cls-8,.cls-9{stroke-linecap:round;stroke-linejoin:round;}.cls-3,.cls-5{stroke-width:1.08px;}.cls-12,.cls-4,.cls-6{stroke-miterlimit:10;}.cls-4,.cls-6{stroke-width:0.6px;}.cls-15,.cls-5{fill:#404040;}.cls-6{fill:#daccdd;}.cls-7{stroke-width:1.21px;}.cls-8{stroke-width:1.23px;}.cls-9{stroke-width:1.14px;}.cls-10{stroke-width:1.26px;}.cls-11{opacity:0.8;}.cls-12{stroke-width:1px;}.cls-13{opacity:0.5;}.cls-14,.cls-15{stroke-width:2px;}</style></defs><title>Blog cover</title><rect class="cls-1" width="1280" height="265"/><g class="cls-2"><path class="cls-3" d="M375.71,64.38s-4.56,5.14-10.18,5.14-10.18-5.14-10.18-5.14S359.91,60,365.54,60,375.71,64.38,375.71,64.38Z"/><circle class="cls-3" cx="365.54" cy="63.4" r="3.05"/><path class="cls-3" d="M606.39,55.74a12.91,12.91,0,0,0,4.72,1L607.49,51A12.91,12.91,0,0,0,606.39,55.74Z"/><path class="cls-3" d="M612.66,45a13.24,13.24,0,0,0-5.17,6l3.62,5.73a13.24,13.24,0,0,0,7.66-2.08,13.78,13.78,0,0,0,5.42-6.42l-3.39-5.37A13.78,13.78,0,0,0,612.66,45Zm6.75,4.54-1.06-1.68-2.78,1.75,1.06,1.68-1.06-1.68L613,51.29,614,53,613,51.29l-1.54,1,1.54-1-1.06-1.68L613,51.29l2.62-1.65L614.51,48l1.06,1.68,2.78-1.75-1.06-1.68,1.06,1.68,1.65-1-1.65,1Z"/><path class="cls-3" d="M620.79,42.9l3.39,5.37a13.66,13.66,0,0,0,1.08-4.43A13.66,13.66,0,0,0,620.79,42.9Z"/><path class="cls-3" d="M1141.26,163.57a12.91,12.91,0,0,0,4.72,1l-3.62-5.73A12.91,12.91,0,0,0,1141.26,163.57Z"/><path class="cls-3" d="M1147.54,152.85a13.24,13.24,0,0,0-5.17,6l3.62,5.73a13.24,13.24,0,0,0,7.66-2.08,13.78,13.78,0,0,0,5.42-6.42l-3.39-5.37A13.78,13.78,0,0,0,1147.54,152.85Zm6.75,4.54-1.06-1.68-2.78,1.75,1.06,1.68-1.06-1.68-2.62,1.65,1.06,1.68-1.06-1.68-1.54,1,1.54-1-1.06-1.68,1.06,1.68,2.62-1.65-1.06-1.68,1.06,1.68,2.78-1.75-1.06-1.68,1.06,1.68,1.65-1-1.65,1Z"/><path class="cls-3" d="M1155.66,150.73l3.39,5.37a13.66,13.66,0,0,0,1.08-4.43A13.66,13.66,0,0,0,1155.66,150.73Z"/><path class="cls-3" d="M32.11,234.18a12.91,12.91,0,0,0,4.72,1l-3.62-5.73A12.91,12.91,0,0,0,32.11,234.18Z"/><path class="cls-3" d="M38.38,223.47a13.24,13.24,0,0,0-5.17,6l3.62,5.73a13.24,13.24,0,0,0,7.66-2.08,13.78,13.78,0,0,0,5.42-6.42l-3.39-5.37A13.78,13.78,0,0,0,38.38,223.47ZM45.13,228l-1.06-1.68-2.78,1.75,1.06,1.68-1.06-1.68-2.62,1.65,1.06,1.68-1.06-1.68-1.54,1,1.54-1-1.06-1.68,1.06,1.68,2.62-1.65-1.06-1.68,1.06,1.68,2.78-1.75L43,224.64l1.06,1.68,1.65-1-1.65,1Z"/><path class="cls-3" d="M46.51,221.34l3.39,5.37A13.66,13.66,0,0,0,51,222.28,13.66,13.66,0,0,0,46.51,221.34Z"/><path class="cls-3" d="M743.45,40.86s-3.06,3.79-5.85,1C735.21,39.47,737,37,738,36l7.68-7.68a3.67,3.67,0,0,1,5,0,3.46,3.46,0,0,1,0,5.37l-4.58,4.58a1.39,1.39,0,0,1-2.23,0,2.1,2.1,0,0,1,0-2.79l2.65-2.65"/><path class="cls-3" d="M974.24,184.17a4.19,4.19,0,1,1-.35-4.81A4.22,4.22,0,0,1,974.24,184.17Z"/><path class="cls-3" d="M983.53,191.3a4.19,4.19,0,1,1-.35-4.81A4.22,4.22,0,0,1,983.53,191.3Z"/><line class="cls-3" x1="968.23" y1="187.67" x2="973.07" y2="187.67"/><line class="cls-3" x1="970.65" y1="187.67" x2="970.65" y2="191.26"/><line class="cls-3" x1="986.73" y1="185.57" x2="983.76" y2="187.12"/><polyline class="cls-3" points="984.12 184.35 987.28 185.31 986.36 188.35"/><rect class="cls-3" x="148.23" y="29.55" width="17.92" height="12.05" transform="translate(20.88 121.57) rotate(-45)"/><polyline class="cls-3" points="148.65 39.71 157.98 36.37 161.32 27.04"/><circle class="cls-4" cx="155.99" cy="34.38" r="0.78" transform="translate(21.38 120.37) rotate(-45)"/><polyline class="cls-3" points="149.84 34.4 147.37 31.93 153.54 25.76 156.01 28.23"/><circle class="cls-3" cx="912.45" cy="28.76" r="6.33"/><line class="cls-3" x1="912.45" y1="19.59" x2="912.45" y2="37.94"/><line class="cls-3" x1="921.62" y1="28.77" x2="903.27" y2="28.77"/><path class="cls-3" d="M89.24,140.43H91a.77.77,0,0,1,.77.77v10.28a.47.47,0,0,1-.47.47H89.24a.77.77,0,0,1-.77-.77v-10A.77.77,0,0,1,89.24,140.43Z" transform="translate(129.77 -20.91) rotate(45)"/><polyline class="cls-3" points="87.58 151.27 94.71 153.22 102.82 145.11 95.36 143.5"/><polyline class="cls-3" points="85.16 148.82 83.21 141.69 91.32 133.58 92.93 141.04"/><path class="cls-3" d="M91.87,136.13a6.5,6.5,0,0,1,3.82,1.44l-1.35,4.09"/><path class="cls-3" d="M100.33,144.55a6.19,6.19,0,0,0-1.44-3.67l-4.28,1.32"/><rect class="cls-3" x="479.81" y="176.51" width="2.43" height="6.4" rx="1.12" ry="1.12" transform="translate(13.82 392.77) rotate(-45)"/><rect class="cls-3" x="485.57" y="170.75" width="2.43" height="6.4" rx="1.12" ry="1.12" transform="translate(19.57 395.16) rotate(-45)"/><path class="cls-3" d="M478.76,179.16s-2.7,2.1-1,3.8,3.8-1,3.8-1"/><path class="cls-3" d="M486.43,171.5s2.1-2.7,3.8-1-1,3.8-1,3.8"/><path class="cls-3" d="M490.24,170.5s-8.54-9.85-15.43-3S478,183.16,478,183.16"/><line class="cls-3" x1="472.89" y1="172.79" x2="480.31" y2="165.37"/><rect class="cls-3" x="1134.87" y="29.08" width="2.43" height="6.4" rx="1.12" ry="1.12" transform="translate(355.58 -793.88) rotate(45)"/><rect class="cls-3" x="1140.63" y="34.84" width="2.43" height="6.4" rx="1.12" ry="1.12" transform="translate(361.34 -796.26) rotate(45)"/><path class="cls-3" d="M1136.63,30s-2.1-2.7-3.8-1,1,3.8,1,3.8"/><path class="cls-3" d="M1144.3,37.69s2.7,2.1,1,3.8-3.8-1-3.8-1"/><path class="cls-3" d="M1145.3,41.49s9.85-8.54,3-15.43-15.61,3.16-15.61,3.16"/><line class="cls-3" x1="1143" y1="24.14" x2="1150.43" y2="31.56"/><circle class="cls-3" cx="717.09" cy="231.83" r="3.55" transform="translate(46.11 574.96) rotate(-45)"/><circle class="cls-5" cx="715.88" cy="230.74" r="0.28" transform="translate(46.52 573.79) rotate(-45)"/><circle class="cls-5" cx="718.07" cy="230.61" r="0.28" transform="translate(47.25 575.3) rotate(-45)"/><circle class="cls-5" cx="717.93" cy="232.79" r="0.28" transform="translate(45.67 575.84) rotate(-45)"/><circle class="cls-5" cx="715.88" cy="232.8" r="0.28" transform="translate(45.06 574.39) rotate(-45)"/><circle class="cls-5" cx="722.76" cy="223.86" r="0.28" transform="translate(53.4 576.63) rotate(-45)"/><circle class="cls-5" cx="724.95" cy="223.73" r="0.28" transform="translate(54.13 578.15) rotate(-45)"/><circle class="cls-5" cx="724.81" cy="225.91" r="0.28" transform="translate(52.55 578.69) rotate(-45)"/><circle class="cls-5" cx="722.76" cy="225.92" r="0.28" transform="translate(51.94 577.24) rotate(-45)"/><circle class="cls-3" cx="723.97" cy="224.95" r="3.55" transform="translate(52.99 577.81) rotate(-45)"/><line class="cls-3" x1="721.46" y1="222.44" x2="714.58" y2="229.32"/><path class="cls-3" d="M720.62,231.42a2.83,2.83,0,0,1,3-3"/><path class="cls-3" d="M715.1,234.86s4.12,6.94,5.57,5.32-.58-6.33-.58-6.33"/><path class="cls-3" d="M727,223s6.94,4.12,5.32,5.57S726,228,726,228"/><path class="cls-3" d="M717.92,226s-.27-1.25-1.26-1.26-1,1.74-1.91,1.91-1.54-1.54-1.54-1.54"/><path class="cls-3" d="M264.13,55.66h9.44"/><polyline class="cls-3" points="265.5 55.66 266.23 62.62 267.83 61.13 268.98 62.62 270.26 61.16 271.62 62.62 272.21 55.66"/><path class="cls-3" d="M265.51,58.65h-5.14V49.6s2-3.89,8.48-3.89,8.48,3.89,8.48,3.89v9.05h-5.17"/><polyline class="cls-3" points="264.53 53.13 264.53 49.81 273.18 49.81 273.18 53.13"/><circle class="cls-6" cx="191.67" cy="113.78" r="0.59"/><rect class="cls-3" x="182.62" y="104.03" width="18.12" height="11.35" rx="1.42" ry="1.42"/><path class="cls-3" d="M189.73,115.37a2.71,2.71,0,0,1-.64,2.88"/><path class="cls-3" d="M193.61,115.37a2.71,2.71,0,0,0,.64,2.88"/><line class="cls-3" x1="186.57" y1="118.58" x2="196.77" y2="118.58"/><line class="cls-3" x1="182.62" y1="112.11" x2="200.74" y2="112.11"/><circle class="cls-6" cx="1072.81" cy="188.65" r="1.03" transform="translate(689.94 1208.42) rotate(-79.39)"/><circle class="cls-6" cx="1072.88" cy="184.79" r="1.03" transform="translate(693.79 1205.34) rotate(-79.39)"/><circle class="cls-6" cx="1075.58" cy="181.56" r="1.03" transform="translate(699.18 1205.35) rotate(-79.39)"/><circle class="cls-6" cx="1079.97" cy="180.87" r="1.03" transform="translate(703.43 1209.1) rotate(-79.39)"/><circle class="cls-6" cx="1083.3" cy="183.6" r="1.03" transform="translate(703.47 1214.61) rotate(-79.39)"/><path class="cls-3" d="M1080.19,190.18c-1.73,1.17,1.92,3.2.53,4.27s-7,1-10-2.67-1.81-11.42,5-13.66,11,4.59,11,4.59,2.4,4.22,0,6.62S1081.93,189,1080.19,190.18Z"/><rect class="cls-3" x="1076.96" y="186.51" width="2.16" height="2.16" rx="1" ry="1"/><polyline class="cls-3" points="280.1 129.05 280.1 117.81 272.61 117.81 272.61 129.05"/><polyline class="cls-3" points="274.32 117.7 274.32 115.5 278.39 115.5 278.39 117.7"/><line class="cls-3" x1="284.05" y1="117.84" x2="286.65" y2="117.84"/><line class="cls-3" x1="284.05" y1="119.7" x2="286.65" y2="119.7"/><line class="cls-3" x1="284.05" y1="121.53" x2="286.65" y2="121.53"/><line class="cls-3" x1="284.05" y1="123.4" x2="286.65" y2="123.4"/><line class="cls-3" x1="276.35" y1="115.5" x2="276.35" y2="112.26"/><polyline class="cls-3" points="282.26 129.05 282.26 111.74 288.44 114.2 288.44 129.05"/><line class="cls-3" x1="272.61" y1="127.05" x2="280.1" y2="127.05"/><line class="cls-3" x1="274.81" y1="127.05" x2="274.81" y2="120.39"/><line class="cls-3" x1="277.69" y1="127.05" x2="277.69" y2="120.39"/><line class="cls-3" x1="270.68" y1="129.4" x2="290.37" y2="129.4"/><path class="cls-3" d="M786.28,85h16s-.26,8.2-8,8.2S786.28,85,786.28,85Z"/><polygon class="cls-3" points="796.13 84.9 801.63 78.09 802.16 78.39 796.13 84.9"/><polygon class="cls-3" points="798.02 84.74 804.33 79.99 804.77 80.41 798.02 84.74"/><line class="cls-3" x1="801.81" y1="87.65" x2="786.84" y2="87.65"/><path class="cls-3" d="M787.59,85s.39-2.42,2.42-2.42,2.44,2.44,2.44,2.44"/><rect class="cls-3" x="1169.3" y="220.07" width="4.65" height="8.57" rx="1.7" ry="1.7" transform="translate(540.13 -787.7) rotate(47.2)"/><polygon class="cls-3" points="1167.6 226.37 1160.01 234.68 1160.81 235.4 1169.52 228.2 1167.6 226.37"/><path class="cls-3" d="M1161.12,234.25s-1.25,2.42-3.31,1.37-2.24.84-2.24.84"/><line class="cls-3" x1="1163.66" y1="230.89" x2="1164.75" y2="231.97"/><path class="cls-3" d="M930,104.83l-9.24-9.24a1.76,1.76,0,0,1,0-2.48l4.83-4.83a1.76,1.76,0,0,1,2.48,0l1.42,1.42,3.23-1.51L935,90.53l2.19,2.17L935.77,96l1.51,1.51a1.76,1.76,0,0,1,0,2.48l-4.83,4.83A1.76,1.76,0,0,1,930,104.83Z"/><circle class="cls-3" cx="929.23" cy="96.33" r="3.23" transform="translate(204.05 685.28) rotate(-45)"/><circle class="cls-6" cx="933.36" cy="92.2" r="0.83" transform="translate(208.18 686.99) rotate(-45)"/><line class="cls-3" x1="786.21" y1="168.28" x2="790.03" y2="168.28"/><line class="cls-3" x1="774.82" y1="168.28" x2="781.4" y2="168.28"/><circle class="cls-3" cx="778.79" cy="170.98" r="1.13"/><path class="cls-3" d="M778.79,172.1s.88,6.3-3.38,6.3"/><polyline class="cls-3" points="776.28 168.41 776.28 182.06 788.57 182.06 788.57 168.41"/><path class="cls-3" d="M783.81,163.23s-2.41,3.89-2.41,5.65a2.19,2.19,0,0,0,2.49,2.49A2.13,2.13,0,0,0,786.3,169C786.3,167.3,783.81,163.23,783.81,163.23Z"/><path class="cls-3" d="M914.1,225.71a6.57,6.57,0,1,1-.54-7.55A6.62,6.62,0,0,1,914.1,225.71Z"/><circle class="cls-5" cx="908.47" cy="222.33" r="0.6"/><line class="cls-3" x1="908.47" y1="222.33" x2="908.47" y2="218.46"/><line class="cls-3" x1="908.47" y1="215.76" x2="908.47" y2="214.47"/><line class="cls-3" x1="905.46" y1="213.89" x2="911.47" y2="213.89"/><polyline class="cls-3" points="912.7 217.31 914.31 215.84 915.44 217.02 913.79 218.46"/><circle class="cls-3" cx="1058.91" cy="32.85" r="1.59"/><polygon class="cls-3" points="1052.98 43.8 1053.89 41.62 1064.35 40.41 1064.35 43.8 1052.98 43.8"/><polyline class="cls-3" points="1059.76 31.5 1061.9 28.21 1058.91 26.39 1053.32 34.94 1056.4 36.85 1058.11 34.22"/><polygon class="cls-5" points="1053.98 35.39 1053.24 36.63 1055.1 37.81 1055.89 36.58 1053.98 35.39"/><path class="cls-3" d="M1060.51,32.85s3.63,1.39,2.15,7.75"/><circle class="cls-7" cx="161.38" cy="209.22" r="1.79"/><circle class="cls-7" cx="154.71" cy="220.83" r="1.79"/><circle class="cls-7" cx="167.93" cy="220.83" r="1.79"/><circle class="cls-7" cx="161.38" cy="216.36" r="1.79"/><line class="cls-7" x1="166.5" y1="219.77" x2="162.8" y2="217.43"/><line class="cls-7" x1="156.24" y1="219.77" x2="159.93" y2="217.43"/><line class="cls-7" x1="161.38" y1="211" x2="161.38" y2="214.58"/><path class="cls-3" d="M858,139.09c-.76,19.33,7.31,14.7,7.31,14.7h2.26"/><path class="cls-3" d="M850.69,153.79s8,4.63,7.29-14.7"/><line class="cls-3" x1="858.28" y1="139.68" x2="856.92" y2="136.5"/><line class="cls-3" x1="857.81" y1="139.68" x2="859.18" y2="136.5"/><polyline class="cls-3" points="848.47 153.71 850.71 153.71 857.99 139.09 865.3 153.71"/><line class="cls-3" x1="854.59" y1="153.71" x2="861.24" y2="153.71"/><path class="cls-3" d="M75.64,64.95s-1.82,2.94-1.82,4.27a1.66,1.66,0,0,0,1.88,1.88,1.61,1.61,0,0,0,1.82-1.82C77.52,68,75.64,64.95,75.64,64.95Z"/><rect class="cls-3" x="63.14" y="56.21" width="2.33" height="9.38"/><path class="cls-3" d="M65.48,59.08H75s2.78.26,2.78,5.86H73.27s.2-1.58-.48-2.26H65.48"/><rect class="cls-3" x="68.16" y="55.71" width="5.5" height="1"/><line class="cls-3" x1="70.91" y1="55.71" x2="70.91" y2="59.08"/><path class="cls-3" d="M574.83,207.69a4.88,4.88,0,1,1-.4-5.6A4.91,4.91,0,0,1,574.83,207.69Z"/><line class="cls-3" x1="570.65" y1="198.29" x2="570.65" y2="195.69"/><line class="cls-3" x1="570.65" y1="214.72" x2="570.65" y2="212.12"/><line class="cls-3" x1="575.66" y1="200.31" x2="577.5" y2="198.47"/><line class="cls-3" x1="563.92" y1="211.95" x2="565.76" y2="210.12"/><line class="cls-3" x1="566.02" y1="199.98" x2="564.19" y2="198.14"/><line class="cls-3" x1="577.6" y1="211.78" x2="575.76" y2="209.94"/><line class="cls-3" x1="577.64" y1="205.18" x2="580.24" y2="205.18"/><line class="cls-3" x1="561.05" y1="205.18" x2="563.65" y2="205.18"/><path class="cls-8" d="M426.51,105.25l14,14s-1.4,1.5-2.21.69l-12.37-12.37C425.06,106.71,426.51,105.25,426.51,105.25Z"/><polyline class="cls-9" points="428.32 106.72 435.85 99.2 446.58 109.93 439.05 117.45"/><polyline class="cls-3" points="440.7 109.53 440.71 112.21 438 112.23"/><polyline class="cls-3" points="436.23 105.06 433.54 105.05 433.53 107.75"/><line class="cls-3" x1="440.68" y1="106.75" x2="434.22" y2="109.91"/><path class="cls-8" d="M1111.57,100.17h19.82s.07,2.05-1.07,2.05h-17.5C1111.57,102.22,1111.57,100.17,1111.57,100.17Z"/><polyline class="cls-9" points="1113.89 99.93 1113.89 89.29 1129.06 89.29 1129.06 99.93"/><polyline class="cls-3" points="1124.62 93.16 1126.52 95.05 1124.62 96.97"/><polyline class="cls-3" points="1118.29 93.16 1116.39 95.05 1118.29 96.97"/><line class="cls-3" x1="1122.64" y1="91.21" x2="1120.31" y2="98.01"/><path class="cls-3" d="M1232.57,56.1h-14.92s-.05-1.94.81-1.94h13.18C1232.57,54.16,1232.57,56.1,1232.57,56.1Z"/><polygon class="cls-3" points="1224.85 37.94 1217.47 45.33 1232.24 45.33 1224.85 37.94"/><polyline class="cls-3" points="1218.89 54.16 1218.89 47.02 1220.94 47.02 1220.94 54.16"/><polyline class="cls-3" points="1223.8 54.16 1223.8 47.02 1226.02 47.02 1226.02 54.16"/><polyline class="cls-3" points="1228.79 54.16 1228.79 47.02 1231 47.02 1231 54.16"/><circle class="cls-3" cx="1224.68" cy="42.54" r="1.18"/><path class="cls-3" d="M1213.11,154.33a3,3,0,0,1-3.09,0,3.09,3.09,0,0,0-3.09,3.09c0,1.7,1.38,4.2,3.09,4.2h3.09c1.7,0,3.09-2.5,3.09-4.2A3.09,3.09,0,0,0,1213.11,154.33Z"/><path class="cls-3" d="M1219.92,163.59h-13.59s-3.11,0-3.11,2.75,3.11,2.74,3.11,2.74h13.59"/><line class="cls-3" x1="1206.07" y1="165.35" x2="1218.16" y2="165.35"/><line class="cls-3" x1="1206.07" y1="167.38" x2="1218.16" y2="167.38"/><path class="cls-3" d="M1211.57,154.76s-.68-1.52,1.53-3.3"/><polygon class="cls-3" points="501 50.53 504.73 59.14 506.53 58.66 506.65 54 511.78 54 512.07 52.33 503.48 48.16 501 50.53"/><line class="cls-3" x1="504.73" y1="50.51" x2="503.41" y2="51.69"/><line class="cls-3" x1="505.96" y1="51.77" x2="504.65" y2="52.95"/><polyline class="cls-3" points="501.57 49.98 495.95 44.19 494.47 43.64 493.63 41.23 494.42 40.48 496.71 41.56 497.15 43.03 502.88 48.73"/><path class="cls-3" d="M378.06,233.29c3.42-3,2.06-6.1,1.18-7.69a8.14,8.14,0,0,0,4,3.65l1.49-.93L383.34,223s-1.88-4.07-4.55-3.11-1.63,3.68-2.83,5.22a10,10,0,0,1-3.62,2.5Z"/><path class="cls-3" d="M372.33,227.57,370,225.21a4.38,4.38,0,0,0,3.61-1.67c1.74-1.93,1.34-4,2.91-5.52s3.84-1.49,5.8-.41a8.26,8.26,0,0,1,3,3.39L383,222.38"/><polygon class="cls-3" points="376.33 236.45 378.06 233.29 372.33 227.57 369.03 229.16 376.33 236.45"/><circle class="cls-6" cx="380.75" cy="222.95" r="0.74" transform="translate(-46.13 334.53) rotate(-45)"/><rect class="cls-3" x="997.97" y="112.4" width="13.67" height="3.24" rx="0.91" ry="0.91" transform="translate(213.67 743.9) rotate(-45)"/><polygon class="cls-3" points="1002.09 119.04 1011.39 126.52 1017.11 120.79 1009.82 111.3 1002.09 119.04"/><circle class="cls-10" cx="1009.28" cy="118.49" r="2.08" transform="translate(211.82 748.37) rotate(-45)"/><polyline class="cls-10" points="1000.67 115.36 999.32 114.01 1004.79 108.53 1006.14 109.89"/><rect class="cls-3" x="333.67" y="167.89" width="13.67" height="3.24" rx="0.91" ry="0.91"/><polygon class="cls-3" points="335.03 171.13 336.31 183 344.42 183 345.97 171.13 335.03 171.13"/><circle class="cls-10" cx="340.5" cy="175.83" r="2.08"/><polyline class="cls-10" points="336.63 167.53 336.63 165.62 344.37 165.62 344.37 167.53"/><rect class="cls-3" x="228.63" y="170.65" width="14.78" height="9.21" rx="1.45" ry="1.45"/><polygon class="cls-3" points="228.63 173.99 224.44 170.86 224.44 179.64 228.63 176.95 228.63 173.99"/><rect class="cls-3" x="231.31" y="173.14" width="9.21" height="4.43" rx="1.45" ry="1.45"/><circle class="cls-5" cx="237.5" cy="175.36" r="0.6"/><circle class="cls-5" cx="234.21" cy="175.36" r="0.6"/></g><g class="cls-11"><circle class="cls-12" cx="132" cy="169.08" r="2"/><circle class="cls-12" cx="280.52" cy="236.45" r="2"/><circle class="cls-12" cx="761.09" cy="226.5" r="2"/><circle class="cls-12" cx="1033.81" cy="249.79" r="2"/><circle class="cls-12" cx="163.17" cy="81.49" r="1.25"/><circle class="cls-12" cx="327.25" cy="42.9" r="1.25"/><circle class="cls-12" cx="428.32" cy="226.64" r="1.25"/><circle class="cls-12" cx="732.56" cy="127.78" r="1.25"/><circle class="cls-12" cx="818.22" cy="231.02" r="1.25"/><circle class="cls-12" cx="944.5" cy="41.36" r="1.25"/><circle class="cls-12" cx="962.5" cy="81.49" r="1.25"/><circle class="cls-12" cx="1016.61" cy="182.01" r="1.25"/><circle class="cls-12" cx="1076.96" cy="225.63" r="1.25"/><circle class="cls-12" cx="1231" cy="230.74" r="1.25"/><circle class="cls-12" cx="1254.5" cy="138.09" r="1.25"/><circle class="cls-12" cx="1206.94" cy="110.88" r="1.25"/></g><g class="cls-13"><circle class="cls-7" cx="282.45" cy="109.53" r="0.5"/><circle class="cls-7" cx="209" cy="167.3" r="0.5"/><circle class="cls-7" cx="277.32" cy="210.86" r="0.5"/><circle class="cls-7" cx="139" cy="99.57" r="0.5"/><circle class="cls-7" cx="433.09" cy="40.48" r="0.5"/><circle class="cls-7" cx="385.79" cy="105.05" r="0.5"/><circle class="cls-7" cx="384.71" cy="132.5" r="0.5"/><circle class="cls-7" cx="340" cy="148.82" r="0.5"/><circle class="cls-7" cx="440.53" cy="198.14" r="0.5"/><circle class="cls-7" cx="539" cy="106.75" r="0.5"/><circle class="cls-7" cx="717.65" cy="37.94" r="0.5"/><circle class="cls-7" cx="817.72" cy="158.16" r="0.5"/><circle class="cls-7" cx="848.47" cy="90.51" r="0.5"/><circle class="cls-7" cx="1026.5" cy="62.62" r="0.5"/><circle class="cls-7" cx="1135.56" cy="31.62" r="0.5"/><circle class="cls-7" cx="937.8" cy="148.32" r="0.5"/><circle class="cls-7" cx="878" cy="191.26" r="0.5"/><circle class="cls-7" cx="1017.11" cy="221.4" r="0.5"/><circle class="cls-7" cx="1064.35" cy="112.5" r="0.5"/><circle class="cls-7" cx="1108" cy="146.4" r="0.5"/><circle class="cls-7" cx="1134.56" cy="55.13" r="0.5"/></g><line class="cls-14" x1="615.32" y1="118.69" x2="615.32" y2="135.25"/><polygon class="cls-14" points="620.61 119.57 620.61 133.43 648.8 142.17 648.8 112.5 620.61 119.57"/><path class="cls-14" d="M620.5,152.25l10.13.25-3.88-7-.52-5.6-5.56-2A14.36,14.36,0,0,0,620.5,152.25Z"/><path class="cls-15" d="M649.73,124c-.12,0,0,.09-.12.11s-.23.08-.23.16a1.93,1.93,0,0,1,.34,0c1.35,0,2.46,1.4,2.46,3.13s-1.1,3.13-2.46,3.13c-.18,0,.06-.08-.11-.12,0,.08.39.36.11.36.17,0-.18,0,0,0,1.46,0,2.64-1.51,2.64-3.37S651.19,124,649.73,124Z"/><line class="cls-14" x1="657.55" y1="134.41" x2="662.12" y2="139.38"/><line class="cls-14" x1="662.32" y1="114.86" x2="657.35" y2="119.43"/><line class="cls-14" x1="656.91" y1="127.34" x2="664.68" y2="127.34"/></svg>