<svg id="Layer_1" data-name="Layer 1" xmlns="http://www.w3.org/2000/svg" viewBox="0 0 765 185"><defs><style>.cls-1{fill:#f2f2f2;}.cls-11,.cls-13,.cls-2,.cls-4,.cls-7,.cls-8,.cls-9{fill:none;}.cls-11,.cls-13,.cls-2,.cls-4,.cls-5,.cls-6,.cls-7,.cls-8,.cls-9{stroke:#d8d8d8;}.cls-13,.cls-2,.cls-4,.cls-5,.cls-7,.cls-8,.cls-9{stroke-linecap:round;stroke-linejoin:round;}.cls-2{stroke-width:2px;}.cls-3{opacity:0.6;}.cls-4,.cls-5{stroke-width:1.08px;}.cls-5{fill:#404040;}.cls-6{fill:#daccdd;stroke-width:0.6px;}.cls-11,.cls-6{stroke-miterlimit:10;}.cls-7{stroke-width:1.23px;}.cls-8{stroke-width:1.14px;}.cls-9{stroke-width:1.26px;}.cls-10{opacity:0.8;}.cls-11{stroke-width:1px;}.cls-12{opacity:0.5;}.cls-13{stroke-width:1.21px;}</style></defs><title>Campaign cover</title><rect class="cls-1" width="765" height="185"/><path class="cls-2" d="M366.19,107.24s16,.67,19.87-7.37a28.38,28.38,0,0,1-4-5.13c26.76-7.21,19.55-27.24,19.55-27.24s-27.08,3.53-39.1,50"/><g class="cls-3"><path class="cls-4" d="M126.62,27.32s-4.56,5.14-10.18,5.14-10.18-5.14-10.18-5.14S110.82,23,116.44,23,126.62,27.32,126.62,27.32Z"/><circle class="cls-4" cx="116.44" cy="26.34" r="3.05"/><path class="cls-4" d="M343.14,43.39a12.91,12.91,0,0,0,4.72,1l-3.62-5.73A12.91,12.91,0,0,0,343.14,43.39Z"/><path class="cls-4" d="M349.41,32.68a13.24,13.24,0,0,0-5.17,6l3.62,5.73a13.24,13.24,0,0,0,7.66-2.08,13.78,13.78,0,0,0,5.42-6.42l-3.39-5.37A13.78,13.78,0,0,0,349.41,32.68Zm6.75,4.54-1.06-1.68-2.78,1.75L353.38,39l-1.06-1.68-2.62,1.65,1.06,1.68-1.06-1.68-1.54,1,1.54-1-1.06-1.68,1.06,1.68,2.62-1.65-1.06-1.68,1.06,1.68,2.78-1.75L354,33.85l1.06,1.68,1.65-1-1.65,1Z"/><path class="cls-4" d="M357.54,30.55l3.39,5.37A13.66,13.66,0,0,0,362,31.49,13.66,13.66,0,0,0,357.54,30.55Z"/><path class="cls-4" d="M458.49,39.81s-3.06,3.79-5.85,1c-2.39-2.39-.59-4.85.43-5.87l7.68-7.68a3.67,3.67,0,0,1,5,0,3.46,3.46,0,0,1,0,5.37l-4.58,4.58a1.39,1.39,0,0,1-2.23,0,2.1,2.1,0,0,1,0-2.79l2.65-2.65"/><path class="cls-4" d="M725.14,147.11a4.19,4.19,0,1,1-.35-4.81A4.22,4.22,0,0,1,725.14,147.11Z"/><path class="cls-4" d="M734.43,154.24a4.19,4.19,0,1,1-.35-4.81A4.22,4.22,0,0,1,734.43,154.24Z"/><line class="cls-4" x1="719.13" y1="150.61" x2="723.97" y2="150.61"/><line class="cls-4" x1="721.55" y1="150.61" x2="721.55" y2="154.2"/><line class="cls-4" x1="737.63" y1="148.51" x2="734.66" y2="150.06"/><polyline class="cls-4" points="735.02 147.29 738.19 148.25 737.26 151.29"/><circle class="cls-4" cx="625.37" cy="30.53" r="6.33"/><line class="cls-4" x1="625.37" y1="21.36" x2="625.37" y2="39.71"/><line class="cls-4" x1="634.55" y1="30.53" x2="616.2" y2="30.53"/><rect class="cls-4" x="246.94" y="133.55" width="2.43" height="6.4" rx="1.12" ry="1.12" transform="translate(-24.01 215.53) rotate(-45)"/><rect class="cls-4" x="252.7" y="127.79" width="2.43" height="6.4" rx="1.12" ry="1.12" transform="translate(-18.25 217.91) rotate(-45)"/><path class="cls-4" d="M245.89,136.2s-2.7,2.1-1,3.8,3.8-1,3.8-1"/><path class="cls-4" d="M253.56,128.53s2.1-2.7,3.8-1-1,3.8-1,3.8"/><path class="cls-4" d="M257.37,127.54s-8.54-9.85-15.43-3,3.16,15.61,3.16,15.61"/><line class="cls-4" x1="240.02" y1="129.83" x2="247.44" y2="122.41"/><circle class="cls-4" cx="453.47" cy="153.32" r="3.55" transform="translate(24.4 365.56) rotate(-45)"/><circle class="cls-5" cx="452.25" cy="152.23" r="0.28" transform="translate(24.82 364.38) rotate(-45)"/><circle class="cls-5" cx="454.45" cy="152.1" r="0.28" transform="translate(25.55 365.89) rotate(-45)"/><circle class="cls-5" cx="454.31" cy="154.28" r="0.28" transform="translate(23.97 366.43) rotate(-45)"/><circle class="cls-5" cx="452.25" cy="154.29" r="0.28" transform="translate(23.36 364.98) rotate(-45)"/><circle class="cls-5" cx="459.13" cy="145.35" r="0.28" transform="translate(31.7 367.23) rotate(-45)"/><circle class="cls-5" cx="461.32" cy="145.22" r="0.28" transform="translate(32.43 368.74) rotate(-45)"/><circle class="cls-5" cx="461.18" cy="147.41" r="0.28" transform="translate(30.85 369.28) rotate(-45)"/><circle class="cls-5" cx="459.13" cy="147.42" r="0.28" transform="translate(30.24 367.83) rotate(-45)"/><circle class="cls-4" cx="460.35" cy="146.44" r="3.55" transform="translate(31.28 368.41) rotate(-45)"/><line class="cls-4" x1="457.84" y1="143.93" x2="450.96" y2="150.81"/><path class="cls-4" d="M457,152.92a2.83,2.83,0,0,1,3-3"/><path class="cls-4" d="M451.48,156.35s4.12,6.94,5.57,5.32-.58-6.33-.58-6.33"/><path class="cls-4" d="M463.37,144.46s6.94,4.12,5.32,5.57-6.33-.58-6.33-.58"/><path class="cls-4" d="M454.3,147.47s-.27-1.25-1.26-1.26-1,1.74-1.91,1.91-1.54-1.54-1.54-1.54"/><path class="cls-4" d="M19.76,41.2H29.2"/><polyline class="cls-4" points="21.13 41.2 21.86 48.16 23.46 46.68 24.61 48.16 25.89 46.71 27.24 48.16 27.84 41.2"/><path class="cls-4" d="M21.14,44.2H16V35.14s2-3.89,8.48-3.89S33,35.14,33,35.14V44.2H27.78"/><polyline class="cls-4" points="20.16 38.68 20.16 35.35 28.8 35.35 28.8 38.68"/><polyline class="cls-4" points="56.54 95.03 56.54 83.8 49.05 83.8 49.05 95.03"/><polyline class="cls-4" points="50.76 83.69 50.76 81.49 54.83 81.49 54.83 83.69"/><line class="cls-4" x1="60.49" y1="83.82" x2="63.09" y2="83.82"/><line class="cls-4" x1="60.49" y1="85.69" x2="63.09" y2="85.69"/><line class="cls-4" x1="60.49" y1="87.52" x2="63.09" y2="87.52"/><line class="cls-4" x1="60.49" y1="89.39" x2="63.09" y2="89.39"/><line class="cls-4" x1="52.79" y1="81.49" x2="52.79" y2="78.25"/><polyline class="cls-4" points="58.7 95.03 58.7 77.72 64.88 80.19 64.88 95.03"/><line class="cls-4" x1="49.04" y1="93.04" x2="56.54" y2="93.04"/><line class="cls-4" x1="51.25" y1="93.04" x2="51.25" y2="86.38"/><line class="cls-4" x1="54.13" y1="93.04" x2="54.13" y2="86.38"/><line class="cls-4" x1="47.12" y1="95.39" x2="66.81" y2="95.39"/><path class="cls-4" d="M537.19,48h16s-.26,8.2-8,8.2S537.19,48,537.19,48Z"/><polygon class="cls-4" points="547.03 47.84 552.53 41.03 553.06 41.33 547.03 47.84"/><polygon class="cls-4" points="548.92 47.68 555.23 42.93 555.68 43.35 548.92 47.68"/><line class="cls-4" x1="552.71" y1="50.59" x2="537.74" y2="50.59"/><path class="cls-4" d="M538.49,48s.39-2.42,2.42-2.42S543.35,48,543.35,48"/><path class="cls-4" d="M680.88,67.77l-9.24-9.24a1.76,1.76,0,0,1,0-2.48l4.83-4.83a1.76,1.76,0,0,1,2.48,0l1.42,1.42,3.23-1.51,2.34,2.34,2.19,2.17-1.45,3.31,1.51,1.51a1.76,1.76,0,0,1,0,2.48l-4.83,4.83A1.76,1.76,0,0,1,680.88,67.77Z"/><circle class="cls-4" cx="680.13" cy="59.27" r="3.23" transform="translate(157.29 498.29) rotate(-45)"/><circle class="cls-6" cx="684.27" cy="55.13" r="0.83" transform="translate(161.43 500) rotate(-45)"/><line class="cls-4" x1="537.11" y1="131.22" x2="540.94" y2="131.22"/><line class="cls-4" x1="525.72" y1="131.22" x2="532.3" y2="131.22"/><circle class="cls-4" cx="529.69" cy="133.92" r="1.13"/><path class="cls-4" d="M529.69,135s.88,6.3-3.38,6.3"/><polyline class="cls-4" points="527.18 131.35 527.18 145 539.47 145 539.47 131.35"/><path class="cls-4" d="M534.72,126.17s-2.41,3.89-2.41,5.65a2.19,2.19,0,0,0,2.49,2.49,2.13,2.13,0,0,0,2.41-2.41C537.2,130.24,534.72,126.17,534.72,126.17Z"/><path class="cls-4" d="M652.84,164.93a6.57,6.57,0,1,1-.54-7.55A6.62,6.62,0,0,1,652.84,164.93Z"/><circle class="cls-5" cx="647.2" cy="161.55" r="0.6"/><line class="cls-4" x1="647.2" y1="161.55" x2="647.2" y2="157.68"/><line class="cls-4" x1="647.2" y1="154.98" x2="647.2" y2="153.68"/><line class="cls-4" x1="644.2" y1="153.11" x2="650.21" y2="153.11"/><polyline class="cls-4" points="651.44 156.52 653.04 155.05 654.17 156.23 652.53 157.68"/><path class="cls-4" d="M608.89,102c-.76,19.33,7.31,14.7,7.31,14.7h2.26"/><path class="cls-4" d="M601.6,116.73s8,4.63,7.29-14.7"/><line class="cls-4" x1="609.18" y1="102.62" x2="607.82" y2="99.44"/><line class="cls-4" x1="608.72" y1="102.62" x2="610.08" y2="99.44"/><polyline class="cls-4" points="599.37 116.65 601.61 116.65 608.89 102.03 616.2 116.65"/><line class="cls-4" x1="605.49" y1="116.65" x2="612.14" y2="116.65"/><path class="cls-4" d="M311.51,156.18a4.88,4.88,0,1,1-.4-5.6A4.91,4.91,0,0,1,311.51,156.18Z"/><line class="cls-4" x1="307.33" y1="146.78" x2="307.33" y2="144.18"/><line class="cls-4" x1="307.33" y1="163.21" x2="307.33" y2="160.61"/><line class="cls-4" x1="312.35" y1="148.8" x2="314.18" y2="146.96"/><line class="cls-4" x1="300.6" y1="160.44" x2="302.44" y2="158.61"/><line class="cls-4" x1="302.7" y1="148.47" x2="300.87" y2="146.63"/><line class="cls-4" x1="314.28" y1="160.27" x2="312.45" y2="158.43"/><line class="cls-4" x1="314.33" y1="153.67" x2="316.92" y2="153.67"/><line class="cls-4" x1="297.73" y1="153.67" x2="300.33" y2="153.67"/><path class="cls-7" d="M177.42,68.19l14,14s-1.4,1.5-2.21.69L176.85,70.53C176,69.64,177.42,68.19,177.42,68.19Z"/><polyline class="cls-8" points="179.23 69.67 186.75 62.14 197.48 72.87 189.96 80.39"/><polyline class="cls-4" points="191.6 72.47 191.61 75.15 188.9 75.17"/><polyline class="cls-4" points="187.13 68 184.44 67.99 184.43 70.69"/><line class="cls-4" x1="191.58" y1="69.69" x2="185.12" y2="72.85"/><polygon class="cls-4" points="264.8 54.17 268.53 62.78 270.33 62.31 270.45 57.64 275.58 57.64 275.87 55.97 267.28 51.8 264.8 54.17"/><line class="cls-4" x1="268.53" y1="54.15" x2="267.21" y2="55.33"/><line class="cls-4" x1="269.76" y1="55.41" x2="268.45" y2="56.59"/><polyline class="cls-4" points="265.38 53.62 259.75 47.83 258.27 47.28 257.44 44.87 258.22 44.12 260.51 45.2 260.95 46.67 266.68 52.37"/><path class="cls-4" d="M173.25,153.78c3.42-3,2.06-6.1,1.18-7.69a8.14,8.14,0,0,0,4,3.65l1.49-.93-1.37-5.37s-1.88-4.07-4.55-3.11-1.63,3.68-2.83,5.22a10,10,0,0,1-3.62,2.5Z"/><path class="cls-4" d="M167.52,148.06l-2.36-2.36a4.38,4.38,0,0,0,3.61-1.67c1.74-1.93,1.34-4,2.91-5.52s3.84-1.49,5.8-.41a8.26,8.26,0,0,1,3,3.39l-2.26,1.37"/><polygon class="cls-4" points="171.52 156.94 173.25 153.78 167.52 148.06 164.22 149.64 171.52 156.94"/><circle class="cls-6" cx="175.94" cy="143.43" r="0.74" transform="translate(-49.89 166.42) rotate(-45)"/><rect class="cls-4" x="724.57" y="87.01" width="13.67" height="3.24" rx="0.91" ry="0.91" transform="translate(151.55 543.14) rotate(-45)"/><polygon class="cls-4" points="728.68 93.64 737.98 101.13 743.71 95.4 736.41 85.91 728.68 93.64"/><circle class="cls-9" cx="735.87" cy="93.1" r="2.08" transform="translate(149.7 547.61) rotate(-45)"/><polyline class="cls-9" points="727.27 89.97 725.91 88.62 731.39 83.14 732.74 84.5"/><rect class="cls-4" x="104.89" y="118.62" width="13.67" height="3.24" rx="0.91" ry="0.91"/><polygon class="cls-4" points="106.26 121.86 107.54 133.72 115.64 133.72 117.19 121.86 106.26 121.86"/><circle class="cls-9" cx="111.73" cy="126.56" r="2.08"/><polyline class="cls-9" points="107.86 118.26 107.86 116.34 115.6 116.34 115.6 118.26"/><rect class="cls-4" x="23.9" y="154.02" width="14.78" height="9.21" rx="1.45" ry="1.45"/><polygon class="cls-4" points="23.91 157.37 19.72 154.24 19.72 163.02 23.91 160.32 23.91 157.37"/><rect class="cls-4" x="26.58" y="156.51" width="9.21" height="4.43" rx="1.45" ry="1.45"/><circle class="cls-5" cx="32.77" cy="158.73" r="0.6"/><circle class="cls-5" cx="29.48" cy="158.73" r="0.6"/></g><g class="cls-10"><circle class="cls-11" cx="13.99" cy="129.98" r="2"/><circle class="cls-11" cx="78.15" cy="168.11" r="2"/><circle class="cls-11" cx="501.27" cy="163.24" r="2"/><circle class="cls-11" cx="658.15" cy="139.21" r="2"/><circle class="cls-11" cx="45.16" cy="42.39" r="1.25"/><circle class="cls-11" cx="78.15" cy="5.84" r="1.25"/><circle class="cls-11" cx="153.75" cy="122.41" r="1.25"/><circle class="cls-11" cx="483.46" cy="90.72" r="1.25"/><circle class="cls-11" cx="575.45" cy="157.68" r="1.25"/><circle class="cls-11" cx="695.4" cy="4.3" r="1.25"/><circle class="cls-11" cx="713.4" cy="44.43" r="1.25"/><circle class="cls-11" cx="640.95" cy="71.44" r="1.25"/><circle class="cls-11" cx="701.3" cy="115.06" r="1.25"/><circle class="cls-11" cx="415.99" cy="153.45" r="1.25"/><circle class="cls-11" cx="439.49" cy="60.8" r="1.25"/><circle class="cls-11" cx="391.93" cy="33.59" r="1.25"/></g><g class="cls-12"><circle class="cls-13" cx="33.35" cy="72.47" r="0.5"/><circle class="cls-13" cx="215.08" cy="31.26" r="0.5"/><circle class="cls-13" cx="28.22" cy="173.8" r="0.5"/><circle class="cls-13" cx="16" cy="16.84" r="0.5"/><circle class="cls-13" cx="184" cy="3.41" r="0.5"/><circle class="cls-13" cx="136.69" cy="67.99" r="0.5"/><circle class="cls-13" cx="135.61" cy="95.44" r="0.5"/><circle class="cls-13" cx="90.9" cy="111.76" r="0.5"/><circle class="cls-13" cx="191.43" cy="161.08" r="0.5"/><circle class="cls-13" cx="289.9" cy="69.69" r="0.5"/><circle class="cls-13" cx="468.56" cy="0.88" r="0.5"/><circle class="cls-13" cx="568.63" cy="121.1" r="0.5"/><circle class="cls-13" cx="599.37" cy="53.45" r="0.5"/><circle class="cls-13" cx="751.06" cy="21.36" r="0.5"/><circle class="cls-13" cx="449.92" cy="111.26" r="0.5"/><circle class="cls-13" cx="688.7" cy="111.26" r="0.5"/><circle class="cls-13" cx="628.9" cy="154.2" r="0.5"/><circle class="cls-13" cx="751.06" cy="174.3" r="0.5"/><circle class="cls-13" cx="346.9" cy="133.33" r="0.5"/><circle class="cls-13" cx="390.54" cy="167.23" r="0.5"/><circle class="cls-13" cx="338.44" cy="66.99" r="0.5"/></g></svg>