<svg id="Layer_1" data-name="Layer 1" xmlns="http://www.w3.org/2000/svg" viewBox="0 0 160 160"><defs><style>.cls-1{fill:#f2f2f2;}.cls-2{fill:none;stroke:#d8d8d8;stroke-linecap:round;stroke-linejoin:round;stroke-width:2.5px;}</style></defs><title>Team</title><rect class="cls-1" x="0.3" width="160" height="160"/><path class="cls-2" d="M58.09,93.82a30.18,30.18,0,0,0,11,2.41l-8.46-13.4A30.18,30.18,0,0,0,58.09,93.82Z"/><path class="cls-2" d="M72.76,68.76a31,31,0,0,0-12.1,14.07l8.46,13.4A31,31,0,0,0,87,91.36a32.22,32.22,0,0,0,12.66-15L91.77,63.79A32.22,32.22,0,0,0,72.76,68.76ZM88.55,79.38l-2.48-3.93-6.5,4.1L82,83.48l-2.48-3.93-6.13,3.87,2.48,3.93-2.48-3.93-3.61,2.28,3.61-2.28L71,79.48l2.48,3.93,6.13-3.87-2.48-3.93,2.48,3.93,6.5-4.1-2.48-3.93,2.48,3.93L89.93,73l-3.86,2.44Z"/><path class="cls-2" d="M91.77,63.79l7.92,12.55A31.94,31.94,0,0,0,102.21,66,31.94,31.94,0,0,0,91.77,63.79Z"/></svg>