<?xml version="1.0" encoding="utf-8"?>
<!-- Generator: Adobe Illustrator 19.2.0, SVG Export Plug-In . SVG Version: 6.00 Build 0)  -->
<svg version="1.1" id="Laag_1" xmlns="http://www.w3.org/2000/svg" xmlns:xlink="http://www.w3.org/1999/xlink" x="0px" y="0px"
	 viewBox="0 0 192.8 192.8" style="enable-background:new 0 0 192.8 192.8;" xml:space="preserve">
<style type="text/css">
	.st0{fill:#231F20;}
	.st1{fill:#7D3C8C;}
	.st2{fill:#333333;stroke:#231F20;stroke-width:0.8183;stroke-miterlimit:10;}
	.st3{fill:none;}
	.st4{fill:#FFFFFF;}
	.st5{fill:#FF5072;}
	.st6{fill:#231F20;stroke:#231F20;stroke-width:0.8146;}
	.st7{fill:#84CD1A;}
	.st8{fill:#231F20;stroke:#231F20;stroke-miterlimit:10;}
</style>
<g>
	<g>
		<path class="st0" d="M87.2,144.5c-6.6,8.2-16.9,16.1-27.6,17.1c-10.7,1-20.1-6.5-25.3-15.3c-5-8.5-4.5-18.1-0.1-26.7
			c4.8-9.4,12.9-16.4,20.3-23.8c10.3-10.3,20.7-20.7,31-31c8.8-8.8,17.7-17.7,26.5-26.5c10.4-10.4,27.2-14.4,39.6-4.5
			c9.1,7.3,15.3,19.2,11.7,30.8c-3.1,9.7-11.4,16.4-18.3,23.3c-10.7,10.7-21.7,21.3-32.2,32.2c-4.8,5-9.8,6-15.2-0.1
			c-3.9-4.4-4-9.7-1.6-14.9c0.6-1.3,1.4-2.6,2.3-3.8c0.8-1-0.6,0.7,0.1-0.1c7.6-8.4,16.1-16.1,24-24c4.1-4.1-2.3-10.5-6.4-6.4
			c-8,8-16.7,15.7-24.2,24.2c-4.6,5.2-7.3,12.9-6.3,19.8c1.5,10.6,12.7,21,23.8,18.1c4.8-1.2,7.9-4.6,11.2-8
			c6.1-6.1,12.1-12.1,18.2-18.2c7.6-7.6,15.5-15.1,22.9-22.9c8-8.5,13.3-19.7,11.5-31.6c-1.9-12.5-11.5-24.8-23-30.1
			c-9.7-4.5-20.7-4-30.4,0C108.2,27,99.9,37.6,91.4,46.1C78.8,58.7,66.2,71.3,53.6,83.9c-8.4,8.4-18.1,16.6-24.7,26.7
			c-5.6,8.6-8.7,18.9-6.8,29.2c2.2,12,11.8,23.3,22.8,28.3c16.7,7.5,34.2-2,45.9-14.1c0.9-1,1.9-2,2.7-3
			C97.2,146.4,90.9,140,87.2,144.5L87.2,144.5z"/>
	</g>
</g>
</svg>
