<?xml version="1.0" encoding="utf-8"?>
<!-- Generator: Adobe Illustrator 19.2.0, SVG Export Plug-In . SVG Version: 6.00 Build 0)  -->
<svg version="1.1" id="Laag_1" xmlns="http://www.w3.org/2000/svg" xmlns:xlink="http://www.w3.org/1999/xlink" x="0px" y="0px"
	 viewBox="0 0 186.7 186.7" style="enable-background:new 0 0 186.7 186.7;" xml:space="preserve">
<style type="text/css">
	.st0{fill:#231F20;}
	.st1{fill:#7D3C8C;}
	.st2{fill:#333333;stroke:#231F20;stroke-width:0.8183;stroke-miterlimit:10;}
	.st3{fill:none;}
	.st4{fill:#FFFFFF;}
	.st5{fill:#FF5072;}
	.st6{fill:#231F20;stroke:#231F20;stroke-width:0.8146;}
	.st7{fill:#84CD1A;}
	.st8{fill:#231F20;stroke:#231F20;stroke-miterlimit:10;}
</style>
<g>
	<g>
		<path class="st0" d="M9.8,93.3C10,58.4,32.1,26.2,65.3,14.5c33-11.7,70.2-1.4,92.6,25.4c22.6,26.9,25.3,66.6,7.2,96.6
			c-18,29.9-54,45.9-88.3,38.9C38.1,167.4,10.1,132.8,9.8,93.3c0-5.8-9-5.8-9,0c0.3,38.7,24.5,73.6,60.8,87
			c36.4,13.5,79,1.8,103.4-28.3c24.6-30.2,27.9-73.7,7.5-107C152.3,12.1,113-5,75.1,2.5c-43,8.5-74,47.4-74.4,90.8
			C0.7,99.1,9.7,99.1,9.8,93.3z"/>
	</g>
</g>
<g>
	<g>
		<path class="st0" d="M53.5,97.3c5.5,6.1,11,12.2,16.6,18.2c2.5,2.7,4.8,5.8,8.1,7.6c6,3.3,13.7,1.9,18.5-2.9
			c11.5-11.5,21.8-24.6,32.6-36.8c4.6-5.1,9.1-10.3,13.7-15.4c3.8-4.3-2.5-10.7-6.4-6.4c-9.7,11-19.5,22-29.2,32.9
			c-4.9,5.6-9.9,11.1-14.8,16.7c-2,2.2-3.9,4.7-7.2,4.6c-3.6-0.1-5.7-3.2-7.9-5.6c-5.9-6.5-11.7-12.9-17.6-19.4
			C56,86.6,49.6,93,53.5,97.3L53.5,97.3z"/>
	</g>
</g>
</svg>
