<svg xmlns="http://www.w3.org/2000/svg" viewBox="0 0 231.2 249.76"><title>developer</title><circle cx="115.6" cy="134.16" r="115.6" fill="#5d2e66" opacity="0.05"/><path d="M181.08,209.15a12.51,12.51,0,0,0-24.6,3.51h0a7.89,7.89,0,0,0,0,15.79H179A9.76,9.76,0,0,0,181.08,209.15Z" transform="translate(0 0)" fill="none" opacity="0.1"/><circle cx="116.24" cy="134" r="104.17" fill="#5d2e66" opacity="0.1"/><rect x="28.75" y="56.36" width="174.99" height="180.9" rx="11.49" ry="11.49" fill="#fff" stroke="#5d2e66" stroke-miterlimit="10" stroke-width="3"/><g opacity="0.2"><ellipse cx="153.74" cy="95.48" rx="34.33" ry="30.45" fill="none" stroke="#7e3d8e" stroke-miterlimit="10" stroke-width="3.4" stroke-dasharray="12.73 12.73"/></g><path d="M123.22,72.5a29,29,0,1,1,58,0c0,30-17.91,35.77-28.85,35.77S123.22,103.27,123.22,72.5Z" transform="translate(0 0)" fill="#f2f2f2" stroke="#5d2e66" stroke-miterlimit="10" stroke-width="3.11"/><path d="M153.23,84.42c7.26-.27,15.56,7.92,19.76,7.67s3.42-7,7.51-14.64c3.32,3.36,11.95,38.26-26.89,38.26s-32.68-36.42-29.7-38.26c1.52,1.52,4,14.64,10.1,14.64S146,84.69,153.23,84.42Z" transform="translate(0 0)" fill="#f7934f" stroke="#5d2e66" stroke-miterlimit="10" stroke-width="3"/><path d="M133.5,73.84s0.48-6.16,5.06-6.16,5.34,6.16,5.34,6.16" transform="translate(0 0)" fill="none" stroke="#5d2e66" stroke-linecap="round" stroke-linejoin="round" stroke-width="3"/><path d="M160.49,73.84s0.48-6.16,5.06-6.16,5.34,6.16,5.34,6.16" transform="translate(0 0)" fill="none" stroke="#5d2e66" stroke-linecap="round" stroke-linejoin="round" stroke-width="3"/><rect x="43.15" y="136.46" width="146.18" height="51.7" rx="8.05" ry="8.05" fill="#fff" stroke="#5d2e66" stroke-miterlimit="10" stroke-width="3"/><rect x="44.56" y="80.57" width="56.71" height="3.29" rx="1.47" ry="1.47" fill="#7e3d8e" opacity="0.5"/><rect x="44.56" y="90.88" width="56.71" height="3.29" rx="1.47" ry="1.47" fill="#7e3d8e" opacity="0.5"/><path d="M152.86,0a2.72,2.72,0,0,0-2.72,2.72V13.23a2.72,2.72,0,0,0,5.43,0V2.72A2.72,2.72,0,0,0,152.86,0Z" transform="translate(0 0)" fill="#7e3d8e" opacity="0.5"/><path d="M121.44,16.74a2.72,2.72,0,0,0-3.84,3.84L125,28a2.72,2.72,0,0,0,3.84-3.84Z" transform="translate(0 0)" fill="#7e3d8e" opacity="0.5"/><path d="M184.27,16.74l-7.43,7.43A2.72,2.72,0,0,0,180.69,28l7.43-7.43A2.72,2.72,0,0,0,184.27,16.74Z" transform="translate(0 0)" fill="#7e3d8e" opacity="0.5"/><path d="M183,209a12.51,12.51,0,0,0-24.6,3.51h0a7.89,7.89,0,0,0,0,15.79h22.53A9.76,9.76,0,0,0,183,209Z" transform="translate(0 0)" fill="#5d2e66" opacity="0.1"/><path d="M183,209a12.51,12.51,0,0,0-24.6,3.51h0a7.89,7.89,0,0,0,0,15.79h22.53A9.76,9.76,0,0,0,183,209Z" transform="translate(0 0)" fill="none" stroke="#5d2e66" stroke-miterlimit="10" stroke-width="3"/><rect x="44.56" y="208.56" width="56.71" height="3.29" rx="1.47" ry="1.47" fill="#7e3d8e" opacity="0.5"/><rect x="44.56" y="218.87" width="56.71" height="3.29" rx="1.47" ry="1.47" fill="#7e3d8e" opacity="0.5"/><rect x="115.6" y="63.53" width="8.32" height="15.14" rx="3.95" ry="3.95" fill="#a054b2" stroke="#5d2e66" stroke-miterlimit="10" stroke-width="3"/><rect x="180.51" y="63.53" width="8.32" height="15.14" rx="3.95" ry="3.95" fill="#a054b2" stroke="#5d2e66" stroke-miterlimit="10" stroke-width="3"/><rect x="126.31" y="63.53" width="24.83" height="15.14" rx="3.78" ry="3.78" fill="none" stroke="#5d2e66" stroke-miterlimit="10" stroke-width="3"/><rect x="153.74" y="63.53" width="24.75" height="15.14" rx="3.77" ry="3.77" fill="none" stroke="#5d2e66" stroke-miterlimit="10" stroke-width="3"/><path d="M119.76,63.53s0.25-29.28,32.1-29.28,32.81,29.28,32.81,29.28" transform="translate(0 0)" fill="none" stroke="#5d2e66" stroke-miterlimit="10" stroke-width="3"/><rect x="143.44" y="47.38" width="3.02" height="3.02" rx="1.43" ry="1.43" fill="#fff"/><path d="M134.45,58.67a13.72,13.72,0,0,1,6.64-6.35c1.46-.6.82-3-0.66-2.4a16.28,16.28,0,0,0-8.13,7.49c-0.73,1.42,1.42,2.69,2.15,1.26h0Z" transform="translate(0 0)" fill="#fff"/><polyline points="56.69 178.56 176.91 178.56 176.91 152.57" fill="none" stroke="#5d2e66" stroke-linecap="round" stroke-linejoin="round" stroke-width="3"/><polyline points="68.9 172.22 78.21 162.91 86.42 171.13 103.89 153.66 120.82 170.58 130.74 160.66 140.89 170.81 165.49 146.21 165.49 146.21" fill="none" stroke="#7e3d8e" stroke-linecap="round" stroke-linejoin="round" stroke-width="2.49"/><path d="M141.34,94.73s-0.5,4.61,5.74,6.53,12.92-.38,12.92-0.38,6.16-2.53,6.16-6.29c0-.41-5-1.19-12.21-1.19A58.79,58.79,0,0,0,141.34,94.73Z" transform="translate(0 0)" fill="#f7934f" stroke="#5d2e66" stroke-miterlimit="10" stroke-width="3"/><polygon points="140.45 94.07 152.22 93.14 165.85 95.47 156.59 103.18 145.67 101.8 140.45 94.07" fill="#fff"/><path d="M159.81,100.6c0,1-3.45,2.27-6.83,2.33s-6.46-1.08-6.46-2c0-1.9,3.09-3.21,6.72-3.21S159.81,98.7,159.81,100.6Z" transform="translate(0 0)" fill="#ffa631" stroke="#5d2e66" stroke-miterlimit="10" stroke-width="3"/><path d="M165.57,94.59c1.7,1.7-4.71,8.59-12.83,8.59s-13.35-7.12-11.87-8.59S163.87,92.89,165.57,94.59Z" transform="translate(0 0)" fill="none" stroke="#5d2e66" stroke-miterlimit="10" stroke-width="3"/></svg>