<svg id="Layer_1" data-name="Layer 1" xmlns="http://www.w3.org/2000/svg" viewBox="0 0 220 220"><defs><style>.cls-1,.cls-2,.cls-4{fill:#5d2e66;}.cls-1,.cls-7{opacity:0.1;}.cls-2{opacity:0.05;}.cls-3,.cls-5{fill:#fff;}.cls-5,.cls-6{stroke:#5d2e66;stroke-miterlimit:10;stroke-width:3px;}.cls-6{fill:#f2f2f2;stroke-linecap:round;}.cls-8{opacity:0.5;}.cls-9{fill:none;}.cls-10{fill:#709dc9;}</style></defs><title>Artboard 1</title><circle class="cls-1" cx="110.8" cy="109.85" r="96.72"/><circle class="cls-2" cx="110.8" cy="110" r="107.33"/><path class="cls-3" d="M201.68,166.75H14.51A11.17,11.17,0,0,1,3.37,155.61V137.66H212.82v17.94A11.17,11.17,0,0,1,201.68,166.75Z"/><path class="cls-3" d="M79.24,197.53c10.44,0,8.1-43.64,8.1-43.64a3.07,3.07,0,0,1,2.94-3.18H127.6a3.07,3.07,0,0,1,2.94,3.18s-1.45,43.55,7.48,43.64Z"/><path class="cls-4" d="M138,199H78.17v-3h1.07a2.41,2.41,0,0,0,1.84-.92c5.41-5.71,5.28-31.64,4.77-41.15a4.58,4.58,0,0,1,4.43-4.75H127.6a4.57,4.57,0,0,1,4.44,4.67c-.33,9.84-.09,36.38,4.83,41.52A1.59,1.59,0,0,0,138,196Zm-53.86-3h49.47c-5.51-9.23-4.7-38.68-4.59-42.19a1.58,1.58,0,0,0-1.44-1.62H90.28a1.59,1.59,0,0,0-1.44,1.67C89,157.28,90.4,186.74,84.16,196Z"/><path class="cls-4" d="M153.25,199H64.63a1.5,1.5,0,1,1,0-3h88.62a1.5,1.5,0,0,1,0,3Z"/><rect class="cls-5" x="3.37" y="28.63" width="209.44" height="138.12" rx="11.56" ry="11.56"/><path class="cls-6" d="M201.68,166.75H14.51A11.17,11.17,0,0,1,3.37,155.61V140.76H212.82v14.85A11.17,11.17,0,0,1,201.68,166.75Z"/><g class="cls-7"><circle class="cls-4" cx="108.94" cy="153.8" r="6.92"/></g><path class="cls-4" d="M108.94,162.13a8.42,8.42,0,1,1,8.42-8.42A8.43,8.43,0,0,1,108.94,162.13Zm0-13.84a5.42,5.42,0,1,0,5.42,5.42A5.43,5.43,0,0,0,108.94,148.29Z"/><g class="cls-8"><path class="cls-4" d="M198,46.21H177.08a1.5,1.5,0,0,1,0-3H198a1.5,1.5,0,0,1,0,3Z"/></g><g class="cls-8"><path class="cls-4" d="M165.87,46.21H145a1.5,1.5,0,0,1,0-3h20.88a1.5,1.5,0,0,1,0,3Z"/></g><g class="cls-7"><path class="cls-9" d="M34.11,45.66a6.72,6.72,0,0,0-13.2,1.88h0a4.24,4.24,0,0,0,0,8.47H33a5.24,5.24,0,0,0,1.12-10.36Z"/></g><g class="cls-7"><path class="cls-4" d="M35.12,45.55a6.72,6.72,0,0,0-13.2,1.88h0a4.24,4.24,0,0,0,0,8.47H34a5.24,5.24,0,0,0,1.12-10.36Z"/></g><path class="cls-4" d="M34,57.41H21.91A5.74,5.74,0,0,1,20.54,46.1a8.19,8.19,0,0,1,15.75-1.77A6.74,6.74,0,0,1,34,57.41ZM21.92,48.94a2.74,2.74,0,1,0,0,5.47H34A3.74,3.74,0,0,0,34.8,47l-.88-.19L33.68,46a5.29,5.29,0,0,0-5-3.89,5.35,5.35,0,0,0-5.24,5.37v1.49Z"/><g class="cls-7"><polygon class="cls-4" points="86.66 175.9 130.17 175.9 130.17 166.75 87.55 166.75 86.66 175.9"/></g><g class="cls-7"><path class="cls-4" d="M100.11,104.32v-2.56a13,13,0,0,1,.36-3.2,10.81,10.81,0,0,1,1.1-2.74,13.1,13.1,0,0,1,1.92-2.53,27.86,27.86,0,0,1,2.83-2.55q1.45-1.15,2.45-2a10.69,10.69,0,0,0,1.62-1.79,6.13,6.13,0,0,0,.9-1.85,8.24,8.24,0,0,0,.27-2.25,4.32,4.32,0,0,0-1.34-3.25,5.67,5.67,0,0,0-4.07-1.27,15,15,0,0,0-5.14,1,56.87,56.87,0,0,0-5.69,2.47l-3.55-7.64A33.7,33.7,0,0,1,95,72.47a35.84,35.84,0,0,1,3.63-1.39,29.58,29.58,0,0,1,3.82-1,21.67,21.67,0,0,1,3.81-.35,22.21,22.21,0,0,1,6.37.83,13.57,13.57,0,0,1,4.82,2.46,10.91,10.91,0,0,1,3,3.94,12.65,12.65,0,0,1,1.07,5.29,14.3,14.3,0,0,1-.48,3.89,11.72,11.72,0,0,1-1.43,3.19,15.89,15.89,0,0,1-2.38,2.84q-1.43,1.37-3.33,2.9-1.45,1.14-2.37,2a9.68,9.68,0,0,0-1.43,1.61,4.67,4.67,0,0,0-.71,1.58,8.54,8.54,0,0,0-.19,1.92v2.08ZM99,116.16a7.2,7.2,0,0,1,.46-2.75,4.62,4.62,0,0,1,1.29-1.82,5.16,5.16,0,0,1,2-1,9,9,0,0,1,2.41-.32,8.37,8.37,0,0,1,2.3.31,5.19,5.19,0,0,1,1.92,1,4.78,4.78,0,0,1,1.32,1.81,6.94,6.94,0,0,1,.49,2.75,6.6,6.6,0,0,1-.48,2.67,5,5,0,0,1-3.23,2.9,7.93,7.93,0,0,1-2.3.33,8.5,8.5,0,0,1-2.41-.32,5.08,5.08,0,0,1-2-1,4.94,4.94,0,0,1-1.3-1.83A6.87,6.87,0,0,1,99,116.16Z"/></g><path class="cls-10" d="M105.55,99.21V96.65a13.09,13.09,0,0,1,.36-3.2,10.82,10.82,0,0,1,1.1-2.74,13.13,13.13,0,0,1,1.92-2.53,28,28,0,0,1,2.83-2.55q1.45-1.15,2.45-2a10.72,10.72,0,0,0,1.62-1.79,6.08,6.08,0,0,0,.9-1.85,8.2,8.2,0,0,0,.27-2.25,4.31,4.31,0,0,0-1.34-3.25,5.67,5.67,0,0,0-4.07-1.27,15,15,0,0,0-5.14,1,56.9,56.9,0,0,0-5.69,2.47L97.21,69a33.57,33.57,0,0,1,3.23-1.65A35.64,35.64,0,0,1,104.07,66a29.56,29.56,0,0,1,3.82-1,21.68,21.68,0,0,1,3.81-.35,22.21,22.21,0,0,1,6.37.83A13.58,13.58,0,0,1,122.89,68a10.91,10.91,0,0,1,3,3.94A12.65,12.65,0,0,1,127,77.18a14.3,14.3,0,0,1-.48,3.89,11.72,11.72,0,0,1-1.43,3.19,15.89,15.89,0,0,1-2.38,2.84q-1.43,1.37-3.33,2.9-1.45,1.14-2.37,2a9.63,9.63,0,0,0-1.43,1.61,4.67,4.67,0,0,0-.71,1.58,8.53,8.53,0,0,0-.19,1.92v2.08ZM104.43,111a7.2,7.2,0,0,1,.46-2.75,4.62,4.62,0,0,1,1.29-1.82,5.17,5.17,0,0,1,2-1,9,9,0,0,1,2.41-.32,8.32,8.32,0,0,1,2.3.31,5.19,5.19,0,0,1,1.92,1,4.8,4.8,0,0,1,1.32,1.81,7,7,0,0,1,.49,2.75,6.62,6.62,0,0,1-.48,2.67,5,5,0,0,1-3.23,2.9,7.93,7.93,0,0,1-2.3.33,8.53,8.53,0,0,1-2.41-.32,5.1,5.1,0,0,1-2-1.05,5,5,0,0,1-1.3-1.83A6.87,6.87,0,0,1,104.43,111Z"/><path class="cls-4" d="M110.55,118.41a10.07,10.07,0,0,1-2.8-.38,6.61,6.61,0,0,1-2.52-1.36,6.46,6.46,0,0,1-1.7-2.38,8.38,8.38,0,0,1-.59-3.25h0a8.7,8.7,0,0,1,.57-3.33,6.13,6.13,0,0,1,1.72-2.4,6.68,6.68,0,0,1,2.51-1.3,10.51,10.51,0,0,1,2.81-.37h0a9.85,9.85,0,0,1,2.69.36,6.71,6.71,0,0,1,2.47,1.29,6.29,6.29,0,0,1,1.74,2.37,8.45,8.45,0,0,1,.62,3.35,8.14,8.14,0,0,1-.6,3.27,6.52,6.52,0,0,1-4.17,3.73,9.46,9.46,0,0,1-2.73.4ZM105.93,111a5.44,5.44,0,0,0,.35,2.08,3.44,3.44,0,0,0,.91,1.29,3.59,3.59,0,0,0,1.39.74,9.25,9.25,0,0,0,2,.26,6.45,6.45,0,0,0,1.87-.27,3.52,3.52,0,0,0,2.29-2.06,5.18,5.18,0,0,0,.35-2.06,5.53,5.53,0,0,0-.37-2.16,3.29,3.29,0,0,0-.9-1.26,3.68,3.68,0,0,0-1.37-.71,6.87,6.87,0,0,0-1.87-.25h0a7.54,7.54,0,0,0-2,.26,3.65,3.65,0,0,0-1.39.71,3.11,3.11,0,0,0-.87,1.24,5.77,5.77,0,0,0-.35,2.18Zm-1.88-10.33V96.65a14.61,14.61,0,0,1,.4-3.57A12.36,12.36,0,0,1,105.7,90a14.67,14.67,0,0,1,2.13-2.82,29.38,29.38,0,0,1,3-2.69c.94-.74,1.74-1.41,2.38-2a9.28,9.28,0,0,0,1.39-1.53,4.56,4.56,0,0,0,.68-1.4,6.72,6.72,0,0,0,.21-1.84,2.81,2.81,0,0,0-.88-2.17,4.29,4.29,0,0,0-3-.86h0a13.61,13.61,0,0,0-4.62.92,55.57,55.57,0,0,0-5.54,2.4l-1.38.68L95.27,68.41l1.18-.69A35.19,35.19,0,0,1,99.83,66a37.21,37.21,0,0,1,3.78-1.45,31.22,31.22,0,0,1,4-1,23.24,23.24,0,0,1,4.07-.38,24.09,24.09,0,0,1,6.8.89,15.13,15.13,0,0,1,5.34,2.74,12.45,12.45,0,0,1,3.45,4.47,14.17,14.17,0,0,1,1.21,5.92,15.87,15.87,0,0,1-.53,4.3,13.27,13.27,0,0,1-1.61,3.59,17.44,17.44,0,0,1-2.61,3.12c-1,.93-2.13,1.94-3.43,3-.94.74-1.7,1.39-2.28,1.92a8.18,8.18,0,0,0-1.21,1.36,3.18,3.18,0,0,0-.49,1.07,7.15,7.15,0,0,0-.15,1.58v3.58Zm7.56-29a7.09,7.09,0,0,1,5.07,1.69,5.78,5.78,0,0,1,1.8,4.33,9.76,9.76,0,0,1-.33,2.66A7.63,7.63,0,0,1,117,82.66a12.26,12.26,0,0,1-1.84,2c-.7.63-1.55,1.33-2.53,2.11A26.52,26.52,0,0,0,110,89.21a11.69,11.69,0,0,0-1.7,2.24,9.34,9.34,0,0,0-.95,2.36,11.65,11.65,0,0,0-.31,2.83V97.7h6.14v-.58a10,10,0,0,1,.22-2.26,6.18,6.18,0,0,1,.93-2.08A11.12,11.12,0,0,1,116,90.9c.64-.59,1.46-1.29,2.46-2.07,1.22-1,2.31-1.93,3.23-2.8a14.42,14.42,0,0,0,2.16-2.57,10.28,10.28,0,0,0,1.24-2.78,12.84,12.84,0,0,0,.42-3.49,11.23,11.23,0,0,0-.93-4.67,9.47,9.47,0,0,0-2.62-3.4,12.18,12.18,0,0,0-4.29-2.19,20.76,20.76,0,0,0-5.87-.77h-.07a20.22,20.22,0,0,0-3.54.33,28.2,28.2,0,0,0-3.62.91,34.36,34.36,0,0,0-3.48,1.33c-.66.29-1.29.6-1.9.92l2.32,5c1.52-.71,3-1.34,4.45-1.87a16.56,16.56,0,0,1,5.65-1.11Z"/></svg>