<svg xmlns="http://www.w3.org/2000/svg" viewBox="0 0 164.31 93.4"><title>hands</title><path d="M108,84.08v0L108,84h0c-12-3.68-16.13-17.92-16.68-20,0.21-2.53,1.45-18.43-.31-25.76a4.73,4.73,0,0,1,3-1.84,5.67,5.67,0,0,1,3.49,1V61.13h0s0,0,0,0a1.87,1.87,0,1,0,3.73,0s0,0,0,0h0v-45a2,2,0,0,1,.69-1.67c1.16-1,3.52-1.28,5.26-1.28h0.09V39.52h0a2,2,0,0,0,0,.22,1.88,1.88,0,1,0,3.76,0,2,2,0,0,0,0-.22h0V7.73A2.84,2.84,0,0,1,112,5.42c1.26-1.09,3.57-1.34,5.25-1.32V39.52h0a2,2,0,0,0,3.93-.11,2,2,0,0,0-.05-0.45V11.74a1.93,1.93,0,0,1,.66-1.57c1.21-1.07,3.84-1.39,5.95-1.37V39a1.94,1.94,0,1,0,3.82.52,1.9,1.9,0,0,0,0-.4V17a0.67,0.67,0,0,1,.26-0.57c0.94-.86,3.46-1.17,5.63-1.16V41.93h0V69.37s0.34,4.62-6.43,7a1.89,1.89,0,1,0,1.19,3.58A15.91,15.91,0,0,0,137.49,77L158.23,93.4h6.08C158.84,89,143.08,76.6,139.89,74.09a9.47,9.47,0,0,0,1.29-4.95V41.44h0V11.8l-1.71-.16a20.52,20.52,0,0,0-8,.73v-7l-1.66-.2c-0.62-.07-5.38-0.57-8.84,1.08V0.7l-1.62-.23c-0.66-.09-6.51-0.82-9.87,2.1a6.61,6.61,0,0,0-2.23,5.16v1.7c-0.45,0-.95,0-1.47,0a10.47,10.47,0,0,0-6.38,2.18,5.82,5.82,0,0,0-2,4.5v17a8.47,8.47,0,0,0-3.89-.53,8.78,8.78,0,0,0-6.23,4.11l-0.53.76,0.28,0.89c0.83,2.63,1.17,7.86,1,15.12C87.9,59.12,87.48,63.94,87.47,64l0,0.29,0.06,0.29a39.68,39.68,0,0,0,3.93,9.75c3.69,6.55,8.76,11.06,14.71,13.1l7.08,6H119Z" fill="#f7f7f7"/><path d="M6.2,93.4l18.68-15a11.4,11.4,0,0,0,6.88,5.63v0A1.89,1.89,0,0,0,33,80.55l-0.24-.11h0c-0.05,0-5-1.45-5.05-6.13l0.2-24.42h0V15.79c2.21,0,4.84.3,5.79,1.17a0.65,0.65,0,0,1,.26.55V46.25a8.34,8.34,0,0,0-2.51,2.22h0l-0.07.12a1.86,1.86,0,0,0,3.18,1.94h0l0,0s3.18-4.05,15.57-4.05c8.84,0,13.13,3,14.88,4.72a20.39,20.39,0,0,0-10.51,4.27,14.49,14.49,0,0,0-5,10.73h0a1.86,1.86,0,0,0,3.49,1,1.89,1.89,0,0,0,.24-0.81h0a10.91,10.91,0,0,1,7.32-10.2A21.43,21.43,0,0,1,68,54.82l1.44,0C69.62,42,72.4,38.72,74,37.9a4.52,4.52,0,0,1,4.1.48C76.57,44.93,75,61.55,74.77,63.52h0a32.76,32.76,0,0,1-3.45,12.86C67,84.61,59.65,88.8,49.33,88.83l0,0-0.05,0h0v0L43.93,93.4h6.65l1-.86C64.88,91.73,71.5,84.3,74.73,78a36.42,36.42,0,0,0,3.79-14c0.55-5.88,2.27-21.84,3.59-25.86l0.45-1.36L81.39,36l0,0c-3.09-2.24-6.37-2.77-9-1.44-2.05,1-3.62,3.06-4.72,6.12V14.47a5.64,5.64,0,0,0-1.91-4.34c-2.28-2-6-2.27-8.27-2.22V7.4A6.63,6.63,0,0,0,55.2,2.21,10.35,10.35,0,0,0,48.93,0a18.7,18.7,0,0,0-3.45.1l-1.62.23V5.81c-3.3-1.54-7.67-1.06-8.24-1L34,5v7.83a21,21,0,0,0-8.11-.75l-1.71.16V49.5l-0.2,24.79h0v0h0v0L0,93.4H6.2ZM57.81,11.68c0.39,0,.82,0,1.27,0a7.24,7.24,0,0,1,4.14,1.23,1.87,1.87,0,0,1,.64,1.52V45.82a23.43,23.43,0,0,0-6-2.24V11.68ZM47.63,3.77c1.64,0,3.88.23,5.1,1.29a2.86,2.86,0,0,1,.94,2.34V42.93c-1.11-.1-2.28-0.16-3.53-0.16-0.88,0-1.71,0-2.51.05V3.77ZM37.74,17.51v-9c1.75,0,4.17.23,5.35,1.28a2,2,0,0,1,.69,1.67V43.15a30.82,30.82,0,0,0-6,1.35v-27Z" fill="#f7f7f7"/></svg>