<?xml version="1.0" encoding="utf-8"?>
<!-- Generator: Adobe Illustrator 20.1.0, SVG Export Plug-In . SVG Version: 6.00 Build 0)  -->
<svg version="1.1" id="Layer_1" xmlns="http://www.w3.org/2000/svg" xmlns:xlink="http://www.w3.org/1999/xlink" x="0px" y="0px"
	 viewBox="0 0 900.8 176.8" style="enable-background:new 0 0 900.8 176.8;" xml:space="preserve">
<style type="text/css">
	.st0{fill:#F2F2F2;stroke:#5D2E66;stroke-width:3;stroke-miterlimit:10;}
	.st1{fill:none;stroke:#5D2E66;stroke-width:3;stroke-linecap:round;stroke-miterlimit:10;}
	.st2{opacity:5.000000e-02;fill:#5D2E66;}
	.st3{fill:#FFA631;stroke:#5D2E66;stroke-width:3;stroke-miterlimit:10;}
	.st4{fill:none;stroke:#5D2E66;stroke-width:3;stroke-miterlimit:10;}
	.st5{fill:#FFE576;stroke:#5D2E66;stroke-width:3;stroke-miterlimit:10;}
	.st6{fill:#FFFFFF;stroke:#5D2E66;stroke-width:3;stroke-linejoin:round;stroke-miterlimit:10;}
	.st7{opacity:0.1;fill:#5D2E66;}
	.st8{fill:#709DC9;stroke:#5D2E66;stroke-width:3;stroke-miterlimit:10;}
	.st9{fill:#FFFFFF;stroke:#5D2E66;stroke-width:3;stroke-miterlimit:10;}
	.st10{fill:none;stroke:#A054B2;stroke-width:3;stroke-linecap:round;stroke-linejoin:round;stroke-miterlimit:10;}
	.st11{fill:#FFFFFF;stroke:#5D2E66;stroke-width:3;stroke-linecap:round;stroke-linejoin:round;stroke-miterlimit:10;}
	.st12{opacity:0.5;fill:#7E3D8E;}
	.st13{opacity:0.2;}
	.st14{fill:none;stroke:#5D2E66;stroke-width:3;stroke-linecap:round;stroke-linejoin:round;}
	.st15{fill:none;stroke:#5D2E66;stroke-width:3;stroke-linecap:round;stroke-linejoin:round;stroke-dasharray:10.8981,10.8981;}
	.st16{fill:#F7934F;stroke:#5D2E66;stroke-width:3;stroke-miterlimit:10;}
	.st17{fill:none;stroke:#5D2E66;stroke-width:3;stroke-linecap:round;stroke-linejoin:round;stroke-miterlimit:10;}
	.st18{fill:#A054B2;stroke:#5D2E66;stroke-width:3;stroke-miterlimit:10;}
	.st19{fill:#FFFFFF;}
	.st20{font-family:'DroidSans-Bold';}
	.st21{font-size:70.8803px;}
</style>
<path class="st0" d="M136.4,128.6c0-21.3,17.8-47.5,39.7-47.5s39.7,26.2,39.7,47.5c0,38.7-24.5,46.1-39.5,46.1
	C161.3,174.7,136.4,168.3,136.4,128.6z"/>
<path class="st1" d="M155.1,135.3c0,0,0.7-9.4,7.7-9.4c7,0,8.1,9.4,8.1,9.4"/>
<path class="st1" d="M183.8,135.3c0,0,0.7-9.4,7.7-9.4c7,0,8.1,9.4,8.1,9.4"/>
<path class="st2" d="M158.2,152c0,0-0.8,7,8.7,10c9.5,2.9,19.7-0.6,19.7-0.6s9.4-3.9,9.4-9.6c0-0.6-7.7-1.8-18.6-1.8
	C166.5,150,158.2,152,158.2,152z"/>
<path class="st3" d="M187.2,160.9c0,1.5-5.3,3.5-10.4,3.6c-5,0.1-9.8-1.6-9.8-3.1c0-2.9,4.7-4.9,10.2-4.9S187.2,158,187.2,160.9z"/>
<path class="st4" d="M196,151.8c2.6,2.6-7.2,13.1-19.6,13.1s-20.3-10.8-18.1-13.1C160.6,149.5,193.4,149.2,196,151.8z"/>
<path class="st5" d="M148.8,103.6c1.6-1.6,41.3,35.8,79.2-2.1c5.7-9.5-10.4-7.1-10.4-7.1s-7.7-20-38.7-22.5
	c-31-2.4-32.9,20.2-32.9,20.2s-7.9-2.7-15.6,5.1c-11.2,9.6-0.4,30.1,5.9,30.1C142.7,127.3,149.3,116.7,148.8,103.6"/>
<path class="st6" d="M14.4,111.5L1.6,52.8c-0.7-3.2,1.4-6.5,4.6-7.2L101.4,25c3.2-0.7,6.5,1.4,7.2,4.6l12.7,58.7
	c0.7,3.2-1.4,6.5-4.6,7.2l-17.8,3.8c0,0,0.3,9.6,7.5,14.7c7.2,5.1-16.3,7.6-26.6-10.5l-58.2,12.6C18.3,116.8,15.1,114.7,14.4,111.5z
	"/>
<path class="st7" d="M115.7,50.5L46.5,65.1c-1.7,0.4-3.3-0.7-3.7-2.4l-1.4-6.6c-0.4-1.7,0.7-3.3,2.4-3.7L113,37.9
	C114.7,37.5,117.4,50.2,115.7,50.5z"/>
<path class="st8" d="M131.6,42.9l-81,17c-1.8,0.4-3.6-0.8-4-2.6l-1.3-6.1c-0.4-1.8,0.8-3.6,2.6-4l81-17c1.8-0.4,3.6,0.8,4,2.6
	l1.3,6.1C134.5,40.7,133.4,42.5,131.6,42.9z"/>
<path class="st7" d="M31.8,68l-12.6,2.7c-0.8,0.2-1.5-0.3-1.7-1.1L15.3,59c-0.2-0.8,0.3-1.5,1.1-1.7L29,54.7
	c0.8-0.2,1.5,0.3,1.7,1.1l2.2,10.5C33.1,67.1,32.6,67.9,31.8,68z"/>
<path class="st9" d="M34.6,63.7L22,66.3c-0.8,0.2-1.5-0.3-1.7-1.1l-2.2-10.5c-0.2-0.8,0.3-1.5,1.1-1.7l12.6-2.7
	c0.8-0.2,1.5,0.3,1.7,1.1L35.7,62C35.9,62.8,35.4,63.5,34.6,63.7z"/>
<path class="st0" d="M104.8,67.3l-61.9,13c-1.4,0.3-2.7-0.6-3-2l-1-4.7c-0.3-1.4,0.6-2.7,2-3l61.9-13c1.4-0.3,2.7,0.6,3,2l1,4.7
	C107.1,65.7,106.2,67.1,104.8,67.3z"/>
<path class="st9" d="M30.7,83.2l-9.6,2c-0.6,0.1-1.2-0.3-1.3-0.8L18,76.3c-0.1-0.6,0.3-1.2,0.8-1.3l9.6-2c0.6-0.1,1.2,0.3,1.3,0.8
	l1.7,8.1C31.6,82.5,31.2,83.1,30.7,83.2z"/>
<path class="st0" d="M108.5,85.1l-61.9,13c-1.4,0.3-2.7-0.6-3-2l-1-4.7c-0.3-1.4,0.6-2.7,2-3l61.9-13c1.4-0.3,2.7,0.6,3,2l1,4.7
	C110.8,83.5,109.9,84.8,108.5,85.1z"/>
<path class="st9" d="M34.4,101l-9.6,2c-0.6,0.1-1.2-0.3-1.3-0.8l-1.7-8.1c-0.1-0.6,0.3-1.2,0.8-1.3l9.6-2c0.6-0.1,1.2,0.3,1.3,0.8
	l1.7,8.1C35.4,100.3,35,100.9,34.4,101z"/>
<polyline class="st10" points="23.4,57.4 27.7,60.2 34.9,49.1 "/>
<polygon class="st11" points="125.5,40.4 132.2,54.7 135.1,50.7 139,53.6 141.9,49.8 138,46.9 141.1,42.7 "/>
<path class="st12" d="M147.8,9.2c-0.8-0.4-1.8-0.1-2.2,0.7l-2.8,5.7c-0.4,0.8-0.1,1.8,0.7,2.2c0.8,0.4,1.8,0.1,2.2-0.7l2.8-5.7
	C149,10.6,148.6,9.6,147.8,9.2z"/>
<path class="st12" d="M126.3,9.8c-0.3-0.9-1.2-1.3-2.1-1c-0.9,0.3-1.3,1.2-1,2.1l2,6c0.3,0.9,1.2,1.3,2.1,1c0.9-0.3,1.3-1.2,1-2.1
	L126.3,9.8z"/>
<path class="st12" d="M160.4,26.7l-6,2c-0.9,0.3-1.3,1.2-1,2.1c0.3,0.9,1.2,1.3,2.1,1l6-2c0.9-0.3,1.3-1.2,1-2.1
	C162.2,26.9,161.2,26.5,160.4,26.7z"/>
<path class="st6" d="M291.2,110.7l-62.5-26.3c-3.2-1.3-4.7-5.1-3.4-8.3l17.1-40.5c1.3-3.2,5.1-4.7,8.3-3.4l62.5,26.3
	c3.2,1.3,4.7,5.1,3.4,8.3l-17.1,40.5C298.1,110.5,294.4,112,291.2,110.7z"/>
<polyline class="st7" points="274.7,58 251.4,76.6 250.6,65.4 240.3,64.1 258.4,50.6 "/>
<rect x="274.4" y="14.3" transform="matrix(0.3879 -0.9217 0.9217 0.3879 119.9384 289.6342)" class="st7" width="7.2" height="80.5"/>
<polyline class="st7" points="278.3,59.9 280.1,89.7 289,82.7 296.9,89.5 294.6,67 "/>
<rect x="262.6" y="49.9" transform="matrix(0.9217 0.3879 -0.3879 0.9217 50.0891 -99.0273)" class="st5" width="15.4" height="49.2"/>
<path class="st12" d="M356.8,40.4c-0.3-0.6-1-0.8-1.6-0.5l-4,2.1c-0.6,0.3-0.8,1-0.5,1.6c0.3,0.6,1,0.8,1.6,0.5l4-2.1
	C356.9,41.7,357.1,41,356.8,40.4z"/>
<path class="st12" d="M344.1,31.7c0.2-0.6-0.1-1.3-0.8-1.5c-0.6-0.2-1.3,0.1-1.5,0.8l-1.4,4.3c-0.2,0.6,0.1,1.3,0.8,1.5
	c0.6,0.2,1.3-0.1,1.5-0.8L344.1,31.7z"/>
<path class="st12" d="M356.7,55.8l-4.3-1.4c-0.6-0.2-1.3,0.1-1.5,0.8c-0.2,0.6,0.1,1.3,0.8,1.5L356,58c0.6,0.2,1.3-0.1,1.5-0.8
	C357.6,56.6,357.3,56,356.7,55.8z"/>
<polyline class="st5" points="277.6,50.9 254.3,69.6 253.4,58.3 243.1,57 261.3,43.5 "/>
<polyline class="st5" points="281.7,52.2 283.4,82 292.4,75.1 300.3,81.9 298,59.4 "/>
<path class="st6" d="M321,68.7l-82-34.5c-2.1-0.9-3.1-3.4-2.2-5.5l4.8-11.4c0.9-2.1,3.4-3.1,5.5-2.2l82,34.5
	c2.1,0.9,3.1,3.4,2.2,5.5l-4.8,11.4C325.6,68.6,323.2,69.6,321,68.7z"/>
<rect x="273.2" y="31.5" transform="matrix(0.9217 0.3879 -0.3879 0.9217 38.4874 -106.9237)" class="st5" width="21.8" height="20.8"/>
<ellipse transform="matrix(0.9871 -0.16 0.16 0.9871 -0.3407 49.2039)" class="st5" cx="305.3" cy="26.7" rx="16.1" ry="7.4"/>
<ellipse transform="matrix(0.817 -0.5767 0.5767 0.817 42.5189 164.5746)" class="st5" cx="280.5" cy="15.3" rx="7.4" ry="16.1"/>
<ellipse transform="matrix(0.5848 -0.8112 0.8112 0.5848 96.8853 246.808)" class="st5" cx="289.5" cy="28.8" rx="3.5" ry="3.5"/>
<path class="st7" d="M330,60.9c0.2-0.3,0.4-0.6,0.6-0.9c1.9-2.9,4.8-4.7,8.1-5.5c0.2-3.5-1.4-7.1-4.5-9.3c-1.4-1-3-1.6-4.6-1.9
	c-0.9,1.4-2.6,2.4-4.3,2.2c-1.3,1-3,1.3-4.7,0.4c-0.6,0.5-1.1,1.1-1.6,1.7c-3.5,4.9-2.4,11.6,2.5,15.1c1.6,1.2,3.5,1.8,5.4,2
	C327.2,63,328.4,61.5,330,60.9z"/>
<ellipse transform="matrix(0.5848 -0.8112 0.8112 0.5848 94.9652 291.334)" class="st11" cx="332.1" cy="52.9" rx="10.9" ry="10.9"/>
<polyline class="st10" points="327.1,51.8 328.6,55.5 338.1,51.8 "/>
<g class="st13">
	<g>
		<path class="st14" d="M390.3,100c1.7-1.1,3.4-2.1,5.2-3.1"/>
		<path class="st15" d="M405.3,92.3c18.4-7.1,38-6.7,58,3.3"/>
		<path class="st14" d="M468.1,98.2c1.7,1,3.4,2,5.1,3.1"/>
	</g>
</g>
<path class="st0" d="M668.3,116.6c0-22.4,17.6-39.9,39.3-39.9c21.7,0,39.3,17.5,39.3,39.9c0,40.7-24.3,48.5-39.1,48.5
	C693,165.2,668.3,158.4,668.3,116.6z"/>
<path class="st16" d="M709,132.8c9.8-0.4,21.1,10.7,26.8,10.4c5.8-0.3,4.6-9.5,10.2-19.9c4.5,4.6,16.2,51.9-36.5,51.9
	c-52.7,0-44.3-49.4-40.3-51.9c2.1,2.1,5.4,19.9,13.7,19.9C691.2,143.2,699.1,133.2,709,132.8z"/>
<path class="st17" d="M682.2,118.5c0,0,0.6-8.4,6.9-8.4s7.3,8.4,7.3,8.4"/>
<path class="st17" d="M718.8,118.5c0,0,0.6-8.4,6.9-8.4s7.3,8.4,7.3,8.4"/>
<path class="st18" d="M663.6,125L663.6,125c-3.1,0-5.6-2.5-5.6-5.6v-9.3c0-3.1,2.5-5.6,5.6-5.6l0,0c3.1,0,5.6,2.5,5.6,5.6v9.3
	C669.2,122.5,666.7,125,663.6,125z"/>
<path class="st18" d="M751.6,125L751.6,125c-3.1,0-5.6-2.5-5.6-5.6v-9.3c0-3.1,2.5-5.6,5.6-5.6l0,0c3.1,0,5.6,2.5,5.6,5.6v9.3
	C757.3,122.5,754.7,125,751.6,125z"/>
<path class="st4" d="M700.7,125h-22.9c-3,0-5.4-2.4-5.4-5.4v-9.7c0-3,2.4-5.4,5.4-5.4h22.9c3,0,5.4,2.4,5.4,5.4v9.7
	C706.1,122.6,703.7,125,700.7,125z"/>
<path class="st4" d="M737.9,125h-22.8c-3,0-5.4-2.4-5.4-5.4v-9.8c0-3,2.4-5.4,5.4-5.4h22.8c3,0,5.4,2.4,5.4,5.4v9.8
	C743.2,122.6,740.8,125,737.9,125z"/>
<path class="st4" d="M663.6,104.5c0,0,0.3-39.7,43.5-39.7s44.5,39.7,44.5,39.7"/>
<path class="st19" d="M697.7,86.7L697.7,86.7c-1.1,0-2-0.9-2-2v0c0-1.1,0.9-2,2-2l0,0c1.1,0,2,0.9,2,2v0
	C699.8,85.7,698.9,86.7,697.7,86.7z"/>
<g>
	<g>
		<path class="st19" d="M684.6,98.5c1.7-3.4,4.7-6.6,8.2-8c1.5-0.6,2.6-2,2.1-3.7c-0.4-1.4-2.2-2.7-3.7-2.1c-5,2-9.3,5.9-11.8,10.8
			C677.7,98.9,682.9,102,684.6,98.5L684.6,98.5z"/>
	</g>
</g>
<polygon class="st19" points="691.6,145.9 707.6,144.6 726.1,147.8 713.5,158.3 698.7,156.4 "/>
<path class="st3" d="M717.9,154.7c0,1.3-4.7,3.1-9.3,3.2c-4.4,0.1-8.8-1.5-8.8-2.7c0-2.6,4.2-4.3,9.1-4.3S717.9,152.2,717.9,154.7z"
	/>
<path class="st4" d="M725.7,146.6c2.3,2.3-6.4,11.7-17.4,11.7s-18.1-9.7-16.1-11.7S723.4,144.3,725.7,146.6z"/>
<path class="st7" d="M692.8,146.8c0,0-0.7,6.3,7.8,8.9c8.5,2.6,17.5-0.5,17.5-0.5s8.4-3.4,8.4-8.5c0-0.6-6.8-1.6-16.6-1.6
	S692.8,146.8,692.8,146.8z"/>
<path class="st6" d="M839.1,111.7l23.7-69.2c1.3-3.8,0.6-8.8-3.2-10.1L791.3,7.9c-3.8-1.3-7.9,0.6-9.3,4.4l-24.4,68.1
	c-1.3,3.8,0.6,7.9,4.4,9.3l20.7,7.3c0,0-1.9,11.4-11.2,16.4c-9.3,5,18.3,11.7,33.4-8.4l25.9,9.3
	C834.5,115.6,837.7,115.5,839.1,111.7z"/>
<text transform="matrix(0.9462 0.3234 -0.3234 0.9462 781.2121 84.8848)" class="st7 st20 st21">?</text>
<text transform="matrix(0.9462 0.3234 -0.3234 0.9462 788.0194 81.8228)" class="st0 st20 st21">?</text>
<text transform="matrix(0.9462 0.3234 -0.3234 0.9462 788.3514 82.0291)" class="st8 st20 st21">?</text>
<path class="st12" d="M892.3,11.6c-0.8-0.9-2.1-0.9-2.9-0.2l-6,5.4c-0.9,0.8-0.9,2.1-0.2,2.9c0.8,0.9,2.1,0.9,2.9,0.2l6-5.4
	C893,13.7,893,12.4,892.3,11.6z"/>
<path class="st12" d="M866.7,2.3c0.1-1.1-0.8-2.1-2-2.2c-1.1-0.1-2.1,0.8-2.2,2l-0.4,8c-0.1,1.1,0.8,2.1,2,2.2
	c1.1,0.1,2.1-0.8,2.2-2L866.7,2.3z"/>
<path class="st12" d="M898.8,37.9l-8-0.4c-1.1-0.1-2.1,0.8-2.2,2c-0.1,1.1,0.8,2.1,2,2.2l8,0.4c1.1,0.1,2.1-0.8,2.2-2
	C900.8,39,899.9,38,898.8,37.9z"/>
<path class="st6" d="M575.5,111.7l-23.7-69.2c-1.3-3.8-0.6-8.8,3.2-10.1l68.2-24.4c3.8-1.3,7.9,0.6,9.3,4.4L657,80.4
	c1.3,3.8-0.6,7.9-4.4,9.3L631.9,97c0,0,1.9,11.4,11.2,16.4c9.3,5-18.3,11.7-33.4-8.4l-25.9,9.3C580.1,115.6,576.9,115.5,575.5,111.7
	z"/>
<path class="st12" d="M522.3,11.6c0.8-0.9,2.1-0.9,2.9-0.2l6,5.4c0.9,0.8,0.9,2.1,0.2,2.9c-0.8,0.9-2.1,0.9-2.9,0.2l-6-5.4
	C521.6,13.7,521.6,12.4,522.3,11.6z"/>
<path class="st12" d="M547.9,2.3c-0.1-1.1,0.8-2.1,2-2.2C551,0,552,0.9,552,2l0.4,8c0.1,1.1-0.8,2.1-2,2.2c-1.1,0.1-2.1-0.8-2.2-2
	L547.9,2.3z"/>
<path class="st12" d="M515.8,37.9l8-0.4c1.1-0.1,2.1,0.8,2.2,2c0.1,1.1-0.8,2.1-2,2.2l-8,0.4c-1.1,0.1-2.1-0.8-2.2-2
	C513.8,39,514.7,38,515.8,37.9z"/>
<text transform="matrix(0.9467 -0.3222 0.3222 0.9467 596.8822 95.8177)" class="st7 st20 st21">?</text>
<text transform="matrix(0.9467 -0.3222 0.3222 0.9467 600.7886 89.1947)" class="st8 st20 st21">?</text>
</svg>
