<?xml version="1.0" encoding="utf-8"?><svg width="350" height="320" viewBox="0 0 350 320" xmlns="http://www.w3.org/2000/svg" xmlns:xlink="http://www.w3.org/1999/xlink"><svg viewBox="0 0 25 25" width="25" height="25" id="activity" x="150" y="75"><title>icons</title><path fill="none" stroke="#424242" stroke-linecap="round" stroke-linejoin="round" d="M5.06 14.04h2.71l2.31-8.23 3.25 13.38 2.38-8.89.99 3.04h3.24"/></svg><svg viewBox="0 0 25 25" width="25" height="25" id="add" x="150" y="220"><title>icons</title><path fill="none" stroke="#424242" stroke-linecap="round" stroke-linejoin="round" d="M16.06 12.5H8.94M12.5 16.06V8.94M14.38 20.1A7.83 7.83 0 0 1 7 7a7.83 7.83 0 0 1 13.33 6.32 7.89 7.89 0 0 1-5.95 6.78z"/></svg><svg viewBox="0 0 25 25" width="25" height="25" id="addmember" x="150" y="100"><title>icons</title><path d="M20.43 12.53a7.77 7.77 0 1 1-7.79-7.8v-1a8.77 8.77 0 1 0 8.79 8.8h-1z" fill="#424242"/><path d="M12.92 15.51a4 4 0 1 1 4-4 4 4 0 0 1-4 4zm0-6.94a3 3 0 1 0 3 3 3 3 0 0 0-3-3z" fill="#424242"/><path d="M12.68 21.06a7.56 7.56 0 0 1-5.77-2.18.5.5 0 0 1 0-.59c.09-.15 2.34-3.63 6-3.63s5.85 3.3 5.94 3.44a.5.5 0 0 1-.06.61 8.7 8.7 0 0 1-6.11 2.35zM8 18.5a7 7 0 0 0 4.73 1.56 8 8 0 0 0 5.09-1.76 6.54 6.54 0 0 0-4.85-2.64c-2.58 0-4.4 2.03-4.97 2.84z" fill="#424242"/><path fill="none" stroke="#424242" stroke-linecap="round" stroke-linejoin="round" d="M23.51 5.37l-7.13.01M19.94 8.94V1.81"/></svg><svg viewBox="0 0 25 25" width="25" height="25" id="allprojects" y="145"><title>icons</title><path d="M13.19 12.61a.71.71 0 0 0 0-.07.7.7 0 0 0-.1-.36.71.71 0 0 0-.32-.25h-.25a.7.7 0 0 0-.7.66.7.7 0 0 0 .13.38.7.7 0 0 0 .35.23h.2a.7.7 0 0 0 .69-.59z" fill="none" stroke="#424242" stroke-miterlimit="10"/><path d="M14.46 11.36a.42.42 0 0 0-.1-.17.5.5 0 0 0-.14-.19L9.6 7.95l-.09-.06A.38.38 0 0 0 9 8a.4.4 0 0 0-.13.43l1.47 5.45a.42.42 0 0 0 .1.17.5.5 0 0 0 .14.14l4.62 3.1.09.06a.38.38 0 0 0 .51-.08.4.4 0 0 0 .13-.43zm-2.15 1.82A.7.7 0 0 1 12 13a.7.7 0 0 1-.13-.38.7.7 0 0 1 .7-.66h.25a.71.71 0 0 1 .32.25.7.7 0 0 1 .1.36.7.7 0 0 1-.7.66h-.16z" fill="#424242"/><path d="M19.84 16.9a8.62 8.62 0 0 1-9 4A8.65 8.65 0 0 1 4 12.49a8.55 8.55 0 0 1 15.13-5.41 8.62 8.62 0 0 1 .71 9.82z" fill="none" stroke="#424242" stroke-linecap="round" stroke-linejoin="round"/></svg><svg viewBox="0 0 25 25" width="25" height="25" id="approved" x="120" y="55"><title>icons</title><path fill="none" stroke="#424242" stroke-linecap="round" stroke-linejoin="round" d="M8.49 12.39l2.86 3.05 5.16-5.88"/><circle cx="12.5" cy="12.5" r="8.27" fill="none" stroke="#424242" stroke-linecap="round" stroke-linejoin="round"/></svg><svg viewBox="0 0 25 25" width="25" height="25" id="art" x="120" y="80"><title>icons</title><circle cx="7.27" cy="14.63" r=".96" transform="rotate(-79.39 7.268 14.63)" fill="#424242"/><circle cx="7.33" cy="11.06" r=".96" transform="rotate(-79.39 7.33 11.06)" fill="#424242"/><circle cx="9.84" cy="8.06" r=".96" transform="rotate(-79.39 9.838 8.065)" fill="#424242"/><circle cx="13.9" cy="7.43" r=".96" transform="rotate(-79.39 13.9 7.426)" fill="#424242"/><circle cx="16.98" cy="9.95" r=".96" transform="rotate(-79.39 16.985 9.947)" fill="#424242"/><path d="M14.11 16c-1.61 1.09 1.78 3 .49 4s-6.52.89-9.29-2.47S3.63 7 10 4.87s10.14 4.25 10.14 4.25 2.22 3.9 0 6.13-4.43-.25-6.03.75z" fill="none" stroke="#424242" stroke-linecap="round" stroke-linejoin="round"/><rect x="11.11" y="12.65" width="2" height="2" rx="1" ry="1" fill="none" stroke="#424242" stroke-linecap="round" stroke-linejoin="round"/></svg><svg viewBox="0 0 25 25" width="25" height="25" id="blog" y="120"><title>icons</title><path fill="none" stroke="#424242" stroke-linecap="round" stroke-linejoin="round" d="M4.35 7.94v5.47M6.09 8.23v4.58l9.32 2.89V5.89L6.09 8.23zM6.06 19l3.34.11-1.28-2.32-.17-1.85-1.84-.65A4.74 4.74 0 0 0 6.06 19z"/><path d="M15.53 9.7s-.07 0-.07.05h.11a.94.94 0 0 1 .81 1 .94.94 0 0 1-.81 1c-.06 0 0 0 0 0s.13.12 0 .12-.06 0 0 0a1 1 0 0 0 .87-1.11 1 1 0 0 0-.91-1.06z" fill="#424242" stroke="#424242" stroke-linecap="round" stroke-linejoin="round"/><path fill="none" stroke="#424242" stroke-linecap="round" stroke-linejoin="round" d="M18.3 13.13l1.51 1.64M19.87 6.67l-1.64 1.51M18.09 10.79h2.56"/></svg><svg viewBox="0 0 25 25" width="25" height="25" id="campaign" x="25" y="120"><title>icons</title><path d="M7.4 17.11s5 .21 6.21-2.31a8.87 8.87 0 0 1-1.25-1.6c8.37-2.25 6.11-8.52 6.11-8.52S10 5.79 6.25 20.32" fill="none" stroke="#424242" stroke-linecap="round" stroke-linejoin="round"/></svg><svg viewBox="0 0 25 25" width="25" height="25" id="campaigncompleted" x="50" y="120"><title>icons</title><path d="M15.28 11.41a11 11 0 0 1-3 1.31.5.5 0 0 0-.3.73A9.35 9.35 0 0 0 13 14.88c-1 1.37-3.6 1.71-5.05 1.74C11.32 7.74 16.6 5.69 18.12 5.27a6.18 6.18 0 0 1 .1 1.63h1a6.78 6.78 0 0 0-.29-2.43.5.5 0 0 0-.54-.33c-.36 0-8.85 1.32-12.65 16a.5.5 0 0 0 .36.61h.13a.5.5 0 0 0 .48-.37q.39-1.51.85-2.83c1 0 5.28-.09 6.49-2.59a.5.5 0 0 0-.1-.57 8.07 8.07 0 0 1-.81-1A11.37 11.37 0 0 0 16 12.15z" fill="#424242"/><path fill="none" stroke="#424242" stroke-linecap="round" stroke-linejoin="round" stroke-width=".86" d="M16.91 9.11l2.46 2.61 4.43-5.04"/></svg><svg viewBox="0 0 25 25" width="25" height="25" id="city" x="75" y="120"><title>icons</title><path fill="none" stroke="#424242" stroke-linecap="round" stroke-linejoin="round" d="M12.11 20.35V9.94H5.17v10.41M6.75 9.84V7.81h3.77v2.03M15.77 9.97h2.4M15.77 11.7h2.4M15.77 13.39h2.4M15.77 15.12h2.4M8.64 7.81v-3M14.11 20.35V4.32l5.72 2.28v13.75M5.17 18.5h6.94M7.21 18.5v-6.17M9.88 18.5v-6.17M3.38 20.68h18.24"/></svg><svg viewBox="0 0 25 25" width="25" height="25" id="close" x="100" y="120"><title>icons</title><path fill="none" stroke="#424242" stroke-linecap="round" stroke-linejoin="round" d="M18.25 6.75l-11.5 11.5M18.25 18.25L6.75 6.75"/></svg><svg viewBox="0 0 25 25" width="25" height="25" id="close2" x="125" y="120"><title>icons</title><path fill="#424242" stroke="#424242" stroke-linecap="round" stroke-linejoin="round" d="M16.53 6.63L8.4 18.48"/><path d="M18.83 16.3A7.38 7.38 0 1 1 10 5.56a7.38 7.38 0 0 1 8.83 10.74z" fill="none" stroke="#424242" stroke-linecap="round" stroke-linejoin="round"/></svg><svg viewBox="0 0 25 25" width="25" height="25" id="closedelete" x="150"><title>icons</title><path fill="none" stroke="#424242" stroke-linecap="round" stroke-linejoin="round" d="M15.11 9.89l-5.22 5.22M15.11 15.11L9.89 9.89M19.46 16.68A8.12 8.12 0 1 1 9.72 4.87a8.12 8.12 0 0 1 9.74 11.81z"/></svg><svg viewBox="0 0 25 25" width="25" height="25" id="customeridea" x="150" y="25"><title>icons</title><path fill="none" stroke="#424242" stroke-linecap="round" stroke-linejoin="round" d="M12.24 4.47l.01 2.51M18.39 6.81l-1.77 1.78M6.61 6.85L8.4 8.62M10.72 19.75h3.36v-3.36s2.19-.61 2.18-3.62A3.76 3.76 0 0 0 12.4 8.9a3.69 3.69 0 0 0-3.73 3.84c0 3 2 3.74 2 3.74z"/><path fill="#424242" stroke="#424242" stroke-linecap="round" stroke-linejoin="round" d="M10.702 17.723l3.37-.012.007 2.03-3.37.013z"/><path d="M13.39 20a1 1 0 0 1-2 0c0-.55.45 0 1 0s1-.53 1 0z" fill="#424242"/><path d="M12.46 10.35a2.75 2.75 0 0 0-2.34 2.16" fill="none" stroke="#424242" stroke-linecap="round" stroke-linejoin="round"/></svg><svg viewBox="0 0 25 25" width="25" height="25" id="dashboard" x="150" y="50"><title>icons</title><circle cx="12.5" cy="12.5" r="7.94" fill="none" stroke="#424242" stroke-linecap="round" stroke-linejoin="round"/><path d="M9.75 10.93s1.51 5.11 1.74 5.54a1 1 0 0 0 1.43.43 1 1 0 0 0 .45-1.38c-.24-.46-3.62-4.59-3.62-4.59z" fill="#424242" stroke="#424242" stroke-linecap="round" stroke-linejoin="round"/><path fill="none" stroke="#424242" stroke-linecap="round" stroke-linejoin="round" d="M7.38 12.5H6.05M18.82 12.5h-1.34M12.34 7.3V5.96M16.15 8.98l.94-.95M7.73 8.03l.95.95"/></svg><svg viewBox="0 0 30 30" width="30" height="30" id="dashboard-activity" x="90"><title>icons-dashboard</title><path fill="none" stroke="#fff" stroke-linecap="round" stroke-linejoin="round" d="M5.7 16.93h3.39l2.88-10.29 4.06 16.72 2.99-11.11 1.23 3.8h4.05"/></svg><svg viewBox="0 0 30 30" width="30" height="30" id="dashboard-addmember" y="30"><title>icons-dashboard</title><path d="M24.55 15.34a9.72 9.72 0 1 1-9.74-9.75V4.34a11 11 0 1 0 11 11h-1.26z" fill="#fff"/><path d="M15.17 19.06a5 5 0 1 1 5-5 5 5 0 0 1-5 5zm0-8.67a3.71 3.71 0 1 0 3.71 3.71 3.72 3.72 0 0 0-3.71-3.71z" fill="#fff"/><path d="M14.87 26c-4.87 0-7.12-2.62-7.21-2.73a.63.63 0 0 1 0-.73c.07-.19 2.88-4.54 7.51-4.54s7.31 4.12 7.43 4.3a.63.63 0 0 1-.07.76A10.87 10.87 0 0 1 14.87 26zM9 22.8a8.79 8.79 0 0 0 5.91 1.95 10.06 10.06 0 0 0 6.36-2.2c-.77-1-2.94-3.3-6.06-3.3S9.73 21.79 9 22.8z" fill="#fff"/><path fill="none" stroke="#fff" stroke-linecap="round" stroke-linejoin="round" d="M28.4 6.4h-8.91M23.94 10.85V1.94"/></svg><svg viewBox="0 0 30 30" width="30" height="30" id="dashboard-allprojects" x="30" y="30"><title>icons-dashboard</title><path d="M15.87 15.14a.88.88 0 0 0 0-.09V15a.87.87 0 0 0-.13-.45v-.06a.88.88 0 0 0-.4-.31h-.08a.88.88 0 0 0-1.11.79v.05a.87.87 0 0 0 .16.48v.05a.88.88 0 0 0 .44.28H15a.88.88 0 0 0 .87-.69z" fill="none" stroke="#fff" stroke-miterlimit="10"/><path d="M17.44 13.57a.53.53 0 0 0-.12-.21.63.63 0 0 0-.17-.17l-5.78-3.88-.11-.07a.47.47 0 0 0-.64.09.51.51 0 0 0-.16.54l1.84 6.82a.52.52 0 0 0 .12.21.63.63 0 0 0 .17.17L18.38 21h.11a.47.47 0 0 0 .64-.09.51.51 0 0 0 .16-.54zm-2.68 2.27a.88.88 0 0 1-.44-.28v-.05a.87.87 0 0 1-.2-.51v-.05a.88.88 0 0 1 1.11-.79h.08a.88.88 0 0 1 .4.31v.06a.87.87 0 0 1 .13.45v.05a.88.88 0 0 1-.88.83h-.11z" fill="#fff"/><path d="M24.17 20.51a10.78 10.78 0 0 1-11.21 5A10.81 10.81 0 0 1 4.32 15a10.69 10.69 0 0 1 19-6.77 10.77 10.77 0 0 1 .85 12.28z" fill="none" stroke="#fff" stroke-linecap="round" stroke-linejoin="round"/></svg><svg viewBox="0 0 30 30" width="30" height="30" id="dashboard-blog" x="60"><title>icons-dashboard</title><path fill="none" stroke="#fff" stroke-linecap="round" stroke-linejoin="round" d="M4.81 9.3v6.83M6.99 9.66v5.72l11.65 3.61V6.74L6.99 9.66zM6.95 23.16l4.18.1-1.6-2.89-.22-2.32L7 17.24a5.93 5.93 0 0 0-.05 5.92z"/><path d="M18.78 11.5s-.09 0-.09.07h.14a1.18 1.18 0 0 1 1 1.29 1.18 1.18 0 0 1-1 1.29c-.07 0 0 0 0-.05s.16.15 0 .15c.07 0-.08 0 0 0a1.27 1.27 0 0 0 1.09-1.39 1.27 1.27 0 0 0-1.14-1.36z" fill="#fff" stroke="#fff" stroke-linecap="round" stroke-linejoin="round"/><path fill="none" stroke="#fff" stroke-linecap="round" stroke-linejoin="round" d="M22.25 15.79l1.88 2.05M24.21 7.72L22.16 9.6M21.98 12.87h3.21"/></svg><svg viewBox="0 0 30 30" width="30" height="30" id="dashboard-campaign" x="60" y="30"><title>icons-dashboard</title><path d="M8.63 20.76s6.25.26 7.77-2.88a11.09 11.09 0 0 1-1.57-2c10.46-2.82 7.64-10.65 7.64-10.65S11.88 6.61 7.19 24.77" fill="none" stroke="#fff" stroke-linecap="round" stroke-linejoin="round"/></svg><svg viewBox="0 0 30 30" width="30" height="30" id="dashboard-city" y="60"><title>icons-dashboard</title><path fill="none" stroke="#fff" stroke-linecap="round" stroke-linejoin="round" d="M14.51 24.81V11.8H5.84v13.01M7.82 11.68V9.13h4.71v2.55M19.08 11.84h3.01M19.08 14h3.01M19.08 16.12h3.01M19.08 18.28h3.01M10.17 9.13V5.38M17.01 24.81V4.78l7.15 2.85v17.18M5.84 22.5h8.67M8.39 22.5v-7.71M11.73 22.5v-7.71M3.61 25.22h22.78"/></svg><svg viewBox="0 0 30 30" width="30" height="30" id="dashboard-customeridea" x="30" y="60"><title>icons-dashboard</title><path fill="none" stroke="#fff" stroke-linecap="round" stroke-linejoin="round" d="M14.68 4.96l.01 3.15M22.36 7.88l-2.21 2.23M7.64 7.93l2.23 2.22M12.77 24.07H17v-4.2s2.74-.76 2.73-4.53a4.7 4.7 0 0 0-4.81-4.83 4.61 4.61 0 0 0-4.67 4.81c0 3.7 2.52 4.67 2.52 4.67z"/><path fill="#fff" stroke="#fff" stroke-linecap="round" stroke-linejoin="round" d="M12.745 21.525l4.21-.014.01 2.54-4.21.015z"/><path d="M16.11 24.41a1.25 1.25 0 1 1-2.5 0c0-.69.56 0 1.25 0s1.25-.69 1.25 0z" fill="#fff"/><path d="M14.95 12.32S12.34 12.67 12 15" fill="none" stroke="#fff" stroke-linecap="round" stroke-linejoin="round"/></svg><svg viewBox="0 0 30 30" width="30" height="30" id="dashboard-document" x="60" y="60"><title>icons-dashboard</title><path fill="none" stroke="#fff" stroke-linecap="round" stroke-linejoin="round" d="M12.41 10.32h10.17M12.41 14.16h10.17M12.41 18.13h10.17M6.54 14.8h2.04M6.54 18.73h2.04M8.9 7.25h16.86v13.94a1.4 1.4 0 0 1-1.63 1.56H5.91A1.73 1.73 0 0 1 4.23 21v-9.18H8.9V7.25zM8.9 11.82v9.09M8.9 20.91a1.7 1.7 0 0 1-1.76 1.84"/></svg><svg viewBox="0 0 30 30" width="30" height="30" id="dashboard-gender"><title>icons-dashboard</title><path d="M12 13.37a4.85 4.85 0 1 1-5.87-7.06A4.85 4.85 0 0 1 12 13.37zM22.7 21.63a4.85 4.85 0 1 1-.4-5.57 4.89 4.89 0 0 1 .4 5.57zM4.99 17.42h5.61M7.8 17.42v4.15M26.41 15l-3.44 1.79M23.39 13.58l3.66 1.11-1.07 3.51" fill="none" stroke="#fff" stroke-linecap="round" stroke-linejoin="round"/></svg><svg viewBox="0 0 30 30" width="30" height="30" id="dashboard-location" x="90" y="30"><title>icons-dashboard</title><circle cx="15" cy="14.99" r="7.33" fill="none" stroke="#fff" stroke-linecap="round" stroke-linejoin="round"/><path fill="none" stroke="#fff" stroke-linecap="round" stroke-linejoin="round" d="M15 4.38v21.24M25.62 15H4.38"/></svg><svg viewBox="0 0 30 30" width="30" height="30" id="dashboard-message" x="90" y="60"><title>icons-dashboard</title><path d="M26.3 13.21C26.3 9.21 21.24 6 15 6S3.7 9.21 3.7 13.21s3.52 7.27 9.76 7.27c1.18 0 3.12-.13 3.12-.13s3.59 3 5.94 3.68a13.06 13.06 0 0 1-.48-5.16c2.59-1.32 4.26-3.37 4.26-5.66z" fill="none" stroke="#fff" stroke-linecap="round" stroke-linejoin="round"/></svg><svg viewBox="0 0 30 30" width="30" height="30" id="dashboard-notification" y="90"><title>icons-dashboard</title><path d="M7.9 20.91S7.8 7 14.95 7s7.15 13.91 7.15 13.91H7.9zM17.23 23.14A2.12 2.12 0 0 1 15 25.32a2.16 2.16 0 0 1-2.24-2.18h4.46zM5.74 20.91h18.52M15 6.81V4.68" fill="none" stroke="#fff" stroke-linecap="round" stroke-linejoin="round" stroke-width=".94"/></svg><svg viewBox="0 0 30 30" width="30" height="30" id="dashboard-profile" x="30" y="90"><title>icons-dashboard</title><path fill="none" stroke="#fff" stroke-linecap="round" stroke-linejoin="round" d="M4.09 8.76h21.83v12.47H4.09z"/><path fill="none" stroke="#fff" stroke-linecap="round" stroke-linejoin="round" d="M7.15 11.63h8.08v3.63H7.15zM18.52 11.63h4.01M18.52 14.81h4.01M7.15 18.09h15.76"/></svg><svg viewBox="0 0 30 30" width="30" height="30" id="dashboard-project" x="60" y="90"><title>icons-dashboard</title><path fill="none" stroke="#fff" stroke-linecap="round" stroke-linejoin="round" d="M11.15 7.77h7.7M12.92 7.77v6.95l-6.66 7.51h17.48l-6.66-7.37-.02-7.09h-4.14z"/><path fill="#fff" stroke="#fff" stroke-linecap="round" stroke-linejoin="round" stroke-width=".81" d="M11.27 20.1l1.56-1.69h4.35l1.55 1.69h-7.46z"/></svg><svg viewBox="0 0 30 30" width="30" height="30" id="dashboard-seen" x="90" y="90"><title>icons-dashboard</title><path d="M26.78 14.55S21.51 20.49 15 20.49 3.22 14.55 3.22 14.55s5.27-5 11.78-5 11.78 5 11.78 5z" fill="none" stroke="#fff" stroke-linecap="round" stroke-linejoin="round"/><circle cx="15" cy="13.42" r="3.53" fill="none" stroke="#fff" stroke-linecap="round" stroke-linejoin="round"/></svg><svg viewBox="0 0 30 30" width="30" height="30" id="dashboard-team" x="120"><title>icons-dashboard</title><path d="M4.08 21.84A14.94 14.94 0 0 0 9.54 23l-4.19-6.6a14.94 14.94 0 0 0-1.27 5.44z" fill="none" stroke="#fff" stroke-linecap="round" stroke-linejoin="round"/><path d="M11.34 9.43a15.32 15.32 0 0 0-6 7L9.54 23a15.32 15.32 0 0 0 8.86-2.41 16 16 0 0 0 6.27-7.43L20.75 7a16 16 0 0 0-9.41 2.43zm7.81 5.26l-1.23-1.95-3.22 2 1.23 1.95-1.23-1.95-3 1.91 1.23 1.95-1.23-1.95-1.81 1.16 1.79-1.13-1.23-1.95 1.23 1.95 3-1.91-1.23-1.95 1.23 1.95 3.22-2-1.2-1.97 1.23 1.95 1.91-1.21-1.91 1.21z" fill="none" stroke="#fff" stroke-linecap="round" stroke-linejoin="round"/><path d="M20.75 7l3.92 6.21a15.81 15.81 0 0 0 1.25-5.13A15.81 15.81 0 0 0 20.75 7z" fill="none" stroke="#fff" stroke-linecap="round" stroke-linejoin="round"/></svg><svg viewBox="0 0 30 30" width="30" height="30" id="dashboard-work" x="30"><title>icons-dashboard</title><path fill="none" stroke="#fff" stroke-linecap="round" stroke-linejoin="round" d="M4.63 10.05h20.75V24H4.63z"/><path fill="none" stroke="#fff" stroke-linecap="round" stroke-linejoin="round" d="M4.63 13.42L15 18.32l10.37-4.9"/><circle cx="15" cy="15.06" r=".91" fill="#fff"/><path fill="none" stroke="#fff" stroke-linecap="round" stroke-linejoin="round" d="M9.95 10.05V6h10.1v4.05"/></svg><svg viewBox="0 0 25 25" width="25" height="25" id="design" x="25" y="145"><title>icons</title><path fill="none" stroke="#424242" stroke-linecap="round" stroke-linejoin="round" d="M16 8.46h3.54M5.46 8.46h6.09"/><circle cx="9.13" cy="10.95" r="1.04" fill="none" stroke="#424242" stroke-linecap="round" stroke-linejoin="round"/><path d="M9.13 12s.82 5.83-3.13 5.83M6.81 8.58v12.64h11.38V8.58" fill="none" stroke="#424242" stroke-linecap="round" stroke-linejoin="round"/><path d="M13.78 3.78S11.55 7.39 11.55 9a2 2 0 0 0 2.3 2.3 2 2 0 0 0 2.24-2.24c0-1.51-2.31-5.28-2.31-5.28z" fill="none" stroke="#424242" stroke-linecap="round" stroke-linejoin="round"/></svg><svg viewBox="0 0 25 25" width="25" height="25" id="developer" x="50" y="145"><title>icons</title><path fill="none" stroke="#424242" stroke-linecap="round" stroke-linejoin="round" d="M7.91 8.89l-3.84 3.83 3.84 3.73M17.09 8.89l3.84 3.83-3.84 3.73M15.26 5.69l-5.3 13.62"/></svg><svg viewBox="0 0 25 25" width="25" height="25" id="document" x="75" y="145"><title>icons</title><path fill="none" stroke="#424242" stroke-linecap="round" stroke-linejoin="round" d="M10.43 8.76h8.13M10.43 11.83h8.13M10.43 15h8.13M5.73 12.34h1.63M5.73 15.48h1.63M7.62 6.3h13.49v11.15a1.12 1.12 0 0 1-1.3 1.25H5.23a1.38 1.38 0 0 1-1.35-1.44V10h3.74V6.3zM7.62 10v7.27M7.62 17.23a1.36 1.36 0 0 1-1.4 1.47"/></svg><svg viewBox="0 0 25 25" width="25" height="25" id="download" x="100" y="145"><title>icons</title><path fill="none" stroke="#424242" stroke-linecap="round" stroke-linejoin="round" d="M20.59 21.53v-5.38l-16.18.01v5.37h16.18zM8.52 11.33l4.04 2.4 3.92-2.41M12.5 13.62V3.47"/><circle cx="18.19" cy="19.52" r=".78" fill="#424242"/></svg><svg viewBox="0 0 25 25" width="25" height="25" id="download2" x="125" y="145"><title>icons</title><path fill="none" stroke="#424242" stroke-linecap="round" stroke-linejoin="round" d="M4.84 14.37v6.03l15.32-.01v-5.73"/><path fill="none" stroke="#424242" stroke-linecap="round" stroke-linejoin="round" d="M8.69 14.48l3.86 3.02 3.76-3.02M12.55 17.37V4.6"/></svg><svg viewBox="0 0 25 25" width="25" height="25" id="edit" x="150" y="145"><title>icons</title><path fill="none" stroke="#424242" stroke-linecap="round" stroke-linejoin="round" d="M5.25 20.02l2.95-.52L19.75 7.47l-2.6-2.49L5.54 17.07l-.29 2.95zM8.62 18.52L6.49 16.5M16.62 10.73l-2.6-2.49"/></svg><svg viewBox="0 0 25 25" width="25" height="25" id="film" x="175"><title>icons</title><rect x="7.6" y="8.23" width="13.68" height="8.53" rx="1.45" ry="1.45" fill="none" stroke="#424242" stroke-linecap="round" stroke-linejoin="round"/><path fill="none" stroke="#424242" stroke-linecap="round" stroke-linejoin="round" d="M7.6 11.33L3.72 8.44v8.12l3.88-2.49v-2.74z"/><rect x="10.08" y="10.54" width="8.53" height="4.1" rx="1.45" ry="1.45" fill="none" stroke="#424242" stroke-linecap="round" stroke-linejoin="round"/><circle cx="12.56" cy="12.59" r=".56" fill="#424242" stroke="#424242" stroke-linecap="round" stroke-linejoin="round"/><circle cx="15.81" cy="12.59" r=".56" fill="#424242" stroke="#424242" stroke-linecap="round" stroke-linejoin="round"/></svg><svg viewBox="0 0 25 25" width="25" height="25" id="folder" x="175" y="25"><title>icons</title><path fill="none" stroke="#424242" stroke-linecap="round" stroke-linejoin="round" d="M4.56 6.7h6.94l2.52 2.79h6.42v8.81H4.56V6.7zM14.02 9.49H4.56"/></svg><svg viewBox="0 0 25 25" width="25" height="25" id="followers" x="175" y="50"><title>icons</title><circle cx="9.8" cy="9.4" r="3.88" fill="none" stroke="#424242" stroke-linecap="round" stroke-linejoin="round"/><path d="M3.51 17.24s2.41-3.8 6.29-3.8S16 17 16 17a9.22 9.22 0 0 1-6.44 2.45c-4.18.03-6.05-2.21-6.05-2.21zM18.99 15l2.5-2.5-2.5-2.44M21.29 12.53h-5.6" fill="none" stroke="#424242" stroke-linecap="round" stroke-linejoin="round"/></svg><svg viewBox="0 0 25 25" width="25" height="25" id="food" x="175" y="75"><title>icons</title><path d="M3.94 11.92h14.84s-.24 7.59-7.42 7.59-7.42-7.59-7.42-7.59zM13.06 11.79l5.09-6.3.49.28-5.58 6.02zM14.81 11.65l5.84-4.4.41.38-6.25 4.02zM18.32 14.34H4.45" fill="none" stroke="#424242" stroke-linecap="round" stroke-linejoin="round"/><path d="M5.14 11.92s.37-2.24 2.25-2.24 2.26 2.26 2.26 2.26" fill="none" stroke="#424242" stroke-linecap="round" stroke-linejoin="round"/></svg><svg viewBox="0 0 25 25" width="25" height="25" id="games" x="175" y="100"><title>icons</title><circle cx="8" cy="12.07" r="3.29" fill="none" stroke="#424242" stroke-linecap="round" stroke-linejoin="round"/><circle cx="7.92" cy="10.56" r=".26" fill="#424242" stroke="#424242" stroke-linecap="round" stroke-linejoin="round"/><circle cx="9.44" cy="11.91" r=".26" fill="#424242" stroke="#424242" stroke-linecap="round" stroke-linejoin="round"/><circle cx="7.92" cy="13.25" r=".26" fill="#424242" stroke="#424242" stroke-linecap="round" stroke-linejoin="round"/><circle cx="6.57" cy="11.91" r=".26" fill="#424242" stroke="#424242" stroke-linecap="round" stroke-linejoin="round"/><circle cx="16.93" cy="10.56" r=".26" fill="#424242" stroke="#424242" stroke-linecap="round" stroke-linejoin="round"/><circle cx="18.44" cy="11.91" r=".26" fill="#424242" stroke="#424242" stroke-linecap="round" stroke-linejoin="round"/><circle cx="16.93" cy="13.25" r=".26" fill="#424242" stroke="#424242" stroke-linecap="round" stroke-linejoin="round"/><circle cx="15.57" cy="11.91" r=".26" fill="#424242" stroke="#424242" stroke-linecap="round" stroke-linejoin="round"/><circle cx="17.01" cy="12.07" r="3.29" fill="none" stroke="#424242" stroke-linecap="round" stroke-linejoin="round"/><path fill="none" stroke="#424242" stroke-linecap="round" stroke-linejoin="round" d="M17.01 8.78H8M10.57 14.12a2.62 2.62 0 0 1 3.86 0M4.71 12.75s-1.84 7.25.16 7.13 3.77-4.52 3.77-4.52M20.29 12.75s1.84 7.24-.16 7.13-3.77-4.52-3.77-4.52M12.38 8.78a1.42 1.42 0 0 0 0-1.65c-.65-.65-1.82.46-2.5 0s0-2 0-2"/></svg><svg viewBox="0 0 25 25" width="25" height="25" id="gender" x="175" y="125"><title>icons</title><path d="M10.06 11.19a3.88 3.88 0 1 1-.32-4.46 3.91 3.91 0 0 1 .32 4.46zM18.66 17.8a3.88 3.88 0 1 1-.32-4.46 3.91 3.91 0 0 1 .32 4.46zM4.49 14.44h4.49M6.74 14.44v3.32M21.63 12.5l-2.76 1.43M19.21 11.36l2.93.89-.86 2.81" fill="none" stroke="#424242" stroke-linecap="round" stroke-linejoin="round"/></svg><svg viewBox="0 0 25 25" width="25" height="25" id="inactive-activity" y="170"><title>icons-inactive</title><path fill="none" stroke="#b1b1b1" stroke-linecap="round" stroke-linejoin="round" d="M5.06 14.04h2.71l2.31-8.23 3.25 13.38 2.38-8.89.99 3.04h3.24"/></svg><svg viewBox="0 0 25 25" width="25" height="25" id="inactive-add" x="25" y="170"><title>icons-inactive</title><path fill="none" stroke="#b1b1b1" stroke-linecap="round" stroke-linejoin="round" d="M16.06 12.5H8.94M12.5 16.06V8.94M14.38 20.1A7.83 7.83 0 0 1 7 7a7.83 7.83 0 0 1 13.33 6.32 7.89 7.89 0 0 1-5.95 6.78z"/></svg><svg viewBox="0 0 25 25" width="25" height="25" id="inactive-addmember" x="50" y="170"><title>icons-inactive</title><path d="M20.43 12.53a7.77 7.77 0 1 1-7.79-7.8v-1a8.77 8.77 0 1 0 8.79 8.8h-1z" fill="#b1b1b1"/><path d="M12.92 15.51a4 4 0 1 1 4-4 4 4 0 0 1-4 4zm0-6.94a3 3 0 1 0 3 3 3 3 0 0 0-3-3z" fill="#b1b1b1"/><path d="M12.68 21.06a7.56 7.56 0 0 1-5.77-2.18.5.5 0 0 1 0-.59c.09-.15 2.34-3.63 6-3.63s5.85 3.3 5.94 3.44a.5.5 0 0 1-.06.61 8.7 8.7 0 0 1-6.11 2.35zM8 18.5a7 7 0 0 0 4.73 1.56 8 8 0 0 0 5.09-1.76 6.54 6.54 0 0 0-4.85-2.64c-2.58 0-4.4 2.03-4.97 2.84z" fill="#b1b1b1"/><path fill="none" stroke="#b1b1b1" stroke-linecap="round" stroke-linejoin="round" d="M23.51 5.37l-7.13.01M19.94 8.94V1.81"/></svg><svg viewBox="0 0 25 25" width="25" height="25" id="inactive-allprojects" x="75" y="170"><title>icons-inactive</title><path d="M13.19 12.61a.71.71 0 0 0 0-.07.7.7 0 0 0-.1-.36.71.71 0 0 0-.32-.25h-.25a.7.7 0 0 0-.7.66.7.7 0 0 0 .13.38.7.7 0 0 0 .35.23h.2a.7.7 0 0 0 .69-.59z" fill="none" stroke="#b1b1b1" stroke-miterlimit="10"/><path d="M14.46 11.36a.42.42 0 0 0-.1-.17.5.5 0 0 0-.14-.19L9.6 7.95l-.09-.06A.38.38 0 0 0 9 8a.4.4 0 0 0-.13.43l1.47 5.45a.42.42 0 0 0 .1.17.5.5 0 0 0 .14.14l4.62 3.1.09.06a.38.38 0 0 0 .51-.08.4.4 0 0 0 .13-.43zm-2.15 1.82A.7.7 0 0 1 12 13a.7.7 0 0 1-.13-.38.7.7 0 0 1 .7-.66h.25a.71.71 0 0 1 .32.25.7.7 0 0 1 .1.36.7.7 0 0 1-.7.66h-.16z" fill="#b1b1b1"/><path d="M19.84 16.9a8.62 8.62 0 0 1-9 4A8.65 8.65 0 0 1 4 12.49a8.55 8.55 0 0 1 15.13-5.41 8.62 8.62 0 0 1 .71 9.82z" fill="none" stroke="#b1b1b1" stroke-linecap="round" stroke-linejoin="round"/></svg><svg viewBox="0 0 25 25" width="25" height="25" id="inactive-approved" x="100" y="170"><title>icons-inactive</title><path fill="none" stroke="#b1b1b1" stroke-linecap="round" stroke-linejoin="round" d="M8.49 12.39l2.86 3.05 5.16-5.88"/><circle cx="12.5" cy="12.5" r="8.27" fill="none" stroke="#b1b1b1" stroke-linecap="round" stroke-linejoin="round"/></svg><svg viewBox="0 0 25 25" width="25" height="25" id="inactive-art" x="125" y="170"><title>icons-inactive</title><circle cx="7.27" cy="14.63" r=".96" transform="rotate(-79.39 7.268 14.63)" fill="#b1b1b1"/><circle cx="7.33" cy="11.06" r=".96" transform="rotate(-79.39 7.33 11.06)" fill="#b1b1b1"/><circle cx="9.84" cy="8.06" r=".96" transform="rotate(-79.39 9.838 8.065)" fill="#b1b1b1"/><circle cx="13.9" cy="7.43" r=".96" transform="rotate(-79.39 13.9 7.426)" fill="#b1b1b1"/><circle cx="16.98" cy="9.95" r=".96" transform="rotate(-79.39 16.985 9.947)" fill="#b1b1b1"/><path d="M14.11 16c-1.61 1.09 1.78 3 .49 4s-6.52.89-9.29-2.47S3.63 7 10 4.87s10.14 4.25 10.14 4.25 2.22 3.9 0 6.13-4.43-.25-6.03.75z" fill="none" stroke="#b1b1b1" stroke-linecap="round" stroke-linejoin="round"/><rect x="11.11" y="12.65" width="2" height="2" rx="1" ry="1" fill="none" stroke="#b1b1b1" stroke-linecap="round" stroke-linejoin="round"/></svg><svg viewBox="0 0 25 25" width="25" height="25" id="inactive-blog" x="150" y="170"><title>icons-inactive</title><path fill="none" stroke="#b1b1b1" stroke-linecap="round" stroke-linejoin="round" d="M4.35 7.94v5.47M6.09 8.23v4.58l9.32 2.89V5.89L6.09 8.23zM6.06 19l3.34.11-1.28-2.32-.17-1.85-1.84-.65A4.74 4.74 0 0 0 6.06 19z"/><path d="M15.53 9.7s-.07 0-.07.05h.11a.94.94 0 0 1 .81 1 .94.94 0 0 1-.81 1c-.06 0 0 0 0 0s.13.12 0 .12-.06 0 0 0a1 1 0 0 0 .87-1.11 1 1 0 0 0-.91-1.06z" fill="#b1b1b1" stroke="#b1b1b1" stroke-linecap="round" stroke-linejoin="round"/><path fill="none" stroke="#b1b1b1" stroke-linecap="round" stroke-linejoin="round" d="M18.3 13.13l1.51 1.64M19.87 6.67l-1.64 1.51M18.09 10.79h2.56"/></svg><svg viewBox="0 0 25 25" width="25" height="25" id="inactive-campaign" x="175" y="170"><title>icons-inactive</title><path d="M7.4 17.11s5 .21 6.21-2.31a8.87 8.87 0 0 1-1.25-1.6c8.37-2.25 6.11-8.52 6.11-8.52S10 5.79 6.25 20.32" fill="none" stroke="#b1b1b1" stroke-linecap="round" stroke-linejoin="round"/></svg><svg viewBox="0 0 25 25" width="25" height="25" id="inactive-campaigncompleted" x="200"><title>icons-inactive</title><path d="M15.28 11.41a11 11 0 0 1-3 1.31.5.5 0 0 0-.3.73A9.35 9.35 0 0 0 13 14.88c-1 1.37-3.6 1.71-5.05 1.74C11.32 7.74 16.6 5.69 18.12 5.27a6.18 6.18 0 0 1 .1 1.63h1a6.78 6.78 0 0 0-.29-2.43.5.5 0 0 0-.54-.33c-.36 0-8.85 1.32-12.65 16a.5.5 0 0 0 .36.61h.13a.5.5 0 0 0 .48-.37q.39-1.51.85-2.83c1 0 5.28-.09 6.49-2.59a.5.5 0 0 0-.1-.57 8.07 8.07 0 0 1-.81-1A11.37 11.37 0 0 0 16 12.15z" fill="#b1b1b1"/><path fill="none" stroke="#b1b1b1" stroke-linecap="round" stroke-linejoin="round" stroke-width=".86" d="M16.91 9.11l2.46 2.61 4.43-5.04"/></svg><svg viewBox="0 0 25 25" width="25" height="25" id="inactive-city" x="200" y="25"><title>icons-inactive</title><path fill="none" stroke="#b1b1b1" stroke-linecap="round" stroke-linejoin="round" d="M12.11 20.35V9.94H5.17v10.41M6.75 9.84V7.81h3.77v2.03M15.77 9.97h2.4M15.77 11.7h2.4M15.77 13.39h2.4M15.77 15.12h2.4M8.64 7.81v-3M14.11 20.35V4.32l5.72 2.28v13.75M5.17 18.5h6.94M7.21 18.5v-6.17M9.88 18.5v-6.17M3.38 20.68h18.24"/></svg><svg viewBox="0 0 25 25" width="25" height="25" id="inactive-close" x="200" y="50"><title>icons-inactive</title><path fill="none" stroke="#b1b1b1" stroke-linecap="round" stroke-linejoin="round" d="M18.25 6.75l-11.5 11.5M18.25 18.25L6.75 6.75"/></svg><svg viewBox="0 0 25 25" width="25" height="25" id="inactive-close2" x="200" y="75"><title>icons-inactive</title><path fill="#b1b1b1" stroke="#b1b1b1" stroke-linecap="round" stroke-linejoin="round" d="M16.53 6.63L8.4 18.48"/><path d="M18.83 16.3A7.38 7.38 0 1 1 10 5.56a7.38 7.38 0 0 1 8.83 10.74z" fill="none" stroke="#b1b1b1" stroke-linecap="round" stroke-linejoin="round"/></svg><svg viewBox="0 0 25 25" width="25" height="25" id="inactive-closedelete" x="200" y="100"><title>icons-inactive</title><path fill="none" stroke="#b1b1b1" stroke-linecap="round" stroke-linejoin="round" d="M15.11 9.89l-5.22 5.22M15.11 15.11L9.89 9.89M19.46 16.68A8.12 8.12 0 1 1 9.72 4.87a8.12 8.12 0 0 1 9.74 11.81z"/></svg><svg viewBox="0 0 25 25" width="25" height="25" id="inactive-customeridea" x="200" y="125"><title>icons-inactive</title><path fill="none" stroke="#b1b1b1" stroke-linecap="round" stroke-linejoin="round" d="M12.24 4.47l.01 2.51M18.39 6.81l-1.77 1.78M6.61 6.85L8.4 8.62M10.72 19.75h3.36v-3.36s2.19-.61 2.18-3.62A3.76 3.76 0 0 0 12.4 8.9a3.69 3.69 0 0 0-3.73 3.84c0 3 2 3.74 2 3.74z"/><path fill="#b1b1b1" stroke="#b1b1b1" stroke-linecap="round" stroke-linejoin="round" d="M10.702 17.723l3.37-.012.007 2.03-3.37.013z"/><path d="M13.39 20a1 1 0 0 1-2 0c0-.55.45 0 1 0s1-.53 1 0z" fill="#b1b1b1"/><path d="M12.46 10.35a2.75 2.75 0 0 0-2.34 2.16" fill="none" stroke="#b1b1b1" stroke-linecap="round" stroke-linejoin="round"/></svg><svg viewBox="0 0 25 25" width="25" height="25" id="inactive-dashboard" x="200" y="150"><title>icons-inactive</title><circle cx="12.5" cy="12.5" r="7.94" fill="none" stroke="#b1b1b1" stroke-linecap="round" stroke-linejoin="round"/><path d="M9.75 10.93s1.51 5.11 1.74 5.54a1 1 0 0 0 1.43.43 1 1 0 0 0 .45-1.38c-.24-.46-3.62-4.59-3.62-4.59z" fill="#b1b1b1" stroke="#b1b1b1" stroke-linecap="round" stroke-linejoin="round"/><path fill="none" stroke="#b1b1b1" stroke-linecap="round" stroke-linejoin="round" d="M7.38 12.5H6.05M18.82 12.5h-1.34M12.34 7.3V5.96M16.15 8.98l.94-.95M7.73 8.03l.95.95"/></svg><svg viewBox="0 0 25 25" width="25" height="25" id="inactive-design" y="195"><title>icons-inactive</title><path fill="none" stroke="#b1b1b1" stroke-linecap="round" stroke-linejoin="round" d="M16 8.46h3.54M5.46 8.46h6.09"/><circle cx="9.13" cy="10.95" r="1.04" fill="none" stroke="#b1b1b1" stroke-linecap="round" stroke-linejoin="round"/><path d="M9.13 12s.82 5.83-3.13 5.83M6.81 8.58v12.64h11.38V8.58" fill="none" stroke="#b1b1b1" stroke-linecap="round" stroke-linejoin="round"/><path d="M13.78 3.78S11.55 7.39 11.55 9a2 2 0 0 0 2.3 2.3 2 2 0 0 0 2.24-2.24c0-1.51-2.31-5.28-2.31-5.28z" fill="none" stroke="#b1b1b1" stroke-linecap="round" stroke-linejoin="round"/></svg><svg viewBox="0 0 25 25" width="25" height="25" id="inactive-developer" x="25" y="195"><title>icons-inactive</title><path fill="none" stroke="#b1b1b1" stroke-linecap="round" stroke-linejoin="round" d="M7.91 8.89l-3.84 3.83 3.84 3.73M17.09 8.89l3.84 3.83-3.84 3.73M15.26 5.69l-5.3 13.62"/></svg><svg viewBox="0 0 25 25" width="25" height="25" id="inactive-document" x="50" y="195"><title>icons-inactive</title><path fill="none" stroke="#b1b1b1" stroke-linecap="round" stroke-linejoin="round" d="M10.43 8.76h8.13M10.43 11.83h8.13M10.43 15h8.13M5.73 12.34h1.63M5.73 15.48h1.63M7.62 6.3h13.49v11.15a1.12 1.12 0 0 1-1.3 1.25H5.23a1.38 1.38 0 0 1-1.35-1.44V10h3.74V6.3zM7.62 10v7.27M7.62 17.23a1.36 1.36 0 0 1-1.4 1.47"/></svg><svg viewBox="0 0 25 25" width="25" height="25" id="inactive-download" x="75" y="195"><title>icons-inactive</title><path fill="none" stroke="#b1b1b1" stroke-linecap="round" stroke-linejoin="round" d="M20.59 21.53v-5.38l-16.18.01v5.37h16.18zM8.52 11.33l4.04 2.4 3.92-2.41M12.5 13.62V3.47"/><circle cx="18.19" cy="19.52" r=".78" fill="#b1b1b1"/></svg><svg viewBox="0 0 25 25" width="25" height="25" id="inactive-download2" x="100" y="195"><title>icons-inactive</title><path fill="none" stroke="#b1b1b1" stroke-linecap="round" stroke-linejoin="round" d="M4.84 14.37v6.03l15.32-.01v-5.73"/><path fill="none" stroke="#b1b1b1" stroke-linecap="round" stroke-linejoin="round" d="M8.69 14.48l3.86 3.02 3.76-3.02M12.55 17.37V4.6"/></svg><svg viewBox="0 0 25 25" width="25" height="25" id="inactive-edit" x="125" y="195"><title>icons-inactive</title><path fill="none" stroke="#b1b1b1" stroke-linecap="round" stroke-linejoin="round" d="M5.25 20.02l2.95-.52L19.75 7.47l-2.6-2.49L5.54 17.07l-.29 2.95zM8.62 18.52L6.49 16.5M16.62 10.73l-2.6-2.49"/></svg><svg viewBox="0 0 25 25" width="25" height="25" id="inactive-film" x="150" y="195"><title>icons-inactive</title><rect x="7.6" y="8.23" width="13.68" height="8.53" rx="1.45" ry="1.45" fill="none" stroke="#b1b1b1" stroke-linecap="round" stroke-linejoin="round"/><path fill="none" stroke="#b1b1b1" stroke-linecap="round" stroke-linejoin="round" d="M7.6 11.33L3.72 8.44v8.12l3.88-2.49v-2.74z"/><rect x="10.08" y="10.54" width="8.53" height="4.1" rx="1.45" ry="1.45" fill="none" stroke="#b1b1b1" stroke-linecap="round" stroke-linejoin="round"/><circle cx="12.56" cy="12.59" r=".56" fill="#b1b1b1" stroke="#b1b1b1" stroke-linecap="round" stroke-linejoin="round"/><circle cx="15.81" cy="12.59" r=".56" fill="#b1b1b1" stroke="#b1b1b1" stroke-linecap="round" stroke-linejoin="round"/></svg><svg viewBox="0 0 25 25" width="25" height="25" id="inactive-folder" x="175" y="195"><title>icons-inactive</title><path fill="none" stroke="#b1b1b1" stroke-linecap="round" stroke-linejoin="round" d="M4.56 6.7h6.94l2.52 2.79h6.42v8.81H4.56V6.7zM14.02 9.49H4.56"/></svg><svg viewBox="0 0 25 25" width="25" height="25" id="inactive-followers" x="200" y="195"><title>icons-inactive</title><circle cx="9.8" cy="9.4" r="3.88" fill="none" stroke="#b1b1b1" stroke-linecap="round" stroke-linejoin="round"/><path d="M3.51 17.24s2.41-3.8 6.29-3.8S16 17 16 17a9.22 9.22 0 0 1-6.44 2.45c-4.18.03-6.05-2.21-6.05-2.21zM18.99 15l2.5-2.5-2.5-2.44M21.29 12.53h-5.6" fill="none" stroke="#b1b1b1" stroke-linecap="round" stroke-linejoin="round"/></svg><svg viewBox="0 0 25 25" width="25" height="25" id="inactive-food" x="225"><title>icons-inactive</title><path d="M3.94 11.92h14.84s-.24 7.59-7.42 7.59-7.42-7.59-7.42-7.59zM13.06 11.79l5.09-6.3.49.28-5.58 6.02zM14.81 11.65l5.84-4.4.41.38-6.25 4.02zM18.32 14.34H4.45" fill="none" stroke="#b1b1b1" stroke-linecap="round" stroke-linejoin="round"/><path d="M5.14 11.92s.37-2.24 2.25-2.24 2.26 2.26 2.26 2.26" fill="none" stroke="#b1b1b1" stroke-linecap="round" stroke-linejoin="round"/></svg><svg viewBox="0 0 25 25" width="25" height="25" id="inactive-games" x="225" y="25"><title>icons-inactive</title><circle cx="8" cy="12.07" r="3.29" fill="none" stroke="#b1b1b1" stroke-linecap="round" stroke-linejoin="round"/><circle cx="7.92" cy="10.56" r=".26" fill="#b1b1b1" stroke="#b1b1b1" stroke-linecap="round" stroke-linejoin="round"/><circle cx="9.44" cy="11.91" r=".26" fill="#b1b1b1" stroke="#b1b1b1" stroke-linecap="round" stroke-linejoin="round"/><circle cx="7.92" cy="13.25" r=".26" fill="#b1b1b1" stroke="#b1b1b1" stroke-linecap="round" stroke-linejoin="round"/><circle cx="6.57" cy="11.91" r=".26" fill="#b1b1b1" stroke="#b1b1b1" stroke-linecap="round" stroke-linejoin="round"/><circle cx="16.93" cy="10.56" r=".26" fill="#b1b1b1" stroke="#b1b1b1" stroke-linecap="round" stroke-linejoin="round"/><circle cx="18.44" cy="11.91" r=".26" fill="#b1b1b1" stroke="#b1b1b1" stroke-linecap="round" stroke-linejoin="round"/><circle cx="16.93" cy="13.25" r=".26" fill="#b1b1b1" stroke="#b1b1b1" stroke-linecap="round" stroke-linejoin="round"/><circle cx="15.57" cy="11.91" r=".26" fill="#b1b1b1" stroke="#b1b1b1" stroke-linecap="round" stroke-linejoin="round"/><circle cx="17.01" cy="12.07" r="3.29" fill="none" stroke="#b1b1b1" stroke-linecap="round" stroke-linejoin="round"/><path fill="none" stroke="#b1b1b1" stroke-linecap="round" stroke-linejoin="round" d="M17.01 8.78H8M10.57 14.12a2.62 2.62 0 0 1 3.86 0M4.71 12.75s-1.84 7.25.16 7.13 3.77-4.52 3.77-4.52M20.29 12.75s1.84 7.24-.16 7.13-3.77-4.52-3.77-4.52M12.38 8.78a1.42 1.42 0 0 0 0-1.65c-.65-.65-1.82.46-2.5 0s0-2 0-2"/></svg><svg viewBox="0 0 25 25" width="25" height="25" id="inactive-gender" x="225" y="50"><title>icons-inactive</title><path d="M10.06 11.19a3.88 3.88 0 1 1-.32-4.46 3.91 3.91 0 0 1 .32 4.46zM18.66 17.8a3.88 3.88 0 1 1-.32-4.46 3.91 3.91 0 0 1 .32 4.46zM4.49 14.44h4.49M6.74 14.44v3.32M21.63 12.5l-2.76 1.43M19.21 11.36l2.93.89-.86 2.81" fill="none" stroke="#b1b1b1" stroke-linecap="round" stroke-linejoin="round"/></svg><svg viewBox="0 0 25 25" width="25" height="25" id="inactive-journalism" x="225" y="75"><title>icons-inactive</title><rect x="15.95" y="4.71" width="4.3" height="7.94" rx="1.7" ry="1.7" transform="rotate(47.2 18.102 8.678)" fill="none" stroke="#b1b1b1" stroke-linecap="round" stroke-linejoin="round"/><path fill="none" stroke="#b1b1b1" stroke-linecap="round" stroke-linejoin="round" d="M14.37 10.55l-7.03 7.69.75.67 8.07-6.67-1.79-1.69z"/><path d="M8.37 17.84s-1.16 2.25-3.07 1.27-2.07.78-2.07.78M10.73 14.73l1 1" fill="none" stroke="#b1b1b1" stroke-linecap="round" stroke-linejoin="round"/></svg><svg viewBox="0 0 25 25" width="25" height="25" id="inactive-like" x="225" y="100"><title>icons-inactive</title><path d="M20.88 10.37a4.65 4.65 0 0 0-8.38-3.79A4.65 4.65 0 0 0 4 9.85c.76 5 8.47 10.7 8.47 10.7s7.19-5.36 8.41-10.18z" fill="none" stroke="#b1b1b1" stroke-linecap="round" stroke-linejoin="round"/></svg><svg viewBox="0 0 25 25" width="25" height="25" id="inactive-location" x="225" y="125"><title>icons-inactive</title><circle cx="12.5" cy="12.5" r="5.86" fill="none" stroke="#b1b1b1" stroke-linecap="round" stroke-linejoin="round"/><path fill="none" stroke="#b1b1b1" stroke-linecap="round" stroke-linejoin="round" d="M12.5 4v17M21 12.5H4"/></svg><svg viewBox="0 0 25 25" width="25" height="25" id="inactive-locked" x="225" y="150"><title>icons-inactive</title><path fill="none" stroke="#b1b1b1" stroke-linecap="round" stroke-linejoin="round" d="M6.14 10.96h12.73v9.59H6.14zM8.37 10.58s-.08-6.13 4-6.13 4.28 6.13 4.28 6.13"/><ellipse cx="12.5" cy="14.86" rx="1.27" ry="1.21" fill="#b1b1b1" stroke="#b1b1b1" stroke-linecap="round" stroke-linejoin="round"/><rect x="12.05" y="15.43" width=".89" height="2.83" rx=".45" ry=".45" fill="#b1b1b1" stroke="#b1b1b1" stroke-linecap="round" stroke-linejoin="round"/></svg><svg viewBox="0 0 25 25" width="25" height="25" id="inactive-mail" x="225" y="175"><title>icons-inactive</title><path fill="none" stroke="#b1b1b1" stroke-linecap="round" stroke-linejoin="round" d="M4.8 7.48h15.4v10.04H4.8z"/><path fill="none" stroke="#b1b1b1" stroke-linecap="round" stroke-linejoin="round" d="M4.8 7.7l7.7 5.62 7.7-5.62"/></svg><svg viewBox="0 0 25 25" width="25" height="25" id="inactive-mainauthor" y="220"><title>icons-inactive</title><path fill="none" stroke="#b1b1b1" stroke-linecap="round" stroke-linejoin="round" stroke-width=".92" d="M11.52 13.71L8.65 8.56l1.29-.71 3.25 5.84-1.67.02z"/><circle cx="7.93" cy="6.17" r="2.42" transform="rotate(-28.98 7.92 6.174)" fill="none" stroke="#b1b1b1" stroke-linecap="round" stroke-linejoin="round" stroke-width=".92"/><rect x="9.1" y="13.76" width="6.8" height="1.48" rx=".74" ry=".74" fill="#b1b1b1" stroke="#b1b1b1" stroke-linecap="round" stroke-linejoin="round" stroke-width=".92"/><rect x="5" y="15.24" width="15" height="6.01" rx=".82" ry=".82" fill="none" stroke="#b1b1b1" stroke-linecap="round" stroke-linejoin="round" stroke-width=".92"/><circle cx="7.93" cy="18.24" r=".85" fill="#b1b1b1" stroke="#b1b1b1" stroke-linecap="round" stroke-linejoin="round" stroke-width=".92"/><circle cx="11.11" cy="18.24" r=".85" fill="#b1b1b1" stroke="#b1b1b1" stroke-linecap="round" stroke-linejoin="round" stroke-width=".92"/></svg><svg viewBox="0 0 25 25" width="25" height="25" id="inactive-menu" x="25" y="220"><title>icons-inactive</title><path fill="none" stroke="#b1b1b1" stroke-linecap="round" stroke-linejoin="round" d="M10.22 7.48h10.05M10.22 10.87h5.59M4.73 7.48h1.95M4.73 10.87h1.95M10.22 14.32h10.05M4.73 14.32h1.95M4.73 17.52h1.95M10.22 17.52h6.95"/></svg><svg viewBox="0 0 25 25" width="25" height="25" id="inactive-message" x="50" y="220"><title>icons-inactive</title><path d="M21.54 11.07c0-3.2-4-5.79-9-5.79s-9 2.59-9 5.79 2.82 5.82 7.81 5.82c.95 0 2.49-.1 2.49-.1a19 19 0 0 0 4.76 2.94 10.45 10.45 0 0 1-.38-4.13c1.99-1.06 3.32-2.7 3.32-4.53z" fill="none" stroke="#b1b1b1" stroke-linecap="round" stroke-linejoin="round"/></svg><svg viewBox="0 0 25 25" width="25" height="25" id="inactive-moreoptions" x="75" y="220"><title>icons-inactive</title><circle cx="8.37" cy="12.55" r=".93" fill="#b1b1b1" stroke="#b1b1b1" stroke-linecap="round" stroke-linejoin="round"/><circle cx="12.5" cy="12.55" r=".93" fill="#b1b1b1" stroke="#b1b1b1" stroke-linecap="round" stroke-linejoin="round"/><circle cx="16.62" cy="12.55" r=".93" fill="#b1b1b1" stroke="#b1b1b1" stroke-linecap="round" stroke-linejoin="round"/><path d="M20.13 17.08a9 9 0 0 1-9.32 4.14 9 9 0 0 1-7.19-8.73 8.89 8.89 0 0 1 15.77-5.63 9 9 0 0 1 .74 10.22z" fill="none" stroke="#b1b1b1" stroke-linecap="round" stroke-linejoin="round"/></svg><svg viewBox="0 0 25 25" width="25" height="25" id="inactive-music" x="100" y="220"><title>icons-inactive</title><rect x="7.48" y="14.07" width="2.25" height="5.93" rx="1.12" ry="1.12" fill="none" stroke="#b1b1b1" stroke-linecap="round" stroke-linejoin="round"/><rect x="15.02" y="14.07" width="2.25" height="5.93" rx="1.12" ry="1.12" fill="none" stroke="#b1b1b1" stroke-linecap="round" stroke-linejoin="round"/><path d="M7.48 15.2s-3.14-.39-3.14 1.8 3.14 1.84 3.14 1.84M17.52 15.2s3.14-.39 3.14 1.84-3.14 1.84-3.14 1.84" fill="none" stroke="#b1b1b1" stroke-linecap="round" stroke-linejoin="round"/><path d="M20.66 17s.85-12-8.17-12-8.15 12.29-8.15 12.29M7.8 7.18h9.72" fill="none" stroke="#b1b1b1" stroke-linecap="round" stroke-linejoin="round"/></svg><svg viewBox="0 0 25 25" width="25" height="25" id="inactive-notification" x="125" y="220"><title>icons-inactive</title><path d="M6.82 17.23S6.74 6.12 12.46 6.12s5.72 11.11 5.72 11.11H6.82zM14.28 19a1.7 1.7 0 0 1-1.77 1.74A1.72 1.72 0 0 1 10.72 19h3.57zM5.09 17.23h14.82M12.5 5.94v-1.7" fill="none" stroke="#b1b1b1" stroke-linecap="round" stroke-linejoin="round" stroke-width=".94"/></svg><svg viewBox="0 0 25 25" width="25" height="25" id="inactive-object" x="120" y="30"><title>icons-inactive</title><path d="M11.79 17.84s-2.79 3.51-5.42.92c-2.21-2.21-.54-4.49.4-5.43l7.11-7.11a3.4 3.4 0 0 1 4.66 0 3.2 3.2 0 0 1 0 5l-4.24 4.21a1.28 1.28 0 0 1-2.06 0 1.94 1.94 0 0 1 0-2.58l2.46-2.46" fill="none" stroke="#b1b1b1" stroke-linecap="round" stroke-linejoin="round"/></svg><svg viewBox="0 0 25 25" width="25" height="25" id="inactive-overview" x="175" y="220"><title>icons-inactive</title><path fill="#b1b1b1" stroke="#b1b1b1" stroke-linecap="round" stroke-linejoin="round" d="M4.26 6.2h5.92v3.98H4.26zM14.82 6.2h5.92v3.98h-5.92zM4.26 14.82h5.92v3.98H4.26zM14.82 14.82h5.92v3.98h-5.92z"/></svg><svg viewBox="0 0 25 25" width="25" height="25" id="inactive-pendingivite" x="200" y="220"><title>icons-inactive</title><path d="M20.22 12.53a7.77 7.77 0 1 1-7.79-7.8v-1a8.77 8.77 0 1 0 8.79 8.8h-1z" fill="#b1b1b1"/><path d="M12.71 15.51a4 4 0 1 1 4-4 4 4 0 0 1-4 4zm0-6.94a3 3 0 1 0 3 3 3 3 0 0 0-3-3z" fill="#b1b1b1"/><path d="M12.47 21.06a7.56 7.56 0 0 1-5.77-2.19.5.5 0 0 1 0-.59c.09-.15 2.34-3.63 6-3.63s5.85 3.3 5.94 3.44a.5.5 0 0 1-.06.61 8.7 8.7 0 0 1-6.11 2.36zM7.74 18.5a7 7 0 0 0 4.73 1.56 8 8 0 0 0 5.09-1.76 6.54 6.54 0 0 0-4.85-2.64c-2.54 0-4.35 2.03-4.97 2.84z" fill="#b1b1b1"/><path fill="none" stroke="#b1b1b1" stroke-linecap="round" stroke-linejoin="round" stroke-width=".86" d="M16.53 5.28l2.46 2.61 4.42-5.03"/></svg><svg viewBox="0 0 25 25" width="25" height="25" id="inactive-photography" x="225" y="220"><title>icons-inactive</title><path d="M18.55 18.84H6.45a1.63 1.63 0 0 1-1.63-1.63V10.9a1.63 1.63 0 0 1 1.63-1.63h1.86l1.13-3.1h5.91l1.22 3.11h2a1.63 1.63 0 0 1 1.63 1.63v6.32a1.63 1.63 0 0 1-1.65 1.61z" fill="none" stroke="#b1b1b1" stroke-linecap="round" stroke-linejoin="round"/><circle cx="12.5" cy="13.77" r="2.99" fill="none" stroke="#b1b1b1" stroke-linecap="round" stroke-linejoin="round"/><circle cx="12.5" cy="8.35" r=".77" fill="#b1b1b1"/></svg><svg viewBox="0 0 25 25" width="25" height="25" id="inactive-profile" x="250"><title>icons-inactive</title><path fill="none" stroke="#b1b1b1" stroke-linecap="round" stroke-linejoin="round" d="M3.77 7.51h17.46v9.98H3.77z"/><path fill="none" stroke="#b1b1b1" stroke-linecap="round" stroke-linejoin="round" d="M6.22 9.81h6.46v2.91H6.22zM15.31 9.81h3.21M15.31 12.35h3.21M6.22 14.97h12.61"/></svg><svg viewBox="0 0 25 25" width="25" height="25" id="inactive-project" x="250" y="25"><title>icons-inactive</title><path fill="none" stroke="#b1b1b1" stroke-linecap="round" stroke-linejoin="round" d="M9.42 6.72h6.16M10.84 6.72v5.56l-5.33 6h13.98l-5.33-5.89-.01-5.67h-3.31z"/><path fill="#b1b1b1" stroke="#b1b1b1" stroke-linecap="round" stroke-linejoin="round" stroke-width=".81" d="M9.52 16.58l1.25-1.35h3.48l1.23 1.35H9.52z"/></svg><svg viewBox="0 0 25 25" width="25" height="25" id="inactive-publishing" x="250" y="50"><title>icons-inactive</title><path d="M11.68 9.14h1.52a.77.77 0 0 1 .77.77v9.43a.47.47 0 0 1-.47.47h-1.82a.77.77 0 0 1-.77-.81V9.91a.77.77 0 0 1 .77-.77zM14.09 19.47l5.95-3.4V5.46L14.1 9.28" fill="none" stroke="#b1b1b1" stroke-linecap="round" stroke-linejoin="round"/><path fill="none" stroke="#b1b1b1" stroke-linecap="round" stroke-linejoin="round" d="M10.91 19.45l-5.95-3.4V5.44l5.94 3.82M7 6.75a6 6 0 0 1 3.45-1.56l1.8 3.56M18 6.72a5.73 5.73 0 0 0-3.35-1.46l-1.89 3.66"/></svg><svg viewBox="0 0 25 25" width="25" height="25" id="inactive-reply" x="250" y="75"><title>icons-inactive</title><path fill="none" stroke="#b1b1b1" stroke-linecap="round" stroke-linejoin="round" d="M10.14 4.76L6.18 9.83l3.96 4.93M6.18 9.77c8.47-.21 12.64-.77 12.64 10.47"/></svg><svg viewBox="0 0 25 25" width="25" height="25" id="inactive-reward" x="250" y="100"><title>icons-inactive</title><path fill="none" stroke="#b1b1b1" stroke-linecap="round" stroke-linejoin="round" d="M5 9.4h15v11.21H5zM12.51 9.94v10.41M19.62 15.12H5.28M12.5 9.29S8.32 7.2 8.32 5.47s3-2.01 4.18 3.82zM13 9.29s4.18-2.09 4.18-3.82S14.14 3.46 13 9.29z"/></svg><svg viewBox="0 0 25 25" width="25" height="25" id="inactive-search" x="250" y="125"><title>icons-inactive</title><circle cx="12.03" cy="11.81" r="6.71" fill="none" stroke="#b1b1b1" stroke-linecap="round" stroke-linejoin="round" stroke-width=".87"/><path fill="none" stroke="#b1b1b1" stroke-linecap="round" stroke-linejoin="round" stroke-width=".87" d="M16.63 16.85l3.04 3.05"/></svg><svg viewBox="0 0 25 25" width="25" height="25" id="inactive-seen" x="250" y="150"><title>icons-inactive</title><path d="M21.92 12.14s-4.21 4.76-9.42 4.76-9.42-4.75-9.42-4.75 4.22-4 9.42-4 9.42 3.99 9.42 3.99z" fill="none" stroke="#b1b1b1" stroke-linecap="round" stroke-linejoin="round"/><circle cx="12.5" cy="11.23" r="2.83" fill="none" stroke="#b1b1b1" stroke-linecap="round" stroke-linejoin="round"/></svg><svg viewBox="0 0 25 25" width="25" height="25" id="inactive-send" x="250" y="175"><title>icons-inactive</title><path fill="none" stroke="#b1b1b1" stroke-linecap="round" stroke-linejoin="round" d="M20.02 12.83L4.98 4.92v15.17l15.04-7.26zM20.02 12.83H4.98"/></svg><svg viewBox="0 0 25 25" width="25" height="25" id="inactive-settings" x="250" y="200"><title>icons-inactive</title><path d="M18.64 13.31a6.49 6.49 0 0 0 .06-.81 6.49 6.49 0 0 0-.06-.81l1.75-1.37a.41.41 0 0 0 .1-.53l-1.65-2.86a.41.41 0 0 0-.5-.18l-2.06.83a6.26 6.26 0 0 0-1.4-.81l-.31-2.19a.43.43 0 0 0-.41-.35h-3.32a.42.42 0 0 0-.41.35l-.31 2.19a6.12 6.12 0 0 0-1.4.81l-2.05-.83a.41.41 0 0 0-.5.18L4.51 9.8a.41.41 0 0 0 .1.53l1.74 1.37a5.64 5.64 0 0 0 0 1.61l-1.74 1.36a.41.41 0 0 0-.1.53l1.65 2.87a.41.41 0 0 0 .5.18l2.06-.83a6.29 6.29 0 0 0 1.4.81l.31 2.19a.42.42 0 0 0 .41.35h3.31a.42.42 0 0 0 .41-.35l.31-2.19a6.14 6.14 0 0 0 1.4-.81l2.06.83a.41.41 0 0 0 .5-.18l1.65-2.87a.41.41 0 0 0-.1-.53z" fill="none" stroke="#b1b1b1" stroke-linecap="round" stroke-linejoin="round"/><circle cx="12.5" cy="12.5" r="2.43" fill="none" stroke="#b1b1b1" stroke-linecap="round" stroke-linejoin="round"/></svg><svg viewBox="0 0 25 25" width="25" height="25" id="inactive-signout" y="245"><title>icons-inactive</title><path fill="none" stroke="#b1b1b1" stroke-linecap="round" stroke-linejoin="round" d="M12.5 8.13V1M9 4a9 9 0 0 0-5.4 8.16 9 9 0 0 0 7.19 8.73 8.9 8.9 0 0 0 8.6-14.39A9 9 0 0 0 16 4"/></svg><svg viewBox="0 0 25 25" width="25" height="25" id="inactive-sport" x="25" y="245"><title>icons-inactive</title><path d="M8.14 13.88h8.74M9.4 13.88l.68 6.45 1.48-1.38 1.07 1.38 1.18-1.35 1.25 1.35.56-6.45" fill="none" stroke="#b1b1b1" stroke-linecap="round" stroke-linejoin="round"/><path d="M9.41 16.66H4.65V8.27s1.87-3.6 7.85-3.6 7.85 3.6 7.85 3.6v8.38h-4.79" fill="none" stroke="#b1b1b1" stroke-linecap="round" stroke-linejoin="round"/><path fill="none" stroke="#b1b1b1" stroke-linecap="round" stroke-linejoin="round" d="M8.51 11.54V8.46h8v3.08"/></svg><svg viewBox="0 0 25 25" width="25" height="25" id="inactive-start" x="50" y="245"><title>icons-inactive</title><path fill="#b1b1b1" stroke="#b1b1b1" stroke-linecap="round" stroke-linejoin="round" d="M10.15 9.48v6.41l6.41-3.2-6.41-3.21z"/><path d="M19.31 16.59A7.94 7.94 0 1 1 9.78 5a7.94 7.94 0 0 1 9.53 11.59z" fill="none" stroke="#b1b1b1" stroke-linecap="round" stroke-linejoin="round"/></svg><svg viewBox="0 0 25 25" width="25" height="25" id="inactive-team" x="75" y="245"><title>icons-inactive</title><path d="M3.76 18a12 12 0 0 0 4.37 1l-3.35-5.38A12 12 0 0 0 3.76 18zM9.57 8a12.26 12.26 0 0 0-4.79 5.57l3.35 5.31A12.26 12.26 0 0 0 15.22 17a12.76 12.76 0 0 0 5-5.95l-3.14-5A12.76 12.76 0 0 0 9.57 8zm6.25 4.21l-1-1.56-2.57 1.62 1 1.56-1-1.56-2.41 1.58 1 1.56-1-1.56-1.43.9 1.43-.9-1-1.56 1 1.56 2.43-1.53-1-1.56 1 1.56 2.57-1.62-1-1.56 1 1.56 1.53-1-1.53 1zM17.1 6.08l3.14 5a12.65 12.65 0 0 0 1-4.11 12.65 12.65 0 0 0-4.14-.89z" fill="none" stroke="#b1b1b1" stroke-linecap="round" stroke-linejoin="round"/></svg><svg viewBox="0 0 25 25" width="25" height="25" id="inactive-technology" x="100" y="245"><title>icons-inactive</title><circle cx="12.49" cy="14.79" r=".54" fill="#b1b1b1"/><rect x="4.11" y="5.76" width="16.78" height="10.51" rx="1.42" ry="1.42" fill="none" stroke="#b1b1b1" stroke-linecap="round" stroke-linejoin="round"/><path d="M10.7 16.27a2.51 2.51 0 0 1-.59 2.67M14.29 16.27a2.51 2.51 0 0 0 .59 2.67M7.78 19.24h9.43M4.11 13.25h16.78" fill="none" stroke="#b1b1b1" stroke-linecap="round" stroke-linejoin="round"/></svg><svg viewBox="0 0 25 25" width="25" height="25" id="inactive-timedate" x="125" y="245"><title>icons-inactive</title><circle cx="12.5" cy="12.5" r="7.84" fill="none" stroke="#b1b1b1" stroke-linecap="round" stroke-linejoin="round"/><path fill="none" stroke="#b1b1b1" stroke-linecap="round" stroke-linejoin="round" d="M12.5 7.94v4.56M12.5 12.5l-3.13 3.13"/></svg><svg viewBox="0 0 25 25" width="25" height="25" id="inactive-upload" x="150" y="245"><title>icons-inactive</title><path fill="none" stroke="#b1b1b1" stroke-linecap="round" stroke-linejoin="round" d="M6.51 14.39v6.1h11.98v-5.81M16.35 7.57l-3.91-3.06-3.8 3.06M12.44 4.64l.01 12.93"/></svg><svg viewBox="0 0 25 25" width="25" height="25" id="inactive-user" x="175" y="245"><title>icons-inactive</title><circle cx="12.66" cy="11.86" r="3.47" fill="none" stroke="#b1b1b1" stroke-linecap="round" stroke-linejoin="round"/><path d="M7 18.88s2.15-3.4 5.62-3.4 5.52 3.21 5.52 3.21a8.24 8.24 0 0 1-5.76 2.19 7.11 7.11 0 0 1-5.38-2z" fill="none" stroke="#b1b1b1" stroke-linecap="round" stroke-linejoin="round"/><path d="M19.84 16.9a8.62 8.62 0 0 1-9 4A8.65 8.65 0 0 1 4 12.49a8.55 8.55 0 0 1 15.13-5.41 8.62 8.62 0 0 1 .71 9.82z" fill="none" stroke="#b1b1b1" stroke-linecap="round" stroke-linejoin="round"/></svg><svg viewBox="0 0 25 25" width="25" height="25" id="inactive-work" x="200" y="245"><title>icons-inactive</title><path fill="none" stroke="#b1b1b1" stroke-linecap="round" stroke-linejoin="round" d="M4.2 8.54h16.6V19.7H4.2z"/><path fill="none" stroke="#b1b1b1" stroke-linecap="round" stroke-linejoin="round" d="M4.2 11.23l8.3 3.93 8.3-3.93"/><circle cx="12.5" cy="12.55" r=".72" fill="#b1b1b1"/><path fill="none" stroke="#b1b1b1" stroke-linecap="round" stroke-linejoin="round" d="M8.46 8.54V5.3h8.08v3.24"/></svg><svg viewBox="0 0 25 25" width="25" height="25" id="journalism" x="225" y="245"><title>icons</title><rect x="15.95" y="4.71" width="4.3" height="7.94" rx="1.7" ry="1.7" transform="rotate(47.2 18.102 8.678)" fill="none" stroke="#424242" stroke-linecap="round" stroke-linejoin="round"/><path fill="none" stroke="#424242" stroke-linecap="round" stroke-linejoin="round" d="M14.37 10.55l-7.03 7.69.75.67 8.07-6.67-1.79-1.69z"/><path d="M8.37 17.84s-1.16 2.25-3.07 1.27-2.07.78-2.07.78M10.73 14.73l1 1" fill="none" stroke="#424242" stroke-linecap="round" stroke-linejoin="round"/></svg><svg viewBox="0 0 25 25" width="25" height="25" id="like" x="250" y="245"><title>icons</title><path d="M20.88 10.37a4.65 4.65 0 0 0-8.38-3.79A4.65 4.65 0 0 0 4 9.85c.76 5 8.47 10.7 8.47 10.7s7.19-5.36 8.41-10.18z" fill="none" stroke="#424242" stroke-linecap="round" stroke-linejoin="round"/></svg><svg viewBox="0 0 25 25" width="25" height="25" id="location" x="275"><title>icons</title><circle cx="12.5" cy="12.5" r="5.86" fill="none" stroke="#424242" stroke-linecap="round" stroke-linejoin="round"/><path fill="none" stroke="#424242" stroke-linecap="round" stroke-linejoin="round" d="M12.5 4v17M21 12.5H4"/></svg><svg viewBox="0 0 25 25" width="25" height="25" id="locked" x="275" y="25"><title>icons</title><path fill="none" stroke="#424242" stroke-linecap="round" stroke-linejoin="round" d="M6.14 10.96h12.73v9.59H6.14zM8.37 10.58s-.08-6.13 4-6.13 4.28 6.13 4.28 6.13"/><ellipse cx="12.5" cy="14.86" rx="1.27" ry="1.21" fill="#424242" stroke="#424242" stroke-linecap="round" stroke-linejoin="round"/><rect x="12.05" y="15.43" width=".89" height="2.83" rx=".45" ry=".45" fill="#424242" stroke="#424242" stroke-linecap="round" stroke-linejoin="round"/></svg><svg viewBox="0 0 25 25" width="25" height="25" id="mail" x="275" y="50"><title>icons</title><path fill="none" stroke="#424242" stroke-linecap="round" stroke-linejoin="round" d="M4.8 7.48h15.4v10.04H4.8z"/><path fill="none" stroke="#424242" stroke-linecap="round" stroke-linejoin="round" d="M4.8 7.7l7.7 5.62 7.7-5.62"/></svg><svg viewBox="0 0 25 25" width="25" height="25" id="mainauthor" x="275" y="75"><title>icons</title><path fill="none" stroke="#424242" stroke-linecap="round" stroke-linejoin="round" stroke-width=".92" d="M11.52 13.71L8.65 8.56l1.29-.71 3.25 5.84-1.67.02z"/><circle cx="7.93" cy="6.17" r="2.42" transform="rotate(-28.98 7.92 6.174)" fill="none" stroke="#424242" stroke-linecap="round" stroke-linejoin="round" stroke-width=".92"/><rect x="9.1" y="13.76" width="6.8" height="1.48" rx=".74" ry=".74" fill="#424242" stroke="#424242" stroke-linecap="round" stroke-linejoin="round" stroke-width=".92"/><rect x="5" y="15.24" width="15" height="6.01" rx=".82" ry=".82" fill="none" stroke="#424242" stroke-linecap="round" stroke-linejoin="round" stroke-width=".92"/><circle cx="7.93" cy="18.24" r=".85" fill="#424242" stroke="#424242" stroke-linecap="round" stroke-linejoin="round" stroke-width=".92"/><circle cx="11.11" cy="18.24" r=".85" fill="#424242" stroke="#424242" stroke-linecap="round" stroke-linejoin="round" stroke-width=".92"/></svg><svg viewBox="0 0 25 25" width="25" height="25" id="menu" x="275" y="100"><title>icons</title><path fill="none" stroke="#424242" stroke-linecap="round" stroke-linejoin="round" d="M10.22 7.48h10.05M10.22 10.87h5.59M4.73 7.48h1.95M4.73 10.87h1.95M10.22 14.32h10.05M4.73 14.32h1.95M4.73 17.52h1.95M10.22 17.52h6.95"/></svg><svg viewBox="0 0 25 25" width="25" height="25" id="menu-dashboard" x="275" y="125"><title>icons-menu</title><circle cx="12.5" cy="12.5" r="7.94" fill="none" stroke="#c9c" stroke-linecap="round" stroke-linejoin="round"/><path d="M9.75 10.93s1.51 5.11 1.74 5.54a1 1 0 0 0 1.43.43 1 1 0 0 0 .45-1.38c-.24-.46-3.62-4.59-3.62-4.59z" fill="#c9c" stroke="#c9c" stroke-linecap="round" stroke-linejoin="round"/><path fill="none" stroke="#c9c" stroke-linecap="round" stroke-linejoin="round" d="M7.38 12.5H6.05M18.82 12.5h-1.34M12.34 7.3V5.96M16.15 8.98l.94-.95M7.73 8.03l.95.95"/></svg><svg viewBox="0 0 25 25" width="25" height="25" id="menu-notification" x="275" y="150"><title>icons-menu</title><path d="M6.82 17.23S6.74 6.12 12.46 6.12s5.72 11.11 5.72 11.11H6.82zM14.28 19a1.7 1.7 0 0 1-1.77 1.74A1.72 1.72 0 0 1 10.72 19h3.57zM5.09 17.23h14.82M12.5 5.94v-1.7" fill="none" stroke="#c9c" stroke-linecap="round" stroke-linejoin="round" stroke-width=".94"/></svg><svg viewBox="0 0 25 25" width="25" height="25" id="menu-search" x="275" y="175"><title>icons-menu</title><circle cx="12.03" cy="11.81" r="6.71" fill="none" stroke="#c9c" stroke-linecap="round" stroke-linejoin="round" stroke-width=".87"/><path fill="none" stroke="#c9c" stroke-linecap="round" stroke-linejoin="round" stroke-width=".87" d="M16.63 16.85l3.04 3.05"/></svg><svg viewBox="0 0 25 25" width="25" height="25" id="menu-settings" x="275" y="200"><title>icons-menu</title><path d="M18.64 13.31a6.49 6.49 0 0 0 .06-.81 6.49 6.49 0 0 0-.06-.81l1.75-1.37a.41.41 0 0 0 .1-.53l-1.65-2.86a.41.41 0 0 0-.5-.18l-2.06.83a6.26 6.26 0 0 0-1.4-.81l-.31-2.19a.43.43 0 0 0-.41-.35h-3.32a.42.42 0 0 0-.41.35l-.31 2.19a6.12 6.12 0 0 0-1.4.81l-2.05-.83a.41.41 0 0 0-.5.18L4.51 9.8a.41.41 0 0 0 .1.53l1.74 1.37a5.64 5.64 0 0 0 0 1.61l-1.74 1.36a.41.41 0 0 0-.1.53l1.65 2.87a.41.41 0 0 0 .5.18l2.06-.83a6.29 6.29 0 0 0 1.4.81l.31 2.19a.42.42 0 0 0 .41.35h3.31a.42.42 0 0 0 .41-.35l.31-2.19a6.14 6.14 0 0 0 1.4-.81l2.06.83a.41.41 0 0 0 .5-.18l1.65-2.87a.41.41 0 0 0-.1-.53z" fill="none" stroke="#c9c" stroke-linecap="round" stroke-linejoin="round"/><circle cx="12.5" cy="12.5" r="2.43" fill="none" stroke="#c9c" stroke-linecap="round" stroke-linejoin="round"/></svg><svg viewBox="0 0 25 25" width="25" height="25" id="menu-signout" x="275" y="225"><title>icons-menu</title><path fill="none" stroke="#c9c" stroke-linecap="round" stroke-linejoin="round" d="M12.5 8.13V1M9 4a9 9 0 0 0-5.4 8.16 9 9 0 0 0 7.19 8.73 8.9 8.9 0 0 0 8.6-14.39A9 9 0 0 0 16 4"/></svg><svg viewBox="0 0 25 25" width="25" height="25" id="menu-user" y="270"><title>icons-menu</title><circle cx="12.66" cy="11.86" r="3.47" fill="none" stroke="#c9c" stroke-linecap="round" stroke-linejoin="round"/><path d="M7 18.88s2.15-3.4 5.62-3.4 5.52 3.21 5.52 3.21a8.24 8.24 0 0 1-5.76 2.19 7.11 7.11 0 0 1-5.38-2z" fill="none" stroke="#c9c" stroke-linecap="round" stroke-linejoin="round"/><path d="M19.84 16.9a8.62 8.62 0 0 1-9 4A8.65 8.65 0 0 1 4 12.49a8.55 8.55 0 0 1 15.13-5.41 8.62 8.62 0 0 1 .71 9.82z" fill="none" stroke="#c9c" stroke-linecap="round" stroke-linejoin="round"/></svg><svg viewBox="0 0 25 25" width="25" height="25" id="message" x="25" y="270"><title>icons</title><path d="M21.54 11.07c0-3.2-4-5.79-9-5.79s-9 2.59-9 5.79 2.82 5.82 7.81 5.82c.95 0 2.49-.1 2.49-.1a19 19 0 0 0 4.76 2.94 10.45 10.45 0 0 1-.38-4.13c1.99-1.06 3.32-2.7 3.32-4.53z" fill="none" stroke="#424242" stroke-linecap="round" stroke-linejoin="round"/></svg><svg viewBox="0 0 25 25" width="25" height="25" id="moreoptions" x="50" y="270"><title>icons</title><circle cx="8.37" cy="12.55" r=".93" fill="#424242" stroke="#424242" stroke-linecap="round" stroke-linejoin="round"/><circle cx="12.5" cy="12.55" r=".93" fill="#424242" stroke="#424242" stroke-linecap="round" stroke-linejoin="round"/><circle cx="16.62" cy="12.55" r=".93" fill="#424242" stroke="#424242" stroke-linecap="round" stroke-linejoin="round"/><path d="M20.13 17.08a9 9 0 0 1-9.32 4.14 9 9 0 0 1-7.19-8.73 8.89 8.89 0 0 1 15.77-5.63 9 9 0 0 1 .74 10.22z" fill="none" stroke="#424242" stroke-linecap="round" stroke-linejoin="round"/></svg><svg viewBox="0 0 25 25" width="25" height="25" id="music" x="75" y="270"><title>icons</title><rect x="7.48" y="14.07" width="2.25" height="5.93" rx="1.12" ry="1.12" fill="none" stroke="#424242" stroke-linecap="round" stroke-linejoin="round"/><rect x="15.02" y="14.07" width="2.25" height="5.93" rx="1.12" ry="1.12" fill="none" stroke="#424242" stroke-linecap="round" stroke-linejoin="round"/><path d="M7.48 15.2s-3.14-.39-3.14 1.8 3.14 1.84 3.14 1.84M17.52 15.2s3.14-.39 3.14 1.84-3.14 1.84-3.14 1.84" fill="none" stroke="#424242" stroke-linecap="round" stroke-linejoin="round"/><path d="M20.66 17s.85-12-8.17-12-8.15 12.29-8.15 12.29M7.8 7.18h9.72" fill="none" stroke="#424242" stroke-linecap="round" stroke-linejoin="round"/></svg><svg viewBox="0 0 25 25" width="25" height="25" id="notification" x="100" y="270"><title>icons</title><path d="M6.82 17.23S6.74 6.12 12.46 6.12s5.72 11.11 5.72 11.11H6.82zM14.28 19a1.7 1.7 0 0 1-1.77 1.74A1.72 1.72 0 0 1 10.72 19h3.57zM5.09 17.23h14.82M12.5 5.94v-1.7" fill="none" stroke="#424242" stroke-linecap="round" stroke-linejoin="round" stroke-width=".94"/></svg><svg viewBox="0 0 25 25" width="25" height="25" id="object" x="125" y="270"><title>icons</title><path d="M11.79 17.84s-2.79 3.51-5.42.92c-2.21-2.21-.54-4.49.4-5.43l7.11-7.11a3.4 3.4 0 0 1 4.66 0 3.2 3.2 0 0 1 0 5l-4.24 4.21a1.28 1.28 0 0 1-2.06 0 1.94 1.94 0 0 1 0-2.58l2.46-2.46" fill="none" stroke="#424242" stroke-linecap="round" stroke-linejoin="round"/></svg><svg viewBox="0 0 25 25" width="25" height="25" id="overview" x="150" y="270"><title>icons</title><path fill="#424242" stroke="#424242" stroke-linecap="round" stroke-linejoin="round" d="M4.26 6.2h5.92v3.98H4.26zM14.82 6.2h5.92v3.98h-5.92zM4.26 14.82h5.92v3.98H4.26zM14.82 14.82h5.92v3.98h-5.92z"/></svg><svg viewBox="0 0 25 25" width="25" height="25" id="pendingivite" x="175" y="270"><title>icons</title><path d="M20.22 12.53a7.77 7.77 0 1 1-7.79-7.8v-1a8.77 8.77 0 1 0 8.79 8.8h-1z" fill="#424242"/><path d="M12.71 15.51a4 4 0 1 1 4-4 4 4 0 0 1-4 4zm0-6.94a3 3 0 1 0 3 3 3 3 0 0 0-3-3z" fill="#424242"/><path d="M12.47 21.06a7.56 7.56 0 0 1-5.77-2.19.5.5 0 0 1 0-.59c.09-.15 2.34-3.63 6-3.63s5.85 3.3 5.94 3.44a.5.5 0 0 1-.06.61 8.7 8.7 0 0 1-6.11 2.36zM7.74 18.5a7 7 0 0 0 4.73 1.56 8 8 0 0 0 5.09-1.76 6.54 6.54 0 0 0-4.85-2.64c-2.54 0-4.35 2.03-4.97 2.84z" fill="#424242"/><path fill="none" stroke="#424242" stroke-linecap="round" stroke-linejoin="round" stroke-width=".86" d="M16.53 5.28l2.46 2.61 4.42-5.03"/></svg><svg viewBox="0 0 25 25" width="25" height="25" id="photography" x="200" y="270"><title>icons</title><path d="M18.55 18.84H6.45a1.63 1.63 0 0 1-1.63-1.63V10.9a1.63 1.63 0 0 1 1.63-1.63h1.86l1.13-3.1h5.91l1.22 3.11h2a1.63 1.63 0 0 1 1.63 1.63v6.32a1.63 1.63 0 0 1-1.65 1.61z" fill="none" stroke="#424242" stroke-linecap="round" stroke-linejoin="round"/><circle cx="12.5" cy="13.77" r="2.99" fill="none" stroke="#424242" stroke-linecap="round" stroke-linejoin="round"/><circle cx="12.5" cy="8.35" r=".77" fill="#424242"/></svg><svg viewBox="0 0 25 25" width="25" height="25" id="profile" x="225" y="270"><title>icons</title><path fill="none" stroke="#424242" stroke-linecap="round" stroke-linejoin="round" d="M3.77 7.51h17.46v9.98H3.77z"/><path fill="none" stroke="#424242" stroke-linecap="round" stroke-linejoin="round" d="M6.22 9.81h6.46v2.91H6.22zM15.31 9.81h3.21M15.31 12.35h3.21M6.22 14.97h12.61"/></svg><svg viewBox="0 0 25 25" width="25" height="25" id="project" x="250" y="270"><title>icons</title><path fill="none" stroke="#424242" stroke-linecap="round" stroke-linejoin="round" d="M9.42 6.72h6.16M10.84 6.72v5.56l-5.33 6h13.98l-5.33-5.89-.01-5.67h-3.31z"/><path fill="#424242" stroke="#424242" stroke-linecap="round" stroke-linejoin="round" stroke-width=".81" d="M9.52 16.58l1.25-1.35h3.48l1.23 1.35H9.52z"/></svg><svg viewBox="0 0 25 25" width="25" height="25" id="publishing" x="275" y="270"><title>icons</title><path d="M11.68 9.14h1.52a.77.77 0 0 1 .77.77v9.43a.47.47 0 0 1-.47.47h-1.82a.77.77 0 0 1-.77-.81V9.91a.77.77 0 0 1 .77-.77zM14.09 19.47l5.95-3.4V5.46L14.1 9.28" fill="none" stroke="#424242" stroke-linecap="round" stroke-linejoin="round"/><path fill="none" stroke="#424242" stroke-linecap="round" stroke-linejoin="round" d="M10.91 19.45l-5.95-3.4V5.44l5.94 3.82M7 6.75a6 6 0 0 1 3.45-1.56l1.8 3.56M18 6.72a5.73 5.73 0 0 0-3.35-1.46l-1.89 3.66"/></svg><svg viewBox="0 0 25 25" width="25" height="25" id="reply" x="300"><title>icons</title><path fill="none" stroke="#424242" stroke-linecap="round" stroke-linejoin="round" d="M10.14 4.76L6.18 9.83l3.96 4.93M6.18 9.77c8.47-.21 12.64-.77 12.64 10.47"/></svg><svg viewBox="0 0 25 25" width="25" height="25" id="reward" x="300" y="25"><title>icons</title><path fill="none" stroke="#424242" stroke-linecap="round" stroke-linejoin="round" d="M5 9.4h15v11.21H5zM12.51 9.94v10.41M19.62 15.12H5.28M12.5 9.29S8.32 7.2 8.32 5.47s3-2.01 4.18 3.82zM13 9.29s4.18-2.09 4.18-3.82S14.14 3.46 13 9.29z"/></svg><svg viewBox="0 0 25 25" width="25" height="25" id="search" x="300" y="50"><title>icons</title><circle cx="12.03" cy="11.81" r="6.71" fill="none" stroke="#424242" stroke-linecap="round" stroke-linejoin="round" stroke-width=".87"/><path fill="none" stroke="#424242" stroke-linecap="round" stroke-linejoin="round" stroke-width=".87" d="M16.63 16.85l3.04 3.05"/></svg><svg viewBox="0 0 25 25" width="25" height="25" id="seen" x="300" y="75"><title>icons</title><path d="M21.92 12.14s-4.21 4.76-9.42 4.76-9.42-4.75-9.42-4.75 4.22-4 9.42-4 9.42 3.99 9.42 3.99z" fill="none" stroke="#424242" stroke-linecap="round" stroke-linejoin="round"/><circle cx="12.5" cy="11.23" r="2.83" fill="none" stroke="#424242" stroke-linecap="round" stroke-linejoin="round"/></svg><svg viewBox="0 0 25 25" width="25" height="25" id="send" x="300" y="100"><title>icons</title><path fill="none" stroke="#424242" stroke-linecap="round" stroke-linejoin="round" d="M20.02 12.83L4.98 4.92v15.17l15.04-7.26zM20.02 12.83H4.98"/></svg><svg viewBox="0 0 25 25" width="25" height="25" id="settings" x="300" y="125"><title>icons</title><path d="M18.64 13.31a6.49 6.49 0 0 0 .06-.81 6.49 6.49 0 0 0-.06-.81l1.75-1.37a.41.41 0 0 0 .1-.53l-1.65-2.86a.41.41 0 0 0-.5-.18l-2.06.83a6.26 6.26 0 0 0-1.4-.81l-.31-2.19a.43.43 0 0 0-.41-.35h-3.32a.42.42 0 0 0-.41.35l-.31 2.19a6.12 6.12 0 0 0-1.4.81l-2.05-.83a.41.41 0 0 0-.5.18L4.51 9.8a.41.41 0 0 0 .1.53l1.74 1.37a5.64 5.64 0 0 0 0 1.61l-1.74 1.36a.41.41 0 0 0-.1.53l1.65 2.87a.41.41 0 0 0 .5.18l2.06-.83a6.29 6.29 0 0 0 1.4.81l.31 2.19a.42.42 0 0 0 .41.35h3.31a.42.42 0 0 0 .41-.35l.31-2.19a6.14 6.14 0 0 0 1.4-.81l2.06.83a.41.41 0 0 0 .5-.18l1.65-2.87a.41.41 0 0 0-.1-.53z" fill="none" stroke="#424242" stroke-linecap="round" stroke-linejoin="round"/><circle cx="12.5" cy="12.5" r="2.43" fill="none" stroke="#424242" stroke-linecap="round" stroke-linejoin="round"/></svg><svg viewBox="0 0 25 25" width="25" height="25" id="sidepanel-activity" x="300" y="150"><title>icons-sidepanel</title><path fill="none" stroke="#afa7b0" stroke-linecap="round" stroke-linejoin="round" d="M5.06 14.04h2.71l2.31-8.23 3.25 13.38 2.38-8.89.99 3.04h3.24"/></svg><svg viewBox="0 0 25 25" width="25" height="25" id="sidepanel-addmember" x="300" y="175"><title>icons-sidepanel</title><path d="M20.43 12.53a7.77 7.77 0 1 1-7.79-7.8v-1a8.77 8.77 0 1 0 8.79 8.8h-1z" fill="#afa7b0"/><path d="M12.92 15.51a4 4 0 1 1 4-4 4 4 0 0 1-4 4zm0-6.94a3 3 0 1 0 3 3 3 3 0 0 0-3-3z" fill="#afa7b0"/><path d="M12.68 21.06a7.56 7.56 0 0 1-5.77-2.18.5.5 0 0 1 0-.59c.09-.15 2.34-3.63 6-3.63s5.85 3.3 5.94 3.44a.5.5 0 0 1-.06.61 8.7 8.7 0 0 1-6.11 2.35zM8 18.5a7 7 0 0 0 4.73 1.56 8 8 0 0 0 5.09-1.76 6.54 6.54 0 0 0-4.85-2.64c-2.58 0-4.4 2.03-4.97 2.84z" fill="#afa7b0"/><path fill="none" stroke="#afa7b0" stroke-linecap="round" stroke-linejoin="round" d="M23.51 5.37l-7.13.01M19.94 8.94V1.81"/></svg><svg viewBox="0 0 25 25" width="25" height="25" id="sidepanel-allprojects" x="300" y="200"><title>icons-sidepanel</title><path d="M13.19 12.61a.71.71 0 0 0 0-.07.7.7 0 0 0-.1-.36.71.71 0 0 0-.32-.25h-.25a.7.7 0 0 0-.7.66.7.7 0 0 0 .13.38.7.7 0 0 0 .35.23h.2a.7.7 0 0 0 .69-.59z" fill="none" stroke="#afa7b0" stroke-miterlimit="10"/><path d="M14.46 11.36a.42.42 0 0 0-.1-.17.5.5 0 0 0-.14-.19L9.6 7.95l-.09-.06A.38.38 0 0 0 9 8a.4.4 0 0 0-.13.43l1.47 5.45a.42.42 0 0 0 .1.17.5.5 0 0 0 .14.14l4.62 3.1.09.06a.38.38 0 0 0 .51-.08.4.4 0 0 0 .13-.43zm-2.15 1.82A.7.7 0 0 1 12 13a.7.7 0 0 1-.13-.38.7.7 0 0 1 .7-.66h.25a.71.71 0 0 1 .32.25.7.7 0 0 1 .1.36.7.7 0 0 1-.7.66h-.16z" fill="#afa7b0"/><path d="M19.84 16.9a8.62 8.62 0 0 1-9 4A8.65 8.65 0 0 1 4 12.49a8.55 8.55 0 0 1 15.13-5.41 8.62 8.62 0 0 1 .71 9.82z" fill="none" stroke="#afa7b0" stroke-linecap="round" stroke-linejoin="round"/></svg><svg viewBox="0 0 25 25" width="25" height="25" id="sidepanel-blog" x="300" y="225"><title>icons-sidepanel</title><path fill="none" stroke="#afa7b0" stroke-linecap="round" stroke-linejoin="round" d="M4.35 7.94v5.47M6.09 8.23v4.58l9.32 2.89V5.89L6.09 8.23zM6.06 19l3.34.11-1.28-2.32-.17-1.85-1.84-.65A4.74 4.74 0 0 0 6.06 19z"/><path d="M15.53 9.7s-.07 0-.07.05h.11a.94.94 0 0 1 .81 1 .94.94 0 0 1-.81 1c-.06 0 0 0 0 0s.13.12 0 .12-.06 0 0 0a1 1 0 0 0 .87-1.11 1 1 0 0 0-.91-1.06z" fill="#afa7b0" stroke="#afa7b0" stroke-linecap="round" stroke-linejoin="round"/><path fill="none" stroke="#afa7b0" stroke-linecap="round" stroke-linejoin="round" d="M18.3 13.13l1.51 1.64M19.87 6.67l-1.64 1.51M18.09 10.79h2.56"/></svg><svg viewBox="0 0 25 25" width="25" height="25" id="sidepanel-campaign" x="300" y="250"><title>icons-sidepanel</title><path d="M7.4 17.11s5 .21 6.21-2.31a8.87 8.87 0 0 1-1.25-1.6c8.37-2.25 6.11-8.52 6.11-8.52S10 5.79 6.25 20.32" fill="none" stroke="#afa7b0" stroke-linecap="round" stroke-linejoin="round"/></svg><svg viewBox="0 0 25 25" width="25" height="25" id="sidepanel-city" y="295"><title>icons-sidepanel</title><path fill="none" stroke="#afa7b0" stroke-linecap="round" stroke-linejoin="round" d="M12.11 20.35V9.94H5.17v10.41M6.75 9.84V7.81h3.77v2.03M15.77 9.97h2.4M15.77 11.7h2.4M15.77 13.39h2.4M15.77 15.12h2.4M8.64 7.81v-3M14.11 20.35V4.32l5.72 2.28v13.75M5.17 18.5h6.94M7.21 18.5v-6.17M9.88 18.5v-6.17M3.38 20.68h18.24"/></svg><svg viewBox="0 0 25 25" width="25" height="25" id="sidepanel-customeridea" x="25" y="295"><title>icons-sidepanel</title><path fill="none" stroke="#afa7b0" stroke-linecap="round" stroke-linejoin="round" d="M12.24 4.47l.01 2.51M18.39 6.81l-1.77 1.78M6.61 6.85L8.4 8.62M10.72 19.75h3.36v-3.36s2.19-.61 2.18-3.62A3.76 3.76 0 0 0 12.4 8.9a3.69 3.69 0 0 0-3.73 3.84c0 3 2 3.74 2 3.74z"/><path fill="#afa7b0" stroke="#afa7b0" stroke-linecap="round" stroke-linejoin="round" d="M10.702 17.723l3.37-.012.007 2.03-3.37.013z"/><path d="M13.39 20a1 1 0 0 1-2 0c0-.55.45 0 1 0s1-.53 1 0z" fill="#afa7b0"/><path d="M12.46 10.35a2.75 2.75 0 0 0-2.34 2.16" fill="none" stroke="#afa7b0" stroke-linecap="round" stroke-linejoin="round"/></svg><svg viewBox="0 0 25 25" width="25" height="25" id="sidepanel-document" x="50" y="295"><title>icons-sidepanel</title><path fill="none" stroke="#afa7b0" stroke-linecap="round" stroke-linejoin="round" d="M10.43 8.76h8.13M10.43 11.83h8.13M10.43 15h8.13M5.73 12.34h1.63M5.73 15.48h1.63M7.62 6.3h13.49v11.15a1.12 1.12 0 0 1-1.3 1.25H5.23a1.38 1.38 0 0 1-1.35-1.44V10h3.74V6.3zM7.62 10v7.27M7.62 17.23a1.36 1.36 0 0 1-1.4 1.47"/></svg><svg viewBox="0 0 25 25" width="25" height="25" id="sidepanel-gender" x="75" y="295"><title>icons-sidepanel</title><path d="M10.06 11.19a3.88 3.88 0 1 1-.32-4.46 3.91 3.91 0 0 1 .32 4.46zM18.66 17.8a3.88 3.88 0 1 1-.32-4.46 3.91 3.91 0 0 1 .32 4.46zM4.49 14.44h4.49M6.74 14.44v3.32M21.63 12.5l-2.76 1.43M19.21 11.36l2.93.89-.86 2.81" fill="none" stroke="#afa7b0" stroke-linecap="round" stroke-linejoin="round"/></svg><svg viewBox="0 0 25 25" width="25" height="25" id="sidepanel-location" x="100" y="295"><title>icons-sidepanel</title><circle cx="12.5" cy="12.5" r="5.86" fill="none" stroke="#afa7b0" stroke-linecap="round" stroke-linejoin="round"/><path fill="none" stroke="#afa7b0" stroke-linecap="round" stroke-linejoin="round" d="M12.5 4v17M21 12.5H4"/></svg><svg viewBox="0 0 25 25" width="25" height="25" id="sidepanel-message" x="125" y="295"><title>icons-sidepanel</title><path d="M21.54 11.07c0-3.2-4-5.79-9-5.79s-9 2.59-9 5.79 2.82 5.82 7.81 5.82c.95 0 2.49-.1 2.49-.1a19 19 0 0 0 4.76 2.94 10.45 10.45 0 0 1-.38-4.13c1.99-1.06 3.32-2.7 3.32-4.53z" fill="none" stroke="#afa7b0" stroke-linecap="round" stroke-linejoin="round"/></svg><svg viewBox="0 0 25 25" width="25" height="25" id="sidepanel-notification" x="150" y="295"><title>icons-sidepanel</title><path d="M6.82 17.23S6.74 6.12 12.46 6.12s5.72 11.11 5.72 11.11H6.82zM14.28 19a1.7 1.7 0 0 1-1.77 1.74A1.72 1.72 0 0 1 10.72 19h3.57zM5.09 17.23h14.82M12.5 5.94v-1.7" fill="none" stroke="#afa7b0" stroke-linecap="round" stroke-linejoin="round" stroke-width=".94"/></svg><svg viewBox="0 0 25 25" width="25" height="25" id="sidepanel-profile" x="175" y="295"><title>icons-sidepanel</title><path fill="none" stroke="#afa7b0" stroke-linecap="round" stroke-linejoin="round" d="M3.77 7.51h17.46v9.98H3.77z"/><path fill="none" stroke="#afa7b0" stroke-linecap="round" stroke-linejoin="round" d="M6.22 9.81h6.46v2.91H6.22zM15.31 9.81h3.21M15.31 12.35h3.21M6.22 14.97h12.61"/></svg><svg viewBox="0 0 25 25" width="25" height="25" id="sidepanel-project" x="200" y="295"><title>icons-sidepanel</title><path fill="none" stroke="#afa7b0" stroke-linecap="round" stroke-linejoin="round" d="M9.42 6.72h6.16M10.84 6.72v5.56l-5.33 6h13.98l-5.33-5.89-.01-5.67h-3.31z"/><path fill="#afa7b0" stroke="#afa7b0" stroke-linecap="round" stroke-linejoin="round" stroke-width=".81" d="M9.52 16.58l1.25-1.35h3.48l1.23 1.35H9.52z"/></svg><svg viewBox="0 0 25 25" width="25" height="25" id="sidepanel-seen" x="225" y="295"><title>icons-sidepanel</title><path d="M21.92 12.14s-4.21 4.76-9.42 4.76-9.42-4.75-9.42-4.75 4.22-4 9.42-4 9.42 3.99 9.42 3.99z" fill="none" stroke="#afa7b0" stroke-linecap="round" stroke-linejoin="round"/><circle cx="12.5" cy="11.23" r="2.83" fill="none" stroke="#afa7b0" stroke-linecap="round" stroke-linejoin="round"/></svg><svg viewBox="0 0 25 25" width="25" height="25" id="sidepanel-team" x="250" y="295"><title>icons-sidepanel</title><path d="M3.76 18a12 12 0 0 0 4.37 1l-3.35-5.38A12 12 0 0 0 3.76 18zM9.57 8a12.26 12.26 0 0 0-4.79 5.57l3.35 5.31A12.26 12.26 0 0 0 15.22 17a12.76 12.76 0 0 0 5-5.95l-3.14-5A12.76 12.76 0 0 0 9.57 8zm6.25 4.21l-1-1.56-2.57 1.62 1 1.56-1-1.56-2.41 1.58 1 1.56-1-1.56-1.43.9 1.43-.9-1-1.56 1 1.56 2.43-1.53-1-1.56 1 1.56 2.57-1.62-1-1.56 1 1.56 1.53-1-1.53 1zM17.1 6.08l3.14 5a12.65 12.65 0 0 0 1-4.11 12.65 12.65 0 0 0-4.14-.89z" fill="none" stroke="#afa7b0" stroke-linecap="round" stroke-linejoin="round"/></svg><svg viewBox="0 0 25 25" width="25" height="25" id="sidepanel-work" x="275" y="295"><title>icons-sidepanel</title><path fill="none" stroke="#afa7b0" stroke-linecap="round" stroke-linejoin="round" d="M4.2 8.54h16.6V19.7H4.2z"/><path fill="none" stroke="#afa7b0" stroke-linecap="round" stroke-linejoin="round" d="M4.2 11.23l8.3 3.93 8.3-3.93"/><circle cx="12.5" cy="12.55" r=".72" fill="#afa7b0"/><path fill="none" stroke="#afa7b0" stroke-linecap="round" stroke-linejoin="round" d="M8.46 8.54V5.3h8.08v3.24"/></svg><svg viewBox="0 0 25 25" width="25" height="25" id="signout" x="300" y="295"><title>icons</title><path fill="none" stroke="#424242" stroke-linecap="round" stroke-linejoin="round" d="M12.5 8.13V1M9 4a9 9 0 0 0-5.4 8.16 9 9 0 0 0 7.19 8.73 8.9 8.9 0 0 0 8.6-14.39A9 9 0 0 0 16 4"/></svg><svg viewBox="0 0 25 25" width="25" height="25" id="sport" x="325"><title>icons</title><path d="M8.14 13.88h8.74M9.4 13.88l.68 6.45 1.48-1.38 1.07 1.38 1.18-1.35 1.25 1.35.56-6.45" fill="none" stroke="#424242" stroke-linecap="round" stroke-linejoin="round"/><path d="M9.41 16.66H4.65V8.27s1.87-3.6 7.85-3.6 7.85 3.6 7.85 3.6v8.38h-4.79" fill="none" stroke="#424242" stroke-linecap="round" stroke-linejoin="round"/><path fill="none" stroke="#424242" stroke-linecap="round" stroke-linejoin="round" d="M8.51 11.54V8.46h8v3.08"/></svg><svg viewBox="0 0 25 25" width="25" height="25" id="start" x="325" y="25"><title>icons</title><path fill="#424242" stroke="#424242" stroke-linecap="round" stroke-linejoin="round" d="M10.15 9.48v6.41l6.41-3.2-6.41-3.21z"/><path d="M19.31 16.59A7.94 7.94 0 1 1 9.78 5a7.94 7.94 0 0 1 9.53 11.59z" fill="none" stroke="#424242" stroke-linecap="round" stroke-linejoin="round"/></svg><svg viewBox="0 0 25 25" width="25" height="25" id="states-approve" x="325" y="50"><title>icons-states</title><path d="M19.8 16.88a8.58 8.58 0 0 1-8.91 4A8.6 8.6 0 0 1 4 12.49a8.51 8.51 0 0 1 15.09-5.38 8.57 8.57 0 0 1 .71 9.77z" fill="#7d3c8c"/><path fill="none" stroke="#fff" stroke-linecap="round" stroke-linejoin="round" d="M8.47 12.39l2.86 3.05 5.16-5.88"/></svg><svg viewBox="0 0 25 25" width="25" height="25" id="states-approved" x="325" y="75"><title>icons-states</title><path d="M19.8 16.88a8.58 8.58 0 0 1-8.91 4A8.6 8.6 0 0 1 4 12.49a8.51 8.51 0 0 1 15.09-5.38 8.57 8.57 0 0 1 .71 9.77z" fill="#1ed761" stroke="#1ed761" stroke-miterlimit="10" stroke-width=".09"/><path fill="#1ed761" stroke="#fff" stroke-linecap="round" stroke-linejoin="round" d="M8.47 12.39l2.86 3.05 5.16-5.88"/></svg><svg viewBox="0 0 25 25" width="25" height="25" id="states-editstate" x="325" y="100"><title>icons-states</title><path d="M19.8 16.88a8.58 8.58 0 0 1-8.91 4A8.6 8.6 0 0 1 4 12.49a8.51 8.51 0 0 1 15.09-5.38 8.57 8.57 0 0 1 .71 9.77z" fill="#7d3c8c"/><path fill="none" stroke="#fff" stroke-linecap="round" stroke-linejoin="round" d="M8.54 16.84l1.71-.31 6.74-7.01-1.52-1.45-6.77 7.05-.16 1.72zM10.4 15.62l-.81-.75M15.16 11.42l-1.51-1.45"/></svg><svg viewBox="0 0 25 25" width="25" height="25" id="states-liked" x="325" y="125"><title>icons-states</title><path d="M20.88 10.37a4.65 4.65 0 0 0-8.38-3.79A4.65 4.65 0 0 0 4 9.85c.76 5 8.47 10.7 8.47 10.7s7.19-5.36 8.41-10.18z" fill="#ff5071" stroke="#ff5071" stroke-linecap="round" stroke-linejoin="round"/></svg><svg viewBox="0 0 25 25" width="25" height="25" id="team" x="325" y="150"><title>icons</title><path d="M3.76 18a12 12 0 0 0 4.37 1l-3.35-5.38A12 12 0 0 0 3.76 18zM9.57 8a12.26 12.26 0 0 0-4.79 5.57l3.35 5.31A12.26 12.26 0 0 0 15.22 17a12.76 12.76 0 0 0 5-5.95l-3.14-5A12.76 12.76 0 0 0 9.57 8zm6.25 4.21l-1-1.56-2.57 1.62 1 1.56-1-1.56-2.41 1.58 1 1.56-1-1.56-1.43.9 1.43-.9-1-1.56 1 1.56 2.43-1.53-1-1.56 1 1.56 2.57-1.62-1-1.56 1 1.56 1.53-1-1.53 1zM17.1 6.08l3.14 5a12.65 12.65 0 0 0 1-4.11 12.65 12.65 0 0 0-4.14-.89z" fill="none" stroke="#424242" stroke-linecap="round" stroke-linejoin="round"/></svg><svg viewBox="0 0 25 25" width="25" height="25" id="technology" x="325" y="175"><title>icons</title><circle cx="12.49" cy="14.79" r=".54" fill="#424242"/><rect x="4.11" y="5.76" width="16.78" height="10.51" rx="1.42" ry="1.42" fill="none" stroke="#424242" stroke-linecap="round" stroke-linejoin="round"/><path d="M10.7 16.27a2.51 2.51 0 0 1-.59 2.67M14.29 16.27a2.51 2.51 0 0 0 .59 2.67M7.78 19.24h9.43M4.11 13.25h16.78" fill="none" stroke="#424242" stroke-linecap="round" stroke-linejoin="round"/></svg><svg viewBox="0 0 25 25" width="25" height="25" id="timedate" x="325" y="200"><title>icons</title><circle cx="12.5" cy="12.5" r="7.84" fill="none" stroke="#424242" stroke-linecap="round" stroke-linejoin="round"/><path fill="none" stroke="#424242" stroke-linecap="round" stroke-linejoin="round" d="M12.5 7.94v4.56M12.5 12.5l-3.13 3.13"/></svg><svg viewBox="0 0 25 25" width="25" height="25" id="upload" x="325" y="225"><title>icons</title><path fill="none" stroke="#424242" stroke-linecap="round" stroke-linejoin="round" d="M6.51 14.39v6.1h11.98v-5.81M16.35 7.57l-3.91-3.06-3.8 3.06M12.44 4.64l.01 12.93"/></svg><svg viewBox="0 0 25 25" width="25" height="25" id="user" x="325" y="250"><title>icons</title><circle cx="12.66" cy="11.86" r="3.47" fill="none" stroke="#424242" stroke-linecap="round" stroke-linejoin="round"/><path d="M7 18.88s2.15-3.4 5.62-3.4 5.52 3.21 5.52 3.21a8.24 8.24 0 0 1-5.76 2.19 7.11 7.11 0 0 1-5.38-2z" fill="none" stroke="#424242" stroke-linecap="round" stroke-linejoin="round"/><path d="M19.84 16.9a8.62 8.62 0 0 1-9 4A8.65 8.65 0 0 1 4 12.49a8.55 8.55 0 0 1 15.13-5.41 8.62 8.62 0 0 1 .71 9.82z" fill="none" stroke="#424242" stroke-linecap="round" stroke-linejoin="round"/></svg><svg viewBox="0 0 25 25" width="25" height="25" id="work" x="325" y="275"><title>icons</title><path fill="none" stroke="#424242" stroke-linecap="round" stroke-linejoin="round" d="M4.2 8.54h16.6V19.7H4.2z"/><path fill="none" stroke="#424242" stroke-linecap="round" stroke-linejoin="round" d="M4.2 11.23l8.3 3.93 8.3-3.93"/><circle cx="12.5" cy="12.55" r=".72" fill="#424242"/><path fill="none" stroke="#424242" stroke-linecap="round" stroke-linejoin="round" d="M8.46 8.54V5.3h8.08v3.24"/></svg></svg>