<?xml version="1.0" encoding="utf-8"?>
<!-- Generator: Adobe Illustrator 21.0.0, SVG Export Plug-In . SVG Version: 6.00 Build 0)  -->
<svg version="1.1" id="Layer_1" xmlns="http://www.w3.org/2000/svg" xmlns:xlink="http://www.w3.org/1999/xlink" x="0px" y="0px"
	 viewBox="0 0 443.4 176.8" style="enable-background:new 0 0 443.4 176.8;" xml:space="preserve">
<style type="text/css">
	.st0{fill:#F2F2F2;stroke:#5D2E66;stroke-width:3;stroke-miterlimit:10;}
	.st1{fill:none;stroke:#5D2E66;stroke-width:3;stroke-linecap:round;stroke-miterlimit:10;}
	.st2{opacity:5.000000e-02;fill:#5D2E66;}
	.st3{fill:#FFA631;stroke:#5D2E66;stroke-width:3;stroke-miterlimit:10;}
	.st4{fill:none;stroke:#5D2E66;stroke-width:3;stroke-miterlimit:10;}
	.st5{fill:#FFE576;stroke:#5D2E66;stroke-width:3;stroke-miterlimit:10;}
	.st6{fill:#FFFFFF;stroke:#5D2E66;stroke-width:3;stroke-linejoin:round;stroke-miterlimit:10;}
	.st7{opacity:0.1;fill:#5D2E66;}
	.st8{fill:#709DC9;stroke:#5D2E66;stroke-width:3;stroke-miterlimit:10;}
	.st9{fill:#FFFFFF;stroke:#5D2E66;stroke-width:3;stroke-miterlimit:10;}
	.st10{fill:none;stroke:#A054B2;stroke-width:3;stroke-linecap:round;stroke-linejoin:round;stroke-miterlimit:10;}
	.st11{fill:#FFFFFF;stroke:#5D2E66;stroke-width:3;stroke-linecap:round;stroke-linejoin:round;stroke-miterlimit:10;}
	.st12{opacity:0.5;fill:#7E3D8E;}
	.st13{opacity:0.2;}
	.st14{fill:none;stroke:#5D2E66;stroke-width:3;stroke-linecap:round;stroke-linejoin:round;}
	.st15{fill:none;stroke:#5D2E66;stroke-width:3;stroke-linecap:round;stroke-linejoin:round;stroke-dasharray:10.8981,10.8981;}
	.st16{fill:#F7934F;stroke:#5D2E66;stroke-width:3;stroke-miterlimit:10;}
	.st17{fill:none;stroke:#5D2E66;stroke-width:3;stroke-linecap:round;stroke-linejoin:round;stroke-miterlimit:10;}
	.st18{fill:#A054B2;stroke:#5D2E66;stroke-width:3;stroke-miterlimit:10;}
	.st19{fill:#FFFFFF;}
	.st20{opacity:0.1;}
	.st21{fill:#5D2E66;}
</style>
<g>
	<path class="st0" d="M179.3,128.9c0-21.3,17.8-47.5,39.7-47.5s39.7,26.2,39.7,47.5c0,38.7-24.5,46.1-39.5,46.1
		S179.3,168.5,179.3,128.9z"/>
	<path class="st1" d="M198,135.5c0,0,0.7-9.4,7.7-9.4c7,0,8.1,9.4,8.1,9.4"/>
	<path class="st1" d="M226.8,135.5c0,0,0.7-9.4,7.7-9.4c7,0,8.1,9.4,8.1,9.4"/>
	<path class="st2" d="M201.1,152.3c0,0-0.8,7,8.7,10s19.7-0.6,19.7-0.6s9.4-3.9,9.4-9.6c0-0.6-7.7-1.8-18.6-1.8
		C209.4,150.2,201.1,152.3,201.1,152.3z"/>
	<path class="st3" d="M230.1,161.2c0,1.5-5.3,3.5-10.4,3.6c-5,0.1-9.8-1.6-9.8-3.1c0-2.9,4.7-4.9,10.2-4.9S230.1,158.3,230.1,161.2z
		"/>
	<path class="st4" d="M238.9,152.1c2.6,2.6-7.2,13.1-19.6,13.1c-12.4,0-20.3-10.8-18.1-13.1C203.5,149.8,236.3,149.5,238.9,152.1z"
		/>
	<path class="st5" d="M191.7,103.9c1.6-1.6,41.3,35.8,79.2-2.1c5.7-9.5-10.4-7.1-10.4-7.1s-7.7-20-38.7-22.5
		c-31-2.4-32.9,20.2-32.9,20.2s-7.9-2.7-15.6,5.1c-11.2,9.6-0.4,30.1,5.9,30.1S192.2,117,191.7,103.9"/>
	<path class="st6" d="M57.3,111.8L44.6,53.1c-0.7-3.2,1.4-6.5,4.6-7.2l95.1-20.6c3.2-0.7,6.5,1.4,7.2,4.6l12.7,58.7
		c0.7,3.2-1.4,6.5-4.6,7.2l-17.8,3.8c0,0,0.3,9.6,7.5,14.7c7.2,5.1-16.3,7.6-26.6-10.5l-58.2,12.6C61.2,117.1,58,115,57.3,111.8z"/>
	<path class="st7" d="M158.6,50.8L89.4,65.4c-1.7,0.4-3.3-0.7-3.7-2.4l-1.4-6.6c-0.4-1.7,0.7-3.3,2.4-3.7L156,38.1
		C157.6,37.8,160.3,50.4,158.6,50.8z"/>
	<path class="st8" d="M174.5,43.2l-81,17c-1.8,0.4-3.6-0.8-4-2.6l-1.3-6.1c-0.4-1.8,0.8-3.6,2.6-4l81-17c1.8-0.4,3.6,0.8,4,2.6
		l1.3,6.1C177.4,41,176.3,42.8,174.5,43.2z"/>
	<path class="st7" d="M74.8,68.3L62.2,71c-0.8,0.2-1.5-0.3-1.7-1.1l-2.2-10.5c-0.2-0.8,0.3-1.5,1.1-1.7L71.9,55
		c0.8-0.2,1.5,0.3,1.7,1.1l2.2,10.5C76,67.4,75.5,68.1,74.8,68.3z"/>
	<path class="st9" d="M77.5,64l-12.6,2.7c-0.8,0.2-1.5-0.3-1.7-1.1L61,55c-0.2-0.8,0.3-1.5,1.1-1.7l12.6-2.7
		c0.8-0.2,1.5,0.3,1.7,1.1l2.2,10.5C78.8,63,78.3,63.8,77.5,64z"/>
	<path class="st0" d="M147.7,67.6l-61.9,13c-1.4,0.3-2.7-0.6-3-2l-1-4.7c-0.3-1.4,0.6-2.7,2-3l61.9-13c1.4-0.3,2.7,0.6,3,2l1,4.7
		C150,66,149.1,67.3,147.7,67.6z"/>
	<path class="st9" d="M73.6,83.5l-9.6,2c-0.6,0.1-1.2-0.3-1.3-0.8L61,76.6c-0.1-0.6,0.3-1.2,0.8-1.3l9.6-2c0.6-0.1,1.2,0.3,1.3,0.8
		l1.7,8.1C74.5,82.8,74.2,83.4,73.6,83.5z"/>
	<path class="st0" d="M151.5,85.4l-61.9,13c-1.4,0.3-2.7-0.6-3-2l-1-4.7c-0.3-1.4,0.6-2.7,2-3l61.9-13c1.4-0.3,2.7,0.6,3,2l1,4.7
		C153.7,83.7,152.8,85.1,151.5,85.4z"/>
	<path class="st9" d="M77.3,101.3l-9.6,2c-0.6,0.1-1.2-0.3-1.3-0.8l-1.7-8.1c-0.1-0.6,0.3-1.2,0.8-1.3l9.6-2
		c0.6-0.1,1.2,0.3,1.3,0.8l1.7,8.1C78.3,100.6,77.9,101.2,77.3,101.3z"/>
	<polyline class="st10" points="66.4,57.7 70.7,60.4 77.8,49.4 	"/>
	<polygon class="st11" points="168.4,40.7 175.1,54.9 178,51 181.9,53.9 184.8,50.1 180.9,47.2 184,43 	"/>
	<path class="st12" d="M190.7,9.5c-0.8-0.4-1.8-0.1-2.2,0.7l-2.8,5.7c-0.4,0.8-0.1,1.8,0.7,2.2c0.8,0.4,1.8,0.1,2.2-0.7l2.8-5.7
		C191.9,10.9,191.6,9.9,190.7,9.5z"/>
	<path class="st12" d="M169.2,10.1c-0.3-0.9-1.2-1.3-2.1-1c-0.9,0.3-1.3,1.2-1,2.1l2,6c0.3,0.9,1.2,1.3,2.1,1c0.9-0.3,1.3-1.2,1-2.1
		L169.2,10.1z"/>
	<path class="st12" d="M203.3,27l-6,2c-0.9,0.3-1.3,1.2-1,2.1c0.3,0.9,1.2,1.3,2.1,1l6-2c0.9-0.3,1.3-1.2,1-2.1
		C205.1,27.2,204.2,26.7,203.3,27z"/>
	<path class="st6" d="M334.1,111l-62.5-26.3c-3.2-1.3-4.7-5.1-3.4-8.3l17.1-40.5c1.3-3.2,5.1-4.7,8.3-3.4l62.5,26.3
		c3.2,1.3,4.7,5.1,3.4,8.3l-17.1,40.5C341.1,110.8,337.3,112.3,334.1,111z"/>
	<polyline class="st7" points="317.6,58.3 294.3,76.9 293.5,65.6 283.2,64.3 301.4,50.9 	"/>
	
		<rect x="317.4" y="14.5" transform="matrix(0.3879 -0.9217 0.9217 0.3879 145.958 329.3638)" class="st7" width="7.2" height="80.5"/>
	<polyline class="st7" points="321.2,60.2 323,89.9 331.9,83 339.8,89.8 337.6,67.3 	"/>
	
		<rect x="305.5" y="50.2" transform="matrix(0.9217 0.3879 -0.3879 0.9217 53.557 -115.658)" class="st5" width="15.4" height="49.2"/>
	<path class="st12" d="M399.7,40.7c-0.3-0.6-1-0.8-1.6-0.5l-4,2.1c-0.6,0.3-0.8,1-0.5,1.6c0.3,0.6,1,0.8,1.6,0.5l4-2.1
		C399.8,42,400,41.3,399.7,40.7z"/>
	<path class="st12" d="M387.1,32c0.2-0.6-0.1-1.3-0.8-1.5c-0.6-0.2-1.3,0.1-1.5,0.8l-1.4,4.3c-0.2,0.6,0.1,1.3,0.8,1.5
		c0.6,0.2,1.3-0.1,1.5-0.8L387.1,32z"/>
	<path class="st12" d="M399.6,56.1l-4.3-1.4c-0.6-0.2-1.3,0.1-1.5,0.8c-0.2,0.6,0.1,1.3,0.8,1.5l4.3,1.4c0.6,0.2,1.3-0.1,1.5-0.8
		C400.6,56.9,400.2,56.3,399.6,56.1z"/>
	<polyline class="st5" points="320.5,51.2 297.2,69.8 296.4,58.6 286,57.3 304.2,43.8 	"/>
	<polyline class="st5" points="324.6,52.5 326.4,82.3 335.3,75.3 343.2,82.1 340.9,59.6 	"/>
	<path class="st6" d="M364,69l-82-34.5c-2.1-0.9-3.1-3.4-2.2-5.5l4.8-11.4c0.9-2.1,3.4-3.1,5.5-2.2l82,34.5c2.1,0.9,3.1,3.4,2.2,5.5
		l-4.8,11.4C368.6,68.9,366.1,69.9,364,69z"/>
	
		<rect x="316.1" y="31.7" transform="matrix(0.9217 0.3879 -0.3879 0.9217 41.9552 -123.5544)" class="st5" width="21.8" height="20.8"/>
	<ellipse transform="matrix(0.9871 -0.16 0.16 0.9871 0.1687 56.0769)" class="st5" cx="348.2" cy="27" rx="16.1" ry="7.4"/>
	<ellipse transform="matrix(0.817 -0.5767 0.5767 0.817 50.2182 189.379)" class="st5" cx="323.4" cy="15.6" rx="7.4" ry="16.1"/>
	<ellipse transform="matrix(0.5848 -0.8112 0.8112 0.5848 114.4842 281.7396)" class="st5" cx="332.5" cy="29" rx="3.5" ry="3.5"/>
	<path class="st7" d="M373,61.1c0.2-0.3,0.4-0.6,0.6-0.9c1.9-2.9,4.8-4.7,8.1-5.5c0.2-3.5-1.4-7.1-4.5-9.3c-1.4-1-3-1.6-4.6-1.9
		c-0.9,1.4-2.6,2.4-4.3,2.2c-1.3,1-3,1.3-4.7,0.4c-0.6,0.5-1.1,1.1-1.6,1.7c-3.5,4.9-2.4,11.6,2.5,15.1c1.6,1.2,3.5,1.8,5.4,2
		C370.1,63.3,371.4,61.7,373,61.1z"/>
	
		<ellipse transform="matrix(0.5848 -0.8112 0.8112 0.5848 112.564 326.2655)" class="st11" cx="375" cy="53.2" rx="10.9" ry="10.9"/>
	<polyline class="st10" points="370,52.1 371.5,55.8 381,52.1 	"/>
</g>
</svg>
