<?xml version="1.0" encoding="utf-8"?>
<!-- Generator: Adobe Illustrator 19.2.1, SVG Export Plug-In . SVG Version: 6.00 Build 0)  -->
<svg version="1.1" id="Layer_1" xmlns="http://www.w3.org/2000/svg" xmlns:xlink="http://www.w3.org/1999/xlink" x="0px" y="0px"
	 viewBox="0 0 184.2 67.1" style="enable-background:new 0 0 184.2 67.1;" xml:space="preserve">
<style type="text/css">
	.st0{fill:#FFFFFF;}
</style>
<g>
	<path class="st0" d="M115,22.4c1,0,2,0.3,2.8,1l1.6-1.7c-1.2-1.1-2.7-1.6-4.4-1.6c-1.7,0-3.1,0.6-4.2,1.7c-1.1,1.1-1.7,2.5-1.7,4.2
		c0,1.7,0.6,3.1,1.7,4.3c1.1,1.1,2.6,1.7,4.2,1.7c1.7,0,3.2-0.5,4.4-1.6l-1.6-1.7c-0.8,0.6-1.7,0.9-2.8,0.9c-1.1,0-1.9-0.3-2.6-1
		c-0.7-0.7-1-1.5-1-2.6c0-1,0.3-1.9,1-2.5C113.1,22.7,113.9,22.4,115,22.4z"/>
	<polygon class="st0" points="128.2,20 125.9,20 125.9,31.9 134.6,31.9 134.6,29.7 128.2,29.7 	"/>
	<path class="st0" d="M145.8,20c-1.7,0-3.1,0.6-4.3,1.7s-1.7,2.6-1.7,4.3c0,1.7,0.6,3.1,1.7,4.2c1.1,1.1,2.6,1.7,4.3,1.7
		s3.1-0.6,4.2-1.7s1.7-2.6,1.7-4.3s-0.6-3.1-1.7-4.3S147.5,20,145.8,20z M148.4,28.6c-0.7,0.7-1.5,1.1-2.6,1.1
		c-1.1,0-1.9-0.4-2.6-1.1c-0.7-0.7-1-1.6-1-2.7c0-1.1,0.3-1.9,1-2.7c0.7-0.7,1.5-1.1,2.6-1.1c1.1,0,1.9,0.4,2.6,1.1s1,1.6,1,2.7
		C149.4,27,149.1,27.9,148.4,28.6z"/>
	<path class="st0" d="M158.7,30.7c1,0.8,2.2,1.3,3.7,1.3s2.7-0.4,3.7-1.3s1.5-1.9,1.5-3.1V20h-2.4v6.9c0,0.9-0.3,1.6-0.8,2
		c-0.5,0.4-1.2,0.6-2,0.6c-0.8,0-1.5-0.2-2-0.6c-0.5-0.4-0.8-1.1-0.8-2V20h-2.4v7.5C157.3,28.8,157.8,29.8,158.7,30.7z"/>
	<path class="st0" d="M184.2,26c0-4-1.9-6-5.6-6h-4.6v11.9h4.6C182.4,31.9,184.2,29.9,184.2,26z M176.5,22.4h2.2
		c2.1,0,3.2,1.2,3.2,3.6c0,2.4-1.1,3.6-3.2,3.6h-2.2V22.4z"/>
	<polygon class="st0" points="109,40.7 113,40.7 113,50.4 115.4,50.4 115.4,40.7 119.4,40.7 119.4,38.5 109,38.5 	"/>
	<polygon class="st0" points="125,50.4 133.7,50.4 133.7,48.2 127.4,48.2 127.4,45.4 132.2,45.4 132.2,43.2 127.4,43.2 127.4,40.7 
		133.8,40.7 133.8,38.5 125,38.5 	"/>
	<path class="st0" d="M144.2,38.5l-4.8,11.9h2.5l0.7-1.8h5.4l0.7,1.8l2.5,0l-4.8-11.9H144.2z M143.6,46.2l1.8-4.5l1.8,4.5H143.6z"/>
	<polygon class="st0" points="163,44.3 157.8,38.5 157,38.5 157,50.4 159.4,50.4 159.4,43.5 163,47.4 166.6,43.5 166.6,50.4 
		168.9,50.4 168.9,38.5 168.2,38.5 	"/>
	<path class="st0" d="M182.3,44.2c-0.8-0.6-1.7-0.9-2.7-1c-1-0.2-1.6-0.4-1.8-0.7c-0.3-0.3-0.3-0.7,0-1.2c0.3-0.5,0.9-0.7,1.8-0.7
		c1,0,1.7,0.3,2.2,1l1.6-1.6c-0.5-0.5-1.1-0.9-1.7-1.2c-0.6-0.3-1.5-0.4-2.6-0.4c-1,0-1.9,0.3-2.8,1c-0.9,0.6-1.4,1.5-1.4,2.5
		c0,1.2,0.4,2,1.2,2.5c0.8,0.5,1.7,0.8,2.6,0.9c1.1,0.1,1.7,0.4,2,0.8c0.3,0.5,0.3,0.9,0,1.4c-0.3,0.5-0.9,0.7-2,0.7
		c-1.3-0.1-2.2-0.5-2.7-1.1l-1.6,1.6c0.5,0.5,1.2,1,1.9,1.3c0.7,0.3,1.7,0.5,2.8,0.5c1.2,0,2.2-0.3,3.1-1c0.9-0.7,1.3-1.5,1.3-2.5
		C183.5,45.7,183.1,44.8,182.3,44.2z"/>
	<path class="st0" d="M76.3,21.8C72.7,9.2,61.4,0,48.1,0C31.9,0,18.8,13.4,18.6,30c0,0,0,0-0.1,0C8.3,30,0,38.3,0,48.5
		c0,7.8,4.9,14.5,11.8,17.2l0,0c0,0,0.4,0.2,1.1,0.4c0.2,0.1,0.4,0.1,0.7,0.2c0.1,0,8.7-7,11.6-9.3c0.7,1.4,2,2.1,2.8,2.3l0,0
		c0.3,0.1,0.6-0.1,0.8-0.4c0.2-0.4,0.1-0.8-0.3-1c0,0-0.1,0-0.1,0l0,0c0,0-2.1-0.6-2.1-2.5l0.1-10h0v-14c0.9,0,2,0.1,2.4,0.5
		c0.1,0.1,0.1,0.1,0.1,0.2v11.8c-0.7,0.4-1,0.8-1,0.9l0,0c0,0,0,0,0,0c-0.2,0.4-0.1,0.8,0.3,1c0.4,0.2,0.8,0.1,1-0.3l0,0
		c0,0,0,0,0,0c0,0,1.3-1.7,6.4-1.7c3.6,0,5.4,1.2,6.1,1.9c-1.2,0.2-2.9,0.6-4.3,1.8c-1.3,1.1-2,2.6-2.1,4.4l0,0
		c0,0.3,0.1,0.6,0.4,0.7c0.4,0.2,0.8,0.1,1-0.3c0.1-0.1,0.1-0.2,0.1-0.3l0,0c0.1-2,1.1-3.4,3-4.2c1.3-0.5,2.7-0.6,3-0.6l0.6,0
		c0.1-5.3,1.2-6.6,1.9-6.9c0.6-0.3,1.2-0.1,1.7,0.2c-0.6,2.7-1.3,9.5-1.4,10.3h0c0,0-0.1,2.7-1.4,5.3c-1.8,3.4-4.8,5.1-9,5.1l0,0
		l0,0c0,0,0,0,0,0v0l-6.6,5.7H67h1.2l-9-7.6l0,0c0,0,0,0,0,0l0,0l0,0c-4.9-1.5-6.6-7.3-6.8-8.2c0.1-1,0.6-7.6-0.1-10.6
		c0.4-0.4,0.8-0.7,1.2-0.8c0.6-0.1,1.1,0.2,1.4,0.4V50h0c0,0,0,0,0,0c0,0.4,0.3,0.8,0.8,0.8c0.4,0,0.8-0.3,0.8-0.8c0,0,0,0,0,0h0
		V31.6c0-0.3,0.1-0.5,0.3-0.7c0.5-0.4,1.4-0.5,2.2-0.5c0,0,0,0,0,0v10.8h0c0,0,0,0.1,0,0.1c0,0.4,0.3,0.8,0.8,0.8
		c0.4,0,0.8-0.3,0.8-0.8c0,0,0-0.1,0-0.1h0V29v-0.8c0-0.4,0.1-0.7,0.4-0.9c0.5-0.4,1.5-0.5,2.2-0.5v14.5h0c0,0.4,0.4,0.8,0.8,0.8
		c0.4,0,0.8-0.4,0.8-0.8c0-0.1,0-0.1,0-0.2V29.8c0-0.3,0.1-0.5,0.3-0.6c0.5-0.4,1.6-0.6,2.4-0.6V32v9c0,0.1,0,0.1,0,0.2
		c0,0.4,0.4,0.8,0.8,0.8c0.4,0,0.8-0.4,0.8-0.8c0-0.1,0-0.1,0-0.2V32c0-0.1,0-0.1,0.1-0.2c0.4-0.4,1.4-0.5,2.3-0.5v10.9h0v11.2
		l0,0.1c0,0,0.1,1.9-2.6,2.9c-0.3,0.1-0.5,0.4-0.5,0.7c0,0.4,0.3,0.8,0.8,0.8c0.1,0,0.2,0,0.3,0c1-0.3,1.7-0.7,2.2-1.2l10.3,8.2
		c0,0,0.9-0.5,1.5-0.8c0,0,0,0,0,0c6.8-4,11.3-11.3,11.3-19.7C94.4,33.2,86.6,24,76.3,21.8z M32.9,42.7c-1,0.1-1.8,0.3-2.5,0.6V32.2
		v-3.7c0.7,0,1.7,0.1,2.2,0.5c0.2,0.2,0.3,0.4,0.3,0.7V42.7z M36.9,42.6c-0.5,0-0.9-0.1-1.4-0.1c-0.4,0-0.7,0-1,0v-16
		c0.7,0,1.6,0.1,2.1,0.5c0.3,0.2,0.4,0.5,0.4,1V42.6z M41.1,43.8c-0.7-0.4-1.5-0.7-2.5-0.9V29.8c0.2,0,0.3,0,0.5,0
		c0.8,0.1,1.4,0.2,1.7,0.5c0.2,0.2,0.3,0.4,0.3,0.6V43.8z M41.2,18c-0.3,0.3-0.9,0.3-1.2,0l-2.3-2.3c-0.3-0.3-0.3-0.9,0-1.2
		c0.3-0.3,0.9-0.3,1.2,0l2.3,2.3C41.5,17.1,41.5,17.7,41.2,18z M49.5,13.4c0,0.5-0.4,0.8-0.9,0.8s-0.9-0.4-0.9-0.8v-3.3
		c0-0.5,0.4-0.9,0.9-0.9s0.9,0.4,0.9,0.9V13.4z M59.7,15.7L57.4,18c-0.3,0.3-0.9,0.3-1.2,0c-0.3-0.3-0.3-0.9,0-1.2l2.3-2.3
		c0.3-0.3,0.9-0.3,1.2,0C60.1,14.8,60.1,15.3,59.7,15.7z"/>
</g>
</svg>
