<svg xmlns="http://www.w3.org/2000/svg" viewBox="0 0 459.71 163.59"><title>logo</title><path d="M268,74.44a15.62,15.62,0,0,1-4.63-11.55,15.83,15.83,0,0,1,16.09-16,17.44,17.44,0,0,1,11.84,4.3L287,55.85a11.88,11.88,0,0,0-7.54-2.58,9.46,9.46,0,0,0-7,2.71,9.37,9.37,0,0,0-2.65,6.88A9.66,9.66,0,0,0,272.53,70a9.51,9.51,0,0,0,7,2.64,11.55,11.55,0,0,0,7.5-2.56l4.3,4.71a17.38,17.38,0,0,1-11.84,4.3A15.68,15.68,0,0,1,268,74.44Zm45.55-27.6V73.06h17.19v6H307.13V46.84h6.45Zm34.28,27.6A15.61,15.61,0,0,1,343.24,63a16.11,16.11,0,1,1,32.23,0A16.25,16.25,0,0,1,347.86,74.44Zm11.52-1.39a9.05,9.05,0,0,0,7-2.9,11,11,0,0,0,0-14.39,9.85,9.85,0,0,0-14,0,11,11,0,0,0,0,14.39A9.1,9.1,0,0,0,359.38,73.06ZM395,46.84V65.54q0,3.65,2.15,5.37a9.25,9.25,0,0,0,10.74,0Q410,69.19,410,65.54V46.84h6.45V67.25a10.68,10.68,0,0,1-4,8.38,16.24,16.24,0,0,1-20,0,10.67,10.67,0,0,1-4-8.38V46.84H395Zm37.25,32.23V46.82h12.42q15,0,15,16.13t-15,16.11H432.26Zm12.42-6.42q8.57,0,8.59-9.69t-8.59-9.67h-6V72.65h6ZM292.8,94.84v6H282.06v26.21h-6.45V100.86H264.87v-6H292.8Zm13.5,32.23V94.87l23.68,0v6H312.75v6.88h12.91v6H312.75v7.33h17.19v6H306.31Zm37.27,0,12.89-32.23h6.45L375.78,127l-6.85,0L367,122.13H352.38l-1.93,4.94h-6.87Zm16.29-23.63L355,115.68h9.67Zm29.53,23.63V94.84h2.15l14,15.9,14-15.9h2.15v32.23H415.2l0-18.69-9.67,10.74-9.67-10.74v18.69h-6.45Zm64.92-31.15a15,15,0,0,1,4.62,3.22l-4.3,4.3a7.4,7.4,0,0,0-6-2.58q-3.87,0-4.94,1.83a2.51,2.51,0,0,0,0,3.12q1.07,1.29,4.94,1.93a16,16,0,0,1,7.41,2.69q3.33,2.26,3.33,7.2a8.26,8.26,0,0,1-3.56,6.66,13,13,0,0,1-8.28,2.79,19.08,19.08,0,0,1-7.5-1.29,16.24,16.24,0,0,1-5.16-3.44l4.3-4.3q2.15,2.58,7.3,3,4.3,0,5.36-1.83a3.4,3.4,0,0,0,0-3.65q-1.06-1.83-5.36-2.26a17.32,17.32,0,0,1-7.09-2.36q-3.22-1.93-3.22-6.66a8,8,0,0,1,3.66-6.86,12.9,12.9,0,0,1,7.53-2.59A18,18,0,0,1,454.31,95.92Z" fill="#424242"/><path d="M186.22,53.09C177.47,22.41,149.9,0,117.23,0,77.76,0,45.73,32.69,45.34,73.17H45.21a45.21,45.21,0,0,0,0,90.43h129A55.9,55.9,0,0,0,186.22,53.09Z" fill="#7e3d8e"/><path d="M117.76,96.91c-3.09-2.24-6.37-2.77-9-1.44-2.05,1-3.62,3.06-4.72,6.12V75.42a5.64,5.64,0,0,0-1.91-4.34c-2.28-2-6-2.27-8.27-2.22V68.35a6.63,6.63,0,0,0-2.24-5.19A10.35,10.35,0,0,0,85.33,61a18.71,18.71,0,0,0-3.45.1l-1.62.23v5.44c-3.3-1.54-7.67-1.06-8.24-1L70.36,66v7.83a21,21,0,0,0-8.11-.75l-1.71.16v37.23l-0.2,24.79h0v0h0v0L28.68,160.48a34.31,34.31,0,0,0,4.41,1.47c0.15-.09,21.27-17,28.18-22.57A11.4,11.4,0,0,0,68.16,145v0a1.89,1.89,0,0,0,1.25-3.5l-0.24-.11h0c-0.05,0-5-1.45-5.05-6.13l0.2-24.42h0V76.74c2.21,0,4.84.3,5.79,1.17a0.65,0.65,0,0,1,.26.55V107.2a8.34,8.34,0,0,0-2.51,2.22h0l-0.07.12A1.86,1.86,0,0,0,71,111.49h0l0,0s3.18-4.05,15.57-4.05c8.84,0,13.13,3,14.88,4.72a20.39,20.39,0,0,0-10.51,4.27,14.49,14.49,0,0,0-5,10.73h0a1.86,1.86,0,0,0,3.49,1,1.89,1.89,0,0,0,.24-0.81h0A10.91,10.91,0,0,1,97,117.21a21.43,21.43,0,0,1,7.43-1.44l1.44,0c0.16-12.83,2.94-16.12,4.58-16.94a4.52,4.52,0,0,1,4.1.48c-1.56,6.56-3.17,23.17-3.36,25.15h0a32.76,32.76,0,0,1-3.45,12.86c-4.27,8.22-11.67,12.41-22,12.44l0,0-0.05,0h0v0l-16,13.79h6.65L88,153.48c13.29-.8,19.91-8.23,23.14-14.53a36.42,36.42,0,0,0,3.79-14c0.55-5.89,2.27-21.84,3.59-25.86L119,97.72l-1.17-.79ZM80.18,104.1a30.81,30.81,0,0,0-6,1.35v-36c1.75,0,4.17.23,5.35,1.28a2,2,0,0,1,.69,1.67V104.1Zm9.89-.22c-1.11-.1-2.28-0.16-3.53-0.16q-1.31,0-2.51.05V64.72c1.64,0,3.88.23,5.1,1.29a2.86,2.86,0,0,1,.94,2.34v35.54Zm10.18,2.88a23.43,23.43,0,0,0-6-2.24V72.63c0.39,0,.82,0,1.27,0a7.24,7.24,0,0,1,4.14,1.23,1.87,1.87,0,0,1,.64,1.52v31.35Z" fill="#fff"/><path d="M118.77,22.53a2.07,2.07,0,0,0-2.07,2.07v8a2.07,2.07,0,0,0,4.15,0v-8A2.07,2.07,0,0,0,118.77,22.53Z" fill="#fff"/><path d="M97.54,43.91A2.07,2.07,0,0,0,100.47,41L94.8,35.3a2.07,2.07,0,0,0-2.93,2.93Z" fill="#fff"/><path d="M140,43.91l5.67-5.67a2.07,2.07,0,0,0-2.93-2.93L137.08,41A2.07,2.07,0,0,0,140,43.91Z" fill="#fff"/><path d="M176.28,135a9.47,9.47,0,0,0,1.29-4.95v-27.7h0V72.75l-1.71-.16a20.52,20.52,0,0,0-8,.73v-7l-1.66-.2c-0.62-.07-5.38-0.57-8.84,1.08V61.65l-1.62-.23c-0.66-.09-6.51-0.82-9.87,2.1a6.61,6.61,0,0,0-2.23,5.16v1.7c-0.45,0-.95,0-1.47,0a10.47,10.47,0,0,0-6.38,2.18,5.82,5.82,0,0,0-2,4.5v17A8.47,8.47,0,0,0,130,93.6a8.78,8.78,0,0,0-6.23,4.11l-0.53.76,0.28,0.89c0.83,2.63,1.17,7.86,1,15.12-0.15,5.59-.58,10.41-0.58,10.46l0,0.29,0.06,0.29a39.67,39.67,0,0,0,3.92,9.75c3.69,6.55,8.76,11.06,14.71,13.1l18,15.22h5.81L144.4,145v0l-0.06,0h0c-12-3.68-16.13-17.92-16.68-20,0.21-2.53,1.45-18.43-.31-25.76a4.73,4.73,0,0,1,3-1.84,5.67,5.67,0,0,1,3.49,1v23.77h0s0,0,0,0a1.87,1.87,0,1,0,3.73,0s0,0,0,0h0v-45a2,2,0,0,1,.69-1.67c1.16-1,3.52-1.28,5.26-1.28h0.09v26.32h0a2,2,0,0,0,0,.22,1.88,1.88,0,1,0,3.76,0,2,2,0,0,0,0-.22h0V68.68a2.84,2.84,0,0,1,.93-2.31c1.26-1.09,3.57-1.34,5.25-1.32v35.42h0a2,2,0,0,0,3.93-.11,2,2,0,0,0-.05-0.45V72.69a1.93,1.93,0,0,1,.66-1.57c1.21-1.07,3.84-1.39,5.95-1.37V100a1.94,1.94,0,1,0,3.82.52,1.9,1.9,0,0,0,0-.4V78a0.67,0.67,0,0,1,.26-0.57c0.94-.86,3.46-1.17,5.63-1.16v26.61h0v27.44s0.34,4.62-6.43,7a1.89,1.89,0,1,0,1.19,3.58,15.91,15.91,0,0,0,5.33-2.93L199,157.81s2.31-1.15,3.58-1.94C202.61,155.8,180.16,138.1,176.28,135Z" fill="#fff"/></svg>