<?xml version="1.0" encoding="utf-8"?>
<!-- Generator: Adobe Illustrator 21.0.0, SVG Export Plug-In . SVG Version: 6.00 Build 0)  -->
<svg version="1.1" id="Layer_1" xmlns="http://www.w3.org/2000/svg" xmlns:xlink="http://www.w3.org/1999/xlink" x="0px" y="0px"
	 viewBox="0 0 339.7 123.6" style="enable-background:new 0 0 339.7 123.6;" xml:space="preserve">
<style type="text/css">
	.st0{enable-background:new    ;}
	.st1{fill:#FFFFFF;}
</style>
<title>logos cloud teams</title>
<g id="background">
	<g class="st0">
		<path class="st1" d="M289.8,104c0.8,0,2.6-0.1,4-0.1c3.3,0,4.6,1.5,4.6,3.5c0,1.6-0.8,2.6-2,3.2v0c1.4,0.3,2.5,1.4,2.5,3.3
			c0,2.9-2.2,4.2-5.2,4.2c-1.3,0-3.1,0-3.9-0.1V104z M292.3,106.2v3.5h1.7c1.1,0,2.1-0.6,2.1-1.9c0-1.1-0.9-1.7-2.2-1.7
			C293.3,106.2,292.7,106.2,292.3,106.2z M292.3,111.9v3.7c0.3,0,0.9,0.1,1.6,0.1c1.7,0,2.6-0.7,2.6-2c0-1.2-0.9-1.8-2.4-1.8H292.3z
			"/>
		<path class="st1" d="M303.2,103.9h8.1v2.3h-5.6v3.5h5v2.3h-5v3.6h5.8v2.3h-8.3V103.9z"/>
	</g>
	<g class="st0">
		<path class="st1" d="M313.9,103.9h11.5v2.3h-4.5v11.7h-2.5v-11.7h-4.5V103.9z"/>
	</g>
	<g class="st0">
		<path class="st1" d="M331.5,103.9h2.2l5.9,14H337l-1.5-3.6h-6l-1.5,3.6h-2.5L331.5,103.9z M330.5,112.1h4.1l-2-5L330.5,112.1z"/>
	</g>
</g>
<g id="logo">
	<path class="st1" d="M204.3,55.7c-4.3-4.3-4.4-11.2-0.1-15.6c2.1-2.1,4.9-3.3,7.9-3.3c3-0.1,5.8,1,8.1,2.9l-2.9,3.2
		c-1.5-1.2-3.3-1.8-5.1-1.8c-3.5-0.2-6.4,2.5-6.6,5.9c0,0.2,0,0.4,0,0.6c-0.1,1.8,0.6,3.6,1.8,4.9c1.3,1.2,3,1.9,4.8,1.8
		c1.9,0,3.7-0.6,5.1-1.7l2.9,3.2c-2.2,2-5.1,3-8.1,2.9C209.1,58.9,206.3,57.8,204.3,55.7z"/>
	<path class="st1" d="M236.5,36.9v17.9h11.7v4.1h-16.1v-22L236.5,36.9z"/>
	<path class="st1" d="M261.1,55.7c-4.5-4.3-4.6-11.5-0.3-16c4.3-4.5,11.5-4.6,16-0.3c4.5,4.3,4.6,11.5,0.3,16
		c-2.1,2.2-5.1,3.5-8.2,3.5C266,59,263.1,57.8,261.1,55.7z M268.9,54.8c1.8,0.1,3.5-0.7,4.8-2c2.4-2.8,2.4-7,0-9.8
		c-2.6-2.6-6.9-2.6-9.5,0c0,0,0,0,0,0c-2.4,2.8-2.4,7,0,9.8C265.4,54.1,267.1,54.8,268.9,54.8L268.9,54.8z"/>
	<path class="st1" d="M294.4,36.9v12.7c-0.1,1.4,0.4,2.7,1.5,3.7c2.2,1.6,5.1,1.6,7.3,0c1-0.9,1.6-2.3,1.5-3.7V36.9h4.4v13.9
		c0,2.2-1,4.3-2.7,5.7c-4,3.1-9.6,3.1-13.6,0c-1.7-1.4-2.7-3.5-2.7-5.7V36.9H294.4z"/>
	<path class="st1" d="M321,58.9v-22h8.5c6.8,0,10.2,3.7,10.2,11s-3.4,11-10.2,11H321z M329.5,54.5c3.9,0,5.8-2.2,5.9-6.6
		s-1.9-6.6-5.9-6.6h-4.1v13.2L329.5,54.5z"/>
	<path class="st1" d="M220.1,70.9V75h-7.3v17.9h-4.4V75h-7.3v-4.1L220.1,70.9z"/>
	<path class="st1" d="M230.5,92.9v-22h16.1V75h-11.8v4.7h8.8v4.1h-8.8v5h11.7v4.1L230.5,92.9z"/>
	<path class="st1" d="M257.1,92.9l8.8-22h4.4l8.8,22h-4.7l-1.3-3.4h-10l-1.3,3.4H257.1z M268.2,76.8l-3.3,8.4h6.6L268.2,76.8z"/>
	<path class="st1" d="M289.6,92.9v-22h1.4l9.5,10.8l9.5-10.8h1.5v22h-4.4V80.2l-6.6,7.3l-6.5-7.3v12.7H289.6z"/>
	<path class="st1" d="M335,71.6c1.2,0.5,2.2,1.3,3.2,2.2l-2.9,2.9c-1-1.2-2.5-1.8-4.1-1.8c-1.8,0-2.9,0.4-3.4,1.2
		c-0.5,0.6-0.5,1.5,0,2.1c0.5,0.6,1.6,1,3.4,1.3c1.8,0.2,3.5,0.8,5,1.8c1.6,1.1,2.4,3,2.3,4.9c0,1.8-0.9,3.5-2.4,4.5
		c-1.6,1.3-3.6,1.9-5.7,1.9c-1.7,0.1-3.5-0.2-5.1-0.9c-1.3-0.5-2.5-1.3-3.5-2.3l2.9-2.9c1,1.2,2.6,1.9,5,2c2,0,3.2-0.4,3.7-1.2
		c0.5-0.8,0.5-1.7,0-2.5c-0.5-0.8-1.7-1.3-3.7-1.5c-1.7-0.2-3.4-0.7-4.8-1.6c-1.5-0.9-2.2-2.4-2.2-4.5c0-1.9,0.9-3.7,2.5-4.7
		c1.5-1.1,3.3-1.7,5.1-1.8C331.9,70.8,333.5,71.1,335,71.6z"/>
	<path class="st1" d="M174,81.4c0-19.9-13.8-37-33.2-41.3C134.2,16.9,113.3,0,88.7,0c-29.8,0-54,24.7-54.3,55.3h-0.1
		C15.4,55.3,0,70.6,0,89.4c0,14.1,8.6,26.8,21.7,31.9l0,0c0.7,0.3,1.4,0.5,2.1,0.7l1.3,0.4c0.1-0.1,16.1-12.9,21.3-17.1
		c1.1,2.1,3,3.6,5.2,4.3l0,0c0.8,0.1,1.5-0.4,1.6-1.2c0.1-0.6-0.2-1.1-0.7-1.4l-0.2-0.1l0,0c0,0-3.8-1.1-3.8-4.6l0.1-18.5l0,0V58
		c1.7,0,3.6,0.2,4.4,0.9c0.1,0.1,0.2,0.3,0.2,0.4V81c-0.7,0.4-1.4,1-1.9,1.7l0,0l0,0.1c-0.4,0.7-0.1,1.5,0.6,1.9
		c0.6,0.3,1.4,0.1,1.8-0.4l0,0l0,0c0,0,2.4-3.1,11.8-3.1c6.7,0,9.9,2.2,11.2,3.6c-2.9,0.3-5.7,1.4-7.9,3.2c-2.4,2.1-3.7,5-3.8,8.2
		l0,0c-0.1,0.8,0.5,1.4,1.3,1.5c0.6,0,1.1-0.2,1.4-0.8c0.1-0.2,0.2-0.4,0.2-0.6l0,0c0-3.5,2.2-6.6,5.5-7.7c1.8-0.7,3.7-1.1,5.6-1.1
		h1c0.1-9.7,2.2-12.2,3.5-12.8c1-0.4,2.2-0.3,3.1,0.4c-1.2,5-2.4,17.5-2.5,19l0,0c-0.2,3.4-1.1,6.7-2.6,9.7
		c-3.2,6.2-8.8,9.4-16.6,9.4l0,0l0,0l0,0l0,0l-12.1,10.4h73.2l-16.6-14l0,0h0c-9.1-2.8-12.2-13.5-12.6-15.1
		c0.2-1.9,1.1-13.9-0.2-19.5c0.6-0.7,1.4-1.2,2.3-1.4c0.9-0.1,1.9,0.2,2.6,0.7v18l0,0l0,0c0,0.8,0.6,1.4,1.4,1.4s1.4-0.6,1.4-1.4
		l0,0l0,0v-34c0-0.5,0.2-0.9,0.5-1.3c0.9-0.8,2.7-1,4-1h0.1V76l0,0c0,0.1,0,0.1,0,0.2c0,0.8,0.6,1.4,1.4,1.4c0.8,0,1.4-0.6,1.4-1.4
		c0,0,0,0,0,0c0-0.1,0-0.1,0-0.2l0,0V52c0-0.7,0.2-1.3,0.7-1.7c1.2-0.8,2.6-1.1,4-1V76l0,0c0,0.8,0.7,1.5,1.5,1.5
		c0.8,0,1.5-0.7,1.5-1.5c0-0.1,0-0.2,0-0.3V55c0-0.5,0.2-0.9,0.5-1.2c0.9-0.8,2.9-1,4.5-1v22.8c0,0.1-0.1,0.3-0.1,0.4
		c0,0.8,0.7,1.5,1.5,1.5s1.5-0.7,1.5-1.5c0-0.1,0-0.2,0-0.3V59c0-0.2,0.1-0.3,0.2-0.4c0.7-0.6,2.6-0.9,4.3-0.9v20.1l0,0v20.7
		c0,0,0.3,3.5-4.9,5.3c-0.8,0.2-1.2,1.1-0.9,1.8c0.2,0.6,0.7,1,1.3,1c0.2,0,0.3,0,0.5-0.1c1.5-0.5,2.8-1.2,4-2.2l19,15
		c0,0,1.8-0.9,2.7-1.5l0,0C166.2,110.2,174,96.3,174,81.4z M60.7,78.7c-1.6,0.2-3.1,0.5-4.6,1V52.5c1.3,0,3.1,0.2,4,1
		c0.4,0.3,0.6,0.8,0.5,1.3L60.7,78.7z M68.1,78.5c-0.8-0.1-1.7-0.1-2.7-0.1c-0.7,0-1.3,0-1.9,0V48.9c1.4-0.1,2.7,0.3,3.9,1
		c0.5,0.4,0.8,1.1,0.7,1.8L68.1,78.5z M75.8,80.7c-1.4-0.8-3-1.3-4.6-1.7V54.9c0.3,0,0.6,0,1,0c1.1,0,2.2,0.3,3.1,0.9
		c0.3,0.3,0.5,0.7,0.5,1.1L75.8,80.7z M76,33.2c-0.6,0.6-1.6,0.6-2.2,0l-4.3-4.3c-0.6-0.6-0.6-1.6,0-2.2c0.6-0.6,1.6-0.6,2.2,0
		L76,31C76.6,31.6,76.6,32.6,76,33.2z M91.4,24.7c-0.1,0.9-0.8,1.5-1.7,1.4c-0.8-0.1-1.4-0.7-1.4-1.4v-6.1c-0.1-0.9,0.6-1.6,1.4-1.7
		c0.9-0.1,1.6,0.6,1.7,1.4c0,0.1,0,0.2,0,0.3V24.7z M110.2,28.9l-4.3,4.3c-0.6,0.6-1.6,0.6-2.2,0c-0.6-0.6-0.6-1.6,0-2.2l4.3-4.3
		c0.6-0.6,1.6-0.6,2.2,0C110.8,27.3,110.8,28.3,110.2,28.9L110.2,28.9z"/>
</g>
</svg>
