<?xml version="1.0" encoding="utf-8"?>
<!-- Generator: Adobe Illustrator 19.1.0, SVG Export Plug-In . SVG Version: 6.00 Build 0)  -->
<svg version="1.1" id="Layer_1" xmlns="http://www.w3.org/2000/svg" xmlns:xlink="http://www.w3.org/1999/xlink" x="0px" y="0px"
	 viewBox="126.5 198.6 459.7 163.6" style="enable-background:new 126.5 198.6 459.7 163.6;" xml:space="preserve">
<style type="text/css">
	.st0{fill:#7E3D8E;}
	.st1{fill:#FFFFFF;}
	.st2{fill:#424242;}
</style>
<title>logos cloud teams</title>
<g id="logo">
	<path class="st0" d="M478,210.2h-85.1c-1.6,0-2.8,1.3-2.8,2.8v30.1c0,1.6,1.3,2.8,2.8,2.8h6.7c1.2,2.1,4.7,7.9,6.1,7.9
		s4.9-5.8,6.1-7.9H478c1.6,0,2.8-1.3,2.8-2.8V213C480.8,211.4,479.6,210.2,478,210.2z"/>
	<path class="st1" d="M402.3,218.7c1-0.1,3.5-0.1,5.4-0.1c4.5,0,6.2,2,6.2,4.6c0.1,1.8-1,3.5-2.7,4.3v0.1c2,0.4,3.4,2.3,3.3,4.4
		c0,3.9-3,5.6-7,5.6c-1.7,0-4.1-0.1-5.2-0.1L402.3,218.7z M405.6,221.7v4.8h2.2c1.5,0,2.8-0.8,2.8-2.5c0-1.5-1.2-2.3-3-2.3
		C406.9,221.7,406.1,221.7,405.6,221.7L405.6,221.7z M405.6,229.3v5c0.7,0.1,1.4,0.1,2.2,0.1c2.2,0,3.4-0.9,3.4-2.7
		c0-1.6-1.2-2.4-3.3-2.4L405.6,229.3z"/>
	<path class="st1" d="M420.1,218.7H431v3.1h-7.6v4.7h6.8v3.1h-6.8v4.9h7.8v3.1h-11.1V218.7z"/>
	<path class="st1" d="M434.6,218.7H450v3.1h-6v15.7h-3.3v-15.7h-6.1L434.6,218.7z"/>
	<path class="st1" d="M458.1,218.6h2.9l7.9,18.8h-3.5l-2-4.8h-8l-2,4.8h-3.3L458.1,218.6z M456.7,229.6h5.5l-2.7-6.7L456.7,229.6z"
		/>
	<path class="st2" d="M394.6,288.7c-6.4-6.2-6.4-16.4-0.2-22.8c3.1-3.1,7.3-4.9,11.6-4.8c4.3-0.1,8.6,1.4,11.8,4.3l-4.3,4.7
		c-2.1-1.7-4.8-2.6-7.5-2.6c-2.6-0.1-5.1,0.9-7,2.7c-1.8,1.8-2.7,4.3-2.6,6.9c-0.1,2.6,0.9,5.2,2.7,7.1c1.9,1.8,4.4,2.8,7,2.6
		c2.7,0.1,5.4-0.8,7.5-2.6l4.3,4.7c-3.3,2.9-7.5,4.4-11.8,4.3C401.7,293.4,397.6,291.7,394.6,288.7z"/>
	<path class="st2" d="M440.1,261.1v26.2h17.2v6h-23.6v-32.2H440.1z"/>
	<path class="st2" d="M474.4,288.7c-6.6-6.4-6.8-16.9-0.5-23.5c6.4-6.6,16.9-6.8,23.5-0.5c6.6,6.4,6.8,16.9,0.5,23.5
		c-3.1,3.3-7.5,5.1-12,5.1C481.6,293.5,477.4,291.8,474.4,288.7z M485.9,287.3c2.6,0.1,5.2-1,7-2.9c3.6-4.1,3.6-10.3,0-14.4
		c-3.8-3.9-10.1-3.9-13.9-0.1c0,0,0,0-0.1,0.1c-3.6,4.1-3.6,10.3,0,14.4C480.7,286.4,483.3,287.4,485.9,287.3L485.9,287.3z"/>
	<path class="st2" d="M521.6,261.1v18.7c0,2.4,0.7,4.2,2.2,5.4c3.2,2.3,7.5,2.3,10.7,0c1.4-1.1,2.2-2.9,2.2-5.4v-18.7h6.4v20.4
		c0,3.3-1.5,6.3-4,8.4c-5.9,4.6-14.1,4.6-20,0c-2.5-2-4-5.1-4-8.4v-20.4H521.6z"/>
	<path class="st2" d="M558.8,293.3v-32.2h12.4c10,0,15,5.4,15,16.1s-5,16.1-15,16.1L558.8,293.3z M571.2,286.9
		c5.7,0,8.6-3.2,8.6-9.7c0-6.5-2.8-9.7-8.6-9.7h-6v19.4H571.2z"/>
	<path class="st2" d="M419.4,309.1v6h-10.7v26.2h-6.5v-26.2h-10.7v-6L419.4,309.1z"/>
	<path class="st2" d="M432.9,341.3v-32.2h23.7v6h-17.2v6.9h12.9v6h-12.9v7.3h17.2v6L432.9,341.3z"/>
	<path class="st2" d="M470.1,341.3l12.9-32.2h6.5l12.9,32.2h-6.8l-1.9-4.9h-14.6l-1.9,5H470.1z M486.4,317.7l-4.9,12.3h9.7
		L486.4,317.7z"/>
	<path class="st2" d="M515.9,341.3v-32.2h2.2l14,15.9l14-15.9h2.2v32.2h-6.5v-18.7l-9.7,10.7l-9.7-10.7v18.7H515.9z"/>
	<path class="st2" d="M580.9,310.2c1.7,0.8,3.3,1.9,4.6,3.2l-4.3,4.3c-1.5-1.7-3.7-2.7-6-2.6c-2.6,0-4.2,0.6-4.9,1.8
		c-0.7,0.9-0.7,2.2,0,3.1c0.7,0.9,2.4,1.5,4.9,1.9c2.7,0.3,5.2,1.2,7.4,2.7c2.2,1.5,3.3,3.9,3.3,7.2c0,2.7-1.4,5.1-3.6,6.7
		c-2.4,1.9-5.3,2.8-8.3,2.8c-2.6,0.1-5.1-0.4-7.5-1.3c-1.9-0.8-3.7-2-5.2-3.4l4.3-4.3c1.4,1.7,3.9,2.7,7.3,3c2.9,0,4.7-0.6,5.4-1.8
		c0.7-1.1,0.7-2.5,0-3.6c-0.7-1.2-2.5-2-5.4-2.3c-2.5-0.3-4.9-1.1-7.1-2.4c-2.1-1.3-3.2-3.5-3.2-6.7c0-2.8,1.3-5.4,3.7-6.9
		c2.2-1.6,4.8-2.5,7.5-2.6C576.3,309,578.6,309.4,580.9,310.2z"/>
	<path class="st0" d="M312.8,251.6c-8.8-30.7-36.3-53.1-69-53.1c-39.5,0-71.5,32.7-71.9,73.2h-0.1c-25,0-45.2,20.2-45.2,45.2
		s20.2,45.2,45.2,45.2h129c30.9,0,55.9-25,56-55.8C356.7,280,338.4,257.3,312.8,251.6L312.8,251.6z"/>
	<path class="st1" d="M244.3,295.5c-3.1-2.2-6.4-2.8-9-1.4c-2,1-3.6,3.1-4.7,6.1V274c0-1.7-0.7-3.2-1.9-4.3c-2.3-2-6-2.3-8.3-2.2
		v-0.5c0.1-2-0.8-3.9-2.2-5.2c-1.8-1.4-4-2.2-6.3-2.2c-1.2-0.1-2.3,0-3.5,0.1l-1.6,0.2v5.4c-3.3-1.5-7.7-1.1-8.2-1l-1.6,0.2v7.8
		c-2.6-0.8-5.4-1-8.1-0.8l-1.7,0.2V309l-0.2,24.8l0,0l0,0l0,0l0,0L155.3,359c1.4,0.6,2.9,1.1,4.4,1.5c0.1-0.1,21.3-17,28.2-22.6
		c1.4,2.7,3.9,4.8,6.9,5.6l0,0c1,0.2,2-0.5,2.2-1.6c0.1-0.8-0.2-1.5-0.9-1.9l-0.2-0.1l0,0c-0.1,0-5-1.5-5.1-6.1l0.2-24.4l0,0v-34
		c2.2,0,4.8,0.3,5.8,1.2c0.2,0.1,0.3,0.3,0.3,0.5v28.7c-1,0.6-1.8,1.3-2.5,2.2l0,0l-0.1,0.1c-0.5,0.9-0.3,2,0.6,2.6s2,0.3,2.6-0.6
		l0,0l0,0l0,0c0,0,3.2-4,15.6-4c8.8,0,13.1,3,14.9,4.7c-3.8,0.4-7.5,1.9-10.5,4.3c-3.1,2.7-4.9,6.6-5,10.7l0,0c-0.1,1,0.7,1.9,1.7,2
		c0.7,0,1.4-0.3,1.7-1c0.1-0.2,0.2-0.5,0.2-0.8l0,0c0-4.6,3-8.7,7.3-10.2c2.4-0.9,4.9-1.4,7.4-1.4h1.4c0.2-12.8,2.9-16.1,4.6-16.9
		c1.4-0.5,2.9-0.3,4.1,0.5c-1.6,6.6-3.2,23.2-3.4,25.1l0,0c-0.3,4.5-1.4,8.9-3.5,12.9c-4.3,8.2-11.7,12.4-22,12.4l0,0h0l0,0l0,0
		l-16,13.8h6.6l11.8-10.1c13.3-0.8,19.9-8.2,23.1-14.5c2.2-4.4,3.5-9.1,3.8-14c0.5-5.9,2.3-21.8,3.6-25.9l0.5-1.4l-1.2-0.8
		L244.3,295.5z M206.7,302.7c-2,0.2-4.1,0.7-6,1.4v-36c1.8,0,4.2,0.2,5.4,1.3c0.5,0.4,0.7,1,0.7,1.7L206.7,302.7z M216.6,302.4
		c-1.1-0.1-2.3-0.2-3.5-0.2c-0.9,0-1.7,0-2.5,0v-39c1.6,0,3.9,0.2,5.1,1.3c0.7,0.6,1,1.5,0.9,2.3V302.4z M226.8,305.3
		c-1.9-1-3.9-1.8-6-2.2v-31.9c0.4,0,0.8,0,1.3,0c1.5,0,2.9,0.4,4.1,1.2c0.4,0.4,0.7,0.9,0.6,1.5L226.8,305.3z"/>
	<path class="st1" d="M245.3,221.1c-1.1,0-2.1,0.9-2.1,2.1v0v8c0,1.1,0.9,2.1,2.1,2.1c1.1,0,2.1-0.9,2.1-2.1v-8
		C247.4,222,246.5,221.1,245.3,221.1C245.3,221.1,245.3,221.1,245.3,221.1z"/>
	<path class="st1" d="M224.1,242.5c0.8,0.8,2.1,0.8,2.9,0s0.8-2.1,0-2.9l0,0l-5.7-5.7c-0.8-0.8-2.1-0.8-2.9,0s-0.8,2.1,0,2.9
		L224.1,242.5z"/>
	<path class="st1" d="M266.6,242.5l5.7-5.7c0.8-0.8,0.8-2.1,0-2.9s-2.1-0.8-2.9,0l-5.7,5.7c-0.8,0.8-0.8,2.1,0,2.9
		S265.8,243.3,266.6,242.5L266.6,242.5z"/>
	<path class="st1" d="M302.8,333.6c0.9-1.5,1.3-3.2,1.3-5v-27.7l0,0v-29.6l-1.7-0.2c-2.7-0.3-5.4,0-8,0.7v-7l-1.7-0.2
		c-0.6-0.1-5.4-0.6-8.8,1.1v-5.5l-1.6-0.2c-0.7-0.1-6.5-0.8-9.9,2.1c-1.5,1.3-2.3,3.2-2.2,5.2v1.7c-0.5,0-1,0-1.5,0
		c-2.3,0-4.6,0.8-6.4,2.2c-1.3,1.1-2,2.8-2,4.5v17c-1.2-0.5-2.6-0.7-3.9-0.5c-2.6,0.4-4.9,1.9-6.2,4.1l-0.5,0.8l0.3,0.9
		c0.8,2.6,1.2,7.9,1,15.1c-0.1,5.6-0.6,10.4-0.6,10.5v0.3l0.1,0.3c0.9,3.4,2.2,6.7,3.9,9.8c3.7,6.5,8.8,11.1,14.7,13.1l18,15.2h5.9
		l-22-18.6l0,0h-0.1l0,0c-12-3.7-16.1-17.9-16.7-20c0.2-2.5,1.5-18.4-0.3-25.8c0.7-1,1.8-1.6,3-1.8c1.2-0.1,2.5,0.3,3.5,1v23.8l0,0
		l0,0c-0.1,1,0.7,1.9,1.7,2c1,0.1,1.9-0.7,2-1.7c0-0.1,0-0.2,0-0.3l0,0l0,0v-45c0-0.6,0.2-1.3,0.7-1.7c1.2-1,3.5-1.3,5.3-1.3h0.1
		v26.3l0,0c0,0.1,0,0.1,0,0.2c0,1,0.8,1.9,1.9,1.9s1.9-0.8,1.9-1.9c0-0.1,0-0.1,0-0.2l0,0v-31.8c-0.1-0.9,0.3-1.7,0.9-2.3
		c1.3-1.1,3.6-1.3,5.3-1.3v35.4l0,0c0.2,1.1,1.3,1.8,2.4,1.5c0.8-0.2,1.4-0.8,1.6-1.6c0-0.2,0-0.3,0-0.5v-27.2
		c0-0.6,0.2-1.2,0.7-1.6c1.2-1.1,3.8-1.4,6-1.4v30.2c-0.3,1,0.4,2.1,1.4,2.4c1,0.3,2.1-0.4,2.4-1.4c0-0.1,0.1-0.3,0.1-0.4
		c0-0.1,0-0.3,0-0.4v-22.1c0-0.2,0.1-0.4,0.3-0.6c0.9-0.9,3.5-1.2,5.6-1.2v26.6l0,0v27.4c0,0,0.3,4.6-6.4,7c-1,0.3-1.6,1.3-1.3,2.3
		c0.3,1,1.3,1.6,2.3,1.3c0.1,0,0.2,0,0.2-0.1c1.9-0.6,3.8-1.6,5.3-2.9l25.1,19.9c0,0,2.3-1.1,3.6-1.9
		C329.2,354.4,306.7,336.7,302.8,333.6z"/>
</g>
</svg>
