<svg xmlns="http://www.w3.org/2000/svg" viewBox="0 0 797.72 386.66"><title>public-header</title><circle cx="690.39" cy="279.33" r="107.33" fill="#5d2e66" opacity="0.05"/><circle cx="690.99" cy="279.18" r="96.72" fill="#5d2e66" opacity="0.1"/><circle cx="108.92" cy="267.35" r="107.33" fill="#5d2e66" opacity="0.05"/><circle cx="109.52" cy="267.2" r="96.72" fill="#5d2e66" opacity="0.1"/><path d="M199.81,324.09H12.64A11.17,11.17,0,0,1,1.5,313V295H210.94V313A11.17,11.17,0,0,1,199.81,324.09Z" fill="#fff"/><rect x="594.04" y="224.24" width="142.33" height="100.07" rx="11.16" ry="11.16" transform="translate(-44.58 156.22) rotate(-12.96)" fill="#fff" stroke="#5d2e66" stroke-linejoin="round" stroke-width="3"/><path d="M77.37,354.88c10.44,0,8.1-43.64,8.1-43.64a3.07,3.07,0,0,1,2.94-3.18h37.33a3.07,3.07,0,0,1,2.94,3.18s-1.45,43.55,7.48,43.64H77.37Z" fill="#fff" stroke="#5d2e66" stroke-miterlimit="10" stroke-width="3"/><line x1="62.76" y1="354.88" x2="151.38" y2="354.88" fill="#fff" stroke="#5d2e66" stroke-linecap="round" stroke-miterlimit="10" stroke-width="3"/><path d="M199.81,324.09H12.64A11.17,11.17,0,0,1,1.5,313V295H210.94V313A11.17,11.17,0,0,1,199.81,324.09Z" fill="#f2f2f2"/><rect x="1.5" y="185.98" width="209.44" height="138.12" rx="11.56" ry="11.56" fill="#fff" stroke="#5d2e66" stroke-miterlimit="10" stroke-width="3"/><rect x="13.78" y="227.87" width="38.74" height="54.62" rx="3.13" ry="3.13" fill="#5d2e66" opacity="0.1"/><rect x="61.28" y="227.87" width="38.74" height="54.62" rx="3.13" ry="3.13" fill="#5d2e66" opacity="0.1"/><rect x="108.92" y="227.87" width="38.74" height="54.62" rx="3.13" ry="3.13" fill="#5d2e66" opacity="0.1"/><rect x="155.7" y="227.87" width="38.74" height="54.62" rx="3.13" ry="3.13" fill="#5d2e66" opacity="0.1"/><path d="M84.48,311.68" fill="#5d2e66"/><rect x="17.83" y="222.92" width="38.74" height="54.62" rx="3.13" ry="3.13" fill="#fff" stroke="#5d2e66" stroke-miterlimit="10" stroke-width="3"/><rect x="65.17" y="222.92" width="38.74" height="54.62" rx="3.13" ry="3.13" fill="#fff" stroke="#5d2e66" stroke-miterlimit="10" stroke-width="3"/><rect x="17.83" y="222.92" width="38.74" height="54.62" rx="3.13" ry="3.13" fill="#fea0a2" stroke="#5d2e66" stroke-miterlimit="10" stroke-width="3"/><path d="M199.81,324.09H12.64A11.17,11.17,0,0,1,1.5,313V298.1H210.94V313A11.17,11.17,0,0,1,199.81,324.09Z" fill="#f2f2f2" stroke="#5d2e66" stroke-linecap="round" stroke-miterlimit="10" stroke-width="3"/><rect x="113.01" y="222.92" width="38.74" height="54.62" rx="3.13" ry="3.13" fill="#fff" stroke="#5d2e66" stroke-miterlimit="10" stroke-width="3"/><rect x="65.17" y="222.92" width="38.74" height="54.62" rx="3.13" ry="3.13" fill="#fea0a2" stroke="#5d2e66" stroke-miterlimit="10" stroke-width="3"/><circle cx="107.07" cy="311.15" r="6.92" fill="#5d2e66" opacity="0.1"/><rect x="113.01" y="222.92" width="38.74" height="54.62" rx="3.13" ry="3.13" fill="#fea0a2" stroke="#5d2e66" stroke-miterlimit="10" stroke-width="3"/><circle cx="107.07" cy="311.05" r="6.92" fill="none" stroke="#5d2e66" stroke-miterlimit="10" stroke-width="3"/><line x1="196.09" y1="202.05" x2="175.21" y2="202.05" fill="#7e3d8e" stroke="#5d2e66" stroke-linecap="round" stroke-miterlimit="10" stroke-width="3" opacity="0.5"/><rect x="17.83" y="246.59" width="38.74" height="30.96" rx="2" ry="2" fill="#f2f2f2" stroke="#5d2e66" stroke-miterlimit="10" stroke-width="3"/><rect x="65.42" y="246.59" width="38.74" height="30.96" rx="2" ry="2" fill="#f2f2f2" stroke="#5d2e66" stroke-miterlimit="10" stroke-width="3"/><rect x="113.42" y="246.59" width="37.96" height="30.96" rx="1.98" ry="1.98" fill="#f2f2f2" stroke="#5d2e66" stroke-miterlimit="10" stroke-width="2.97"/><line x1="164" y1="202.05" x2="143.11" y2="202.05" fill="#7e3d8e" stroke="#5d2e66" stroke-linecap="round" stroke-miterlimit="10" stroke-width="3" opacity="0.5"/><line x1="142.82" y1="256.89" x2="121.94" y2="256.89" fill="#7e3d8e" stroke="#5d2e66" stroke-linecap="round" stroke-miterlimit="10" stroke-width="3" opacity="0.5"/><line x1="142.82" y1="265.85" x2="121.94" y2="265.85" fill="#7e3d8e" stroke="#5d2e66" stroke-linecap="round" stroke-miterlimit="10" stroke-width="3" opacity="0.5"/><line x1="94.98" y1="256.89" x2="74.1" y2="256.89" fill="#7e3d8e" stroke="#5d2e66" stroke-linecap="round" stroke-miterlimit="10" stroke-width="3" opacity="0.5"/><line x1="94.98" y1="265.85" x2="74.1" y2="265.85" fill="#7e3d8e" stroke="#5d2e66" stroke-linecap="round" stroke-miterlimit="10" stroke-width="3" opacity="0.5"/><line x1="47.65" y1="256.89" x2="26.76" y2="256.89" fill="#7e3d8e" stroke="#5d2e66" stroke-linecap="round" stroke-miterlimit="10" stroke-width="3" opacity="0.5"/><line x1="47.65" y1="265.85" x2="26.76" y2="265.85" fill="#7e3d8e" stroke="#5d2e66" stroke-linecap="round" stroke-miterlimit="10" stroke-width="3" opacity="0.5"/><line x1="17.83" y1="246.59" x2="56.58" y2="246.59" fill="#fff" stroke="#5d2e66" stroke-miterlimit="10" stroke-width="3"/><line x1="64.57" y1="246.59" x2="103.32" y2="246.59" fill="#fff" stroke="#5d2e66" stroke-miterlimit="10" stroke-width="3"/><line x1="113.87" y1="246.59" x2="152.62" y2="246.59" fill="#fff" stroke="#5d2e66" stroke-miterlimit="10" stroke-width="3"/><rect x="159.42" y="222.92" width="38.74" height="54.62" rx="3.13" ry="3.13" fill="#fff" stroke="#5d2e66" stroke-miterlimit="10" stroke-width="3"/><rect x="159.42" y="222.92" width="38.74" height="54.62" rx="3.13" ry="3.13" fill="#fea0a2" stroke="#5d2e66" stroke-miterlimit="10" stroke-width="3"/><rect x="159.81" y="246.59" width="37.96" height="30.96" rx="1.98" ry="1.98" fill="#f2f2f2" stroke="#5d2e66" stroke-miterlimit="10" stroke-width="2.97"/><line x1="189.23" y1="256.89" x2="168.35" y2="256.89" fill="#7e3d8e" stroke="#5d2e66" stroke-linecap="round" stroke-miterlimit="10" stroke-width="3" opacity="0.5"/><line x1="189.23" y1="265.85" x2="168.35" y2="265.85" fill="#7e3d8e" stroke="#5d2e66" stroke-linecap="round" stroke-miterlimit="10" stroke-width="3" opacity="0.5"/><line x1="160.28" y1="246.59" x2="199.03" y2="246.59" fill="#fff" stroke="#5d2e66" stroke-miterlimit="10" stroke-width="3"/><path d="M32.23,203A6.72,6.72,0,0,0,19,204.89h0a4.24,4.24,0,0,0,0,8.47H31.11A5.24,5.24,0,0,0,32.23,203Z" fill="none" opacity="0.1"/><path d="M33.25,202.9A6.72,6.72,0,0,0,20,204.78h0a4.24,4.24,0,0,0,0,8.47H32.13A5.24,5.24,0,0,0,33.25,202.9Z" fill="#5d2e66" opacity="0.1"/><path d="M33.25,202.9A6.72,6.72,0,0,0,20,204.78h0a4.24,4.24,0,0,0,0,8.47H32.13A5.24,5.24,0,0,0,33.25,202.9Z" fill="none" stroke="#5d2e66" stroke-miterlimit="10" stroke-width="3"/><path d="M694.78,357.39a7.24,7.24,0,0,0-14.22,2h0a4.56,4.56,0,0,0,0,9.13h13A5.64,5.64,0,0,0,694.78,357.39Z" fill="none" opacity="0.1"/><path d="M695.87,357.28a7.24,7.24,0,0,0-14.22,2h0a4.56,4.56,0,0,0,0,9.13h13A5.64,5.64,0,0,0,695.87,357.28Z" fill="#5d2e66" opacity="0.1"/><path d="M695.87,357.28a7.24,7.24,0,0,0-14.22,2h0a4.56,4.56,0,0,0,0,9.13h13A5.64,5.64,0,0,0,695.87,357.28Z" fill="none" stroke="#5d2e66" stroke-miterlimit="10" stroke-width="3"/><path d="M108.88,110.54a3.11,3.11,0,0,0-3.1,3.12l0,12a3.11,3.11,0,0,0,6.22,0l0-12A3.11,3.11,0,0,0,108.88,110.54Z" fill="#7e3d8e" opacity="0.5"/><path d="M73,129.76a3.11,3.11,0,0,0-4.39,4.41l8.52,8.48a3.11,3.11,0,1,0,4.39-4.41Z" fill="#7e3d8e" opacity="0.5"/><path d="M144.86,129.61l-8.48,8.52a3.11,3.11,0,1,0,4.41,4.39l8.48-8.52A3.11,3.11,0,0,0,144.86,129.61Z" fill="#7e3d8e" opacity="0.5"/><g opacity="0.2"><path d="M579.79,143.56a27.35,27.35,0,0,0-2.14-5.59" fill="none" stroke="#5d2e66" stroke-linecap="round" stroke-linejoin="round" stroke-width="3"/><path d="M571.19,128.38a60.69,60.69,0,0,0-34.5-19.88" fill="none" stroke="#5d2e66" stroke-linecap="round" stroke-linejoin="round" stroke-width="3" stroke-dasharray="11.59 11.59"/><path d="M531,107.61q-2.9-.33-6-0.42" fill="none" stroke="#5d2e66" stroke-linecap="round" stroke-linejoin="round" stroke-width="3"/></g><g opacity="0.2"><path d="M186.59,143.56a27.35,27.35,0,0,1,2.14-5.59" fill="none" stroke="#5d2e66" stroke-linecap="round" stroke-linejoin="round" stroke-width="3"/><path d="M195.19,128.38a60.69,60.69,0,0,1,34.5-19.88" fill="none" stroke="#5d2e66" stroke-linecap="round" stroke-linejoin="round" stroke-width="3" stroke-dasharray="11.59 11.59"/><path d="M235.42,107.61q2.9-.33,6-0.42" fill="none" stroke="#5d2e66" stroke-linecap="round" stroke-linejoin="round" stroke-width="3"/></g><polyline points="656.71 251.06 642.6 301.9 629.77 286.57 613.6 295.4 625.79 257.32" fill="#5d2e66" opacity="0.1"/><rect x="586.75" y="236.23" width="142.33" height="12.76" transform="translate(-37.66 153.78) rotate(-12.96)" fill="#5d2e66" opacity="0.1"/><polyline points="663.79 250.07 697.15 290.96 702.74 271.76 721.09 273.35 694.63 243.38" fill="#5d2e66" opacity="0.1"/><rect x="653.89" y="235.84" width="27.27" height="87.02" transform="translate(-45.65 156.87) rotate(-12.96)" fill="#ffe576" stroke="#5d2e66" stroke-miterlimit="10" stroke-width="3"/><g opacity="0.05"><circle cx="373.95" cy="114.17" r="107.33" fill="#5d2e66"/></g><g opacity="0.1"><circle cx="374.55" cy="114.02" r="96.72" fill="#5d2e66"/></g><path d="M303.41,174.16h96.25c15.82,0,15.82,15.82,15.82,15.82v7" fill="none" stroke="#5d2e66" stroke-linecap="round" stroke-linejoin="round" stroke-width="3"/><path d="M524.2,0.77a2.07,2.07,0,0,0-2.78.92l-3.6,7.17a2.07,2.07,0,0,0,3.71,1.86l3.6-7.17A2.07,2.07,0,0,0,524.2.77Z" fill="#7e3d8e" opacity="0.5"/><path d="M497,1.42a2.07,2.07,0,0,0-3.94,1.3l2.52,7.61A2.07,2.07,0,1,0,499.57,9Z" fill="#7e3d8e" opacity="0.5"/><path d="M539.9,22.94l-7.61,2.52a2.07,2.07,0,0,0,1.3,3.94l7.61-2.52A2.07,2.07,0,0,0,539.9,22.94Z" fill="#7e3d8e" opacity="0.5"/><path d="M756.34,140.94a2.07,2.07,0,0,0-2.78.92L750,149a2.07,2.07,0,0,0,3.71,1.86l3.6-7.17A2.07,2.07,0,0,0,756.34,140.94Z" fill="#7e3d8e" opacity="0.5"/><path d="M729.18,141.6a2.07,2.07,0,0,0-3.94,1.3l2.52,7.61a2.07,2.07,0,0,0,3.94-1.3Z" fill="#7e3d8e" opacity="0.5"/><path d="M772,163.11l-7.61,2.52a2.07,2.07,0,1,0,1.3,3.94l7.61-2.52A2.07,2.07,0,0,0,772,163.11Z" fill="#7e3d8e" opacity="0.5"/><circle cx="358.07" cy="187.16" r="4.01" transform="translate(-10.95 351.67) rotate(-51.62)" fill="#fea0a2" stroke="#5d2e66" stroke-miterlimit="10" stroke-width="3"/><path d="M497.78,115.9L478.78,26a9.26,9.26,0,0,0-10.94-7.12L322.25,49.71a9.26,9.26,0,0,0-7.12,10.94l19,89.85a9.26,9.26,0,0,0,10.94,7.12l27.22-5.84S377.83,165.35,371,177s27.55,0.44,30.55-31.28l89.06-18.84A9.26,9.26,0,0,0,497.78,115.9Z" fill="#fff" stroke="#5d2e66" stroke-linejoin="round" stroke-width="3"/><path d="M484.53,58.68L378.71,81a4.75,4.75,0,0,1-5.62-3.66l-2.11-10a4.75,4.75,0,0,1,3.66-5.62L480.47,39.36C483,38.82,487.08,58.14,484.53,58.68Z" fill="#5d2e66" opacity="0.1"/><rect x="376.47" y="40.55" width="136.74" height="19.75" rx="5.11" ry="5.11" transform="translate(-0.85 92.69) rotate(-11.88)" fill="#709dc9" stroke="#5d2e66" stroke-miterlimit="10" stroke-width="3"/><rect x="332.51" y="66.87" width="24.05" height="20.85" rx="2.18" ry="2.18" transform="translate(-8.53 72.61) rotate(-11.88)" fill="#5d2e66" opacity="0.1"/><rect x="336.74" y="60.22" width="24.05" height="20.85" rx="2.18" ry="2.18" transform="translate(-7.07 73.34) rotate(-11.88)" fill="#fff" stroke="#5d2e66" stroke-miterlimit="10" stroke-width="3"/><rect x="366.7" y="79.45" width="104.55" height="15.1" rx="3.9" ry="3.9" transform="translate(-8.94 88.15) rotate(-11.88)" fill="#f2f2f2" stroke="#5d2e66" stroke-miterlimit="10" stroke-width="3"/><rect x="336.32" y="94.49" width="18.39" height="15.94" rx="1.67" ry="1.67" transform="translate(-13.69 73.35) rotate(-11.88)" fill="#fff" stroke="#5d2e66" stroke-miterlimit="10" stroke-width="3"/><rect x="372.42" y="106.62" width="104.55" height="15.1" rx="3.9" ry="3.9" transform="translate(-14.41 89.91) rotate(-11.88)" fill="#f2f2f2" stroke="#5d2e66" stroke-miterlimit="10" stroke-width="3"/><rect x="342.04" y="121.66" width="18.39" height="15.94" rx="1.67" ry="1.67" transform="translate(-19.17 75.11) rotate(-11.88)" fill="#fff" stroke="#5d2e66" stroke-miterlimit="10" stroke-width="3"/><polyline points="343.5 69.25 350.05 73.42 361.03 56.59" fill="none" stroke="#a054b2" stroke-linecap="round" stroke-linejoin="round" stroke-width="3"/><polygon points="499.49 43.19 509.71 65.02 514.2 59.01 520.14 63.44 524.53 57.57 518.59 53.13 523.32 46.78 499.49 43.19" fill="#fff" stroke="#5d2e66" stroke-linecap="round" stroke-linejoin="round" stroke-width="3"/><line x1="395.51" y1="195.27" x2="373.01" y2="195.27" fill="#7e3d8e" stroke="#5d2e66" stroke-linecap="round" stroke-miterlimit="10" stroke-width="3" opacity="0.5"/><line x1="357.49" y1="195.27" x2="334.99" y2="195.27" fill="#7e3d8e" stroke="#5d2e66" stroke-linecap="round" stroke-miterlimit="10" stroke-width="3" opacity="0.5"/><path d="M756.8,335.69H675.69c-15.82,0-15.82,15.82-15.82,15.82v12.68" fill="none" stroke="#5d2e66" stroke-linecap="round" stroke-linejoin="round" stroke-width="3"/><polyline points="653.46 237.94 639.35 288.79 626.52 273.45 610.35 282.29 622.54 244.21" fill="#ffe576" stroke="#5d2e66" stroke-miterlimit="10" stroke-width="3"/><polyline points="660.75 235.59 694.1 276.48 699.69 257.28 718.04 258.87 691.58 228.9" fill="#ffe576" stroke="#5d2e66" stroke-miterlimit="10" stroke-width="3"/><rect x="567.35" y="199.87" width="172.23" height="36.79" rx="7.44" ry="7.44" transform="translate(-32.31 152.16) rotate(-12.96)" fill="#fff" stroke="#5d2e66" stroke-linejoin="round" stroke-width="3"/><rect x="634.19" y="199.87" width="38.54" height="36.73" transform="translate(-32.3 152.16) rotate(-12.96)" fill="#ffe576" stroke="#5d2e66" stroke-miterlimit="10" stroke-width="3"/><line x1="537.71" y1="175.95" x2="540.81" y2="189.42" fill="#fea0a2" stroke="#5d2e66" stroke-linecap="round" stroke-miterlimit="10" stroke-width="3"/><line x1="546.34" y1="181.05" x2="532.87" y2="184.15" fill="#fea0a2" stroke="#5d2e66" stroke-linecap="round" stroke-miterlimit="10" stroke-width="3"/><line x1="558.38" y1="156.8" x2="560.06" y2="164.1" fill="#fea0a2" stroke="#5d2e66" stroke-linecap="round" stroke-miterlimit="10" stroke-width="3"/><ellipse cx="668.26" cy="174.55" rx="28.42" ry="13.08" transform="translate(72.3 523.66) rotate(-45)" fill="#ffe576" stroke="#5d2e66" stroke-miterlimit="10" stroke-width="3"/><ellipse cx="620.9" cy="183.82" rx="13.08" ry="28.42" transform="translate(245.04 711.12) rotate(-71.01)" fill="#ffe576" stroke="#5d2e66" stroke-miterlimit="10" stroke-width="3"/><line x1="563.05" y1="159.57" x2="555.76" y2="161.25" fill="#fea0a2" stroke="#5d2e66" stroke-linecap="round" stroke-miterlimit="10" stroke-width="3"/><circle cx="529.02" cy="161.93" r="3.9" transform="translate(-22.84 122.81) rotate(-12.96)" fill="#fea0a2" stroke="#5d2e66" stroke-linecap="round" stroke-miterlimit="10" stroke-width="3"/><circle cx="567.39" cy="195.09" r="3.9" transform="translate(-29.3 132.26) rotate(-12.96)" fill="#fea0a2" stroke="#5d2e66" stroke-linecap="round" stroke-miterlimit="10" stroke-width="3"/><circle cx="545.52" cy="202.15" r="1.97" transform="translate(-31.44 127.54) rotate(-12.96)" fill="#5d2e66" stroke="#5d2e66" stroke-linecap="round" stroke-miterlimit="10" stroke-width="3"/><circle cx="555.92" cy="177.39" r="1.97" transform="translate(-25.63 129.24) rotate(-12.96)" fill="#5d2e66" stroke="#5d2e66" stroke-linecap="round" stroke-miterlimit="10" stroke-width="3"/><circle cx="647.77" cy="193.77" r="6.14" fill="#ffe576" stroke="#5d2e66" stroke-miterlimit="10" stroke-width="3"/><path d="M739.08,197.95c-0.07-.64-0.14-1.28-0.17-1.92a23.43,23.43,0,0,1,5.9-16.28,19.13,19.13,0,0,0-24.57-6.65,8.07,8.07,0,0,1-3.93,7.65,7.31,7.31,0,0,1-6.27,5.43,19,19,0,0,0-.45,4.09,19.17,19.17,0,0,0,29,16.48A9,9,0,0,1,739.08,197.95Z" fill="#5d2e66" opacity="0.1"/><circle cx="733.76" cy="184.4" r="19.19" fill="#fff" stroke="#5d2e66" stroke-linecap="round" stroke-linejoin="round" stroke-width="3"/><polyline points="725.48 188.03 731.36 191.77 741.22 176.66" fill="none" stroke="#a054b2" stroke-linecap="round" stroke-linejoin="round" stroke-width="3"/><polygon points="84.79 333.25 128.29 333.25 128.29 324.09 85.67 324.09 84.79 333.25" fill="#5d2e66" opacity="0.1"/></svg>