<?xml version="1.0" encoding="utf-8"?>
<!-- Generator: Adobe Illustrator 21.0.0, SVG Export Plug-In . SVG Version: 6.00 Build 0)  -->
<svg version="1.1" id="Layer_1" xmlns="http://www.w3.org/2000/svg" xmlns:xlink="http://www.w3.org/1999/xlink" x="0px" y="0px"
	 viewBox="0 0 443.4 176.8" style="enable-background:new 0 0 443.4 176.8;" xml:space="preserve">
<style type="text/css">
	.st0{fill:#F2F2F2;stroke:#5D2E66;stroke-width:3;stroke-miterlimit:10;}
	.st1{fill:none;stroke:#5D2E66;stroke-width:3;stroke-linecap:round;stroke-miterlimit:10;}
	.st2{opacity:5.000000e-02;fill:#5D2E66;}
	.st3{fill:#FFA631;stroke:#5D2E66;stroke-width:3;stroke-miterlimit:10;}
	.st4{fill:none;stroke:#5D2E66;stroke-width:3;stroke-miterlimit:10;}
	.st5{fill:#FFE576;stroke:#5D2E66;stroke-width:3;stroke-miterlimit:10;}
	.st6{fill:#FFFFFF;stroke:#5D2E66;stroke-width:3;stroke-linejoin:round;stroke-miterlimit:10;}
	.st7{opacity:0.1;fill:#5D2E66;}
	.st8{fill:#709DC9;stroke:#5D2E66;stroke-width:3;stroke-miterlimit:10;}
	.st9{fill:#FFFFFF;stroke:#5D2E66;stroke-width:3;stroke-miterlimit:10;}
	.st10{fill:none;stroke:#A054B2;stroke-width:3;stroke-linecap:round;stroke-linejoin:round;stroke-miterlimit:10;}
	.st11{fill:#FFFFFF;stroke:#5D2E66;stroke-width:3;stroke-linecap:round;stroke-linejoin:round;stroke-miterlimit:10;}
	.st12{opacity:0.5;fill:#7E3D8E;}
	.st13{opacity:0.2;}
	.st14{fill:none;stroke:#5D2E66;stroke-width:3;stroke-linecap:round;stroke-linejoin:round;}
	.st15{fill:none;stroke:#5D2E66;stroke-width:3;stroke-linecap:round;stroke-linejoin:round;stroke-dasharray:10.8981,10.8981;}
	.st16{fill:#F7934F;stroke:#5D2E66;stroke-width:3;stroke-miterlimit:10;}
	.st17{fill:none;stroke:#5D2E66;stroke-width:3;stroke-linecap:round;stroke-linejoin:round;stroke-miterlimit:10;}
	.st18{fill:#A054B2;stroke:#5D2E66;stroke-width:3;stroke-miterlimit:10;}
	.st19{fill:#FFFFFF;}
	.st20{font-family:'DroidSans-Bold';}
	.st21{font-size:70.8803px;}
</style>
<g>
	<path class="st0" d="M182.6,116.6c0-22.4,17.6-39.9,39.3-39.9s39.3,17.5,39.3,39.9c0,40.7-24.3,48.5-39.1,48.5
		C207.3,165.1,182.6,158.3,182.6,116.6z"/>
	<path class="st16" d="M223.4,132.8c9.8-0.4,21.1,10.7,26.8,10.4c5.8-0.3,4.6-9.5,10.2-19.9c4.5,4.6,16.2,51.9-36.5,51.9
		s-44.3-49.4-40.3-51.9c2.1,2.1,5.4,19.9,13.7,19.9S213.5,133.1,223.4,132.8z"/>
	<path class="st17" d="M196.6,118.4c0,0,0.6-8.4,6.9-8.4s7.3,8.4,7.3,8.4"/>
	<path class="st17" d="M233.2,118.4c0,0,0.6-8.4,6.9-8.4s7.3,8.4,7.3,8.4"/>
	<path class="st18" d="M177.9,125L177.9,125c-3.1,0-5.6-2.5-5.6-5.6v-9.3c0-3.1,2.5-5.6,5.6-5.6h0c3.1,0,5.6,2.5,5.6,5.6v9.3
		C183.6,122.4,181,125,177.9,125z"/>
	<path class="st18" d="M266,125L266,125c-3.1,0-5.6-2.5-5.6-5.6v-9.3c0-3.1,2.5-5.6,5.6-5.6l0,0c3.1,0,5.6,2.5,5.6,5.6v9.3
		C271.6,122.4,269.1,125,266,125z"/>
	<path class="st4" d="M215.1,125h-22.9c-3,0-5.4-2.4-5.4-5.4v-9.7c0-3,2.4-5.4,5.4-5.4h22.9c3,0,5.4,2.4,5.4,5.4v9.7
		C220.5,122.5,218.1,125,215.1,125z"/>
	<path class="st4" d="M252.2,125h-22.8c-3,0-5.4-2.4-5.4-5.4v-9.8c0-3,2.4-5.4,5.4-5.4h22.8c3,0,5.4,2.4,5.4,5.4v9.8
		C257.6,122.5,255.2,125,252.2,125z"/>
	<path class="st4" d="M177.9,104.4c0,0,0.3-39.7,43.5-39.7s44.5,39.7,44.5,39.7"/>
	<path class="st19" d="M212.1,86.6L212.1,86.6c-1.1,0-2-0.9-2-2l0,0c0-1.1,0.9-2,2-2l0,0c1.1,0,2,0.9,2,2l0,0
		C214.2,85.7,213.2,86.6,212.1,86.6z"/>
	<g>
		<g>
			<path class="st19" d="M199,98.5c1.7-3.4,4.7-6.6,8.2-8c1.5-0.6,2.6-2,2.1-3.7c-0.4-1.4-2.2-2.7-3.7-2.1c-5,2-9.3,5.9-11.8,10.8
				C192.1,98.9,197.2,101.9,199,98.5L199,98.5z"/>
		</g>
	</g>
	<polygon class="st19" points="206,145.9 222,144.6 240.5,147.8 227.9,158.2 213.1,156.3 	"/>
	<path class="st3" d="M232.3,154.7c0,1.3-4.7,3.1-9.3,3.2c-4.4,0.1-8.8-1.5-8.8-2.7c0-2.6,4.2-4.3,9.1-4.3S232.3,152.1,232.3,154.7z
		"/>
	<path class="st4" d="M240.1,146.6c2.3,2.3-6.4,11.7-17.4,11.7s-18.1-9.7-16.1-11.7S237.8,144.3,240.1,146.6z"/>
	<path class="st7" d="M207.2,146.8c0,0-0.7,6.3,7.8,8.9s17.5-0.5,17.5-0.5s8.4-3.4,8.4-8.5c0-0.6-6.8-1.6-16.6-1.6
		S207.2,146.8,207.2,146.8z"/>
	<path class="st6" d="M353.4,111.7l23.7-69.2c1.3-3.8,0.6-8.8-3.2-10.1L305.7,7.9c-3.8-1.3-7.9,0.6-9.3,4.4L272,80.3
		c-1.3,3.8,0.6,7.9,4.4,9.3L297,97c0,0-1.9,11.4-11.2,16.4c-9.3,5,18.3,11.7,33.4-8.4l25.9,9.3C348.9,115.6,352.1,115.4,353.4,111.7
		z"/>
	<text transform="matrix(0.9462 0.3234 -0.3234 0.9462 295.5802 84.8485)" class="st7 st20 st21">?</text>
	<text transform="matrix(0.9462 0.3234 -0.3234 0.9462 302.3875 81.7865)" class="st0 st20 st21">?</text>
	<g>
		<path class="st8" d="M311.9,79.9c0.4-1,0.8-1.8,1.3-2.5c0.5-0.6,1.1-1,1.8-1.3c0.7-0.3,1.4-0.4,2.2-0.3c0.8,0,1.6,0.2,2.4,0.5
			c0.8,0.3,1.5,0.6,2.1,1c0.6,0.4,1.1,1,1.5,1.6s0.6,1.3,0.7,2.1c0.1,0.8-0.1,1.7-0.4,2.8c-0.3,1-0.8,1.8-1.3,2.4
			c-0.5,0.6-1.2,1-1.8,1.3c-0.7,0.3-1.4,0.4-2.2,0.4c-0.8,0-1.5-0.2-2.3-0.4c-0.8-0.3-1.5-0.6-2.2-1.1c-0.6-0.4-1.1-1-1.5-1.6
			c-0.4-0.6-0.6-1.4-0.6-2.2C311.4,81.8,311.5,80.9,311.9,79.9z M316.8,69.1l0.8-2.4c0.4-1.1,0.8-2.1,1.4-2.9
			c0.5-0.8,1.2-1.6,1.9-2.2c0.7-0.7,1.6-1.2,2.6-1.8c1-0.5,2.2-1,3.5-1.5c1.2-0.4,2.2-0.8,3-1.1c0.8-0.4,1.5-0.7,2.1-1.2
			c0.6-0.4,1.1-0.9,1.5-1.5c0.4-0.6,0.7-1.2,1-2c0.4-1.2,0.4-2.4-0.2-3.5c-0.6-1.1-1.7-1.9-3.4-2.5c-1.5-0.5-3.2-0.8-5.2-0.7
			c-2,0-4,0.2-6.2,0.5l-0.9-8.4c1.1-0.2,2.3-0.4,3.6-0.5c1.3-0.1,2.6-0.2,3.9-0.1c1.3,0,2.6,0.1,3.9,0.3c1.3,0.2,2.5,0.5,3.7,0.9
			c2.2,0.8,4.1,1.7,5.8,2.9c1.6,1.1,2.9,2.4,3.8,3.9c0.9,1.5,1.4,3,1.6,4.7c0.2,1.7-0.1,3.5-0.7,5.4c-0.5,1.4-1,2.6-1.7,3.5
			c-0.7,1-1.5,1.8-2.4,2.5c-0.9,0.7-2,1.4-3.2,1.9c-1.2,0.6-2.6,1.1-4.1,1.7c-1.2,0.4-2.1,0.8-2.9,1.1c-0.8,0.3-1.4,0.7-1.9,1.1
			c-0.5,0.4-0.9,0.8-1.2,1.3c-0.3,0.5-0.6,1.1-0.8,1.8l-0.7,2L316.8,69.1z"/>
	</g>
	<path class="st12" d="M406.6,11.5c-0.8-0.9-2.1-0.9-2.9-0.2l-6,5.4c-0.9,0.8-0.9,2.1-0.2,2.9c0.8,0.9,2.1,0.9,2.9,0.2l6-5.4
		C407.3,13.7,407.4,12.4,406.6,11.5z"/>
	<path class="st12" d="M381.1,2.2c0.1-1.1-0.8-2.1-2-2.2C378,0,377,0.9,377,2l-0.4,8c-0.1,1.1,0.8,2.1,2,2.2c1.1,0.1,2.1-0.8,2.2-2
		L381.1,2.2z"/>
	<path class="st12" d="M413.2,37.9l-8-0.4c-1.1-0.1-2.1,0.8-2.2,2c-0.1,1.1,0.8,2.1,2,2.2l8,0.4c1.1,0.1,2.1-0.8,2.2-2
		C415.2,38.9,414.3,37.9,413.2,37.9z"/>
	<path class="st6" d="M89.9,111.7L66.3,42.4c-1.3-3.8-0.6-8.8,3.2-10.1l68.2-24.4c3.8-1.3,7.9,0.6,9.3,4.4l24.4,68.1
		c1.3,3.8-0.6,7.9-4.4,9.3L146.3,97c0,0,1.9,11.4,11.2,16.4c9.3,5-18.3,11.7-33.4-8.4l-25.9,9.3C94.5,115.6,91.3,115.4,89.9,111.7z"
		/>
	<path class="st12" d="M36.7,11.5c0.8-0.9,2.1-0.9,2.9-0.2l6,5.4c0.9,0.8,0.9,2.1,0.2,2.9c-0.8,0.9-2.1,0.9-2.9,0.2l-6-5.4
		C36,13.7,35.9,12.4,36.7,11.5z"/>
	<path class="st12" d="M62.2,2.2c-0.1-1.1,0.8-2.1,2-2.2c1.1-0.1,2.1,0.8,2.2,2l0.4,8c0.1,1.1-0.8,2.1-2,2.2c-1.1,0.1-2.1-0.8-2.2-2
		L62.2,2.2z"/>
	<path class="st12" d="M30.2,37.9l8-0.4c1.1-0.1,2.1,0.8,2.2,2c0.1,1.1-0.8,2.1-2,2.2l-8,0.4c-1.1,0.1-2.1-0.8-2.2-2
		C28.2,38.9,29,37.9,30.2,37.9z"/>
	<text transform="matrix(0.9467 -0.3222 0.3222 0.9467 111.2502 95.7816)" class="st7 st20 st21">?</text>
	<g>
		<path class="st8" d="M118.4,70.3l-0.8-2.4c-0.4-1.1-0.6-2.2-0.7-3.1c-0.1-1,0-2,0.2-2.9c0.2-1,0.5-2,1-3c0.5-1,1.1-2.1,1.9-3.3
			c0.7-1,1.2-1.9,1.7-2.7c0.4-0.8,0.8-1.5,1-2.2c0.2-0.7,0.3-1.4,0.3-2c0-0.7-0.2-1.4-0.5-2.2c-0.4-1.2-1.2-2.1-2.3-2.7
			c-1.1-0.5-2.5-0.5-4.3,0.1c-1.5,0.5-3,1.4-4.5,2.6c-1.5,1.2-3.1,2.6-4.6,4.2l-5.8-6.1c0.8-0.9,1.6-1.7,2.5-2.6
			c0.9-0.9,1.9-1.7,3-2.5c1.1-0.8,2.2-1.5,3.3-2.1c1.1-0.6,2.3-1.2,3.5-1.6c2.2-0.8,4.3-1.2,6.3-1.2c2-0.1,3.8,0.2,5.4,0.8
			c1.6,0.6,3,1.5,4.1,2.8c1.2,1.2,2.1,2.8,2.7,4.7c0.5,1.4,0.7,2.7,0.8,3.8c0.1,1.2,0,2.3-0.3,3.5c-0.3,1.1-0.7,2.3-1.3,3.5
			c-0.6,1.2-1.4,2.4-2.2,3.8c-0.7,1-1.2,1.9-1.6,2.6c-0.4,0.7-0.7,1.4-0.8,2c-0.2,0.6-0.2,1.2-0.2,1.7c0.1,0.6,0.2,1.2,0.4,1.9
			l0.7,2L118.4,70.3z M121.1,81.9c-0.3-1-0.5-1.9-0.4-2.8c0.1-0.8,0.3-1.5,0.6-2.1c0.4-0.6,0.9-1.1,1.5-1.6c0.6-0.4,1.4-0.8,2.2-1.1
			c0.8-0.3,1.5-0.4,2.3-0.4c0.8,0,1.5,0.1,2.1,0.3c0.7,0.3,1.3,0.7,1.8,1.3c0.5,0.6,1,1.4,1.3,2.4c0.3,1,0.5,1.9,0.4,2.7
			c-0.1,0.8-0.3,1.5-0.7,2.2c-0.4,0.6-0.9,1.2-1.5,1.6c-0.6,0.4-1.3,0.8-2.1,1.1c-0.8,0.3-1.6,0.4-2.4,0.5s-1.5-0.1-2.2-0.4
			s-1.3-0.7-1.8-1.3C121.9,83.7,121.5,82.9,121.1,81.9z"/>
	</g>
</g>
</svg>
