<svg xmlns="http://www.w3.org/2000/svg" viewBox="0 0 231.2 249.76"><title>user</title><path d="M73.14,209.15a12.51,12.51,0,0,0-24.6,3.51h0a7.89,7.89,0,0,0,0,15.79H71.05A9.76,9.76,0,0,0,73.14,209.15Z" fill="none" opacity="0.1"/><circle cx="115.61" cy="134" r="104.17" fill="#5d2e66" opacity="0.1"/><circle cx="115.6" cy="134.16" r="115.6" fill="#5d2e66" opacity="0.05"/><rect x="28.12" y="56.36" width="174.99" height="180.9" rx="12.09" ry="12.09" fill="#fff" stroke="#5d2e66" stroke-miterlimit="10" stroke-width="3"/><g opacity="0.2"><ellipse cx="74.96" cy="88.92" rx="34.33" ry="30.45" fill="none" stroke="#7e3d8e" stroke-miterlimit="10" stroke-width="3" stroke-dasharray="14.55 14.55"/></g><path d="M47.15,75.3C47.15,60.41,59.6,42.06,75,42.06s27.81,18.35,27.81,33.24c0,27.09-17.17,32.26-27.66,32.26S47.15,103,47.15,75.3Z" fill="#f2f2f2" stroke="#5d2e66" stroke-miterlimit="10" stroke-width="3"/><path d="M60.26,79.93s0.51-6.57,5.4-6.57,5.7,6.57,5.7,6.57" fill="none" stroke="#5d2e66" stroke-linecap="round" stroke-miterlimit="10" stroke-width="3"/><path d="M80.4,79.93s0.51-6.57,5.4-6.57,5.7,6.57,5.7,6.57" fill="none" stroke="#5d2e66" stroke-linecap="round" stroke-miterlimit="10" stroke-width="3"/><rect x="66.46" y="137.37" width="122.25" height="11.25" rx="3.61" ry="3.61" fill="#5d2e66" stroke="#5d2e66" stroke-miterlimit="10" stroke-width="3" opacity="0.1"/><path d="M62.44,91.65s-0.54,4.92,6.12,7,13.79-.4,13.79-0.4,6.57-2.7,6.57-6.72c0-.44-5.38-1.27-13-1.27A62.75,62.75,0,0,0,62.44,91.65Z" fill="#5d2e66" opacity="0.05"/><path d="M82.77,97.91c0,1-3.68,2.42-7.29,2.49s-6.89-1.15-6.89-2.14c0-2,3.3-3.42,7.17-3.42S82.77,95.88,82.77,97.91Z" fill="#ffa631" stroke="#5d2e66" stroke-miterlimit="10" stroke-width="3"/><path d="M88.92,91.5c1.82,1.82-5,9.17-13.69,9.17S61,93.07,62.55,91.5,87.1,89.68,88.92,91.5Z" fill="none" stroke="#5d2e66" stroke-miterlimit="10" stroke-width="3"/><path d="M55.86,57.79c1.12-1.12,28.93,25,55.46-1.49,4-6.63-7.26-5-7.26-5s-5.37-14-27.1-15.72-23,14.12-23,14.12S48.41,47.86,43,53.28c-7.83,6.75-.31,21.09,4.15,21.09s9.05-7.43,8.71-16.58" fill="#ffe576" stroke="#5d2e66" stroke-miterlimit="10" stroke-width="3"/><rect x="131.99" y="80.57" width="56.71" height="3.29" rx="1.55" ry="1.55" fill="#7e3d8e" opacity="0.5"/><rect x="131.99" y="90.88" width="56.71" height="3.29" rx="1.55" ry="1.55" fill="#7e3d8e" opacity="0.5"/><path d="M74.08,0a2.72,2.72,0,0,0-2.72,2.72V13.23a2.72,2.72,0,0,0,5.43,0V2.72A2.72,2.72,0,0,0,74.08,0Z" fill="#7e3d8e" opacity="0.5"/><path d="M42.66,16.74a2.72,2.72,0,0,0-3.84,3.84L46.25,28a2.72,2.72,0,0,0,3.84-3.84Z" fill="#7e3d8e" opacity="0.5"/><path d="M105.5,16.74l-7.43,7.43A2.72,2.72,0,0,0,101.91,28l7.43-7.43A2.72,2.72,0,0,0,105.5,16.74Z" fill="#7e3d8e" opacity="0.5"/><rect x="42.52" y="137.06" width="13.7" height="11.87" rx="1.24" ry="1.24" fill="#fff" stroke="#5d2e66" stroke-miterlimit="10" stroke-width="3"/><rect x="66.46" y="157.52" width="122.25" height="11.25" rx="3.61" ry="3.61" fill="#5d2e66" stroke="#5d2e66" stroke-miterlimit="10" stroke-width="3" opacity="0.1"/><rect x="42.52" y="157.21" width="13.7" height="11.87" rx="1.24" ry="1.24" fill="#fff" stroke="#5d2e66" stroke-miterlimit="10" stroke-width="3"/><rect x="66.46" y="178.2" width="122.25" height="11.25" rx="3.61" ry="3.61" fill="#5d2e66" stroke="#5d2e66" stroke-miterlimit="10" stroke-width="3" opacity="0.1"/><rect x="42.52" y="177.89" width="13.7" height="11.87" rx="1.24" ry="1.24" fill="#fff" stroke="#5d2e66" stroke-miterlimit="10" stroke-width="3"/><path d="M75,209a12.51,12.51,0,0,0-24.6,3.51h0a7.89,7.89,0,0,0,0,15.79H72.95A9.76,9.76,0,0,0,75,209Z" fill="#5d2e66" opacity="0.1"/><path d="M75,209a12.51,12.51,0,0,0-24.6,3.51h0a7.89,7.89,0,0,0,0,15.79H72.95A9.76,9.76,0,0,0,75,209Z" fill="none" stroke="#5d2e66" stroke-miterlimit="10" stroke-width="3"/><rect x="131.13" y="208.56" width="56.71" height="3.29" rx="1.55" ry="1.55" fill="#7e3d8e" opacity="0.5"/><rect x="131.13" y="218.87" width="56.71" height="3.29" rx="1.55" ry="1.55" fill="#7e3d8e" opacity="0.5"/><polyline points="46.52 141.96 49.69 145.06 57.78 136.96" fill="none" stroke="#a054b2" stroke-linecap="round" stroke-linejoin="round" stroke-width="3"/><polyline points="46.52 182.35 49.69 185.45 57.78 177.35" fill="none" stroke="#a054b2" stroke-linecap="round" stroke-linejoin="round" stroke-width="3"/></svg>