<svg xmlns="http://www.w3.org/2000/svg" viewBox="0 0 641.12 292.79"><title>tutorial-header</title><g opacity="0.05"><circle cx="215.97" cy="213.04" r="79.75" fill="#5d2e66"/></g><g opacity="0.1"><circle cx="216.42" cy="212.93" r="71.87" fill="#5d2e66"/></g><g opacity="0.05"><circle cx="433.02" cy="213.04" r="79.75" fill="#5d2e66"/></g><g opacity="0.1"><circle cx="433.47" cy="212.93" r="71.87" fill="#5d2e66"/></g><path d="M448.45,491.16c0-21.26,17.78-47.46,39.71-47.46s39.71,26.21,39.71,47.46c0,38.68-24.52,46.06-39.5,46.06S448.45,530.79,448.45,491.16Z" transform="translate(-274.81 -275.35)" fill="#f2f2f2"/><path d="M488.38,538.73c-12.45,0-41.42-4.63-41.42-47.56,0-22.18,18.38-49,41.21-49,10.65,0,21,5.8,29.26,16.34,7.48,9.59,11.95,21.78,11.95,32.63,0,17.54-4.94,30.56-14.67,38.69C505.45,537.57,494.24,538.73,488.38,538.73Zm-0.21-93.53c-20.58,0-38.21,25.27-38.21,46,0,38.77,24.07,44.56,38.42,44.56,11.43,0,38-4.34,38-44.56C526.38,470.47,508.74,445.2,488.17,445.2Z" transform="translate(-274.81 -275.35)" fill="#5d2e66"/><path d="M483,499.28a1.5,1.5,0,0,1-1.49-1.32c0-.33-1.09-8.07-6.66-8.07s-6.21,7.92-6.21,8a1.48,1.48,0,0,1-1.61,1.38,1.5,1.5,0,0,1-1.38-1.61c0.29-3.72,2.58-10.77,9.21-10.77s9.18,7,9.63,10.7a1.5,1.5,0,0,1-1.3,1.67H483Z" transform="translate(-274.81 -275.35)" fill="#5d2e66"/><path d="M511.79,499.28A1.5,1.5,0,0,1,510.3,498c0-.33-1.09-8.07-6.66-8.07s-6.21,7.92-6.21,8a1.48,1.48,0,0,1-1.61,1.38,1.5,1.5,0,0,1-1.38-1.61c0.29-3.72,2.58-10.77,9.21-10.77s9.18,7,9.63,10.7a1.5,1.5,0,0,1-1.3,1.67h-0.19Z" transform="translate(-274.81 -275.35)" fill="#5d2e66"/><path d="M460.89,466.17c1.59-1.59,41.31,35.76,79.19-2.12,5.71-9.47-10.37-7.1-10.37-7.1s-7.67-20-38.7-22.45-32.9,20.17-32.9,20.17-7.87-2.66-15.59,5.06c-11.19,9.63-.45,30.12,5.93,30.12s12.93-10.61,12.44-23.67" transform="translate(-274.81 -275.35)" fill="#ffe576"/><path d="M448.45,491.34c-4.18,0-8.51-5.77-10.62-11.46-3.18-8.56-1.81-16.5,3.67-21.25,6.19-6.16,12.48-6.19,15.41-5.76,1.21-5.42,7.14-22,34.23-19.87,27.78,2.19,37.36,18,39.5,22.32,2.87-.3,9.27-0.55,11.46,2.74,1.17,1.76.93,4-.72,6.76l-0.22.29c-32.28,32.28-66,11.25-77.12,4.34l-1.62-1c-0.19,7.8-2.75,15.09-6.92,19.42C453.3,490.14,450.87,491.34,448.45,491.34Zm6.26-35.64c-2.69,0-6.9.85-11.13,5.08l-0.08.08c-6.7,5.77-3.88,15.22-2.86,18,2.11,5.69,5.74,9.51,7.81,9.51a7.07,7.07,0,0,0,4.87-2.55c4-4.13,6.36-11.81,6.07-19.57l0-.65,0.46-.46c1.11-1.11,2.29-.38,5.78,1.79,42.57,26.52,65.58,3.91,73.28-3.79,0.65-1.12,1.26-2.56.7-3.4-1.12-1.69-6.43-1.77-9.66-1.29l-1.19.17-0.43-1.12c-0.3-.78-7.79-19.16-37.42-21.49-29.08-2.29-31.21,17.94-31.29,18.8l-0.17,1.9-1.81-.61A10.07,10.07,0,0,0,454.71,455.7Z" transform="translate(-274.81 -275.35)" fill="#5d2e66"/><path d="M668.45,484.71c0-22.39,17.61-39.93,39.34-39.93s39.34,17.54,39.34,39.93c0,40.74-24.3,48.52-39.14,48.52S668.45,526.45,668.45,484.71Z" transform="translate(-274.81 -275.35)" fill="#f2f2f2"/><path d="M708,534.73c-12.34,0-41.05-4.87-41.05-50,0-23.23,17.94-41.43,40.84-41.43s40.84,18.2,40.84,41.43c0,18.44-4.88,32.12-14.51,40.66C725,533.52,713.82,534.73,708,534.73Zm-0.21-88.46c-21.22,0-37.84,16.88-37.84,38.43,0,40.92,23.84,47,38.05,47,11.32,0,37.64-4.58,37.64-47C745.64,463.16,729,446.28,707.79,446.28Z" transform="translate(-274.81 -275.35)" fill="#5d2e66"/><path d="M709.17,500.87c9.85-.37,21.11,10.74,26.81,10.41s4.64-9.49,10.19-19.86c4.5,4.56,16.21,51.91-36.48,51.91s-44.33-49.41-40.29-51.91c2.06,2.06,5.36,19.86,13.7,19.86S699.32,501.23,709.17,500.87Z" transform="translate(-274.81 -275.35)" fill="#f7934f"/><path d="M709.68,544.82c-29.29,0-39.64-14.76-43.17-27.15-3.61-12.66-.73-25.79,2.09-27.54l1-.63,0.84,0.84c0.78,0.78,1.39,2.36,2.48,5.31,2,5.28,5.23,14.11,10.16,14.11,3.64,0,7.39-2.26,11.37-4.65,4.53-2.73,9.22-5.55,14.65-5.75h0c6-.23,12.13,3.3,17.55,6.41,3.59,2.06,7,4,9,4h0.18c2.29-.14,3.08-2.5,4.5-7.39a57.92,57.92,0,0,1,4.45-11.68l1-1.79,1.43,1.45c2.83,2.87,8,19.47,2,34C745.3,533.67,735.27,544.82,709.68,544.82ZM669.29,494.5c-1.44,4.33-2.8,15.27,1.17,25.53,7,18,25.18,21.79,39.22,21.79,19.22,0,31.58-6.28,36.76-18.66,4.58-10.95,2.05-23.52-.15-28.62a64.54,64.54,0,0,0-3,8.68c-1.51,5.19-2.7,9.28-7.21,9.55-3,.17-6.62-1.94-10.89-4.39-5.08-2.91-10.83-6.2-15.95-6h0c-4.66.17-9,2.79-13.22,5.32s-8.44,5.08-12.91,5.08c-7,0-10.6-9.67-13-16.07C669.86,496,669.56,495.21,669.29,494.5Z" transform="translate(-274.81 -275.35)" fill="#5d2e66"/><path d="M696.5,488a1.5,1.5,0,0,1-1.49-1.32c0-.28-1-7-5.76-7s-5.36,6.9-5.37,7a1.5,1.5,0,0,1-3-.23c0.26-3.37,2.34-9.74,8.36-9.74s8.33,6.32,8.74,9.67a1.5,1.5,0,0,1-1.3,1.67H696.5Z" transform="translate(-274.81 -275.35)" fill="#5d2e66"/><path d="M733.12,488a1.5,1.5,0,0,1-1.49-1.32c0-.28-1-7-5.76-7s-5.36,6.9-5.37,7a1.5,1.5,0,0,1-3-.23c0.26-3.37,2.34-9.74,8.36-9.74s8.33,6.32,8.74,9.67a1.5,1.5,0,0,1-1.3,1.67h-0.19Z" transform="translate(-274.81 -275.35)" fill="#5d2e66"/><rect x="383.3" y="197.18" width="11.28" height="20.54" rx="5.64" ry="5.64" fill="#a054b2"/><path d="M663.75,494.58a7.15,7.15,0,0,1-7.14-7.14v-9.26a7.14,7.14,0,1,1,14.28,0v9.26A7.15,7.15,0,0,1,663.75,494.58Zm0-20.54a4.15,4.15,0,0,0-4.14,4.14v9.26a4.14,4.14,0,1,0,8.28,0v-9.26A4.15,4.15,0,0,0,663.75,474Z" transform="translate(-274.81 -275.35)" fill="#5d2e66"/><rect x="471.35" y="197.18" width="11.28" height="20.54" rx="5.64" ry="5.64" fill="#a054b2"/><path d="M751.8,494.58a7.15,7.15,0,0,1-7.14-7.14v-9.26a7.14,7.14,0,1,1,14.29,0v9.26A7.15,7.15,0,0,1,751.8,494.58Zm0-20.54a4.15,4.15,0,0,0-4.14,4.14v9.26a4.14,4.14,0,0,0,8.29,0v-9.26A4.15,4.15,0,0,0,751.8,474Z" transform="translate(-274.81 -275.35)" fill="#5d2e66"/><path d="M700.93,494.58H678a6.91,6.91,0,0,1-6.9-6.9v-9.75A6.91,6.91,0,0,1,678,471h22.88a6.91,6.91,0,0,1,6.9,6.9v9.75A6.91,6.91,0,0,1,700.93,494.58ZM678,474a3.9,3.9,0,0,0-3.9,3.9v9.75a3.9,3.9,0,0,0,3.9,3.9h22.88a3.9,3.9,0,0,0,3.9-3.9v-9.75a3.9,3.9,0,0,0-3.9-3.9H678Z" transform="translate(-274.81 -275.35)" fill="#5d2e66"/><path d="M738,494.58h-22.8a6.9,6.9,0,0,1-6.89-6.89v-9.76a6.9,6.9,0,0,1,6.89-6.89H738a6.9,6.9,0,0,1,6.89,6.89v9.76A6.9,6.9,0,0,1,738,494.58ZM715.24,474a3.89,3.89,0,0,0-3.89,3.89v9.76a3.89,3.89,0,0,0,3.89,3.89H738a3.89,3.89,0,0,0,3.89-3.89v-9.76A3.89,3.89,0,0,0,738,474h-22.8Z" transform="translate(-274.81 -275.35)" fill="#5d2e66"/><path d="M750.3,472.59c-0.05-1.56-1.81-38.27-43-38.27-17.33,0-29.66,6.42-36.66,19.09a45.14,45.14,0,0,0-5.38,19.15l-3,0c0-.41.87-41.21,45-41.21s46,40.76,46,41.17Z" transform="translate(-274.81 -275.35)" fill="#5d2e66"/><rect x="421.07" y="175.28" width="4.1" height="4.1" rx="2.05" ry="2.05" fill="#fff"/><path d="M684.81,466.6a17.27,17.27,0,0,1,8.22-8,3.1,3.1,0,0,0,2.1-3.69c-0.4-1.41-2.18-2.72-3.69-2.1a23.45,23.45,0,0,0-11.81,10.77c-1.75,3.43,3.42,6.47,5.18,3h0Z" transform="translate(-274.81 -275.35)" fill="#fff"/><path d="M292.52,404.76l-16-73.9a7.62,7.62,0,0,1,5.82-9l119.74-26a7.62,7.62,0,0,1,9,5.82l16,73.9a7.62,7.62,0,0,1-5.82,9l-22.42,4.8s0.42,12.06,9.43,18.48-20.54,9.63-33.5-13.19l-73.25,15.89A7.62,7.62,0,0,1,292.52,404.76Z" transform="translate(-274.81 -275.35)" fill="#fff"/><path d="M403.76,414.09c-8.71,0-22-5.06-29.69-17.71L301.88,412a9.12,9.12,0,0,1-10.82-7h0l-16-73.9a9.11,9.11,0,0,1,7-10.82l119.74-26a9.12,9.12,0,0,1,10.82,7l16,73.9a9.12,9.12,0,0,1-7,10.82l-21.12,4.52c0.39,3.11,2,11.33,8.68,16.07,2.29,1.63,2.47,3.16,2.23,4.15s-1.38,2.61-5,3.11A19.22,19.22,0,0,1,403.76,414.09Zm-29-20.91a1.5,1.5,0,0,1,1.3.76c7.64,13.45,20.94,17.1,27.6,17.14,3.14,0,4.48-.7,4.75-1a3.13,3.13,0,0,0-1-1c-9.5-6.78-10-19.13-10.06-19.65a1.5,1.5,0,0,1,1.19-1.52l22.42-4.8a6.12,6.12,0,0,0,4.67-7.26l-16-73.9a6.12,6.12,0,0,0-7.26-4.67l-119.74,26a6.11,6.11,0,0,0-4.67,7.26l16,73.9a6.12,6.12,0,0,0,7.26,4.67l73.25-15.89A1.51,1.51,0,0,1,374.81,393.18Z" transform="translate(-274.81 -275.35)" fill="#5d2e66"/><g opacity="0.1"><path d="M420.07,328l-87.13,18.34a3.91,3.91,0,0,1-4.62-3L326.58,335a3.91,3.91,0,0,1,3-4.62l87.13-18.34C418.82,311.63,422.17,327.54,420.07,328Z" transform="translate(-274.81 -275.35)" fill="#5d2e66"/></g><rect x="331.09" y="313.05" width="112.59" height="16.26" rx="4.2" ry="4.2" transform="translate(-332.65 -188.69) rotate(-11.88)" fill="#709dc9"/><path d="M337.22,341.46a5.73,5.73,0,0,1-5.58-4.53L330,329.24a5.71,5.71,0,0,1,4.41-6.76L436.38,301a5.72,5.72,0,0,1,6.76,4.41l1.62,7.68a5.71,5.71,0,0,1-4.41,6.76L338.39,341.33A5.72,5.72,0,0,1,337.22,341.46Zm100.33-37.55a2.71,2.71,0,0,0-.56.06L335,325.42a2.71,2.71,0,0,0-2.09,3.2l1.62,7.68a2.72,2.72,0,0,0,3.2,2.09l101.95-21.46a2.71,2.71,0,0,0,2.09-3.2l-1.62-7.68A2.72,2.72,0,0,0,437.55,303.91Z" transform="translate(-274.81 -275.35)" fill="#5d2e66"/><g opacity="0.1"><rect x="294.89" y="334.72" width="19.81" height="17.16" rx="1.8" ry="1.8" transform="translate(-338.98 -205.22) rotate(-11.88)" fill="#5d2e66"/></g><rect x="298.38" y="329.25" width="19.81" height="17.16" rx="1.8" ry="1.8" transform="translate(-337.78 -204.62) rotate(-11.88)" fill="#fff"/><path d="M301.74,349.44a3.31,3.31,0,0,1-3.22-2.62l-2.79-13.28a3.3,3.3,0,0,1,2.55-3.9l15.87-3.34a3.3,3.3,0,0,1,3.9,2.55l2.8,13.28a3.3,3.3,0,0,1-2.55,3.9l-15.87,3.34A3.31,3.31,0,0,1,301.74,349.44Zm13.07-20.21h-0.06l-15.87,3.34a0.3,0.3,0,0,0-.23.35l2.79,13.28a0.29,0.29,0,0,0,.13.19,0.29,0.29,0,0,0,.22,0l15.87-3.34a0.3,0.3,0,0,0,.23-0.35l-2.8-13.28a0.29,0.29,0,0,0-.13-0.19A0.3,0.3,0,0,0,314.81,329.22Z" transform="translate(-274.81 -275.35)" fill="#5d2e66"/><rect x="323.05" y="345.08" width="86.08" height="12.43" rx="3.21" ry="3.21" transform="translate(-339.31 -192.43) rotate(-11.88)" fill="#f2f2f2"/><path d="M327.73,367.15a4.73,4.73,0,0,1-4.61-3.74l-1.24-5.87a4.72,4.72,0,0,1,3.64-5.58l77.95-16.4a4.72,4.72,0,0,1,5.58,3.64l1.24,5.87a4.72,4.72,0,0,1-3.64,5.58l-77.95,16.4A4.73,4.73,0,0,1,327.73,367.15Zm76.72-28.71a1.72,1.72,0,0,0-.35,0l-77.95,16.4a1.72,1.72,0,0,0-1.33,2l1.24,5.87a1.72,1.72,0,0,0,2,1.33L406,347.71a1.72,1.72,0,0,0,1.33-2l-1.24-5.87A1.72,1.72,0,0,0,404.44,338.45Z" transform="translate(-274.81 -275.35)" fill="#5d2e66"/><rect x="298.03" y="357.47" width="15.14" height="13.12" rx="1.37" ry="1.37" transform="translate(-343.23 -204.61) rotate(-11.88)" fill="#fff"/><path d="M300.6,373.26A2.88,2.88,0,0,1,297.8,371l-2.14-10.15a2.88,2.88,0,0,1,2.22-3.4L310,354.86a2.88,2.88,0,0,1,3.4,2.22l2.14,10.16a2.88,2.88,0,0,1-2.22,3.4l-12.13,2.55A2.9,2.9,0,0,1,300.6,373.26Zm-2-12.93,2.08,9.91,11.88-2.5-2.08-9.91Z" transform="translate(-274.81 -275.35)" fill="#5d2e66"/><rect x="327.75" y="367.46" width="86.08" height="12.43" rx="3.21" ry="3.21" transform="translate(-343.82 -190.98) rotate(-11.88)" fill="#f2f2f2"/><path d="M332.44,389.53a4.72,4.72,0,0,1-4.61-3.74l-1.24-5.87a4.72,4.72,0,0,1,3.64-5.58l77.95-16.4a4.72,4.72,0,0,1,5.58,3.64l1.24,5.87a4.72,4.72,0,0,1-3.64,5.58l-77.95,16.4A4.71,4.71,0,0,1,332.44,389.53Zm76.71-28.71a1.71,1.71,0,0,0-.35,0l-77.95,16.4a1.72,1.72,0,0,0-1.33,2l1.24,5.87a1.72,1.72,0,0,0,2,1.32l77.95-16.4a1.72,1.72,0,0,0,1.33-2l-1.24-5.87A1.73,1.73,0,0,0,409.15,360.82Z" transform="translate(-274.81 -275.35)" fill="#5d2e66"/><rect x="302.74" y="379.84" width="15.14" height="13.12" rx="1.37" ry="1.37" transform="translate(-347.74 -203.16) rotate(-11.88)" fill="#fff"/><path d="M305.31,395.63a2.88,2.88,0,0,1-2.81-2.28l-2.14-10.15a2.88,2.88,0,0,1,2.22-3.4l12.13-2.55a2.87,2.87,0,0,1,3.4,2.22l2.14,10.15A2.88,2.88,0,0,1,318,393l-12.13,2.55A2.87,2.87,0,0,1,305.31,395.63Zm-2-12.93,2.09,9.91,11.88-2.5-2.08-9.91Z" transform="translate(-274.81 -275.35)" fill="#5d2e66"/><path d="M309.33,341.62a1.5,1.5,0,0,1-.8-0.23L303.14,338a1.5,1.5,0,1,1,1.61-2.53l4.14,2.64,8.23-12.62a1.5,1.5,0,0,1,2.51,1.64l-9,13.86A1.5,1.5,0,0,1,309.33,341.62Z" transform="translate(-274.81 -275.35)" fill="#a054b2"/><polygon points="157.57 39.87 165.99 57.84 169.69 52.9 174.58 56.55 178.19 51.71 173.3 48.06 177.2 42.84 157.57 39.87" fill="#fff"/><path d="M440.8,334.7h-0.15a1.5,1.5,0,0,1-1.21-.86l-8.42-18a1.5,1.5,0,0,1,1.58-2.12l19.62,3a1.5,1.5,0,0,1,1,2.38l-3,4,3.69,2.76a1.5,1.5,0,0,1,.3,2.1l-3.61,4.84a1.5,1.5,0,0,1-2.1.3l-3.69-2.76L442,334.1A1.5,1.5,0,0,1,440.8,334.7Zm-5.87-17.57,6.17,13.17,2.2-2.94a1.5,1.5,0,0,1,2.1-.3l3.69,2.76,1.82-2.43-3.69-2.76a1.5,1.5,0,0,1-.3-2.1l2.4-3.22Z" transform="translate(-274.81 -275.35)" fill="#5d2e66"/><path d="M854.24,409.82l23.66-69.24c1.35-3.77.56-8.8-3.21-10.15L806.46,306a7.29,7.29,0,0,0-9.3,4.4l-24.37,68.1a7.29,7.29,0,0,0,4.4,9.3l20.67,7.33s-1.89,11.38-11.23,16.36,18.29,11.68,33.41-8.36l25.9,9.27C849.69,413.75,852.89,413.59,854.24,409.82Z" transform="translate(-274.81 -275.35)" fill="#fff"/><path d="M793.4,418.19a22.22,22.22,0,0,1-5.73-.67c-3.43-.94-4.3-2.49-4.42-3.63s0.26-2.45,2.66-3.73c6.85-3.65,9.42-11.14,10.18-14.07l-19.41-6.88A8.78,8.78,0,0,1,771.37,378l24.37-68.1A8.79,8.79,0,0,1,807,304.6L875.2,329c4.62,1.65,5.73,7.55,4.12,12.06l-23.65,69.22v0a6,6,0,0,1-4.31,4.16,10.45,10.45,0,0,1-5.92-.67l-24.88-8.9a35.43,35.43,0,0,1-17.26,11.75A33.81,33.81,0,0,1,793.4,418.19Zm-7.13-4.61c0.33,0.4,1.78,1.19,4.73,1.5a32.27,32.27,0,0,0,27.83-12.85,1.5,1.5,0,0,1,1.7-.51l25.9,9.27a7.8,7.8,0,0,0,4.21.58,3,3,0,0,0,2.18-2.25l23.66-69.23c1.14-3.19.49-7.25-2.3-8.25L806,307.42a5.79,5.79,0,0,0-7.38,3.49L774.2,379a5.78,5.78,0,0,0,3.49,7.38l20.66,7.33a1.5,1.5,0,0,1,1,1.66c-0.08.49-2.13,12.17-12,17.44A3.2,3.2,0,0,0,786.27,413.59Z" transform="translate(-274.81 -275.35)" fill="#5d2e66"/><g opacity="0.1"><path d="M805.55,380.91a7.17,7.17,0,0,1,1.33-2.45,4.63,4.63,0,0,1,1.81-1.3,5.18,5.18,0,0,1,2.18-.32,9,9,0,0,1,2.38.48,8.32,8.32,0,0,1,2.08,1,5.2,5.2,0,0,1,1.49,1.57,4.78,4.78,0,0,1,.66,2.14,7,7,0,0,1-.43,2.76,6.63,6.63,0,0,1-1.32,2.36,5,5,0,0,1-4,1.69,8,8,0,0,1-2.28-.43,8.52,8.52,0,0,1-2.17-1.09,5.1,5.1,0,0,1-1.51-1.63,5,5,0,0,1-.63-2.16A6.82,6.82,0,0,1,805.55,380.91Zm4.91-10.83,0.83-2.42a13,13,0,0,1,1.38-2.91,10.78,10.78,0,0,1,1.93-2.23,13.09,13.09,0,0,1,2.63-1.77,28.08,28.08,0,0,1,3.51-1.49q1.74-.61,3-1.14a10.78,10.78,0,0,0,2.11-1.16,6.1,6.1,0,0,0,1.45-1.46,8.22,8.22,0,0,0,1-2,4.32,4.32,0,0,0-.21-3.51,5.68,5.68,0,0,0-3.43-2.53,15,15,0,0,0-5.19-.71,56.93,56.93,0,0,0-6.18.48l-0.87-8.38a33.83,33.83,0,0,1,3.59-.51,35.94,35.94,0,0,1,3.89-.13,29.44,29.44,0,0,1,3.93.34,21.7,21.7,0,0,1,3.71.9,22.24,22.24,0,0,1,5.75,2.86,13.59,13.59,0,0,1,3.75,3.9,10.93,10.93,0,0,1,1.59,4.71,12.68,12.68,0,0,1-.71,5.35,14.32,14.32,0,0,1-1.72,3.53,11.69,11.69,0,0,1-2.39,2.55,15.82,15.82,0,0,1-3.18,1.91q-1.8.83-4.09,1.65-1.74.61-2.89,1.12a9.67,9.67,0,0,0-1.88,1.06,4.7,4.7,0,0,0-1.18,1.26,8.54,8.54,0,0,0-.8,1.76l-0.67,2Z" transform="translate(-274.81 -275.35)" fill="#5d2e66"/></g><path d="M812.36,377.85a7.19,7.19,0,0,1,1.33-2.45,4.63,4.63,0,0,1,1.82-1.3,5.16,5.16,0,0,1,2.17-.32,9,9,0,0,1,2.38.48,8.35,8.35,0,0,1,2.08,1,5.19,5.19,0,0,1,1.49,1.57,4.79,4.79,0,0,1,.66,2.14,6.94,6.94,0,0,1-.43,2.76,6.61,6.61,0,0,1-1.32,2.37,5,5,0,0,1-4,1.69,7.93,7.93,0,0,1-2.28-.43,8.54,8.54,0,0,1-2.17-1.09,5.1,5.1,0,0,1-1.51-1.63,5,5,0,0,1-.63-2.16A6.85,6.85,0,0,1,812.36,377.85ZM817.27,367l0.83-2.42a13.07,13.07,0,0,1,1.38-2.91,10.75,10.75,0,0,1,1.93-2.23,13,13,0,0,1,2.63-1.77,28.08,28.08,0,0,1,3.51-1.49q1.74-.61,3-1.14a10.77,10.77,0,0,0,2.12-1.16,6.11,6.11,0,0,0,1.45-1.46,8.23,8.23,0,0,0,1-2,4.31,4.31,0,0,0-.21-3.51,5.68,5.68,0,0,0-3.43-2.53,15,15,0,0,0-5.19-.71,56.8,56.8,0,0,0-6.18.48l-0.87-8.38a33.6,33.6,0,0,1,3.59-.51,35.68,35.68,0,0,1,3.89-.13,29.36,29.36,0,0,1,3.93.34,21.65,21.65,0,0,1,3.71.9,22.22,22.22,0,0,1,5.75,2.86,13.58,13.58,0,0,1,3.75,3.9,10.93,10.93,0,0,1,1.59,4.71,12.68,12.68,0,0,1-.71,5.35A14.31,14.31,0,0,1,843,356.7a11.68,11.68,0,0,1-2.39,2.55,15.85,15.85,0,0,1-3.18,1.91q-1.8.83-4.1,1.65-1.74.61-2.89,1.12a9.68,9.68,0,0,0-1.88,1.06,4.66,4.66,0,0,0-1.18,1.26,8.46,8.46,0,0,0-.8,1.76l-0.67,2Z" transform="translate(-274.81 -275.35)" fill="#f2f2f2" stroke="#5d2e66" stroke-miterlimit="10" stroke-width="3"/><path d="M812.69,378.05A7.18,7.18,0,0,1,814,375.6a4.63,4.63,0,0,1,1.82-1.3A5.17,5.17,0,0,1,818,374a9,9,0,0,1,2.38.48,8.32,8.32,0,0,1,2.08,1,5.17,5.17,0,0,1,1.49,1.57,4.79,4.79,0,0,1,.66,2.14,7,7,0,0,1-.43,2.76,6.61,6.61,0,0,1-1.32,2.36,5,5,0,0,1-4,1.69,8,8,0,0,1-2.28-.43,8.54,8.54,0,0,1-2.17-1.09,5.1,5.1,0,0,1-1.51-1.63,5,5,0,0,1-.63-2.16A6.85,6.85,0,0,1,812.69,378.05Zm4.91-10.83,0.83-2.42a13.07,13.07,0,0,1,1.38-2.91,10.75,10.75,0,0,1,1.93-2.23,13,13,0,0,1,2.63-1.77,28,28,0,0,1,3.51-1.49q1.74-.61,3-1.14A10.76,10.76,0,0,0,833,354.1a6.14,6.14,0,0,0,1.45-1.46,8.22,8.22,0,0,0,1-2,4.32,4.32,0,0,0-.21-3.51,5.68,5.68,0,0,0-3.43-2.53,15,15,0,0,0-5.19-.71,56.93,56.93,0,0,0-6.18.48L819.54,336a33.85,33.85,0,0,1,3.59-.51,35.79,35.79,0,0,1,3.89-.13,29.41,29.41,0,0,1,3.93.34,21.69,21.69,0,0,1,3.71.9,22.23,22.23,0,0,1,5.75,2.86,13.58,13.58,0,0,1,3.75,3.9,10.93,10.93,0,0,1,1.59,4.71,12.67,12.67,0,0,1-.71,5.35,14.28,14.28,0,0,1-1.72,3.53,11.67,11.67,0,0,1-2.39,2.55,15.84,15.84,0,0,1-3.18,1.91q-1.8.83-4.1,1.65-1.74.61-2.89,1.12a9.72,9.72,0,0,0-1.88,1.06,4.68,4.68,0,0,0-1.18,1.26,8.49,8.49,0,0,0-.8,1.76l-0.67,2Z" transform="translate(-274.81 -275.35)" fill="#709dc9" stroke="#5d2e66" stroke-miterlimit="10" stroke-width="3"/><g opacity="0.2"><path d="M511.79,392.86a1.5,1.5,0,0,1-1.41-2,91.58,91.58,0,0,1,7.88-15.61,1.5,1.5,0,0,1,2.55,1.57,90.55,90.55,0,0,0-7.61,15A1.5,1.5,0,0,1,511.79,392.86Zm167.81,0a1.5,1.5,0,0,1-1.43-1.06,82.91,82.91,0,0,0-5.92-13.31,1.5,1.5,0,0,1,2.64-1.43A84.2,84.2,0,0,1,681,390.91,1.5,1.5,0,0,1,679.6,392.86Zm-15.43-27.91a1.5,1.5,0,0,1-1.18-.57,89.9,89.9,0,0,0-11.57-12.23,1.5,1.5,0,0,1,2-2.26,93,93,0,0,1,12,12.64A1.5,1.5,0,0,1,664.17,364.95Zm-134.53-1.26a1.5,1.5,0,0,1-1.14-2.48A98.76,98.76,0,0,1,541,349.07a1.5,1.5,0,1,1,1.89,2.33,95.74,95.74,0,0,0-12.06,11.77A1.5,1.5,0,0,1,529.64,363.69Zm108.78-21a1.49,1.49,0,0,1-.73-0.19A77.91,77.91,0,0,0,622.25,336a1.5,1.5,0,0,1,.86-2.87,80.92,80.92,0,0,1,16,6.76A1.5,1.5,0,0,1,638.42,342.67Zm-82.27-.4a1.5,1.5,0,0,1-.7-2.83,85,85,0,0,1,16.13-6.51,1.5,1.5,0,1,1,.83,2.88,82,82,0,0,0-15.56,6.28A1.49,1.49,0,0,1,556.15,342.27Zm49.75-9.45h-0.14c-2.81-.26-5.74-0.41-8.61-0.38s-5.53.12-8.21,0.35a1.5,1.5,0,0,1-.26-3c2.77-.24,5.62-0.36,8.47-0.36h0c3,0,6,.13,8.87.4A1.5,1.5,0,0,1,605.9,332.82Z" transform="translate(-274.81 -275.35)" fill="#5d2e66"/></g><g opacity="0.5"><path d="M907.44,309.67a2.07,2.07,0,0,0-2.93-.16l-6,5.36a2.07,2.07,0,0,0,2.77,3.08l6-5.36A2.07,2.07,0,0,0,907.44,309.67Z" transform="translate(-274.81 -275.35)" fill="#7e3d8e"/></g><g opacity="0.5"><path d="M881.92,300.38a2.07,2.07,0,0,0-4.14-.22l-0.43,8a2.07,2.07,0,1,0,4.14.22Z" transform="translate(-274.81 -275.35)" fill="#7e3d8e"/></g><g opacity="0.5"><path d="M914,336l-8-.43a2.07,2.07,0,1,0-.22,4.14l8,0.43A2.07,2.07,0,0,0,914,336Z" transform="translate(-274.81 -275.35)" fill="#7e3d8e"/></g><g opacity="0.5"><path d="M460.52,276a2.07,2.07,0,0,0-2.78.94l-3.56,7.18a2.07,2.07,0,0,0,3.72,1.84l3.56-7.18A2.07,2.07,0,0,0,460.52,276Z" transform="translate(-274.81 -275.35)" fill="#7e3d8e"/></g><g opacity="0.5"><path d="M433.36,276.76a2.07,2.07,0,0,0-3.93,1.32l2.56,7.6a2.07,2.07,0,1,0,3.93-1.33Z" transform="translate(-274.81 -275.35)" fill="#7e3d8e"/></g><g opacity="0.5"><path d="M476.32,298.06l-7.6,2.56a2.07,2.07,0,0,0,1.32,3.93l7.6-2.56A2.07,2.07,0,0,0,476.32,298.06Z" transform="translate(-274.81 -275.35)" fill="#7e3d8e"/></g></svg>