<svg xmlns="http://www.w3.org/2000/svg" viewBox="0 0 332.42 310.64"><title>tutorial-user</title><circle cx="166.77" cy="155.61" r="107.33" fill="#5d2e66" opacity="0.05"/><circle cx="167.37" cy="155.46" r="96.72" fill="#5d2e66" opacity="0.1"/><rect x="70.41" y="100.52" width="142.33" height="100.07" rx="11.16" ry="11.16" transform="translate(-30.17 35.6) rotate(-12.96)" fill="#fff" stroke="#5d2e66" stroke-linejoin="round" stroke-width="3"/><path d="M171.16,233.67a7.24,7.24,0,0,0-14.22,2h0a4.56,4.56,0,0,0,0,9.13h13A5.64,5.64,0,0,0,171.16,233.67Z" fill="none" opacity="0.1"/><path d="M172.25,233.56a7.24,7.24,0,0,0-14.22,2h0a4.56,4.56,0,0,0,0,9.13h13A5.64,5.64,0,0,0,172.25,233.56Z" fill="#5d2e66" opacity="0.1"/><path d="M172.25,233.56a7.24,7.24,0,0,0-14.22,2h0a4.56,4.56,0,0,0,0,9.13h13A5.64,5.64,0,0,0,172.25,233.56Z" fill="none" stroke="#5d2e66" stroke-miterlimit="10" stroke-width="3"/><polyline points="133.09 127.33 118.98 178.18 106.15 162.85 89.98 171.68 102.17 133.6" fill="#5d2e66" opacity="0.1"/><rect x="63.12" y="112.51" width="142.33" height="12.76" transform="translate(-23.25 33.16) rotate(-12.96)" fill="#5d2e66" opacity="0.1"/><polyline points="140.17 126.35 173.52 167.24 179.11 148.04 197.47 149.63 171 119.66" fill="#5d2e66" opacity="0.1"/><rect x="130.27" y="112.12" width="27.27" height="87.02" transform="translate(-31.25 36.25) rotate(-12.96)" fill="#ffe576" stroke="#5d2e66" stroke-miterlimit="10" stroke-width="3"/><path d="M232.71,17.22a2.07,2.07,0,0,0-2.78.92l-3.6,7.17A2.07,2.07,0,0,0,230,27.17l3.6-7.17A2.07,2.07,0,0,0,232.71,17.22Z" fill="#7e3d8e" opacity="0.5"/><path d="M205.56,17.87a2.07,2.07,0,0,0-3.94,1.3l2.52,7.61a2.07,2.07,0,1,0,3.94-1.3Z" fill="#7e3d8e" opacity="0.5"/><path d="M248.41,39.39l-7.61,2.52a2.07,2.07,0,0,0,1.3,3.94l7.61-2.52A2.07,2.07,0,0,0,248.41,39.39Z" fill="#7e3d8e" opacity="0.5"/><path d="M233.17,212H152.06c-15.82,0-15.82,15.82-15.82,15.82v12.68" fill="none" stroke="#5d2e66" stroke-linecap="round" stroke-linejoin="round" stroke-width="3"/><polyline points="129.84 114.22 115.73 165.06 102.9 149.73 86.73 158.56 98.92 120.48" fill="#ffe576" stroke="#5d2e66" stroke-miterlimit="10" stroke-width="3"/><polyline points="137.12 111.87 170.48 152.76 176.06 133.56 194.42 135.15 167.95 105.18" fill="#ffe576" stroke="#5d2e66" stroke-miterlimit="10" stroke-width="3"/><rect x="43.73" y="76.15" width="172.23" height="36.79" rx="7.44" ry="7.44" transform="translate(-17.9 31.54) rotate(-12.96)" fill="#fff" stroke="#5d2e66" stroke-linejoin="round" stroke-width="3"/><rect x="110.57" y="76.15" width="38.54" height="36.73" transform="translate(-17.89 31.54) rotate(-12.96)" fill="#ffe576" stroke="#5d2e66" stroke-miterlimit="10" stroke-width="3"/><line x1="14.08" y1="52.23" x2="17.18" y2="65.7" fill="#fea0a2" stroke="#5d2e66" stroke-linecap="round" stroke-miterlimit="10" stroke-width="3"/><line x1="22.71" y1="57.33" x2="9.24" y2="60.43" fill="#fea0a2" stroke="#5d2e66" stroke-linecap="round" stroke-miterlimit="10" stroke-width="3"/><line x1="34.75" y1="33.08" x2="36.43" y2="40.38" fill="#fea0a2" stroke="#5d2e66" stroke-linecap="round" stroke-miterlimit="10" stroke-width="3"/><ellipse cx="144.64" cy="50.83" rx="28.42" ry="13.08" transform="translate(6.42 117.16) rotate(-45)" fill="#ffe576" stroke="#5d2e66" stroke-miterlimit="10" stroke-width="3"/><ellipse cx="97.28" cy="60.1" rx="13.08" ry="28.42" transform="translate(8.79 132.53) rotate(-71.01)" fill="#ffe576" stroke="#5d2e66" stroke-miterlimit="10" stroke-width="3"/><line x1="39.43" y1="35.85" x2="32.13" y2="37.53" fill="#fea0a2" stroke="#5d2e66" stroke-linecap="round" stroke-miterlimit="10" stroke-width="3"/><circle cx="5.4" cy="38.21" r="3.9" transform="translate(-8.43 2.19) rotate(-12.96)" fill="#fea0a2" stroke="#5d2e66" stroke-linecap="round" stroke-miterlimit="10" stroke-width="3"/><circle cx="43.76" cy="71.37" r="3.9" transform="translate(-14.9 11.64) rotate(-12.96)" fill="#fea0a2" stroke="#5d2e66" stroke-linecap="round" stroke-miterlimit="10" stroke-width="3"/><circle cx="21.9" cy="78.43" r="1.97" transform="translate(-17.04 6.91) rotate(-12.96)" fill="#5d2e66" stroke="#5d2e66" stroke-linecap="round" stroke-miterlimit="10" stroke-width="3"/><circle cx="32.29" cy="53.67" r="1.97" transform="translate(-11.22 8.61) rotate(-12.96)" fill="#5d2e66" stroke="#5d2e66" stroke-linecap="round" stroke-miterlimit="10" stroke-width="3"/><circle cx="124.15" cy="70.05" r="6.14" fill="#ffe576" stroke="#5d2e66" stroke-miterlimit="10" stroke-width="3"/><path d="M215.45,74.23c-0.07-.64-0.14-1.28-0.17-1.92A23.43,23.43,0,0,1,221.19,56a19.13,19.13,0,0,0-24.57-6.65A8.07,8.07,0,0,1,192.68,57a7.31,7.31,0,0,1-6.27,5.43,19,19,0,0,0-.45,4.09A19.17,19.17,0,0,0,215,83,9,9,0,0,1,215.45,74.23Z" fill="#5d2e66" opacity="0.1"/><circle cx="210.13" cy="60.68" r="19.19" fill="#fff" stroke="#5d2e66" stroke-linecap="round" stroke-linejoin="round" stroke-width="3"/><polyline points="201.86 64.31 207.74 68.05 217.59 52.94" fill="none" stroke="#a054b2" stroke-linecap="round" stroke-linejoin="round" stroke-width="3"/></svg>