<svg xmlns="http://www.w3.org/2000/svg" viewBox="0 0 332.42 310.64"><title>tutorial-user</title><circle cx="166.08" cy="156.81" r="107.33" fill="#5d2e66" opacity="0.05"/><circle cx="166.67" cy="156.66" r="96.72" fill="#5d2e66" opacity="0.1"/><path d="M257,213.55H69.79a11.17,11.17,0,0,1-11.14-11.14V184.47H268.1v17.94A11.17,11.17,0,0,1,257,213.55Z" fill="#fff"/><path d="M134.52,244.34c10.44,0,8.1-43.64,8.1-43.64a3.07,3.07,0,0,1,2.94-3.18h37.33a3.07,3.07,0,0,1,2.94,3.18s-1.45,43.55,7.48,43.64H134.52Z" fill="#fff" stroke="#5d2e66" stroke-miterlimit="10" stroke-width="3"/><line x1="119.91" y1="244.34" x2="208.53" y2="244.34" fill="#fff" stroke="#5d2e66" stroke-linecap="round" stroke-miterlimit="10" stroke-width="3"/><path d="M257,213.55H69.79a11.17,11.17,0,0,1-11.14-11.14V184.47H268.1v17.94A11.17,11.17,0,0,1,257,213.55Z" fill="#f2f2f2"/><rect x="58.65" y="75.44" width="209.44" height="138.12" rx="11.56" ry="11.56" fill="#fff" stroke="#5d2e66" stroke-miterlimit="10" stroke-width="3"/><rect x="70.94" y="117.33" width="38.74" height="54.62" rx="3.13" ry="3.13" fill="#5d2e66" opacity="0.1"/><rect x="118.43" y="117.33" width="38.74" height="54.62" rx="3.13" ry="3.13" fill="#5d2e66" opacity="0.1"/><rect x="166.08" y="117.33" width="38.74" height="54.62" rx="3.13" ry="3.13" fill="#5d2e66" opacity="0.1"/><rect x="212.85" y="117.33" width="38.74" height="54.62" rx="3.13" ry="3.13" fill="#5d2e66" opacity="0.1"/><rect x="74.99" y="112.39" width="38.74" height="54.62" rx="3.13" ry="3.13" fill="#fff" stroke="#5d2e66" stroke-miterlimit="10" stroke-width="3"/><rect x="122.32" y="112.39" width="38.74" height="54.62" rx="3.13" ry="3.13" fill="#fff" stroke="#5d2e66" stroke-miterlimit="10" stroke-width="3"/><rect x="74.99" y="112.39" width="38.74" height="54.62" rx="3.13" ry="3.13" fill="#fea0a2" stroke="#5d2e66" stroke-miterlimit="10" stroke-width="3"/><path d="M257,213.55H69.79a11.17,11.17,0,0,1-11.14-11.14V187.56H268.1v14.85A11.17,11.17,0,0,1,257,213.55Z" fill="#f2f2f2" stroke="#5d2e66" stroke-linecap="round" stroke-miterlimit="10" stroke-width="3"/><rect x="170.16" y="112.39" width="38.74" height="54.62" rx="3.13" ry="3.13" fill="#fff" stroke="#5d2e66" stroke-miterlimit="10" stroke-width="3"/><rect x="122.32" y="112.39" width="38.74" height="54.62" rx="3.13" ry="3.13" fill="#fea0a2" stroke="#5d2e66" stroke-miterlimit="10" stroke-width="3"/><circle cx="164.22" cy="200.61" r="6.92" fill="#5d2e66" opacity="0.1"/><rect x="170.16" y="112.39" width="38.74" height="54.62" rx="3.13" ry="3.13" fill="#fea0a2" stroke="#5d2e66" stroke-miterlimit="10" stroke-width="3"/><circle cx="164.22" cy="200.51" r="6.92" fill="none" stroke="#5d2e66" stroke-miterlimit="10" stroke-width="3"/><rect x="74.99" y="136.05" width="38.74" height="30.96" rx="2" ry="2" fill="#f2f2f2" stroke="#5d2e66" stroke-miterlimit="10" stroke-width="3"/><rect x="122.57" y="136.05" width="38.74" height="30.96" rx="2" ry="2" fill="#f2f2f2" stroke="#5d2e66" stroke-miterlimit="10" stroke-width="3"/><rect x="170.57" y="136.05" width="37.96" height="30.96" rx="1.98" ry="1.98" fill="#f2f2f2" stroke="#5d2e66" stroke-miterlimit="10" stroke-width="2.97"/><line x1="221.15" y1="91.51" x2="200.26" y2="91.51" fill="#7e3d8e" stroke="#5d2e66" stroke-linecap="round" stroke-miterlimit="10" stroke-width="3" opacity="0.5"/><line x1="199.97" y1="146.35" x2="179.09" y2="146.35" fill="#7e3d8e" stroke="#5d2e66" stroke-linecap="round" stroke-miterlimit="10" stroke-width="3" opacity="0.5"/><line x1="199.97" y1="155.31" x2="179.09" y2="155.31" fill="#7e3d8e" stroke="#5d2e66" stroke-linecap="round" stroke-miterlimit="10" stroke-width="3" opacity="0.5"/><line x1="152.14" y1="146.35" x2="131.25" y2="146.35" fill="#7e3d8e" stroke="#5d2e66" stroke-linecap="round" stroke-miterlimit="10" stroke-width="3" opacity="0.5"/><line x1="152.14" y1="155.31" x2="131.25" y2="155.31" fill="#7e3d8e" stroke="#5d2e66" stroke-linecap="round" stroke-miterlimit="10" stroke-width="3" opacity="0.5"/><line x1="104.8" y1="146.35" x2="83.91" y2="146.35" fill="#7e3d8e" stroke="#5d2e66" stroke-linecap="round" stroke-miterlimit="10" stroke-width="3" opacity="0.5"/><line x1="104.8" y1="155.31" x2="83.91" y2="155.31" fill="#7e3d8e" stroke="#5d2e66" stroke-linecap="round" stroke-miterlimit="10" stroke-width="3" opacity="0.5"/><line x1="74.99" y1="136.05" x2="113.73" y2="136.05" fill="#fff" stroke="#5d2e66" stroke-miterlimit="10" stroke-width="3"/><line x1="121.73" y1="136.05" x2="160.47" y2="136.05" fill="#fff" stroke="#5d2e66" stroke-miterlimit="10" stroke-width="3"/><line x1="171.03" y1="136.05" x2="209.77" y2="136.05" fill="#fff" stroke="#5d2e66" stroke-miterlimit="10" stroke-width="3"/><path d="M89.39,92.47a6.72,6.72,0,0,0-13.2,1.88h0a4.24,4.24,0,0,0,0,8.47H88.27A5.24,5.24,0,0,0,89.39,92.47Z" fill="none" opacity="0.1"/><path d="M90.4,92.36a6.72,6.72,0,0,0-13.2,1.88h0a4.24,4.24,0,0,0,0,8.47H89.28A5.24,5.24,0,0,0,90.4,92.36Z" fill="#5d2e66" opacity="0.1"/><path d="M90.4,92.36a6.72,6.72,0,0,0-13.2,1.88h0a4.24,4.24,0,0,0,0,8.47H89.28A5.24,5.24,0,0,0,90.4,92.36Z" fill="none" stroke="#5d2e66" stroke-miterlimit="10" stroke-width="3"/><path d="M166,0a3.11,3.11,0,0,0-3.1,3.12l0,12a3.11,3.11,0,0,0,6.22,0l0-12A3.11,3.11,0,0,0,166,0Z" fill="#7e3d8e" opacity="0.5"/><path d="M130.13,19.22a3.11,3.11,0,0,0-4.39,4.41l8.52,8.48a3.11,3.11,0,1,0,4.39-4.41Z" fill="#7e3d8e" opacity="0.5"/><path d="M202,19.07l-8.48,8.52A3.11,3.11,0,0,0,197.94,32l8.48-8.52A3.11,3.11,0,0,0,202,19.07Z" fill="#7e3d8e" opacity="0.5"/><polygon points="141.94 222.71 185.45 222.71 185.45 213.55 142.82 213.55 141.94 222.71" fill="#5d2e66" opacity="0.1"/></svg>