<svg xmlns="http://www.w3.org/2000/svg" viewBox="0 0 332.42 310.64"><title>tutorial-user</title><g opacity="0.05"><circle cx="163.75" cy="156.18" r="107.33" fill="#5d2e66"/></g><g opacity="0.1"><circle cx="164.34" cy="156.03" r="96.72" fill="#5d2e66"/></g><path d="M93.21,216.17h96.25c15.82,0,15.82,15.82,15.82,15.82v7" fill="none" stroke="#5d2e66" stroke-linecap="round" stroke-linejoin="round" stroke-width="3"/><path d="M314,42.77a2.07,2.07,0,0,0-2.78.92l-3.6,7.17a2.07,2.07,0,0,0,3.71,1.86l3.6-7.17A2.07,2.07,0,0,0,314,42.77Z" fill="#7e3d8e" opacity="0.5"/><path d="M286.84,43.43a2.07,2.07,0,0,0-3.94,1.3l2.52,7.61a2.07,2.07,0,1,0,3.94-1.3Z" fill="#7e3d8e" opacity="0.5"/><path d="M329.69,64.95l-7.61,2.52a2.07,2.07,0,0,0,1.3,3.94L331,68.88A2.07,2.07,0,0,0,329.69,64.95Z" fill="#7e3d8e" opacity="0.5"/><circle cx="147.86" cy="229.17" r="4.01" transform="translate(-123.59 202.81) rotate(-51.62)" fill="#fea0a2" stroke="#5d2e66" stroke-miterlimit="10" stroke-width="3"/><path d="M287.58,157.9l-19-89.85a9.26,9.26,0,0,0-10.94-7.12L112.05,91.72a9.26,9.26,0,0,0-7.12,10.94l19,89.85a9.26,9.26,0,0,0,10.94,7.12l27.22-5.84s5.53,13.57-1.25,25.17,27.55,0.44,30.55-31.28l89.06-18.84A9.26,9.26,0,0,0,287.58,157.9Z" fill="#fff" stroke="#5d2e66" stroke-linejoin="round" stroke-width="3"/><path d="M274.33,100.69L168.51,123a4.75,4.75,0,0,1-5.62-3.66l-2.11-10a4.75,4.75,0,0,1,3.66-5.62L270.27,81.37C272.82,80.83,276.88,100.15,274.33,100.69Z" fill="#5d2e66" opacity="0.1"/><rect x="166.27" y="82.56" width="136.74" height="19.75" rx="5.11" ry="5.11" transform="translate(-14.01 50.3) rotate(-11.88)" fill="#709dc9" stroke="#5d2e66" stroke-miterlimit="10" stroke-width="3"/><rect x="122.31" y="108.87" width="24.05" height="20.85" rx="2.18" ry="2.18" transform="translate(-21.69 30.22) rotate(-11.88)" fill="#5d2e66" opacity="0.1"/><rect x="126.54" y="102.22" width="24.05" height="20.85" rx="2.18" ry="2.18" transform="translate(-20.23 30.95) rotate(-11.88)" fill="#fff" stroke="#5d2e66" stroke-miterlimit="10" stroke-width="3"/><rect x="156.5" y="121.46" width="104.55" height="15.1" rx="3.9" ry="3.9" transform="translate(-22.09 45.76) rotate(-11.88)" fill="#f2f2f2" stroke="#5d2e66" stroke-miterlimit="10" stroke-width="3"/><rect x="126.12" y="136.49" width="18.39" height="15.94" rx="1.67" ry="1.67" transform="translate(-26.85 30.96) rotate(-11.88)" fill="#fff" stroke="#5d2e66" stroke-miterlimit="10" stroke-width="3"/><rect x="162.21" y="148.63" width="104.55" height="15.1" rx="3.9" ry="3.9" transform="translate(-27.57 47.52) rotate(-11.88)" fill="#f2f2f2" stroke="#5d2e66" stroke-miterlimit="10" stroke-width="3"/><rect x="131.84" y="163.67" width="18.39" height="15.94" rx="1.67" ry="1.67" transform="translate(-32.32 32.72) rotate(-11.88)" fill="#fff" stroke="#5d2e66" stroke-miterlimit="10" stroke-width="3"/><polyline points="133.3 111.26 139.85 115.43 150.83 98.59" fill="none" stroke="#a054b2" stroke-linecap="round" stroke-linejoin="round" stroke-width="3"/><polygon points="289.29 85.19 299.51 107.02 304 101.01 309.94 105.45 314.33 99.57 308.38 95.14 313.12 88.79 289.29 85.19" fill="#fff" stroke="#5d2e66" stroke-linecap="round" stroke-linejoin="round" stroke-width="3"/><line x1="185.31" y1="237.27" x2="162.81" y2="237.27" fill="#7e3d8e" stroke="#5d2e66" stroke-linecap="round" stroke-miterlimit="10" stroke-width="3" opacity="0.5"/><line x1="147.28" y1="237.27" x2="124.78" y2="237.27" fill="#7e3d8e" stroke="#5d2e66" stroke-linecap="round" stroke-miterlimit="10" stroke-width="3" opacity="0.5"/></svg>